<?xml version="1.0" ?><!DOCTYPE svg  PUBLIC '-//W3C//DTD SVG 1.1//EN'  'http://www.w3.org/Graphics/SVG/1.1/DTD/svg11.dtd'><svg enable_background="new 0 0 1000 828" height="828px" style="stroke-linejoin: round; stroke:#000; fill: none;" version="1.1" viewBox="0 0 1000 828" width="1000px" xmlns="http://www.w3.org/2000/svg" xmlns:xlink="http://www.w3.org/1999/xlink"><defs><style type="text/css"><![CDATA[path { fill-rule: evenodd; }]]></style></defs><metadata><views><view h="828.558053898" padding="0" w="1000"><proj flip="auto" id="robinson" lon0="17.9557952413"/><bbox h="43.94" w="53.1" x="208.78" y="-757.84"/></view></views></metadata><g class="" id="bih"><path d="M748.615780,826.558054L751.735048,826.422992L755.509956,826.261150L757.812348,822.913796L761.609984,817.393055L763.934999,817.998429L767.604397,818.939097L771.534583,819.348898L773.856740,818.678317L774.203465,818.504852L774.905197,818.153266L775.900791,817.653831L775.775983,814.971612L775.955904,814.763232L775.741893,814.973940L766.998607,810.506130L767.893161,805.422851L768.345548,804.999164L770.271736,803.197356L775.050950,802.166108L776.300874,801.963585L778.373155,801.628375L780.586302,799.939547L772.637297,792.501477L771.702296,789.253443L771.930147,785.317813L772.425910,783.279090L772.887527,781.381217L774.145093,779.346086L775.622913,776.954961L772.483016,776.370862L771.064179,776.106739L767.790020,775.803057L762.859092,774.740760L759.740939,772.978053L758.010289,770.869835L757.572550,770.336971L754.787547,768.000789L754.039539,767.656418L751.239993,766.366199L748.993695,755.364645L748.968014,755.241340L752.607070,753.267329L753.844466,750.098765L751.766052,745.344963L750.220111,741.336932L750.783276,737.821030L751.466832,733.548156L749.233261,729.260350L748.246953,725.792560L750.666955,724.355241L749.544079,720.220155L746.249567,715.436402L745.523470,712.873683L746.198698,701.558428L748.757288,696.236040L751.726701,692.421692L752.346859,688.562125L754.317715,685.898860L758.523408,683.021761L759.029809,682.676513L759.708283,682.211534L761.831039,682.298718L774.981472,682.836931L784.186927,683.214728L791.677598,682.664889L786.020163,664.378485L784.856712,659.244717L783.267699,652.231828L782.786012,646.159428L783.624664,640.495150L783.540497,635.498090L785.528502,631.273935L788.050426,627.300873L791.285006,624.966343L795.919692,622.058967L793.114832,616.226901L790.224827,615.433268L789.768272,613.186013L789.682495,612.763057L791.949103,610.374069L795.648092,608.700862L798.942719,606.020267L802.701419,603.008554L806.695551,601.042592L812.599001,598.893064L817.004589,596.937588L821.837914,594.858965L825.339971,592.936049L821.231361,586.623620L825.358485,584.899429L829.131885,583.816585L833.347065,583.534256L836.760543,583.161304L839.575837,582.453741L842.458445,581.832155L847.377767,586.678228L851.416297,590.419428L854.646181,592.644417L855.862249,594.671902L855.586312,596.822560L854.646512,600.032893L854.642481,600.046835L854.658104,600.102607L855.302948,602.457804L859.061232,603.938091L862.498824,606.349095L864.438674,609.783798L864.772212,610.375231L867.394350,613.260379L870.985359,616.135104L874.154895,613.367280L874.162322,613.332421L874.717887,610.496074L874.826980,607.385543L878.846827,607.784088L885.009226,608.055983L884.839223,597.345413L883.572132,595.768724L879.223643,590.354364L876.234103,584.260411L876.250564,578.783495L873.949788,572.472471L869.065488,567.412794L867.081759,564.090049L865.986546,558.880582L859.339096,555.528839L854.793906,553.191342L854.514083,553.047281L851.746705,549.493416L850.990496,547.541642L850.428822,546.091755L851.191778,542.474017L849.302583,541.020651L849.188007,537.688718L849.162422,536.935897L847.305274,537.210073L845.719627,537.442425L843.814728,539.050302L841.422952,541.623606L840.372223,539.058434L841.735418,535.777622L844.805260,533.205487L844.877611,533.145076L849.102926,531.371070L853.997747,531.516290L854.695651,529.771329L855.261496,528.355146L855.083513,525.971218L854.952755,523.309629L860.891738,522.602117L861.198200,523.239923L862.901043,526.786772L869.165713,526.075776L870.252605,526.757728L873.543677,528.824496L874.505743,532.136669L874.532486,532.229610L879.215727,535.115419L883.071774,532.881356L883.410301,532.685019L884.024821,532.328359L890.796582,533.010312L894.600673,530.877323L898.514126,529.049877L903.734735,532.616475L905.831348,530.974910L907.327696,529.802696L913.032616,533.900219L918.086767,535.515065L919.834794,532.961518L921.218711,530.114048L921.330363,525.579705L921.323818,525.487926L921.042595,521.461270L920.310005,516.110199L921.882035,512.163687L926.320986,511.161083L926.764237,511.228465L927.431624,511.330701L932.802833,512.152069L938.870849,512.204349L943.279242,510.415228L945.527614,508.319398L947.807726,509.865712L947.763832,513.985334L948.144968,520.404068L952.783521,522.085135L956.621822,517.403240L957.266299,521.312565L959.758401,526.892492L967.183396,526.667111L967.069838,523.508289L967.753722,520.944287L967.620618,519.876629L967.271053,517.068653L971.091053,517.024506L974.676880,516.982683L979.719975,520.607376L983.899818,518.280370L981.849083,516.355331L978.311345,513.045467L978.396447,510.184037L978.431323,509.010651L979.294135,506.744037L979.786688,505.448661L979.975292,502.921800L977.457494,499.401608L979.691003,498.374592L982.051775,496.590089L985.080366,489.532190L982.221443,481.806148L982.377213,474.710849L980.276336,473.555977L977.338790,471.942171L973.999142,470.316739L972.144318,467.717659L971.519353,466.813727L968.980278,463.136396L965.852559,458.344761L963.712717,457.400135L960.786330,456.216153L957.495941,451.394190L953.979155,450.304299L951.406011,448.983176L949.052637,447.189135L947.543808,446.039965L944.875593,441.419992L942.260918,437.452970L939.138334,432.598094L937.904440,430.813219L935.569988,427.437485L931.153998,424.807743L929.850092,423.971053L926.400906,421.756129L921.550932,417.328527L918.383297,413.180893L917.554001,409.800191L915.012474,405.849949L911.993493,402.730596L910.743729,399.406629L909.398856,396.063995L909.179508,395.518892L906.207937,392.123869L903.942236,388.448648L904.491099,387.652454L906.134308,385.265008L908.500057,385.692752L911.739464,386.277411L916.769800,388.245241L922.943675,389.308765L926.955223,391.925116L931.710505,393.553484L935.175949,395.984961L942.369178,397.835274L949.123617,398.388505L957.166065,399.138152L962.950742,400.062130L969.367314,400.192300L975.316242,400.155109L976.968839,398.718582L979.596914,394.990059L983.477635,393.095544L985.889903,390.607067L987.530365,387.812855L991.481035,386.004260L995.120328,384.558297L999.269868,382.078971L999.299766,381.459423L999.395813,379.465923L999.116629,378.405812L998.600077,376.443653L998.940687,372.590157L998.146447,372.296055L995.833514,371.436993L994.697411,369.415442L992.948252,367.680998L992.228328,366.967218L989.453012,367.240408L988.911560,368.036723L988.562585,368.549385L988.671229,370.784845L989.151676,372.313492L987.569925,372.837761L987.538359,372.817999L985.480301,371.542777L982.717932,368.891159L978.993652,366.041856L976.062885,364.355029L971.658955,362.076438L971.480597,361.906705L968.393116,358.965395L966.201922,355.868222L963.901910,352.889556L961.030356,350.361932L959.961891,347.924941L959.929108,347.648219L959.658448,345.365812L958.714322,343.170563L957.739125,343.621709L956.375792,344.251915L952.637169,344.827468L949.566407,344.401908L947.121860,342.749647L944.759542,340.117141L942.160083,337.434569L941.026523,336.460128L939.420177,335.078686L936.217490,333.485586L932.411311,331.554065L931.292795,330.783074L928.855274,329.102690L927.812634,325.531344L926.775807,322.889093L924.422155,320.189783L924.712030,317.677648L924.760073,317.261279L924.113702,313.770914L923.661695,313.271948L921.884749,311.310949L919.915515,308.190247L919.603693,307.695903L916.862066,304.344762L916.734828,304.344762L914.126884,304.349415L911.634812,304.406412L909.327813,303.358356L908.395481,303.301358L905.884731,303.147813L903.052789,304.205177L899.292652,305.359074L896.897999,305.476557L896.205148,305.510289L893.517967,304.742578L891.054059,302.663910L889.906871,300.644520L889.059826,300.306012L886.957660,299.468460L884.005011,299.790686L880.412463,299.980298L876.418814,299.590603L874.251723,297.217500L871.935818,294.023014L871.699925,293.697277L868.629085,290.785364L866.633287,287.376565L866.287402,284.520281L865.057475,281.983864L862.922534,279.905805L862.838208,277.461167L863.074132,275.078126L861.350737,272.512320L860.557381,269.350621L861.482046,265.824541L864.935958,264.028855L867.844116,262.051572L868.920096,257.627812L868.265467,251.704611L866.840806,247.838966L866.705912,247.518857L866.112717,246.113851L865.165430,243.870673L865.021323,243.528428L864.828062,243.068606L863.931300,240.109378L863.280683,237.962637L862.501506,233.729498L861.921663,228.814955L863.852055,226.713271L865.478806,226.702792L867.596223,226.688819L870.741385,226.761011L873.016635,225.581478L873.828875,223.746349L874.719896,221.425583L876.670747,218.749555L876.733856,218.376905L877.114551,216.122329L876.153942,214.251997L875.678235,213.324962L877.319441,210.012684L881.387125,210.060436L883.412689,209.403551L884.509181,207.839345L886.142303,204.597831L886.927051,201.465645L887.792556,197.352443L889.653240,194.728982L890.678154,192.148513L890.792785,189.522495L891.989081,186.405842L893.511974,182.850910L895.599543,178.914714L898.855618,176.434937L900.583268,174.748674L901.157150,174.189295L902.695828,172.499469L903.987199,169.830608L904.898094,167.809648L905.464037,166.554379L906.194970,163.267467L906.254060,160.486261L907.374000,157.852961L907.422800,155.141427L907.654952,152.321334L907.607500,150.163322L907.753171,146.897573L908.698368,144.298589L908.920294,141.550219L908.236871,137.752170L908.384454,135.920098L910.881841,135.001122L912.329398,133.366050L912.325051,131.931530L910.651564,130.510965L911.444452,128.810433L913.645906,127.185661L916.898423,124.775816L916.655315,122.789298L913.215931,121.433802L912.142078,118.916353L913.536256,117.126764L912.289446,115.648612L909.864681,115.649778L908.173347,116.735939L907.777530,115.148107L907.457701,115.107273L905.080704,114.806267L900.499232,112.787847L896.441387,111.124046L895.417980,110.736673L891.509804,110.148608L888.648245,109.774062L885.227147,108.784595L881.246899,108.111325L878.428262,108.968954L875.985956,110.547653L873.892063,111.686431L873.685733,111.798441L870.448184,110.706337L869.612313,108.742588L868.257054,106.386685L865.319194,104.994559L864.944198,104.994559L864.677841,104.994559L862.146261,104.994559L859.681629,106.714581L856.857542,109.077470L854.016869,110.576823L850.125792,111.362069L849.524778,112.127467L847.890461,114.205416L845.268868,115.893612L842.980432,116.923768L842.197778,117.276093L839.309813,119.557976L836.258253,121.805926L829.900848,123.885801L827.608068,124.589182L824.272336,125.612160L819.277089,126.537137L813.457085,126.437991L811.339866,126.414663L807.461472,126.372672L799.909203,126.252530L799.727847,126.250198L792.949649,125.890938L787.289167,125.327548L782.631017,123.750489L781.621076,123.030764L778.157866,120.562392L774.928137,117.908405L773.498212,117.055599L771.133465,115.643945L768.443753,114.751432L765.029335,112.205640L760.769457,109.707554L759.363998,107.378536L758.999526,106.775259L759.665587,104.161364L759.712925,103.975819L758.428166,101.641855L755.762610,100.607872L756.442851,98.893464L756.763320,98.084672L758.956730,98.724237L759.866196,98.989165L761.271123,99.508511L763.250010,100.239087L764.762565,100.356958L766.217525,100.470161L768.349047,99.175896L766.605993,96.102897L764.363457,93.503586L762.813379,91.258982L762.405121,89.871079L762.118793,88.898705L763.199944,86.387713L764.952989,84.873580L766.027107,83.441660L763.254177,82.029010L763.179996,82.040685L760.172079,82.490169L756.578419,81.989315L753.391095,81.066982L751.440240,81.753480L750.363853,82.003325L749.971740,82.095557L749.443329,82.218144L748.416693,81.871398L747.409700,80.379307L747.958489,78.552072L748.763038,76.704914L748.795321,74.485192L746.921098,72.678743L744.641543,70.791646L743.091098,69.660052L741.807442,68.722292L738.790042,68.268002L736.777078,67.294010L736.431618,66.962334L734.612587,65.216325L732.054738,62.984375L730.696680,60.563098L732.320623,58.804002L733.717185,57.429152L734.499564,55.720171L733.115576,51.929354L732.542928,51.887297L729.645004,51.672338L727.855953,52.395483L727.407761,52.752962L726.125105,53.773983L725.848437,54.907127L725.623529,55.829977L726.604928,57.453682L727.199590,58.437223L727.447411,59.072660L727.946769,60.352851L728.200161,61.002277L727.719388,62.414399L726.032852,62.511342L723.124176,62.074512L723.013664,62.058160L720.161450,62.142256L717.075591,62.107216L715.429660,60.921683L714.763358,59.440601L714.756160,59.424248L715.407523,58.854229L716.899086,57.550636L717.586650,56.735287L718.143967,56.074121L719.921022,54.917641L721.119140,53.719077L720.722821,52.062534L718.151148,52.257631L718.098155,52.261135L717.026540,53.196887L716.210605,54.296167L715.631747,55.076512L714.783129,55.345191L713.957666,55.606859L713.014200,55.271597L710.798135,54.483077L708.750181,51.821875L708.520747,51.522801L707.858800,51.498268L706.778878,51.457379L705.365553,51.403639L704.341035,52.567213L705.999895,54.184021L707.698794,55.579992L708.064589,55.881376L708.789961,58.608932L707.536076,59.879791L707.485883,59.930018L705.216834,58.479275L705.103781,58.266682L703.553953,55.353368L700.304866,52.202723L698.021622,51.909493L697.110945,51.792668L695.707155,52.375623L695.587835,52.424689L695.767516,52.969084L695.952117,53.530996L696.093252,53.959727L696.237371,54.063697L698.410382,55.636063L699.047403,56.089306L700.358659,57.022647L700.691304,57.904572L700.826025,58.262010L700.044898,59.472139L698.661150,61.004613L698.615337,61.056006L697.951926,63.078981L697.779610,65.699841L696.590907,66.328172L695.255119,64.319353L694.778546,63.603398L693.440366,62.246208L693.201307,62.003264L690.337308,62.289424L689.804074,62.341983L687.055561,62.304608L686.661020,62.200656L682.888498,61.203177L679.411883,58.443064L678.771590,57.957136L677.693338,57.138291L675.831689,55.723675L675.467343,55.446821L672.180682,52.509970L670.870692,49.241137L665.917680,46.265348L662.223956,46.657924L659.755517,46.920808L658.523615,47.051666L649.742308,48.145246L642.090587,47.951301L641.829371,47.531863L640.362435,45.178736L639.442183,44.999968L636.471946,44.425103L632.520038,44.592189L631.893697,43.808167L630.934126,42.606989L630.081283,41.540159L627.648002,37.410500L622.942111,37.579947L620.061496,38.074260L619.594610,38.153724L619.134607,38.588435L616.250693,41.314638L616.294316,42.789271L616.329742,43.984602L617.564561,45.897304L618.074029,46.685965L618.348194,49.681590L616.686946,53.309036L614.917739,54.584710L612.916587,56.026227L608.150020,57.055354L607.992124,57.089230L604.963958,55.821800L602.670157,54.862736L601.465367,54.358081L601.338847,54.305513L595.051182,54.988899L594.885649,55.006422L590.536747,54.296167L589.759581,54.168834L587.584117,51.027457L584.960852,48.590382L582.473359,47.440731L582.014436,47.229257L580.993273,46.757236L580.678157,45.376197L580.547982,44.807179L580.770078,44.293070L581.464237,42.684109L578.993119,39.273214L577.401383,37.175610L574.824022,37.114843L572.852722,39.033659L571.233690,41.382411L567.550381,38.242536L564.709508,35.046363L561.614257,34.029621L559.390415,34.897944L556.759941,36.766597L555.518552,38.507803L554.732159,39.610925L553.911566,43.258994L551.370302,45.648436L550.503963,45.918336L547.074510,46.985069L546.489029,49.674580L546.651811,52.930533L545.217907,57.322854L541.270862,60.734799L540.809637,61.040822L540.780802,61.059510L536.809805,63.692163L530.685399,67.199412L526.300549,67.520576L521.252125,66.213718L516.531022,63.318415L512.826896,60.314305L511.935254,59.591281L510.864697,58.951180L507.833972,57.139459L507.048117,56.668704L506.636086,56.583430L504.589788,56.728279L502.108357,56.905834L499.931756,55.486539L499.122571,54.959695L497.709416,54.037996L494.752200,52.110432L491.957066,50.287936L488.517472,48.044768L488.254134,47.883537L487.930452,47.684917L485.260309,46.048027L483.539698,44.432114L482.621498,43.680806L481.718709,42.942341L479.502326,42.671255L479.376452,42.701636L475.556136,43.621215L473.668753,45.080589L472.342548,46.105279L470.218270,48.547153L467.801428,49.947962L465.598992,50.074138L465.454047,50.082316L463.330998,49.825291L463.320902,49.824123L461.017018,48.902325L458.251419,49.043692L457.382222,49.353295L456.245170,49.758698L455.469288,50.035585L454.178320,49.340444L452.886808,48.644125L452.812223,47.985183L452.683011,46.839022L452.649471,46.719848L452.380003,45.764107L452.097388,44.760442L451.045799,45.862253L450.640104,46.287547L450.384608,46.555107L449.418087,48.395270L447.404865,50.641926L444.442201,51.747107L441.000379,51.291486L438.480120,50.763427L435.850739,50.361538L435.046808,50.238868L433.322379,48.627768L433.326634,48.080987L433.338591,46.358819L434.240999,45.077084L434.593640,44.151689L434.819180,43.560456L435.085026,42.861716L434.109092,43.482170L434.068931,43.507876L432.652408,44.408745L430.904480,45.135504L430.486350,45.165883L428.384842,45.318945L427.597970,44.976600L425.610673,44.113131L424.408558,42.298511L424.383306,42.214380L424.378680,42.199190L423.868951,40.511867L424.123137,39.060536L424.077375,37.953896L424.058204,37.488796L423.502386,36.550402L422.985838,35.977774L422.916284,36.082951L421.366813,38.428340L419.965597,41.125340L419.231214,42.432886L416.754974,42.694625L416.196944,42.753049L411.500996,42.325386L406.070713,41.784375L402.092402,40.899816L401.785721,40.751414L398.230672,39.035996L396.461062,37.436209L396.345663,37.332203L396.277520,37.184959L395.835509,36.230199L395.745804,36.036206L395.403949,35.797804L394.052972,34.858209L392.766182,33.979367L392.190042,33.586688L392.045076,33.487350L391.975112,33.481506L391.009232,33.403203L389.982432,33.319057L389.239999,30.261647L389.194786,30.075812L385.438263,29.775435L385.152719,29.752060L381.900680,27.779114L381.259891,27.391060L379.891486,31.303011L378.873879,34.345164L377.964308,37.191971L376.369693,38.727495L371.071777,38.500792L363.877414,38.062575L361.455380,37.808991L359.106862,37.563586L354.724544,36.449901L353.690843,36.186959L352.670435,35.588617L350.906809,34.553187L349.320401,33.621749L346.947424,32.274230L344.239261,30.734997L340.428848,29.104549L336.416107,27.800153L332.514528,26.229220L329.465665,24.452511L329.365167,24.394066L328.919644,24.134567L328.578836,23.852857L326.104543,21.803693L323.114858,19.652740L322.870492,19.477387L321.619053,17.976335L321.184056,17.453762L320.338432,16.558245L319.472336,15.639329L317.693253,16.655279L317.291181,16.842334L315.844846,17.519231L314.157906,17.024711L313.910241,16.952228L313.845415,15.308468L314.124569,14.581268L314.438461,13.762864L314.746089,11.748363L313.470712,11.985712L312.921941,13.548908L312.735474,14.080874L311.969100,14.726242L311.445508,15.168173L309.354862,14.507613L308.666762,12.785438L308.510573,12.393761L307.804836,10.516006L306.639877,8.285059L304.603906,7.133300L304.823028,7.813835L305.467600,9.815630L306.742284,12.560955L306.493140,13.135022L306.069512,14.111272L305.897400,14.507613L305.843472,14.631541L305.634967,14.583607L303.164634,14.023586L300.804843,13.493957L299.508395,13.202834L299.262519,13.220372L296.571764,13.414454L295.661880,13.351319L294.751523,13.288183L293.692236,10.862098L294.069260,8.217240L294.816029,5.271722L296.194068,3.467376L296.570713,2.973888L295.908002,1.454806L295.104284,1.017433L293.677058,0.239742L293.466428,0.125134L293.238285,0.000000L293.167580,0.099405L291.165359,2.894369L289.683186,5.730106L289.613583,5.814299L288.880212,6.699483L288.005882,7.755370L287.950517,7.822020L285.808012,9.854215L285.143679,10.304374L284.002782,11.077235L283.737512,11.257295L281.726204,12.214874L281.452965,12.344655L279.384402,12.966661L278.897553,13.580475L278.222779,14.430449L277.827472,14.476046L275.776167,14.714550L275.032412,14.681814L274.370283,14.652586L273.454930,17.775256L273.432266,17.852415L273.366637,20.683806L273.149052,22.224521L272.992980,23.328008L272.976345,23.345542L271.120157,25.324509L270.823561,25.640108L269.187168,25.977913L267.999411,26.223376L267.589091,26.307535L264.093332,26.297015L259.808546,25.181905L254.009901,23.419185L248.981452,21.489239L245.653866,20.529499L244.544127,20.210360L241.293933,21.022814L238.051701,21.765117L233.322532,21.652896L229.865307,21.159586L226.768542,20.716538L222.099802,19.269300L220.716947,18.443957L219.441153,17.682900L218.169387,16.924170L216.472263,15.911732L214.292387,14.535672L213.389279,14.297167L211.377910,13.765202L208.985159,14.465523L208.907622,14.488906L208.115414,14.720396L207.378602,14.831464L202.787269,15.525924L198.787456,14.819772L195.306838,14.680645L194.285845,14.960068L191.536310,15.710645L190.301715,16.402755L188.704768,17.297106L186.721761,19.504274L185.596213,22.247900L185.262940,23.059152L184.442765,26.849885L183.661893,30.286191L183.064819,32.756910L182.401174,35.075580L180.349453,37.200151L177.834400,38.974062L177.293083,39.296585L174.985551,40.664944L173.577859,41.500430L173.227990,41.736467L170.358037,43.672627L169.208131,44.425103L168.126493,45.133167L166.081437,47.188365L164.595816,49.461948L164.247517,51.965569L164.094604,54.995908L163.638179,58.547024L163.544378,61.015125L163.158499,63.159571L163.145633,63.230817L160.390606,66.531385L156.019873,66.276785L153.852806,67.848744L153.235808,68.297198L152.981321,68.646382L151.780897,70.293001L153.034752,73.373539L153.046669,76.423514L152.524164,77.849180L152.477644,77.976448L152.232117,78.647814L150.258964,80.074578L145.699477,80.076913L139.344968,78.982909L135.417379,79.288812L131.574605,79.169720L130.791137,79.145201L128.424878,78.216973L126.886493,77.614491L125.575566,75.873553L124.930745,74.082338L122.408745,72.813032L118.429354,71.201536L117.628162,69.320218L116.783224,67.077953L115.119207,65.501296L111.450398,64.075252L109.566810,63.036934L108.227308,61.056006L107.983057,60.693917L105.645326,59.237358L102.578117,58.392836L100.446002,58.062265L98.658520,57.785425L94.598562,56.947887L91.230926,54.997077L91.028141,54.797319L87.458313,51.293822L86.265195,48.363725L86.186693,48.091502L85.223024,44.748758L83.785553,40.934872L83.781232,38.522995L82.491428,36.502489L78.352468,33.954825L75.331564,30.988617L74.820852,28.649884L71.178182,27.731192L70.988054,27.332618L69.876257,25.000726L69.706394,22.564688L71.015417,20.328430L71.548090,18.342250L69.708415,16.815445L65.938435,16.306889L62.711521,17.006006L61.983207,16.877406L59.363647,16.410939L58.850964,15.827556L58.373411,15.282747L58.021257,14.881736L55.434378,12.544586L53.926854,11.142711L53.381527,10.636437L50.952318,12.133031L46.385577,14.947208L43.593270,15.246505L41.092757,15.515402L39.542489,15.480329L39.157049,15.472145L35.374442,15.386799L31.623060,15.525924L28.033365,16.536032L24.681567,17.650166L24.628531,17.625616L20.634785,15.763255L19.490799,18.093241L19.403568,18.173906L17.476950,19.956685L14.088115,20.640553L11.481370,23.489321L10.746999,24.295877L9.061546,26.147400L6.866726,28.197553L5.145815,30.522282L4.411714,32.907674L5.478918,38.087115L7.004331,42.825494L7.457354,45.586510L7.730202,47.250288L6.764105,52.863944L5.042076,56.039076L4.722128,56.437413L2.679568,58.986222L1.836498,60.026966L0.682908,61.450797L0.604187,61.547742L2.384506,63.340606L3.847748,64.813390L5.434599,68.919655L6.384827,72.730123L8.004444,76.487734L10.278685,79.479125L12.218063,81.650739L11.042542,85.173609L9.396220,89.581587L9.354291,89.695983L6.768294,89.920106L4.895473,90.452393L3.518928,91.827439L3.018430,92.505609L2.469582,93.249133L1.689887,95.270713L1.691624,96.968912L2.253694,98.847948L2.375158,99.254090L3.913540,100.447987L5.541365,101.583504L6.261334,103.521872L5.965541,107.210506L5.896302,108.073986L6.040184,108.579231L6.951045,111.751770L8.732662,115.485277L10.380180,118.039066L10.949049,118.919853L15.649161,123.511360L16.813594,124.715160L19.079174,127.057356L19.486584,128.645975L19.509709,128.735786L19.864046,130.117911L18.707714,132.730434L18.690585,132.743263L18.679837,132.767755L17.719332,133.485009L15.407637,135.249527L11.906007,136.537015L8.774038,138.664100L8.104233,140.438936L7.569403,141.854564L8.510659,144.970210L11.192433,148.701280L13.321569,152.973035L14.471368,156.218596L18.277724,157.892595L18.510090,157.992847L19.068657,158.269122L20.707357,159.072291L20.909355,159.171375L22.607919,160.004839L25.045580,162.255712L25.253823,162.448040L26.849493,163.909712L26.975821,163.917871L29.408428,164.065901L29.793912,164.088047L30.726108,163.389855L32.197682,162.288349L34.225103,160.784670L34.786853,160.377854L35.217010,160.234477L35.239128,160.227483L37.935782,159.377702L38.054427,159.363714L41.527603,158.940568L43.008709,156.971669L44.571905,154.894281L47.624499,158.796021L48.526129,159.948887L50.683517,159.735568L57.201238,159.090942L60.300228,166.934342L61.305809,169.478635L62.395874,169.612665L66.762245,170.149945L67.769430,174.065764L69.758112,177.100339L70.096720,177.613078L70.109624,177.631723L74.727163,180.942273L74.753067,180.956256L75.073988,181.121720L79.917757,183.593140L84.500748,187.135212L89.359907,190.490663L92.861130,194.833829L92.975233,195.517663L93.530683,198.829546L92.718241,201.705602L92.390380,202.885573L92.377198,202.912364L89.547217,206.409046L87.161195,208.839836L85.687178,209.254470L84.617237,209.554961L82.118287,209.984732L82.099938,209.988226L81.264865,211.697961L81.064274,212.107918L81.091660,215.076534L81.620261,217.197222L82.820555,217.905267L84.572550,218.939372L91.420047,221.281187L94.267530,222.304758L94.349561,222.333870L94.913653,222.536486L95.398311,222.706497L98.891433,223.886081L103.952178,224.687208L108.531609,230.667411L109.572555,231.857333L110.589944,233.020456L112.888766,235.648181L114.030586,236.940467L114.841834,239.590162L114.792634,239.772936L114.478334,240.942911L114.270378,241.714734L114.028619,242.634392L114.285373,243.209463L115.305027,245.494569L115.804999,247.561926L116.119893,248.865635L115.950467,250.348574L115.724335,252.558960L115.386298,253.720578L115.092378,254.732032L113.538691,257.834981L117.439383,258.298201L121.174497,260.365197L122.127300,261.446390L122.937521,262.366963L122.608086,263.455111L122.240304,264.645654L122.085615,265.147236L121.969039,265.525457L121.960329,265.554551L120.246738,267.010393L118.119361,267.067416L116.994116,268.371947L116.702303,268.710586L117.322105,269.440226L118.817040,271.198549L119.418424,271.906057L122.591605,271.424301L125.731374,272.070132L130.133508,274.793040L131.126178,275.434190L135.684090,278.380387L136.439508,278.951695L137.189792,279.518344L137.551252,279.791778L137.739806,279.933730L137.251063,281.864022L136.928563,283.136896L136.911401,283.204379L136.324169,286.509801L135.693890,289.050733L135.515978,289.780190L135.481618,289.920961L135.358053,290.721377L134.960671,293.373865L134.864180,294.981605L134.815608,295.872712L134.747542,297.124436L135.633472,301.386675L135.946425,302.082294L137.074164,304.587872L137.286693,305.046174L138.099336,305.958117L138.221582,306.095373L139.149733,307.137582L140.008641,308.101846L142.339082,310.185042L145.627760,312.399622L146.298583,315.481802L148.196525,324.202087L148.581628,325.969774L148.744990,326.719868L149.249830,329.048033L154.041640,332.120385L163.857546,338.411326L166.182559,340.498533L166.811906,343.897279L168.262922,348.043537L169.764623,350.932803L172.297255,351.671095L172.549135,351.744342L173.083969,351.847819L175.279509,352.269863L176.773571,356.776223L176.888108,357.243591L177.578653,360.059385L179.168935,360.791806L180.316486,361.320774L181.096739,361.680005L182.255686,362.310112L184.601247,363.567990L185.509957,364.242263L187.157534,365.465245L188.117570,366.315048L190.454101,368.385473L191.034803,368.835359L198.755028,374.813923L199.219531,375.174278L202.342663,377.592124L205.128264,379.732112L206.457420,380.753855L208.586927,382.278899L213.238667,383.320383L218.271904,384.229350L219.008752,384.361859L220.820158,385.046486L224.182773,386.299495L227.077971,388.590451L227.661713,389.048406L230.416755,393.976555L230.911941,395.034225L232.143904,397.665586L232.358294,398.123512L233.127614,398.923137L234.771225,400.689735L237.166028,401.781064L237.958007,402.137866L238.186734,402.163435L241.389995,402.480720L242.267765,402.567886L244.918595,406.175362L246.150101,408.008124L247.714016,410.297597L250.540160,412.151233L254.595278,414.766047L260.823574,420.259356L261.176517,420.570797L261.908839,421.212272L265.885604,423.757231L268.082283,424.518388L270.769739,425.449204L274.942848,427.673382L277.665296,430.462285L278.978608,434.172629L279.106516,437.329799L279.133234,437.994460L279.554571,441.645416L280.257876,445.689055L282.933881,448.117530L285.842618,448.998282L286.966523,449.337568L287.765096,451.429048L289.443193,455.823427L300.827970,459.241746L303.872886,459.690237L304.120964,459.726256L307.885698,462.598444L311.483148,465.705304L311.615212,465.819167L311.689845,465.899336L313.772463,468.132444L315.266031,469.733487L317.023867,473.018042L317.587726,474.437816L318.418673,476.529126L318.684028,477.197181L320.372107,477.867558L325.757692,480.002999L327.174449,481.803825L331.123728,486.822862L336.874686,494.130581L343.343057,499.985985L349.252672,506.259578L350.131511,507.191319L351.433696,508.573825L351.716956,508.802694L359.740451,515.265598L362.430601,518.506914L363.663731,519.961438L363.818788,520.048570L366.434851,521.514711L368.812064,522.830984L371.278099,523.669774L373.840061,524.541093L379.639873,526.474259L380.776287,527.351386L381.715879,528.077485L382.176807,528.426013L382.617285,528.759437L383.247338,529.225302L384.618238,531.683583L385.256509,532.817460L388.729043,534.578686L392.730955,535.563858L396.484516,536.530443L401.401811,537.997746L404.004759,538.110437L405.754481,538.177819L411.063919,538.772641L411.521300,538.964332L418.130406,541.715385L422.102769,543.877429L430.002887,548.174806L432.106437,549.319150L434.022413,550.060361L431.525158,552.272377L428.781835,554.702814L428.352324,555.961021L426.901999,560.211989L426.506001,561.383072L425.941280,566.876042L425.917188,567.108402L425.955598,567.317526L426.672809,571.225845L426.923524,572.592138L428.173415,574.897185L430.518426,579.220344L431.914232,581.793814L432.068624,582.068009L433.703832,584.971464L433.815356,585.168978L437.801594,592.220332L437.902943,592.399261L438.153517,592.894221L438.625248,593.824888L439.971645,596.482126L442.191692,600.863658L444.617180,605.202268L445.601712,606.963759L449.331879,612.553904L449.669141,612.739818L454.595509,615.447212L458.935688,617.020536L460.611521,617.628256L466.977928,621.296687L471.197898,623.883335L471.966157,624.355117L475.166459,627.437994L474.045121,633.021689L473.934257,633.571352L473.928098,633.601566L477.905494,636.025680L477.951710,636.054732L478.522156,636.130268L479.395878,636.240667L479.498992,636.253450L481.960068,636.563730L485.341616,637.772316L487.602282,640.691549L489.203228,641.788597L491.200264,643.201755L494.532089,645.449350L495.526365,646.121077L499.226217,648.742931L504.633795,650.295609L506.218871,650.751188L513.909924,655.939300L514.227369,656.096201L516.680668,657.315386L517.887989,657.915103L523.234938,660.569694L524.852983,661.892357L524.872645,661.908629L530.063742,666.111476L531.381770,667.299360L534.815779,670.395809L534.931958,670.500420L535.019049,670.723590L537.189569,676.284364L542.339075,684.765450L543.127156,685.764013L545.809618,689.163140L548.049617,692.000853L551.599528,697.004504L552.192573,698.117101L553.155261,699.924947L553.347143,700.925960L553.786013,703.217509L549.560072,705.245179L535.990695,707.613552L525.969854,709.362250L524.466539,709.625022L517.480364,710.844712L515.966708,710.844712L515.552140,710.844712L515.490481,711.216784L515.487016,711.267944L515.469401,711.514443L515.494279,711.546999L515.490627,711.642343L515.572288,711.644669L515.575103,711.812102L515.632469,711.812102L515.652533,711.896982L515.709898,711.896982L515.729480,711.981861L515.768527,711.981861L515.799862,711.981861L515.808356,712.072555L515.877291,712.066741L515.880767,712.108599L515.884243,712.150458L515.941127,712.150458L515.961191,712.235338L516.018557,712.235338L516.045187,712.405098L516.119521,712.400447L516.122617,712.489978L516.190589,712.489978L516.199951,712.573695L516.481095,712.574858L516.488047,712.658575L516.605191,712.658575L516.634897,712.743455L516.695351,712.757408L516.713293,712.828336L516.747520,712.828336L516.782711,712.828336L516.788024,712.909728L516.859854,712.909728L516.867192,712.998096L516.934683,712.998096L516.939605,713.039955L516.943564,713.081814L516.982612,713.081814L517.014911,713.081814L517.017808,713.116697L517.021960,713.166695L517.068239,713.166695L517.091861,713.166695L517.095337,713.208554L517.105959,713.336456L517.178368,713.337619L517.182910,713.421337L517.222922,713.421337L517.252811,713.421337L517.258509,713.489939L517.266813,713.589936L517.307308,713.589936L517.334787,713.589936L517.345210,713.674817L517.485014,713.674817L517.492064,713.759698L517.568233,713.765512L517.568533,713.844579L517.683943,713.841091L517.729162,713.839928L517.716833,713.929460L518.182044,713.929460L518.278077,713.948064L518.285414,714.013178L518.699524,714.007365L518.713807,714.098060L519.014240,714.081781L519.001432,714.182941L519.344196,714.182941L519.358961,714.267823L519.504163,714.251544L519.507265,714.352704L519.647552,714.352704L519.654508,714.436423L519.753240,714.435260L519.794796,714.436423L519.803684,714.543397L519.815953,714.691068L519.865896,714.677115L519.887012,714.681766L519.893391,714.775950L520.180617,714.751532L520.187977,714.944551L520.242838,714.937574L520.264934,715.029433L520.376780,715.029433L520.405901,715.049200L520.412758,715.114315L520.465307,715.114315L520.490197,715.199197L520.524712,715.179430L520.552293,715.209662L520.567637,715.284079L520.620185,715.284079L520.644979,715.367799L520.833286,715.365473L520.854498,715.365473L520.861745,715.452681L520.932613,715.452681L520.925366,715.365473L520.987557,715.365473L521.002517,715.452681L521.187643,715.452681L521.210689,715.463146L521.219766,715.537564L521.356295,715.532912L521.368075,715.622446L521.719043,715.622446L521.726098,715.707329L522.048141,715.707329L522.081408,715.718956L522.084122,715.792211L523.417029,715.773607L523.425055,715.875931L523.845929,715.875931L523.852987,715.960814L523.921928,715.960814L523.937490,716.130580L523.994861,716.130580L524.028955,716.384066L524.092593,716.384066L524.100610,716.445693L524.113458,716.553832L524.290874,716.553832L524.327808,716.574762L524.331198,716.638716L524.625571,716.630576L524.618843,716.723599L524.894027,716.704994L524.906875,716.807320L524.976781,716.807320L525.005017,717.146854L525.146276,717.146854L525.153239,717.230575L525.222663,717.230575L525.229722,717.315459L525.298372,717.300342L525.307170,717.400343L525.377077,717.400343L525.391678,717.570111L525.462067,717.570111L525.476089,717.738716L525.534519,717.728251L525.560115,717.908485L525.642559,717.914299L525.644141,718.078253L525.724847,718.074765L525.728553,718.246860L525.776858,718.230580L525.793159,718.252674L525.812580,718.416629L525.882970,718.416629L525.890029,718.501514L526.030810,718.501514L526.037869,718.586399L526.114816,718.584073L526.115223,718.670121L526.185131,718.670121L526.192191,718.755006L526.889829,718.755006L526.978834,718.770122L526.971137,718.839891L527.184042,718.825937L527.199518,719.011987L527.407123,719.009661L527.414087,719.093384L527.553905,719.093384L527.560967,719.178269L527.841567,719.178269L527.855691,719.348040L527.580677,719.328272L527.596178,719.601534L527.660302,719.601534L527.664262,719.625953L527.674595,719.686419L527.810653,719.681768L527.821476,719.771305L527.962260,719.771305L527.969322,719.856191L528.166906,719.872471L528.186596,719.941077L528.401624,719.923635L528.422635,720.239923L528.425443,720.279459L528.285140,720.279459L528.278077,720.194573L527.926115,720.194573L527.919534,720.103872L527.568538,720.109686L527.563895,720.053871L527.561477,720.024800L526.999786,720.024800L527.002204,720.053871L527.006846,720.109686L526.726241,720.109686L526.715524,720.056197L526.683503,720.024800L526.508004,720.024800L526.501042,719.941077L526.360739,719.941077L526.344330,719.871308L526.143468,719.856191L526.136410,719.771305L525.925234,719.771305L525.918559,719.679443L525.426879,719.686419L525.417125,719.621302L525.352804,719.601534L524.997953,719.601534L524.990992,719.517811L524.500662,719.517811L524.480588,719.432925L524.212040,719.432925L524.207980,719.384087L524.204983,719.348040L523.994292,719.348040L523.432607,719.348040L523.439725,719.253852L523.004169,719.263154L522.995477,719.187571L522.972526,719.178269L522.716514,719.178269L522.709460,719.093384L522.639069,719.093384L522.635108,719.045708L522.632112,719.009661L522.509362,719.011987L522.489397,718.980591L522.484759,718.924776L522.453902,718.924776L522.414850,718.924776L522.411468,718.884078L522.407796,718.839891L522.339816,718.839891L522.197106,718.839891L522.189956,718.753843L521.908973,718.755006L521.901920,718.670121L521.761621,718.670121L521.764114,718.584073L521.543976,718.586399L521.534805,718.522444L521.451587,718.501514L521.045156,718.501514L521.038969,718.398024L520.898288,718.416629L520.891236,718.331744L520.609676,718.331744L520.603782,718.243371L520.562221,718.230580L520.532235,718.246860L520.511480,718.078253L520.308025,718.078253L520.293739,717.970113L519.949990,717.993369L519.932333,717.908485L519.872550,717.908485L519.872526,717.728251L519.437078,717.738716L519.439187,717.642204L519.360218,717.654995L519.347958,717.542204L519.142483,717.570111L519.142280,717.486389L519.065045,717.485227L519.050946,717.315459L518.910651,717.315459L518.906207,717.244528L518.833213,717.230575L518.824140,717.150342L518.804853,717.132900L518.685966,717.146854L518.677471,717.067784L518.660307,717.058482L518.608528,717.061970L518.603894,717.006156L518.601480,716.977087L518.572071,716.977087L518.531573,716.977087L518.528194,716.936389L518.524525,716.892203L518.464743,716.892203L518.384230,716.892203L518.363877,716.821273L518.166500,716.807320L518.167645,716.704994L518.018772,716.723599L518.007191,716.630576L517.941818,716.638716L517.934770,716.553832L517.864865,716.553832L517.860901,716.459647L517.838821,716.460810L517.646654,716.468949L517.639606,716.384066L517.618875,716.384066L517.498831,716.384066L517.495259,716.341043L517.491783,716.299183L517.418503,716.299183L517.282068,716.299183L517.262484,716.202672L517.203765,716.215462L517.201819,716.035232L517.049861,716.045697L517.041367,715.960814L516.972427,715.960814L516.965380,715.875931L516.825088,715.875931L516.824886,715.774770L516.748233,715.792211L516.741186,715.707329L516.599931,715.707329L516.610914,715.607330L516.382689,715.622446L516.378341,715.523610L516.235352,715.537564L516.224065,715.465472L516.199380,715.452681L516.017630,715.452681L516.013861,715.355008L515.870294,715.367799L515.849364,715.284079L515.652668,715.284079L515.647843,715.225941L515.645623,715.199197L515.581504,715.199197L515.365043,715.199197L515.350477,715.105013L515.146841,715.114315L515.145680,715.065479L515.145294,715.049200L515.017827,715.029433L514.662524,715.029433L514.437868,715.029433L514.435456,715.011991L514.426389,714.937574L514.291017,714.944551L514.276839,714.860832L514.143299,714.860832L514.137509,714.773624L514.065871,714.775950L514.050438,714.677115L513.988924,714.691068L513.981881,714.606186L513.841111,714.606186L513.835513,714.509677L513.764165,714.521304L513.760016,714.471306L513.757218,714.437586L513.692136,714.437586L513.546449,714.436423L513.524076,714.352704L513.467672,714.352704L513.474521,714.435260L513.405776,714.437586L513.428736,714.714323L513.440891,714.860832L513.509830,714.860832L513.518222,714.944551L513.584751,714.944551L513.595650,715.029433L513.649645,715.029433L513.679157,715.199197L513.738454,715.199197L513.752250,715.365473L513.342661,715.367799L513.335715,715.284079L513.051375,715.291056L513.048094,715.199197L512.985807,715.192220L512.970667,715.114315L512.820928,715.105013L512.822854,715.029433L512.782840,715.029433L512.752951,715.029433L512.735400,714.957341L512.675524,714.944551L512.657009,714.860832L512.528291,714.860832L512.522600,714.774787L512.450864,714.775950L512.445077,714.677115L512.373921,714.691068L512.366880,714.606186L512.085822,714.606186L512.076371,714.509677L511.660328,714.509677L511.664475,714.606186L511.314767,714.621302L511.320553,714.691068L510.899205,714.691068L510.891685,714.606186L510.752361,714.606186L510.749662,714.509677L510.604553,714.521304L510.604650,714.435260L510.451346,714.435260L510.449804,714.352704L510.413647,714.352704L510.379419,714.352704L510.375274,714.267823L510.302479,714.267823L510.295441,714.182941L510.226021,714.182941L510.220526,714.081781L510.148598,714.098060L510.145996,714.066665L510.141561,714.013178L509.860506,714.007365L509.868025,714.098060L509.511861,714.081781L509.527283,714.267823L509.600560,714.267823L509.604223,714.312007L509.607597,714.352704L509.642307,714.352704L509.677982,714.352704L509.694467,714.435260L509.824727,714.436423L509.828679,714.484096L509.831764,714.521304L509.902149,714.509677L509.910150,714.606186L509.979571,714.606186L509.986608,714.691068L510.069817,714.677115L510.085240,714.863157L510.140488,714.860832L510.143187,714.893389L510.147429,714.944551L510.229770,714.937574L510.225816,715.029433L510.365623,715.029433L510.372660,715.114315L510.444685,715.105013L510.449601,715.199197L510.563858,715.199197L510.582948,715.214313L510.597410,715.284079L510.738857,715.280591L510.745123,715.367799L511.096765,715.358497L511.103128,715.452681L511.329714,715.452681L511.383709,715.452681L511.385734,715.477099L511.390747,715.537564L511.672003,715.528261L511.678849,715.622446L511.738148,715.622446L511.746922,715.664306L511.755793,715.707329L511.796289,715.707329L511.826179,715.707329L511.828494,715.735235L511.833218,715.792211L511.873233,715.774770L511.891938,715.802676L511.917587,715.960814L511.996170,715.960814L511.994531,716.045697L512.141186,716.035232L512.142344,716.130580L512.281190,716.130580L512.289676,716.215462L512.509901,716.202672L512.507299,716.299183L512.632646,716.299183L512.654631,716.384066L512.863383,716.384066L512.872352,716.468949L513.012645,716.468949L513.019685,716.553832L513.139248,716.553832L513.157858,716.574762L513.167501,716.638716L513.255534,716.630576L513.244448,716.723599L513.384741,716.723599L513.391686,716.807320L513.523302,716.807320L513.539021,716.892203L513.676711,716.872436L513.686838,716.977087L513.809776,716.977087L513.833692,717.061970L514.046978,717.058482L514.051898,717.146854L514.207427,717.132900L514.199621,717.230575L514.391020,717.230575L514.416765,717.244528L514.416382,717.315459L514.622437,717.300342L514.634591,717.400343L514.784046,717.400343L514.845275,717.400343L514.847783,717.430575L514.852317,717.485227L515.063387,717.478250L515.070527,717.570111L515.280730,717.570111L515.287773,717.654995L515.408303,717.654995L515.424213,717.672437L515.435016,717.738716L515.646665,717.721274L515.652746,717.823600L516.074117,717.823600L516.077293,717.728251L516.418055,717.738716L516.433681,717.816624L516.495007,717.823600L516.494339,717.914299L516.642831,717.908485L516.649876,717.993369L516.853329,717.970113L516.867608,718.078253L517.118311,718.078253L517.145793,718.089881L517.156116,718.161975L517.377892,718.156161L517.372403,718.246860L517.584632,718.230580L517.590620,718.331744L517.748179,718.342210L517.738928,718.416629L517.952893,718.398024L517.955217,718.501514L518.084427,718.501514L518.103527,718.586399L518.203809,718.586399L518.243825,718.586399L518.246239,718.615469L518.250776,718.670121L518.299471,718.670121L518.321167,718.670121L518.324739,718.713145L518.335261,718.839891L518.390512,718.825937L518.412217,718.924776L518.515393,718.924776L518.552999,718.924776L518.555605,718.956172L518.560046,719.009661L519.047479,719.009661L519.058288,719.093384L519.198588,719.093384L519.205636,719.178269L519.329544,719.178269L519.353467,719.263154L519.565989,719.244549L519.570725,719.348040L519.672937,719.348040L519.711508,719.348040L519.714502,719.384087L519.718557,719.432925L519.780270,719.432925L519.795033,719.517811L519.865037,719.495717L519.872860,719.601534L520.124052,719.601534L520.151535,719.613162L520.161476,719.686419L520.322992,719.686419L520.366483,719.705025L520.377773,719.771305L520.448647,719.771305L520.455697,719.856191L520.526089,719.856191L520.533139,719.941077L520.610279,719.923635L520.617052,720.109686L520.672498,720.109686L520.694013,720.194573L520.764405,720.194573L520.771455,720.279459L521.050615,720.279459L521.060076,720.364345L521.355531,720.351554L521.347733,720.449231L521.479358,720.449231L521.494991,720.532955L521.636259,720.527141L521.641864,720.617841L521.803865,720.617841L521.853043,720.617841L521.855458,720.646912L521.860095,720.702728L521.908309,720.702728L521.930488,720.702728L521.934932,720.756218L521.946506,720.779475L522.077168,720.779475L522.084896,720.872501L522.576685,720.872501L522.583641,720.956225L522.796074,720.948085L522.800910,721.041112L522.974965,721.041112L523.082002,721.041112L523.086543,721.095765L523.089055,721.125999L523.137752,721.125999L523.155497,721.136465L523.166020,721.210886L523.300540,721.210886L523.313861,721.295773L523.384255,721.295773L523.391309,721.380660L523.534506,721.374846L523.538572,721.464384L523.822749,721.449268L523.826238,721.549272L523.984866,721.549272L524.036939,721.549272L524.039451,721.579506L524.043993,721.634159L524.255175,721.628345L524.261749,721.719046L524.753545,721.719046L524.760601,721.803934L525.243720,721.803934L525.319422,721.821377L525.329271,721.887659L525.541416,721.870216L525.547511,721.972546L525.770750,721.972546L525.828126,721.972546L525.830446,722.000454L525.835183,722.057434L526.029010,722.057434L526.052461,722.142322L526.177822,722.142322L526.263164,722.142322L526.267418,722.193487L526.270221,722.227209L526.359420,722.227209L526.407158,722.244652L526.418069,722.312097L526.624817,722.305120L526.635252,722.395822L526.775560,722.395822L526.782619,722.480710L526.978858,722.480710L526.999899,722.565598L527.103564,722.565598L527.141172,722.565598L527.143396,722.592344L527.148231,722.650487L527.253342,722.650487L527.283626,722.666766L527.295117,722.735375L527.509004,722.733049L527.513267,722.819100L527.653576,722.819100L527.660636,722.903989L527.991400,722.903989L528.010785,722.910966L528.018711,722.988877L528.238864,722.974923L528.236960,723.073765L528.376788,723.073765L528.390908,723.243543L528.461787,723.243543L528.475037,723.402854L528.545725,723.412157L528.547949,723.438903L528.552785,723.497046L528.608717,723.497046L528.636820,723.666824L528.698056,723.666824L528.704912,723.702873L528.714181,723.750550L528.808205,723.750550L528.850351,723.770319L528.862036,723.835439L529.420969,723.830788L529.430829,723.920329L529.884554,723.920329L530.062476,723.920329L530.065378,723.955215L530.069538,724.005218L530.416704,724.005218L530.501088,724.016847L530.498022,724.090107L530.778648,724.090107L530.785711,724.174997L531.347446,724.174997L531.354414,724.258723L531.431562,724.258723L531.438458,724.428502L531.488122,724.428502L531.508856,724.428502L531.515920,724.513392L531.586318,724.513392L531.600350,724.682009L531.665926,724.682009L531.677812,724.766899L531.748211,724.766899L531.755275,724.851789L531.828470,724.850626L531.829345,724.872720L531.839803,725.021569L531.912419,725.019243L531.917266,725.106459L531.961145,725.106459L531.987183,725.106459L531.994151,725.190186L532.119036,725.190186L532.141531,725.275077L532.240379,725.275077L532.281847,725.275077L532.283976,725.300660L532.288912,725.359967L532.364225,725.343687L532.366376,725.444857L532.467636,725.444857L532.506693,725.444857L532.509983,725.484395L532.513758,725.529748L532.567763,725.529748L532.654075,725.529748L532.659785,725.598358L532.668108,725.698366L532.738508,725.698366L532.752639,725.868148L532.836153,725.863496L532.837169,726.037930L532.891175,726.037930L532.905692,726.212363L532.991521,726.206549L532.995683,726.256553L532.998587,726.291440L533.039573,726.291440L533.068505,726.291440L533.071409,726.326327L533.075570,726.376331L533.117039,726.376331L533.139129,726.392612L533.153036,726.461223L533.280720,726.454245L533.289412,726.494947L533.300324,726.544951L533.370725,726.544951L533.377791,726.629843L533.445781,726.629843L533.455258,726.714734L533.702143,726.714734L533.806298,726.714734L533.809202,726.749621L533.813365,726.799626L533.918002,726.799626L533.950121,726.814743L533.960751,726.884517L534.061049,726.884517L534.101072,726.884517L534.103492,726.913590L534.108138,726.969409L534.156841,726.969409L534.178540,726.969409L534.182121,727.012436L534.192576,727.138030L534.254685,727.142682L534.277111,727.307814L534.323403,727.307814L534.347031,727.307814L534.354097,727.392706L534.494419,727.392706L534.501389,727.476435L534.577198,727.495042L534.578858,727.561327L534.678675,727.561327L534.719180,727.561327L534.721504,727.589237L534.726247,727.646220L534.766753,727.646220L534.796650,727.646220L534.803620,727.729949L534.943557,727.731112L534.948204,727.786932L534.960652,727.809027L535.021991,727.816005L535.023280,727.924155L535.098979,727.900897L535.100916,727.924155L535.105950,727.984627L535.161404,727.984627L535.175117,728.039284L535.475357,727.793909L535.912878,727.124075L536.371427,726.510064L536.798688,726.082120L537.221362,725.784420L539.711741,724.365707L542.347830,722.863289L544.657273,720.407370L546.596169,718.551515L546.814922,718.342210L547.574783,718.544538L552.352121,719.812004L559.634797,719.812004L560.098627,719.829446L562.174295,719.905030L562.668117,719.923635L563.386111,720.229457L564.957175,720.899246L568.124395,722.249303L571.111445,724.742478L572.191498,725.546028L573.097854,726.221667L573.810712,726.751947L575.251580,724.072664L576.129307,722.772586L577.186219,721.207397L578.476612,719.421297L578.678768,719.142222L579.994988,718.603841L580.632510,718.342210L585.111330,721.957429L590.614966,726.398426L590.728684,728.674236L590.901930,732.160733L591.127055,736.688246L593.748022,738.161798L596.554462,739.740047L600.757799,742.363930L601.052402,743.043174L601.737530,744.623831L602.903609,747.314150L609.793063,749.193814L616.816921,752.115746L623.976949,756.638413L626.095095,757.990140L627.841110,759.105738L629.428455,760.118978L631.688593,761.634789L632.064150,761.887233L633.213087,765.423851L636.728586,766.819925L636.819811,766.831560L638.103227,766.988619L643.266695,767.620352L644.836331,769.761064L647.510896,773.409709L658.000859,778.381483L658.470090,778.603724L657.890866,783.053344L663.324519,785.008277L666.255538,786.215007L669.080181,787.378699L669.247749,787.447357L670.278682,788.045502L671.653034,788.843811L672.189137,790.410197L672.928180,792.567813L676.664681,795.435418L677.070849,795.657708L681.914234,798.303132L688.067582,801.599277L691.352660,803.832872L694.695426,806.106110L698.207015,808.781011L699.340444,809.644729L700.835393,812.267377L701.431532,813.313903L702.985061,812.374474L706.486543,810.259349L707.568938,809.905476L707.797749,809.830977L710.425405,808.974241L711.217111,808.897414L714.088539,808.620374L719.734544,808.862493L719.942540,808.877626L720.519002,808.920695L724.789104,809.234985L725.741401,809.470122L725.768563,809.477106L730.264884,810.701692L730.895480,810.873974L731.433530,811.536332L732.882600,813.322051L733.472561,814.048458L735.618889,816.666613L737.034697,817.895981L738.402932,819.065995L740.954993,821.248912L748.615780,826.558054Z " data-contains="" data-eumember="0.00000000000e+000" data-fips="BK" data-id-0="29" data-iso="BIH" data-iso2="BA" data-ison="7.00000000000e+001" data-name-arabi="??????? ? ??????" data-name-chine="???? - ?????" data-name-engli="Bosnia and Herzegovina" data-name-fao="Bosnia and Herzegovina" data-name-frenc="Bosnie-Herzgovine" data-name-iso="BOSNIA AND HERZEGOVINA" data-name-local="Bosna i Hercegovina" data-name-nonla="" data-name-obsol="" data-name-russi="?????? ? ???????????" data-name-spani="Bosnia-Herzegovina" data-name-varia="Bosnia" data-sovereign="Bosnia and Herzegovina" data-validfr="19940318" data-validto="Present" data-waspartof="Jugoslavia|Yugoslavia" data-www=""/></g></svg>