<?xml version="1.0" ?><!DOCTYPE svg  PUBLIC '-//W3C//DTD SVG 1.1//EN'  'http://www.w3.org/Graphics/SVG/1.1/DTD/svg11.dtd'><svg enable_background="new 0 0 1000 934" height="934px" style="stroke-linejoin: round; stroke:#000; fill: none;" version="1.1" viewBox="0 0 1000 934" width="1000px" xmlns="http://www.w3.org/2000/svg" xmlns:xlink="http://www.w3.org/1999/xlink"><defs><style type="text/css"><![CDATA[path { fill-rule: evenodd; }]]></style></defs><metadata><views><view h="934.299071089" padding="0" w="1000"><proj flip="auto" id="robinson" lon0="18.8142298004"/><bbox h="42.67" w="45.72" x="208.78" y="-757.27"/></view></views></metadata><g class="" id="cantons">
<path d="M 198,61 L 203,56 L 204,55 L 204,54 L 211,46 L 219,37 L 232,23 L 257,20 L 273,17 L 281,28 L 290,36 L 296,46 L 308,49 L 320,53 L 329,56 L 334,58 L 342,59 L 352,63 L 361,70 L 371,74 L 383,74 L 397,78 L 398,82 L 393,91 L 387,97 L 385,102 L 389,106 L 401,109 L 414,105 L 433,99 L 441,96 L 453,93 L 475,92 L 487,89 L 498,90 L 507,94 L 506,99 L 498,104 L 492,111 L 489,118 L 492,119 L 505,121 L 528,121 L 537,126 L 542,133 L 551,138 L 562,145 L 573,150 L 586,154 L 603,159 L 613,163 L 630,169 L 644,175 L 654,179 L 662,188 L 664,197 L 666,226 L 671,232 L 684,239 L 694,241 L 707,245 L 718,253 L 731,249 L 740,246 L 757,259 L 776,253 L 785,249 L 794,251 L 806,262 L 818,274 L 832,285 L 846,289 L 857,295 L 874,303 L 884,310 L 897,307 L 906,303 L 917,301 L 933,311 L 929,320 L 929,321 L 923,331 L 917,335 L 908,336 L 900,344 L 891,349 L 881,351 L 869,357 L 860,354 L 836,344 L 830,347 L 827,351 L 832,358 L 833,364 L 837,368 L 838,380 L 842,389 L 843,390 L 837,396 L 829,397 L 821,397 L 812,399 L 801,402 L 796,405 L 791,407 L 780,406 L 774,405 L 770,403 L 764,400 L 757,398 L 749,396 L 740,387 L 726,398 L 715,396 L 708,395 L 698,390 L 697,384 L 695,380 L 684,374 L 647,374 L 629,380 L 620,384 L 604,392 L 587,394 L 575,399 L 567,404 L 558,416 L 549,422 L 536,427 L 526,431 L 515,435 L 489,435 L 476,446 L 469,451 L 466,455 L 455,468 L 458,474 L 466,478 L 471,484 L 476,488 L 478,493 L 467,497 L 460,500 L 455,508 L 433,508 L 427,505 L 415,508 L 400,501 L 387,500 L 375,496 L 365,495 L 355,492 L 344,496 L 331,500 L 327,503 L 318,507 L 309,512 L 304,516 L 298,521 L 284,527 L 266,528 L 270,521 L 284,486 L 279,472 L 272,455 L 267,441 L 265,434 L 267,428 L 270,419 L 281,415 L 290,412 L 302,410 L 313,400 L 318,394 L 322,384 L 327,370 L 336,367 L 348,364 L 350,362 L 354,355 L 358,351 L 364,345 L 372,339 L 377,336 L 380,334 L 388,329 L 400,326 L 416,320 L 406,299 L 402,287 L 397,284 L 385,276 L 365,263 L 353,254 L 330,251 L 307,249 L 275,246 L 254,243 L 238,242 L 239,241 L 241,225 L 243,215 L 242,210 L 233,197 L 222,181 L 210,169 L 198,157 L 192,147 L 183,134 L 183,122 L 183,111 L 186,94 L 188,87 L 191,74 L 193,68 L 198,61 " 
data-engtype-1="Opstina"
    data-id-0="29"
    data-id-1="3"
	data-id-2="1" 
    data-iso="BIH"
    data-name-0="Bosnia and Herzegovina"
    data-name-1="Republika Srpska"
    data-name-2="Bratunac"
    data-nl-name-2=""
    data-type-2="Opstina"
    data-varname-2="Republic-Srpska|Bratunac"
    id="path2"/>


</g></svg>
