<?xml version="1.0" encoding="UTF-8" standalone="no"?>
<svg
   xmlns:dc="http://purl.org/dc/elements/1.1/"
   xmlns:cc="http://creativecommons.org/ns#"
   xmlns:rdf="http://www.w3.org/1999/02/22-rdf-syntax-ns#"
   xmlns:svg="http://www.w3.org/2000/svg"
   xmlns="http://www.w3.org/2000/svg"
   xmlns:sodipodi="http://sodipodi.sourceforge.net/DTD/sodipodi-0.dtd"
   xmlns:inkscape="http://www.inkscape.org/namespaces/inkscape"
   enable_background="new 0 0 1000 828"
   height="828px"
   style="stroke-linejoin: round; stroke:#000; fill: none;"
   version="1.1"
   viewBox="0 0 1000 828"
   width="1000px"
   id="svg3097"
   inkscape:version="0.91 r"
   sodipodi:docname="test3.svg">
  <sodipodi:namedview
     pagecolor="#ffffff"
     bordercolor="#666666"
     borderopacity="1"
     objecttolerance="10"
     gridtolerance="10"
     guidetolerance="10"
     inkscape:pageopacity="0"
     inkscape:pageshadow="2"
     inkscape:window-width="1600"
     inkscape:window-height="848"
     id="namedview3119"
     showgrid="false"
     inkscape:zoom="1"
     inkscape:cx="325.20278"
     inkscape:cy="704.58402"
     inkscape:window-x="0"
     inkscape:window-y="25"
     inkscape:window-maximized="1"
     inkscape:current-layer="svg3097" />
  <defs
     id="defs3099">
    <style
       id="style3101"
       type="text/css">path { fill-rule: evenodd; }</style>
  </defs>
  <metadata
     id="metadata3103">
    <views
       id="views3105">
      <view
         id="view3107"
         w="1000"
         padding="0"
         h="828.558053898">
        <proj
           lon0="18.7764628216"
           id="robinson"
           flip="auto" />
        <bbox
           id="bbox3110"
           y="-757.84"
           x="208.78"
           w="53.1"
           h="43.94" />
      </view>
    </views>
    <rdf:RDF>
      <cc:Work
         rdf:about="">
        <dc:format>image/svg+xml</dc:format>
        <dc:type
           rdf:resource="http://purl.org/dc/dcmitype/StillImage" />
        <dc:title />
      </cc:Work>
    </rdf:RDF>
  </metadata>
  <g
     id="opstine">
    <path
       style="fill:none;fill-rule:evenodd;stroke:#000000"
       id="path2"
       data-varname-2="Bratunac"
       data-type-2="upanija|kanton"
       data-nl-name-2=""
       data-name-2="Bratunac"
       data-name-1="Republika Srpska"
       data-name-0="Bosnia and Herzegovina"
       data-iso="BIH"
       data-id-2="1"
       data-id-1="3"
       data-id-0="29"
       data-engtype-2="Canton"
       d="M 985.37378,372.04L986.70278,372.87L982.89278,372.87L971.22278,372.87L961.72278,369.67L954.56278,368.33L949.78278,370.25L949.78278,370.24L949.78278,366.17L954.22278,363L956.89278,361.33L958.72278,357.33L954.17278,354.17L954.17278,351.33L948.48278,351.26L945.22278,347.5L941.06278,349L937.39278,345.25L937.39278,340.67L934.39278,338.67L929.56278,338.67L926.06278,338.37L920.39278,337.72L917.39278,333.67L908.56278,331.83L905.22278,329.83L895.22278,332.33L889.56278,334.17L886.39278,336.17L879.97278,330.5L876.72278,327.25L872.06278,322.83L867.39278,321.83L864.04278,318.67L864.04278,315.34L864.72278,313.33L864.72278,308.14L865.35278,306.98L865.35278,306.99L865.56278,307.85L868.56278,307.85L871.89278,307.67L879.06278,305.17L883.39278,306.43L890.22278,306.33L894.11278,305.44L896.10278,306.01L896.79278,305.98L899.18278,305.86L902.94278,304.71L905.77278,303.65L908.28278,303.8L909.22278,303.86L911.52278,304.91L914.02278,304.85L916.62378,304.84L916.75378,304.84L919.49278,308.2L919.81278,308.69L921.77278,311.81L923.55278,313.77L924.00278,314.27L924.65178,317.76L924.60178,318.18L924.31178,320.69L926.67178,323.39L927.70078,326.03L928.74078,329.6L931.18078,331.28L932.30078,332.05L936.11078,333.99L939.31078,335.58L940.92078,336.96L942.05078,337.93L944.65078,340.62L947.01078,343.25L949.46078,344.9L952.52978,345.33L956.26978,344.75L957.62978,344.12L958.59978,343.67L959.54978,345.87L959.81978,348.15L959.84978,348.42L960.91978,350.86L963.78978,353.39L966.08978,356.37L968.27878,359.47L971.36978,362.41L971.54978,362.58L975.94878,364.85L978.87978,366.54L982.60878,369.39 Z"
       inkscape:connector-curvature="0" />
    <path
       style="fill:none;fill-rule:evenodd;stroke:#000000"
       id="path3"
       data-varname-2="Srebrenica"
       data-type-2="upanija|kanton"
       data-nl-name-2=""
       data-name-2="Srebrenica"
       data-name-1="Republika Srpska"
       data-name-0="Bosnia and Herzegovina"
       data-iso="BIH"
       data-id-2="2"
       data-id-1="3"
       data-id-0="29"
       data-engtype-2="Canton"
       d="M 999.01278,378.91L998.49178,376.94L998.83278,373.09L998.04278,372.8L995.72278,371.94L994.59278,369.92L992.84278,368.18L992.12278,367.47L989.34278,367.74L988.80278,368.54L988.45178,369.05L988.56178,371.28L989.04178,372.81L987.46178,373.34L987.43178,373.32L986.70178,372.87L982.89178,372.87L971.22178,372.87L961.72178,369.67L954.56178,368.33L949.78178,370.25L949.78178,370.24L949.78178,366.17L954.22178,363L956.89178,361.33L958.72178,357.33L954.17178,354.17L954.17178,351.33L948.48178,351.26L945.22178,347.5L941.06178,349L937.39178,345.25L937.39178,340.67L934.39178,338.67L929.56178,338.67L926.06178,338.37L920.39178,337.72L917.39178,333.67L908.56178,331.83L905.22178,329.83L895.22178,332.33L889.56178,334.17L886.39178,336.17L886.39178,340.5L887.72178,343.67L887.72178,347L884.72178,349L878.06178,351L879.39178,358.17L890.39178,359.5L890.39178,363.33L889.72178,368.23L889.39178,371.33L886.39178,374.83L885.89178,378.83L884.06178,383L884.45178,385.81L884.33278,386.52L884.77178,386.62L885.89178,390.62L889.14178,394.75L891.14178,397.38L894.27178,401L897.89178,402.38L900.26178,406.3L903.89178,403.33L911.06178,401.17L911.10178,401.16L910.63178,399.91L909.29178,396.56L909.07078,396.02L906.10078,392.62L903.83078,388.95L904.38078,388.15L906.02078,385.77L907.84078,386.09L908.39078,386.19L911.63078,386.78L916.65978,388.75L922.83078,389.81L926.85078,392.43L931.60078,394.05L935.07078,396.48L942.26078,398.34L949.01078,398.89L957.06078,399.64L962.84078,400.56L969.26078,400.69L975.21078,400.66L976.85978,399.22L979.48978,395.49L983.37078,393.6L985.77978,391.11L987.42078,388.31L991.37078,386.5L995.01078,385.06L999.15978,382.58L999.18978,381.96L999.29078,379.97 Z"
       inkscape:connector-curvature="0" />
    <path
       style="fill:none;fill-rule:evenodd;stroke:#000000"
       id="path4"
       data-varname-2="Bijeljina"
       data-type-2="upanija|kanton"
       data-nl-name-2=""
       data-name-2="Bijeljina"
       data-name-1="Republika Srpska"
       data-name-0="Bosnia and Herzegovina"
       data-iso="BIH"
       data-id-2="4"
       data-id-1="3"
       data-id-0="29"
       data-engtype-2="Canton"
       d="M 916.55278,123.29L916.79278,125.28L913.54278,127.69L911.33278,129.31L910.54278,131.01L912.21278,132.43L912.22278,133.87L910.77278,135.5L908.27278,136.42L908.13278,138.25L908.81278,142.05L908.59278,144.8L907.64278,147.4L907.50278,150.66L907.54278,152.82L907.31278,155.64L907.26278,158.35L906.14278,160.99L906.08278,163.77L905.35278,167.05L904.79278,168.31L903.88278,170.33L902.59278,173L901.05278,174.69L900.47278,175.25L898.75278,176.94L895.49178,179.41L893.40178,183.35L891.88178,186.91L890.68178,190.02L890.57178,192.65L889.54278,195.23L887.68278,197.85L886.82278,201.97L886.03278,205.1L884.40278,208.34L883.30278,209.9L881.28178,210.56L877.21278,210.51L876.66178,211.63L876.39278,211.5L871.64278,206.75L865.89278,202.5L860.54278,200.5L855.34278,198.75L844.43278,199.5L844.32278,199.52L844.39278,193.5L848.89278,187.51L854.14278,183.5L850.14278,179.5L840.39278,180.68L837.64278,173.85L833.89278,167.14L824.64278,171L820.64278,166.87L820.64278,161.5L816.39278,158.5L811.14278,153L804.18278,156.48L802.60278,154.69L802.65278,154.72L803.53278,149.5L804.35278,147.41L804.52278,146.64L804.81278,143.86L805.68278,140.03L805.92278,137.28L806.17278,136.54L806.59278,135.92L807.17278,135.42L807.83278,135.07L808.83278,134.77L809.82178,134.58L810.56178,134.56L811.30178,134.64L813.68178,135.11L817.22178,135.59L817.80178,135.5L818.08178,135.35L818.35178,135.08L818.50178,134.76L818.58178,134.43L818.54178,133.74L818.31178,133.07L817.91178,132.54L816.51278,131.26L815.60278,130.6L814.77278,129.85L812.94278,128.44L810.94278,127.32L811.23278,126.91L813.35278,126.94L819.17278,127.04L824.16178,126.11L827.50278,125.09L829.79278,124.39L836.15178,122.31L839.20178,120.06L842.09278,117.78L842.87278,117.42L845.16178,116.39L847.78178,114.71L849.41178,112.63L850.01278,111.86L853.91178,111.08L856.75278,109.58L859.57178,107.21L862.04278,105.49L864.57178,105.49L864.83278,105.49L865.21278,105.49L868.15178,106.89L869.50278,109.24L870.34278,111.21L873.58278,112.3L873.78178,112.19L875.88278,111.05L878.32178,109.47L881.14178,108.61L885.12178,109.28L888.54178,110.27L891.40078,110.65L895.31078,111.24L896.33178,111.62L900.39178,113.29L904.97178,115.31L907.35178,115.61L907.67178,115.65L908.06178,117.24L909.75178,116.15L912.18178,116.15L913.43178,117.63L912.03178,119.42L913.11178,121.93 Z"
       inkscape:connector-curvature="0" />
    <path
       style="fill:none;fill-rule:evenodd;stroke:#000000"
       id="path5"
       data-varname-2="Rogatica"
       data-type-2="upanija|kanton"
       data-nl-name-2=""
       data-name-2="Rogatica"
       data-name-1="Republika Srpska"
       data-name-0="Bosnia and Herzegovina"
       data-iso="BIH"
       data-id-2="5"
       data-id-1="3"
       data-id-0="29"
       data-engtype-2="Canton"
       d="M 901.06278,437.33L897.89278,440L898.56278,446.17L897.72278,450.67L893.89278,451.33L889.39278,455.72L883.86278,455.72L880.56278,458.5L885.56278,462.33L887.56278,468.5L890.72278,470.83L890.72278,475.33L892.82278,478.29L889.39278,478.67L881.72278,476.33L877.39278,473L873.22278,471.42L865.89278,469.67L860.54278,470.17L854.22278,468.65L846.22278,468.17L839.39278,468.83L839.19278,469.13L838.44278,468.64L836.49278,466.88L835.10278,464.87L834.75278,464.19L834.11178,462.53L833.13278,461.05L832.91178,460.38L832.60178,458.96L832.35178,458.29L831.97178,457.76L830.72178,456.66L830.07178,456.3L829.22178,456.08L827.81178,455.95L825.83278,455.91L824.34278,455.96L823.37278,456.06L821.67278,456.441L821.51278,455.72L820.01278,452.38L816.64278,452.38L814.77278,449.5L810.01278,448.67L808.27278,445.5L807.51278,441.62L808.28278,439.23L812.77278,440.879L814.51278,437.619L818.14278,434.249L822.77278,431.999L826.89278,431.989L830.27278,427.119L837.64278,426.379L842.01278,427.499L845.77278,424.919L845.77278,421.249L848.14278,417.879L847.14278,413.119L848.28278,411.749L851.14278,405.749L849.39278,401.749L851.33278,399.119L851.14278,397.249L851.60278,396.649L851.60278,396.639L852.77278,394.119L850.51278,390.119L857.64278,391.499L861.64278,394.749L869.14278,394.119L874.51278,394.119L875.89278,389.249L880.77278,385.999L884.33378,386.519L884.77278,386.619L885.89278,390.619L889.14278,394.749L891.14278,397.379L894.27278,400.999L897.89278,402.379L900.26278,406.299L900.25278,406.309L898.72278,406.669L889.39278,409.169L890.22278,412.469L899.06278,422.999L898.56278,425.999L900.22278,428.499L900.22278,432.329 Z"
       inkscape:connector-curvature="0" />
    <path
       style="fill:none;fill-rule:evenodd;stroke:#000000"
       id="path7"
       data-varname-2="Zvornik"
       data-type-2="upanija|kanton"
       data-nl-name-2=""
       data-name-2="Zvornik"
       data-name-1="Republika Srpska"
       data-name-0="Bosnia and Herzegovina"
       data-iso="BIH"
       data-id-2="6"
       data-id-1="3"
       data-id-0="29"
       data-engtype-2="Canton"
       d="M 893.41278,305.24L894.11278,305.44L890.22278,306.33L883.39278,306.43L879.06278,305.17L871.89278,307.67L868.56278,307.85L865.56278,307.85L865.35278,306.99L865.35278,306.98L859.01278,300.75L853.64278,295.62L849.77278,298.53L845.14278,298.53L840.89278,298.12L839.36278,298.48L837.64278,295.25L832.50278,294.62L830.51278,289.38L835.89278,283.88L839.97278,280.28L840.54278,280L839.14278,277L838.51278,272.75L840.39278,266.12L835.01278,264.5L829.89278,260.25L825.27278,256.12L823.14278,252.62L822.86278,252.44L823.66278,251.22L824.20278,250.64L824.52278,250.18L825.06278,248.74L825.96278,247.4L826.55278,245.43L827.39278,243.81L827.93278,242.62L828.86278,241.01L829.60278,239.53L830.82278,237.58L831.50378,236.77L831.80378,236.26L831.99278,235.6L832.21378,234.2L832.37378,233.54L833.21378,232.11L833.40278,231L833.39278,228.9L833.02278,223.21L833.04378,221.97L833.14378,221.21L833.37378,220.55L834.10278,219.45L834.60278,217.84L834.88278,217.19L836.05278,215.24L836.73278,214.43L837.04378,213.93L837.24278,213.3L837.77278,211.01L838.71278,208.34L838.63278,206.76L838.89278,206.75L844.39278,201.75L844.32278,199.52L844.43278,199.5L855.34278,198.75L860.54278,200.5L865.89278,202.5L871.64278,206.75L876.39278,211.5L876.66278,211.63L875.57278,213.83L876.04378,214.75L877.00378,216.62L876.62378,218.88L876.56278,219.25L874.61278,221.93L873.72278,224.25L872.91178,226.08L870.63278,227.26L867.49178,227.19L865.37278,227.2L863.74178,227.21L861.81178,229.31L862.39178,234.23L863.17178,238.46L863.82078,240.61L864.72078,243.57L864.90978,244.03L865.05978,244.37L865.99978,246.61L866.59978,248.02L866.72978,248.34L868.14978,252.2L868.80978,258.13L867.72978,262.55L864.83078,264.53L861.37078,266.32L860.44978,269.85L861.23978,273.01L862.96078,275.58L862.73078,277.96L862.81078,280.41L864.95078,282.48L866.18078,285.02L866.52078,287.88L868.52078,291.29L871.59078,294.2L871.83078,294.52L874.14078,297.72L876.31078,300.09L880.30078,300.48L883.89078,300.29L886.85078,299.97L888.95078,300.81L889.80178,301.14L890.94178,303.16 Z"
       inkscape:connector-curvature="0" />
    <path
       style="fill:none;fill-rule:evenodd;stroke:#000000"
       id="path6"
       data-varname-2="Foca"
       data-type-2="upanija|kanton"
       data-nl-name-2=""
       data-name-2="Foca"
       data-name-1="Republika Srpska"
       data-name-0="Bosnia and Herzegovina"
       data-iso="BIH"
       data-id-2="7"
       data-id-1="3"
       data-id-0="29"
       data-engtype-2="Canton"
       d="M 884.73278,597.85L884.90278,608.56L878.74278,608.281L874.72278,607.89L874.61278,611L874.05278,613.83L874.04278,613.87L870.87278,616.63L867.28178,613.76L864.66178,610.88L864.33278,610.28L862.39278,606.849L858.95278,604.44L855.19278,602.96L854.55278,600.6L854.53178,600.55L854.54278,600.53L855.48178,597.32L855.75278,595.17L854.54278,593.14L851.31278,590.92L847.27278,587.18L842.35278,582.33L839.47278,582.95L836.65278,583.66L833.24278,584.03L829.02278,584.32L825.25278,585.4L821.12278,587.12L825.23178,593.44L821.73178,595.36L816.89178,597.44L812.49178,599.389L806.59278,601.539L802.59278,603.509L798.83278,606.519L795.54278,609.2L795.07178,609.41L794.89278,609L783.89278,606.5L775.64278,595.75L764.64278,593.75L756.89278,588.34L751.14278,586.75L744.89278,580.93L746.39278,575.25L749.87278,569L746.39278,562.75L746.39278,555.25L746.39278,550L744.89278,542.5L749.39278,535L746.39278,531L750.14278,529.25L747.64278,523.25L754.14278,517.5L751.14278,510L757.13278,505.23L757.78178,505.61L759.39178,506.46L760.27178,506.58L760.77178,506.72L763.69178,507.87L765.62278,508.75L767.95178,509.43L768.27178,509.571L769.26178,510.171L769.60178,510.301L770.77178,510.541L773.34178,510.781L774.15178,510.921L774.86178,511.151L775.85178,511.741L776.16178,511.871L776.86178,512.051L778.76178,512.381L779.45078,512.571L779.76178,512.701L780.74078,513.291L781.45078,513.541L782.26178,513.681L783.58178,513.791L792.86078,514.011L794.25178,514.081L795.60178,514.231L796.47178,514.441L798.42178,515.251L800.73178,515.941L801.05178,516.09L802.02178,516.71L802.64178,516.95L803.89178,517.17L805.24178,517.25L806.16178,517.23L807.06178,517.15L807.93178,516.94L808.32178,516.78L809.04278,516.38L810.98178,515.03L812.38178,514.23L813.23178,513.519L815.65178,512.249L816.84178,511.689L817.96178,510.918L818.58178,510.668L819.92178,510.268L820.45078,509.979L821.19078,509.418L821.87178,509.088L823.07078,508.708L824.81078,508.278L826.68078,507.948L826.72078,508.168L829.89078,511.498L834.06078,516.668L839.72078,513.998L841.07078,513.998L841.52078,516.998L841.54178,517.018L841.60178,517.079L841.67178,517.149L841.56178,521.669L846.89178,525.669L849.56178,531.829L849.56178,531.889L848.99178,531.869L844.77178,533.649L844.69178,533.709L841.63178,536.279L840.26178,539.558L841.31178,542.119L843.70178,539.549L845.61178,537.94L847.19178,537.71L849.05178,537.44L849.08178,538.19L849.19078,541.519L851.08178,542.969L850.32078,546.589L850.88178,548.039L851.64178,549.989L854.40178,553.549L854.68178,553.69L859.23178,556.03L865.88178,559.38L866.97178,564.59L868.96178,567.91L873.84178,572.97L876.14178,579.281L876.12178,584.76L879.11078,590.85L883.46178,596.27 Z"
       inkscape:connector-curvature="0" />
    <path
       style="fill:none;fill-rule:evenodd;stroke:#000000"
       id="path10"
       data-varname-2="Ugljevik"
       data-type-2="upanija|kanton"
       data-nl-name-2=""
       data-name-2="Ugljevik"
       data-name-1="Republika Srpska"
       data-name-0="Bosnia and Herzegovina"
       data-iso="BIH"
       data-id-2="8"
       data-id-1="3"
       data-id-0="29"
       data-engtype-2="Canton"
       d="M 850.14278,179.5L854.14278,183.5L848.89278,187.51L844.39278,193.5L844.32278,199.52L844.39278,201.75L838.89278,206.75L838.63278,206.76L838.58278,205.84L838.27178,204.39L837.78178,203.58L836.64178,202.41L834.64178,200.81L834.09178,200.48L831.68178,199.22L828.32178,197.8L826.90178,197.49L824.96278,197.35L823.51278,197.39L822.13278,197.61L819.28178,198.77L818.57178,199.14L817.55178,199.86L816.56178,200.7L816.39178,200.5L810.89178,192.25L810.89178,185L802.58178,185L801.14178,178L800.64178,173.85L800.64178,169.5L803.39178,163.25L804.64178,157.5L804.18178,156.48L811.14178,153L816.39178,158.5L820.64178,161.5L820.64178,166.87L824.64178,171L833.89178,167.14L837.64178,173.85L840.39178,180.68 Z"
       inkscape:connector-curvature="0" />
    <path
       style="fill:none;fill-rule:evenodd;stroke:#000000"
       id="path8"
       data-varname-2="Sokolac"
       data-type-2="upanija|kanton"
       data-nl-name-2=""
       data-name-2="Sokolac"
       data-name-1="Republika Srpska"
       data-name-0="Bosnia and Herzegovina"
       data-iso="BIH"
       data-id-2="9"
       data-id-1="3"
       data-id-0="29"
       data-engtype-2="Canton"
       d="M 851.60278,396.64L851.60278,396.65L851.14278,397.25L851.33278,399.12L849.39278,401.75L851.14278,405.75L848.28278,411.75L847.14278,413.12L848.14278,417.88L845.77278,421.25L845.77278,424.92L842.01278,427.5L837.64278,426.38L830.27278,427.12L826.89278,431.99L822.77278,432L818.14278,434.25L814.51278,437.62L812.77278,440.88L808.28278,439.231L809.01278,437.251L805.51278,435.381L800.14278,436.121L792.39278,433.751L786.89278,428.501L783.14278,425.351L774.51278,424.251L773.27278,421.501L762.39278,421.501L763.01278,417.501L763.14278,413.001L764.14278,409.381L762.77278,403.751L760.01278,399.121L758.39278,394.621L756.01278,397.611L752.64278,398.751L750.77278,402.381L748.51278,406.001L742.89278,406.881L739.77278,406.461L738.01278,405.001L733.14278,407.381L728.64278,406.621L727.51278,402.881L726.14278,399.001L722.52278,398.111L722.37378,397.961L722.61278,396.801L722.95278,396.011L724.39278,394.531L725.23278,393.921L725.92278,393.171L726.67278,392.471L726.83278,392.221L727.25278,391.061L727.53178,390.521L728.28178,389.821L728.96278,389.061L729.79278,388.441L730.49178,387.701L731.31178,387.021L732.20178,385.801L733.25278,384.671L737.27278,381.101L738.43278,379.991L738.93278,379.421L739.78278,378.171L740.50378,377.401L740.76378,376.861L741.06378,375.981L741.34378,375.451L742.07278,374.751L742.74278,373.991L743.55378,373.301L744.37378,372.151L744.98278,371.441L747.35278,369.061L747.86278,369.061L748.40278,368.891L749.59278,368.051L749.99178,367.671L750.69178,366.671L752.67178,364.321L753.64178,362.511L754.88178,360.571L755.25178,360.161L755.85178,359.651L756.54178,358.891L757.35178,358.211L758.25178,357.061L758.77178,356.571L759.36178,356.151L760.39178,355.551L761.25178,354.841L762.67178,354.061L764.98178,352.541L766.09178,352.071L767.60178,351.711L768.26178,351.471L769.43178,350.721L772.54178,349.191L773.64178,353.251L776.14178,359.001L780.39178,362.251L782.64178,366.501L793.64178,372.001L800.64178,374.251L806.14178,379.001L808.28178,387.501L814.89178,387.501L817.89178,389.751L823.14178,388.001L828.39178,392.001L837.64178,392.001L843.14178,396.251L847.64178,396.461 Z"
       inkscape:connector-curvature="0" />
    <path
       style="fill:none;fill-rule:evenodd;stroke:#000000"
       id="path9"
       data-varname-2="Pale"
       data-type-2="upanija|kanton"
       data-nl-name-2=""
       data-name-2="Pale"
       data-name-1="Republika Srpska"
       data-name-0="Bosnia and Herzegovina"
       data-iso="BIH"
       data-id-2="10"
       data-id-1="3"
       data-id-0="29"
       data-engtype-2="Canton"
       d="M 821.51278,455.72L821.67278,456.441L820.56278,456.691L817.38278,457.001L815.48278,457.081L804.07278,456.77L801.65278,456.81L800.28278,457.031L798.36278,457.671L797.52278,457.821L796.19278,457.901L793.93278,457.921L792.62278,458.041L792.20178,458.141L791.44178,458.421L789.88178,459.232L789.42178,459.622L789.11078,460.182L788.96178,460.812L788.75178,462.392L788.56178,462.943L787.99178,463.772L787.87278,464.043L787.72278,464.663L787.43278,467.093L787.01278,468.093L786.16178,469.513L785.82178,469.963L784.99178,470.653L784.28178,471.382L783.44178,471.992L782.73178,472.732L781.91178,473.412L780.45178,475.512L779.82178,476.552L778.97178,477.573L778.74178,478.133L778.46278,480.073L778.17278,480.932L777.42278,482.002L776.99178,483.172L776.68178,483.722L775.66078,484.662L774.92178,485.542L773.12178,485.372L771.92178,485.172L771.23178,484.943L770.22178,484.373L769.12178,484.062L766.18178,483.722L765.39178,483.582L764.69178,483.342L763.69178,482.772L763.34178,482.632L762.54178,482.443L760.74078,482.243L756.91078,482.003L756.36078,481.743L755.47078,481.163L754.78078,480.923L754.26078,480.833L754.39078,480.123L742.61078,469.003L732.14078,464.123L720.77078,459.443L719.31078,458.943L719.31078,458.932L718.01078,451.622L717.84078,450.842L717.85078,450.842L720.89078,447.162L723.56078,447.162L727.06078,443.332L727.06078,438.832L731.89078,433.002L733.13078,428.172L734.89078,422.832L733.22078,417.672L737.56078,410.332L739.77078,406.462L742.89078,406.882L748.51078,406.002L750.77078,402.382L752.64078,398.752L756.01078,397.612L758.39078,394.622L760.01078,399.122L762.77078,403.752L764.14078,409.382L763.14078,413.002L763.01078,417.502L762.39078,421.502L773.27078,421.502L774.51078,424.252L783.14078,425.352L786.89078,428.502L792.39078,433.752L800.14078,436.122L805.51078,435.382L809.01078,437.252L808.28078,439.232L807.51078,441.622L808.27078,445.502L810.01078,448.672L814.77078,449.502L816.64078,452.382L820.01078,452.382 Z"
       inkscape:connector-curvature="0" />
    <path
       style="fill:none;fill-rule:evenodd;stroke:#000000"
       id="path14"
       data-varname-2="Gacko"
       data-type-2="upanija|kanton"
       data-nl-name-2=""
       data-name-2="Gacko"
       data-name-1="Republika Srpska"
       data-name-0="Bosnia and Herzegovina"
       data-iso="BIH"
       data-id-2="11"
       data-id-1="3"
       data-id-0="29"
       data-engtype-2="Canton"
       d="M 793.00378,616.73L795.81378,622.559L791.17378,625.469L787.94378,627.799L785.42378,631.769L783.43378,635.999L783.51378,640.999L782.68378,646.659L783.16278,652.729L784.75378,659.749L785.91278,664.879L791.57278,683.169L784.08378,683.709L774.87378,683.339L761.72378,682.799L759.91278,682.719L759.89278,682.719L759.60278,682.709L759.56278,682.739L753.01278,678.119L746.64278,671.259L742.01278,667.619L737.77278,663.879L730.77278,661.999L725.14278,666.499L720.51278,660.999L722.39278,656.379L719.14278,648.249L719.68278,647.599L715.89278,634.249L702.14278,627.749L699.72278,622.579L700.06278,617.579L700.64278,614.079L701.31278,609.419L697.89278,592.249L703.64278,594.249L712.39278,594.249L715.89278,590.999L719.67278,585.999L725.64278,580.999L737.14278,586.499L751.14278,586.749L756.89278,588.339L764.64278,593.749L775.64278,595.749L783.89278,606.5L794.89278,609L795.07278,609.41L791.84378,610.87L789.57278,613.26L789.66278,613.691L790.11278,615.93 Z"
       inkscape:connector-curvature="0" />
    <path
       style="fill:none;fill-rule:evenodd;stroke:#000000"
       id="path11"
       data-varname-2="Trebinje"
       data-type-2="upanija|kanton"
       data-nl-name-2=""
       data-name-2="Trebinje"
       data-name-1="Republika Srpska"
       data-name-0="Bosnia and Herzegovina"
       data-iso="BIH"
       data-id-2="12"
       data-id-1="3"
       data-id-0="29"
       data-engtype-2="Canton"
       d="M 748.63278,756.49L748.99178,756.42L751.13278,766.87L753.93278,768.16L754.68278,768.5L757.46278,770.84L757.90178,771.37L759.63178,773.48L762.75178,775.24L767.68178,776.3L770.95178,776.611L772.37278,776.871L775.51278,777.461L774.03278,779.851L772.78278,781.881L772.32278,783.781L771.82278,785.821L771.59378,789.751L772.53278,793.001L780.48278,800.441L778.26278,802.13L776.19278,802.46L774.94278,802.67L770.16278,803.7L768.23278,805.5L767.78278,805.92L766.89278,811.01L775.63278,815.47L775.85278,815.26L775.67278,815.47L775.79278,818.151L774.79278,818.651L774.09278,819.001L773.75278,819.181L771.42278,819.851L767.49178,819.442L763.82178,818.502L761.50278,817.892L757.70178,823.413L755.40178,826.763L751.62278,826.923L748.51278,827.063L740.84278,821.753L738.29278,819.573L736.92278,818.403L735.51278,817.173L733.36278,814.553L732.77278,813.824L731.32278,812.044L730.78278,811.374L730.15278,811.204L725.66278,809.984L725.63378,809.973L724.68378,809.744L720.41278,809.424L719.83378,809.384L719.65278,809.054L719.44278,808.804L718.62378,808.214L716.86278,807.314L716.01278,807.035L714.64278,806.845L713.23278,806.775L708.00378,806.696L706.60378,806.576L705.69378,806.395L705.25478,806.255L704.45378,805.875L701.97478,804.205L700.50478,803.314L699.65378,802.544L698.73378,801.874L697.95378,801.114L697.06378,800.444L696.29378,799.654L695.39378,798.914L694.10378,797.334L690.96378,794.354L690.40278,793.754L689.38278,792.474L688.49178,791.735L687.71278,790.945L685.90178,789.604L685.26178,789.314L684.21178,788.995L683.57078,788.705L682.69078,788.005L681.76078,787.365L680.97078,786.594L680.04078,785.924L679.18978,785.154L677.76978,784.284L677.15978,783.794L676.62078,783.244L675.84978,782.284L675.18978,781.694L674.79078,781.244L672.39078,777.964L671.50078,777.224L670.72078,776.424L669.81078,775.754L669.02078,774.984L668.11078,774.313L667.32078,773.543L666.41078,772.873L665.63178,772.093L664.72178,771.413L663.93178,770.642L663.02178,769.962L662.23178,769.182L661.32178,768.512L660.53178,767.733L659.62278,767.062L658.83278,766.283L657.93278,765.613L657.14278,764.833L656.23278,764.153L655.44278,763.373L654.53278,762.703L653.74278,761.923L652.84378,761.253L652.06378,760.473L651.16378,759.803L650.38478,759.013L649.46478,758.343L648.60478,757.573L646.33478,756.392L645.15378,755.932L643.19378,755.422L642.86378,755.272L641.88478,754.653L641.57378,754.512L640.17478,754.082L639.52478,753.792L638.65478,753.082L637.73478,752.442L636.95478,751.641L636.06478,750.902L633.48478,747.381L632.59478,746.641L631.81478,745.862L630.90478,745.202L630.12578,744.412L629.22578,743.682L626.82578,740.403L626.40578,739.972L625.73578,739.443L624.98578,738.623L624.15578,737.883L623.97578,737.623L623.43578,736.433L623.10578,735.883L622.28578,735.143L621.52578,734.343L620.61578,733.623L619.57578,732.363L617.84678,730.583L617.34678,729.933L617.14678,729.583L616.89678,728.833L616.85678,727.693L617.01678,726.963L617.83678,725.343L618.03578,724.654L618.12678,723.584L618.00678,722.534L617.77678,721.904L617.39678,721.404L616.75678,720.874L615.97678,720.114L615.05678,719.484L614.28578,718.723L613.64578,718.194L613.25578,717.694L613.11478,717.383L612.93478,716.703L612.83478,715.973L612.78378,714.074L612.94378,712.523L613.30378,711.234L612.90378,710.393L619.14378,710.393L626.14378,714.753L631.39378,718.003L638.64378,725.003L646.89378,732.253L657.14378,739.503L669.14378,739.503L672.64378,734.753L671.14378,728.753L674.14378,726.753L679.89378,728.003L684.39378,725.233L686.64378,721.503L688.95378,718.513L697.39378,722.003L705.14378,728.003L710.14378,739.003L720.89378,747.753L726.89378,754.453L739.89378,752.753 Z"
       inkscape:connector-curvature="0" />
    <path
       style="fill:none;fill-rule:evenodd;stroke:#000000"
       id="path12"
       data-varname-2="Bileca"
       data-type-2="upanija|kanton"
       data-nl-name-2=""
       data-name-2="Bileca"
       data-name-1="Republika Srpska"
       data-name-0="Bosnia and Herzegovina"
       data-iso="BIH"
       data-id-2="13"
       data-id-1="3"
       data-id-0="29"
       data-engtype-2="Canton"
       d="M 754.39278,480.12L754.26278,480.83L753.99178,480.78L751.36178,480.559L750.47178,480.429L749.60178,480.2L748.80178,479.83L746.30178,478.19L744.83178,477.309L742.97178,475.669L742.56178,475.139L742.04178,474.24L737.52078,472.139L736.13078,471.839L734.69078,471.709L721.44078,471.339L719.01078,471.319L717.15078,471.489L716.32078,471.709L714.80078,472.259L713.48078,472.48L712.09078,472.549L710.69078,472.519L709.31078,472.429L708.04078,472.23L707.30078,471.98L706.30078,471.41L705.61078,471.18L704.81078,471.04L702.27078,470.79L701.09078,470.54L700.47078,470.24L699.76078,469.74L698.32078,468.9L697.43078,468.139L696.43078,466.9L695.80078,466.309L695.42078,465.839L694.64978,464.299L695.00978,464.119L698.26978,464.119L698.26978,459.119L699.48978,454.879L706.26978,454.879L709.14978,455.719L712.50978,456.749L719.30978,458.929L719.30978,458.94L720.76978,459.44L732.13978,464.12L742.60978,469 Z"
       inkscape:connector-curvature="0" />
    <path
       style="fill:none;fill-rule:evenodd;stroke:#000000"
       id="path13"
       data-varname-2="Istocno_Novo_Sarajevo"
       data-type-2="upanija|kanton"
       data-nl-name-2=""
       data-name-2="Istocno_Novo_Sarajevo"
       data-name-1="Republika Srpska"
       data-name-0="Bosnia and Herzegovina"
       data-iso="BIH"
       data-id-2="14"
       data-id-1="3"
       data-id-0="29"
       data-engtype-2="Canton"
       d="M 715.89278,634.25L719.68278,647.6L719.67278,647.59L703.56278,653.441L703.56278,662.17L699.39278,665.33L693.06278,666L687.39278,665.17L680.47278,662.17L680.33278,662.25L674.77178,661L669.39178,661L665.77178,657.25L659.27178,657.25L653.89178,654.38L648.39178,649.62L642.39178,643.75L636.01178,641.38L628.77178,638.25L622.51178,635.5L617.64178,637.12L612.90178,634.75L605.27178,634.75L600.39178,632.12L594.76178,630.64L597.97178,630.02L600.63178,629.241L603.23178,627.981L604.61178,626.991L606.52178,626.111L607.67178,625.731L609.72178,625.331L610.47178,625.031L611.38178,624.361L612.29178,623.211L613.02078,622.451L613.31078,621.901L613.72078,620.741L614.47078,619.671L614.61078,619.371L614.77078,618.681L614.82078,617.911L614.71178,614.191L614.79178,612.55L614.97178,611.78L615.71178,610.12L615.89178,609.38L615.98178,608.59L615.95178,605.35L615.68178,602.09L615.52178,601.31L615.26178,600.55L614.37178,598.83L614.13178,598.07L613.92178,596.87L613.67178,594.07L613.44178,592.969L613.16178,592.339L612.50278,591.48L612.34278,591.179L612.10278,590.499L611.68278,588.599L611.42278,587.829L622.72278,577.669L624.13278,569.169L623.39278,558.829L621.22278,550.669L618.89278,541.299L621.14278,541.739L621.84278,541.928L623.47278,542.779L624.17278,542.968L626.07178,543.298L626.77178,543.479L627.09178,543.609L628.09178,544.189L628.80178,544.428L629.60178,544.569L632.16178,544.829L632.96278,544.969L633.66178,545.199L634.66178,545.768L635.75278,546.079L637.00278,546.209L640.06278,546.369L640.89278,546.479L641.60278,546.668L642.17278,546.948L642.87278,547.468L643.95178,548.118L644.56178,548.597L645.34178,549.457L646.32078,550.847L646.93078,551.398L647.67078,551.828L648.54078,552.118L649.92078,552.318L651.79078,552.408L653.17078,552.387L654.44078,552.238L655.16078,551.988L657.06078,550.637L657.53078,550.137L657.93078,549.587L659.50078,548.907L660.43978,548.607L661.87078,548.397L663.35978,548.357L667.13978,548.466L668.63978,559.916L664.46978,565.666L657.71978,570.826L659.21978,577.416L665.05978,579.496L672.13978,576.076L680.88978,573.746L687.05978,578.246L692.13978,585.826L697.88978,592.246L701.30978,609.416L700.63978,614.076L700.05978,617.576L699.71978,622.576L702.13978,627.746 Z"
       inkscape:connector-curvature="0" />
    <path
       style="fill:none;fill-rule:evenodd;stroke:#000000"
       id="path19"
       data-varname-2="Nevesinje"
       data-type-2="upanija|kanton"
       data-nl-name-2=""
       data-name-2="Nevesinje"
       data-name-1="Republika Srpska"
       data-name-0="Bosnia and Herzegovina"
       data-iso="BIH"
       data-id-2="15"
       data-id-1="3"
       data-id-0="29"
       data-engtype-2="Canton"
       d="M 705.39278,451.38L709.15278,455.72L706.27278,454.88L699.49278,454.88L698.27278,459.12L698.27278,464.12L695.01278,464.12L694.65278,464.3L694.59278,464.18L694.24178,462.901L689.37278,462.77L688.07178,461.031L687.01178,460.001L685.35178,457.641L684.46178,456.121L683.00178,454.111L682.03078,453.071L681.72078,452.481L681.55078,451.81L681.47078,451.1L681.48078,450.39L681.71078,449.33L682.05078,448.68L683.10078,447.05L684.05078,446.08L684.35078,445.61L684.91078,444.259L685.14078,442.999L689.17078,442.409L689.21078,441.619L689.27078,441.619L693.89078,443.999L698.51078,447.619 Z"
       inkscape:connector-curvature="0" />
    <path
       style="fill:none;fill-rule:evenodd;stroke:#000000"
       id="path15"
       data-varname-2="Istocno_Sarajevo"
       data-type-2="upanija|kanton"
       data-nl-name-2=""
       data-name-2="Istocno_Sarajevo"
       data-name-1="Republika Srpska"
       data-name-0="Bosnia and Herzegovina"
       data-iso="BIH"
       data-id-2="16"
       data-id-1="3"
       data-id-0="29"
       data-engtype-2="Canton"
       d="M 705.39278,451.38L709.15278,455.72L706.27278,454.88L699.49278,454.88L698.27278,459.12L698.27278,464.12L695.01278,464.12L694.65278,464.3L694.59278,464.18L694.24178,462.901L689.37278,462.77L688.07178,461.031L687.01178,460.001L685.35178,457.641L684.46178,456.121L683.00178,454.111L682.03078,453.071L681.72078,452.481L681.55078,451.81L681.47078,451.1L681.48078,450.39L681.71078,449.33L682.05078,448.68L683.10078,447.05L684.05078,446.08L684.35078,445.61L684.91078,444.259L685.14078,442.999L689.17078,442.409L689.21078,441.619L689.27078,441.619L693.89078,443.999L698.51078,447.619 Z"
       inkscape:connector-curvature="0" />
    <path
       style="fill:none;fill-rule:evenodd;stroke:#000000"
       id="path16"
       data-varname-2="Modrica"
       data-type-2="upanija|kanton"
       data-nl-name-2=""
       data-name-2="Modrica"
       data-name-1="Republika Srpska"
       data-name-0="Bosnia and Herzegovina"
       data-iso="BIH"
       data-id-2="17"
       data-id-1="3"
       data-id-0="29"
       data-engtype-2="Canton"
       d="M 677.07278,104.54L676.99278,104.86L673.89278,103.67L666.22278,102L658.71278,104.54L658.22278,109.17L658.87278,110.92L659.87278,111.45L659.19178,112.21L653.82178,111.62L645.39178,114.25L639.14178,116.75L638.14178,123.88L631.01178,128L629.70078,131.04L626.51178,129.38L619.77178,128.12L610.89178,125.5L606.22178,124.25L602.27178,119.75L599.39178,118.12L597.77178,115L597.36178,110.12L600.14178,105.75L600.39178,99.500001L598.51178,95.500001L600.27178,91.120001L598.64178,84.850001L598.73178,84.360001L606.39178,84.170001L612.64178,84.170001L619.27178,84.170001L624.89178,81.880001L632.77178,85.500001L641.99178,85.230001L651.06178,86.180001L658.06178,79.670001L664.89178,76.500001L664.69178,75.860001L664.95178,75.750001L667.64178,76.380001L667.01178,80.750001L667.64178,83.620001L671.27178,85.500001L675.51178,85.820001L676.89178,90.370001L671.01178,92.880001L675.77178,96.880001 Z"
       inkscape:connector-curvature="0" />
    <path
       style="fill:none;fill-rule:evenodd;stroke:#000000"
       id="path17"
       data-varname-2="Doboj"
       data-type-2="upanija|kanton"
       data-nl-name-2=""
       data-name-2="Doboj"
       data-name-1="Republika Srpska"
       data-name-0="Bosnia and Herzegovina"
       data-iso="BIH"
       data-id-2="18"
       data-id-1="3"
       data-id-0="29"
       data-engtype-2="Canton"
       d="M 631.01278,131.25L635.51278,134.38L632.77278,136.85L632.64278,137.38L625.47278,141.62L621.64278,145.76L621.79278,146.34L621.51278,146.41L620.80278,146.67L620.27278,146.97L619.85278,147.45L619.71278,147.76L619.59278,148.43L619.57278,149.5L619.04378,149.7L618.58378,149.99L618.25378,150.4L618.02378,150.86L612.67378,150.64L610.82278,150.61L609.57278,150.77L609.20278,150.9L608.88378,151.1L608.64378,151.34L608.34378,151.88L607.89378,152.94L607.30378,153.74L607.16278,154.04L607.01378,154.73L606.96378,155.49L606.99278,157.12L607.31278,162.52L607.55278,163.64L607.86278,164.29L608.64278,165.13L609.62278,166.42L610.18278,167L611.13278,167.84L612.15278,168.58L613.66278,169.41L614.64278,170.06L615.38278,170.31L617.83278,170.73L618.55278,171.01L619.03178,171.35L620.30278,172.48L620.70178,173.18L620.94178,173.85L619.39178,175.75L617.01178,178L612.89178,179.62L612.89178,183.99L609.89178,182.12L607.27178,181.31L602.64178,182.38L597.77178,184.62L596.60178,186.94L591.50178,186.94L591.38178,186.46L591.14178,185.85L590.32178,184.02L589.34278,182.33L589.10278,181.58L588.86278,180.01L588.64278,176.04L588.43278,174.96L588.15278,174.33L587.30278,173.25L586.73278,172.13L586.27278,171.62L585.64278,171.3L584.92278,171.13L583.35278,170.92L582.55278,170.75L582.15278,170.63L581.39278,170.27L580.67278,169.81L579.67278,169.02L577.81278,167.24L574.72278,166.72L570.47278,166.31L569.30278,165.97L568.31278,165.4L567.57278,165.15L566.28278,164.94L564.41278,164.81L561.52278,164.77L559.65278,164.93L558.81278,165.15L557.31278,165.69L555.08378,166.25L554.54378,166.56L553.19278,167.77L552.89278,168.31L552.48278,169.46L551.77278,170.54L551.64278,170.85L551.49278,171.53L551.44278,172.28L551.49278,175.42L551.39278,176.14L551.14278,176.77L549.39278,178.77L548.49278,179.47L541.39278,179.47L535.39278,179.79L530.64278,184.5L526.39278,180L526.39278,174.5L521.39278,168.5L511.89278,168.5L507.39278,162.5L504.86278,151.87L505.70278,145.81L518.12378,133.83L519.56278,135.17L521.39278,139.01L526.72278,141.17L531.72278,144.33L540.56278,143L546.39278,141.17L552.22278,140.33L551.06278,147.33L555.06278,143L555.72278,139.01L560.39278,134.17L565.22278,131.5L563.72278,122.17L568.72278,120L577.89278,118.17L575.06278,112.83L577.95278,109.67L579.89278,106L582.72278,102.33L586.39278,96.170001L591.22278,90.370001L596.52278,83.870001L597.56278,84.130001L598.73278,84.360001L598.64278,84.850001L600.27278,91.120001L598.51278,95.500001L600.39278,99.500001L600.14278,105.75L597.36278,110.12L597.77278,115L599.39278,118.12L602.27278,119.75L606.22278,124.25L610.89278,125.5L619.77278,128.12L626.51278,129.38L629.70178,131.04 Z"
       inkscape:connector-curvature="0" />
    <path
       style="fill:none;fill-rule:evenodd;stroke:#000000"
       id="path18-7"
       data-varname-2="Brod"
       data-type-2="upanija|kanton"
       data-nl-name-2=""
       data-name-2="Brod"
       data-name-1="Republika Srpska"
       data-name-0="Bosnia and Herzegovina"
       data-iso="BIH"
       data-id-2="19"
       data-id-1="3"
       data-id-0="29"
       data-engtype-2="Canton"
       d="M 625.46378,66.060001L620.56378,70.500001L615.06378,72.830001L612.72378,80.000001L606.39378,84.170001L598.73378,84.360001L597.56378,84.130001L596.52378,83.870001L595.39378,83.500001L587.56378,79.500001L573.56378,81.170001L569.39378,71.670001L564.39378,73.330001L554.72378,74.760001L542.72378,74.500001L540.72378,69.330001L538.50378,63.000001L540.67378,61.560001L540.70278,61.540001L541.16278,61.230001L545.11278,57.820001L546.54378,53.430001L546.38378,50.170001L546.96378,47.480001L550.39378,46.420001L551.26378,46.150001L553.80378,43.760001L554.62378,40.110001L555.41278,39.010001L556.65278,37.270001L559.28278,35.400001L561.50378,34.530001L564.60378,35.550001L567.44378,38.740001L571.12478,41.880001L572.74378,39.530001L574.71478,37.610001L577.29478,37.680001L578.88478,39.770001L581.35478,43.180001L580.66478,44.790001L580.44478,45.310001L580.57478,45.880001L580.88578,47.260001L581.90578,47.730001L582.36578,47.940001L584.85578,49.090001L587.47578,51.530001L589.65578,54.670001L590.43578,54.800001L594.77578,55.510001L594.94578,55.490001L601.23578,54.810001L601.35578,54.860001L602.56578,55.360001L604.85578,56.320001L607.88578,57.590001L608.04578,57.560001L609.46578,58.370001L610.59578,58.850001L610.56578,58.870001L612.55578,59.940001L614.34578,60.780001L615.50578,61.680001L617.02578,62.660001L617.57578,62.820001L618.31578,62.800001L621.52578,63.460001L622.73578,63.780001L623.49578,64.130001L624.45578,64.870001 Z"
       inkscape:connector-curvature="0" />
    <path
       style="fill:none;fill-rule:evenodd;stroke:#000000"
       id="path25"
       data-varname-2="Derventa"
       data-type-2="upanija|kanton"
       data-nl-name-2=""
       data-name-2="Derventa"
       data-name-1="Republika Srpska"
       data-name-0="Bosnia and Herzegovina"
       data-iso="BIH"
       data-id-2="20"
       data-id-1="3"
       data-id-0="29"
       data-engtype-2="Canton"
       d="M 596.52278,83.870001L591.22278,90.370001L586.39278,96.170001L582.72278,102.33L579.89278,106L577.95278,109.67L575.06278,112.83L577.89278,118.17L568.72278,120L563.72278,122.17L565.22278,131.5L560.39278,134.17L555.72278,139.01L555.06278,143L551.06278,147.33L552.22278,140.33L546.39278,141.17L540.56278,143L531.72278,144.33L526.72278,141.17L521.39278,139.01L519.56278,135.17L518.12378,133.83L517.22378,128L516.06378,118.67L511.89378,110.83L512.72378,102.5L513.62378,97.670001L510.22378,92.500001L509.24378,87.330001L510.72378,81.740001L506.22378,81.670001L504.88378,80.830001L505.22378,77.670001L506.89378,72.500001L509.06378,67.830001L513.62478,61.550001L516.42478,63.820001L521.14478,66.710001L526.19478,68.020001L530.57478,67.700001L536.70478,64.190001L538.50578,63.000001L540.72578,69.330001L542.72578,74.500001L554.72578,74.760001L564.39578,73.330001L569.39578,71.670001L573.56578,81.170001L587.56578,79.500001L595.39578,83.500001 Z"
       inkscape:connector-curvature="0" />
    <path
       style="fill:none;fill-rule:evenodd;stroke:#000000"
       id="path20-7"
       data-varname-2="Teslic"
       data-type-2="upanija|kanton"
       data-nl-name-2=""
       data-name-2="Teslic"
       data-name-1="Republika Srpska"
       data-name-0="Bosnia and Herzegovina"
       data-iso="BIH"
       data-id-2="21"
       data-id-1="3"
       data-id-0="29"
       data-engtype-2="Canton"
       d="M 567.17378,230.98L567.40278,235.45L567.30278,237.62L566.71278,239.85L565.90178,242.41L565.46278,243.51L564.58278,245.31L559.77178,246.44L559.06178,246.69L558.76178,246.87L558.14178,247.5L556.34178,250.05L555.56178,250.77L554.87278,251.54L554.06178,252.26L553.13178,253.49L552.22178,254.48L549.86178,255.42L547.53178,256.17L545.68178,256.98L544.33178,257.46L542.49078,258.23L540.23078,258.77L538.68078,259.58L536.40978,260.12L534.55978,260.83L532.28978,261.37L531.97878,261.49L531.03978,262.03L530.71978,262.15L529.56978,262.33L526.62078,262.45L525.87078,262.59L525.55078,262.71L524.33078,263.39L523.00078,263.76L522.39078,264.03L521.59078,264.69L520.71078,265.27L519.89978,265.92L519.29978,266.17L518.28978,266.44L517.67978,266.7L516.12978,268.09L515.87978,268.55L515.70978,269.06L514.26978,269.37L513.30978,269.7L512.20978,271.39L503.13978,268.5L499.88978,264.69L493.88978,264.69L497.30978,256.51L493.13978,254L485.13978,255.5L483.63978,248.54L482.38978,239.76L469.63978,239.75L467.63978,233.4L470.88978,230.71L473.63978,228.5L477.38978,225L473.13978,218L467.88978,213.75L463.13978,206.25L463.13978,200.5L461.63978,194L461.10978,191.71L463.21978,185.33L462.46978,179.67L463.83978,175.5L467.05978,174L471.07978,172.89L471.38978,173.5L477.45978,178.33L482.38978,179.67L488.88978,176L501.05978,172L507.38978,162.5L511.88978,168.5L521.38978,168.5L526.38978,174.5L526.38978,180L530.63978,184.5L535.38978,179.79L541.38978,179.47L548.48978,179.47L547.13978,180.37L546.57978,180.89L545.37978,181.74L544.99978,182.18L544.69878,182.72L544.12978,184.11L543.59978,186.1L542.87078,187.2L542.72978,187.52L542.51978,188.62L542.51978,189.82L542.67978,191.01L542.91978,191.74L543.09978,192.06L543.95978,193.17L544.50978,194.35L544.85978,194.91L545.67078,195.72L546.44078,196.69L546.98078,197.25L547.61078,197.77L548.48078,198.37L549.46078,199.16L550.71078,200L551.52978,200.79L552.42078,201.53L554.04078,203.78L555.18978,205.63L557.41978,208.08L558.41978,209.37L559.48878,210.4L561.63878,213.31L562.72878,216.16L563.56878,218.73L563.85878,219.32L564.51878,220.2L564.80878,220.88L565.04878,222.05L565.29878,224.59L565.50878,225.86L565.75878,226.68L566.76878,228.82L566.97878,229.67 Z"
       inkscape:connector-curvature="0" />
    <path
       style="fill:none;fill-rule:evenodd;stroke:#000000"
       id="path21"
       data-varname-2="Prnjavor"
       data-type-2="upanija|kanton"
       data-nl-name-2=""
       data-name-2="Prnjavor"
       data-name-1="Republika Srpska"
       data-name-0="Bosnia and Herzegovina"
       data-iso="BIH"
       data-id-2="22"
       data-id-1="3"
       data-id-0="29"
       data-engtype-2="Canton"
       d="M 516.06278,118.67L517.22278,128L518.12278,133.83L505.70178,145.81L504.86178,151.87L507.39178,162.5L501.06178,172L488.89178,176L482.39178,179.67L477.46178,178.33L471.39178,173.5L471.08178,172.89L477.39178,163.5L469.39178,163.5L464.39178,161L460.00178,156.67L461.39178,147.52L454.39178,146.83L449.56178,148.83L443.39178,149.17L443.39178,155L437.89178,151.67L431.55178,145.93L432.64178,145.25L434.89178,139.01L425.50178,131L433.39178,122.5L435.42178,112.6L438.39178,112.17L437.39178,105.5L442.89178,105.67L446.22178,102.67L453.22178,108.5L459.72178,108.5L462.89178,107.67L468.56178,102.67L465.06178,98.000001L472.06178,92.830001L477.06178,89.500001L488.39178,87.330001L494.06178,89.170001L504.86178,80.830001L504.88278,80.830001L506.22278,81.670001L510.72278,81.740001L509.24278,87.330001L510.22278,92.500001L513.62278,97.670001L512.72278,102.5L511.89278,110.83 Z"
       inkscape:connector-curvature="0" />
    <path
       style="fill:none;fill-rule:evenodd;stroke:#000000"
       id="path22-2"
       data-varname-2="Srbac"
       data-type-2="upanija|kanton"
       data-nl-name-2=""
       data-name-2="Srbac"
       data-name-1="Republika Srpska"
       data-name-0="Bosnia and Herzegovina"
       data-iso="BIH"
       data-id-2="23"
       data-id-1="3"
       data-id-0="29"
       data-engtype-2="Canton"
       d="M 435.42278,112.6L434.89278,110L432.06278,104.54L429.72278,97.000001L421.89278,93.830001L418.72278,86.500001L415.13278,82.790001L416.06278,81.500001L416.06278,77.330001L418.06278,75.000001L421.06278,69.830001L421.06278,66.670001L421.39278,57.500001L418.06278,50.500001L425.50278,44.610001L427.49278,45.480001L428.27278,45.820001L430.38278,45.670001L430.79278,45.640001L432.54278,44.910001L433.96278,44.010001L434.00278,43.980001L434.97278,43.360001L434.71278,44.060001L434.48278,44.650001L434.13278,45.580001L433.23278,46.860001L433.22278,48.580001L433.21278,49.130001L434.94278,50.740001L435.74278,50.860001L438.37278,51.260001L440.89278,51.790001L444.33278,52.250001L447.29278,51.140001L449.31278,48.900001L450.27278,47.060001L450.53278,46.790001L450.93278,46.360001L451.99278,45.260001L452.27278,46.260001L452.54278,47.220001L452.57278,47.340001L452.70278,48.490001L452.78278,49.140001L454.07278,49.840001L455.36278,50.540001L456.14278,50.260001L457.27278,49.850001L458.14278,49.540001L460.91278,49.400001L463.21278,50.320001L463.22278,50.330001L465.34278,50.580001L465.49278,50.570001L467.69278,50.450001L470.11278,49.050001L472.23278,46.610001L473.56278,45.580001L475.45278,44.120001L479.27278,43.200001L479.39278,43.170001L481.61278,43.440001L482.51278,44.180001L483.43278,44.930001L485.15278,46.550001L487.82278,48.190001L488.14278,48.380001L488.41278,48.540001L491.85278,50.790001L494.64278,52.610001L497.60278,54.540001L499.01278,55.460001L499.82278,55.990001L502.00278,57.410001L504.48178,57.230001L506.53178,57.080001L506.94178,57.170001L507.72178,57.640001L510.75178,59.450001L511.82078,60.090001L512.72078,60.810001L513.62078,61.550001L509.05978,67.830001L506.88978,72.500001L505.21978,77.670001L504.87978,80.830001L504.85878,80.830001L494.05878,89.170001L488.38878,87.330001L477.05878,89.500001L472.05878,92.830001L465.05878,98.000001L468.55878,102.67L462.88878,107.67L459.71878,108.5L453.21878,108.5L446.21878,102.67L442.88878,105.67L437.38878,105.5L438.38878,112.17 Z"
       inkscape:connector-curvature="0" />
    <path
       style="fill:none;fill-rule:evenodd;stroke:#000000"
       id="path23"
       data-varname-2="Kotor_Varos"
       data-type-2="upanija|kanton"
       data-nl-name-2=""
       data-name-2="Kotor_Varos"
       data-name-1="Republika Srpska"
       data-name-0="Bosnia and Herzegovina"
       data-iso="BIH"
       data-id-2="24"
       data-id-1="3"
       data-id-0="29"
       data-engtype-2="Canton"
       d="M 512.21378,271.39L511.42378,272.1L510.73378,272.86L509.29478,273.94L508.71478,274.24L507.95378,274.4L506.65378,274.46L501.96478,274.25L500.62478,274.24L499.40378,274.4L498.73378,274.72L498.32378,275.23L497.76378,276.59L497.32378,277.18L497.06378,277.7L496.74378,279.76L496.51378,280.4L496.30378,280.68L495.75378,281.05L494.21378,281.62L493.55378,282.04L492.96378,282.3L492.20378,282.45L490.94378,282.52L489.64378,282.46L488.40378,282.25L488.03378,282.13L487.42378,281.8L486.74378,281.27L485.64378,280.52L484.85378,279.74L481.31378,280.53L478.93378,280.83L468.39378,274.92L472.89378,269.93L464.64378,269.93L453.64378,259.5L440.64378,253.75L440.64378,240.25L430.51378,235.75L426.89378,230.71L418.89378,219.5L410.89378,221.25L404.39378,225.5L398.37378,222.75L395.23378,218.25L393.56378,210.25L396.64378,201L391.31378,198.15L392.46378,198L402.64378,188.5L405.89378,181.5L413.39378,184.62L420.14378,184.62L429.71378,191L434.89378,195L442.39378,196.04L449.14378,192.44L457.39378,189.66L461.11378,191.71L461.64378,194L463.14378,200.5L463.14378,206.25L467.89378,213.75L473.14378,218L477.39378,225L473.64378,228.5L470.89378,230.71L467.64378,233.4L469.64378,239.75L482.39378,239.76L483.64378,248.54L485.14378,255.5L493.14378,254L497.31378,256.51L493.89378,264.69L499.89378,264.69L503.14378,268.5 Z"
       inkscape:connector-curvature="0" />
    <path
       style="fill:none;fill-rule:evenodd;stroke:#000000"
       id="path24-3"
       data-varname-2="Celinac"
       data-type-2="upanija|kanton"
       data-nl-name-2=""
       data-name-2="Celinac"
       data-name-1="Republika Srpska"
       data-name-0="Bosnia and Herzegovina"
       data-iso="BIH"
       data-id-2="25"
       data-id-1="3"
       data-id-0="29"
       data-engtype-2="Canton"
       d="M 469.39278,163.5L477.39278,163.5L471.08278,172.89L467.06278,174L463.84278,175.5L462.47278,179.67L463.22278,185.33L461.11278,191.71L457.39278,189.66L449.14278,192.44L442.39278,196.04L434.89278,195L429.71278,191L420.14278,184.62L413.39278,184.62L405.89278,181.5L402.64278,188.5L392.46278,198L391.31278,198.15L388.39278,196.64L380.50278,196.63L380.39278,191.5L380.89278,186.17L381.72278,179L382.72278,175.5L388.39278,164.33L390.72278,159.67L399.39278,154.83L395.72278,149.33L394.56278,145.17L392.47278,143.31L399.64278,144.75L410.89278,149.75L421.64278,148.75L429.39278,151.87L431.55278,145.93L437.89278,151.67L443.39278,155L443.39278,149.17L449.56278,148.83L454.39278,146.83L461.39278,147.52L460.00278,156.67L464.39278,161 Z"
       inkscape:connector-curvature="0" />
    <path
       style="fill:none;fill-rule:evenodd;stroke:#000000"
       d="M 434.89278,139.01LCL434.05111,141.0977L433.48463,143.40773L432.47146,145.35688L430.95269,145.95771L431.06868,147.88295L430.37968,149.15602L429.78004,149.91324L429.97495,152.45136L428.64352,151.56836L426.23809,150.66825L423.87015,149.51133L421.44172,148.7687L417.86957,149.03398L414.25281,149.57089L410.70826,149.66799L406.87903,148.02965L403.12083,146.16822L399.24684,144.67048L396.98882,144.21699L394.7308,143.76349L392.47278,143.31L391.36655,141.7579L389.71696,140.49334L388.97729,138.74727L388.27526,136.67693L388.14238,134.32446L386.51089,132.71488L384.36987,130.00843L382.61222,126.9503L379.81507,124.84574L377.45578,122.6482L374.8775,120.59971L372.65272,118.31062L371.83334,115.8346L370.64958,113.42382L370.06278,110.90615L370.06278,108.54744L370.06278,106.18872L370.06278,103.83L368.48945,101.94L366.91611,100.05L365.34278,98.160001L366.20295,96.790591L367.92042,96.109524L369.12655,95.017893L371.03375,93.687061L372.86539,92.114445L374.973,91.155934L376.44626,90.713957L377.91952,90.271979L379.39278,89.830001L379.94945,90.943334L380.50611,92.056668L381.06278,93.170001L383.44945,93.170001L385.83611,93.170001L388.22278,93.170001L390.47034,91.171783L392.82831,89.277553L394.52042,86.756205L396.32546,84.915548L398.12397,83.000547L400.52511,81.941322L401.56327,80.961327L402.82422,81.259048L404.08258,81.541914L407.72323,82.312669L411.42666,82.562475L415.13278,82.790001L416.67146,84.594489L418.85739,85.96695L419.52429,88.353343L420.31379,90.178896L421.10328,92.004448L421.89278,93.830001L424.50278,94.886668L427.11278,95.943334L429.72278,97.000001L430.932,100.56917L431.63767,104.34507L433.64242,107.58764L434.59374,109.23383L435.44676,111.07158L435.34166,112.99562L434.69203,116.16374L434.04241,119.33187L433.39278,122.5L430.76278,125.33333L428.13278,128.16667L425.50278,131L428.63278,133.67L431.76278,136.34L434.89278,139.01 Z"
       id="path32-1"
       inkscape:connector-curvature="0" />
    <path
       style="fill:none;fill-rule:evenodd;stroke:#000000"
       id="path26-2"
       data-varname-2="Gradiska"
       data-type-2="upanija|kanton"
       data-nl-name-2=""
       data-name-2="Gradiska"
       data-name-1="Republika Srpska"
       data-name-0="Bosnia and Herzegovina"
       data-iso="BIH"
       data-id-2="26"
       data-id-1="3"
       data-id-0="29"
       data-engtype-2="Canton"
       d="M 424.30278,42.800001L425.50278,44.610001L418.06278,50.500001L421.39278,57.500001L421.06278,66.670001L421.06278,69.830001L418.06278,75.000001L416.06278,77.330001L416.06278,81.500001L415.13278,82.790001L408.72278,82.330001L401.89278,81.170001L398.06278,83.330001L394.72278,86.500001L392.39278,89.450001L388.22278,93.170001L381.06278,93.170001L379.39278,89.830001L374.39278,91.330001L370.72278,93.830001L365.56278,97.670001L365.34278,98.160001L364.95278,98.000001L358.01278,93.620001L358.01278,88.620001L353.14278,84.380001L346.27278,87.000001L342.77278,86.620001L337.89278,87.620001L334.51278,91.010001L326.87278,90.500001L326.86278,90.500001L324.56278,87.000001L322.39278,80.330001L316.06278,78.670001L311.72278,75.350001L306.97278,74.000001L301.22278,72.000001L295.22278,68.670001L298.05278,65.040001L304.89278,60.170001L312.56278,58.670001L314.22278,54.000001L313.92278,48.500001L314.66278,42.830001L314.66278,39.500001L315.06278,35.330001L318.20278,31.170001L318.20278,24.170001L316.89278,21.170001L318.20278,16.810001L318.20278,16.800001L319.36278,16.140001L320.23278,17.060001L321.07278,17.950001L321.51278,18.480001L322.76278,19.980001L323.00278,20.150001L325.99278,22.300001L328.47278,24.350001L328.81278,24.630001L329.25278,24.890001L329.35278,24.950001L332.40278,26.730001L336.31278,28.300001L340.32278,29.600001L344.13278,31.230001L346.84278,32.770001L349.21278,34.120001L350.80278,35.050001L352.56278,36.090001L353.58278,36.690001L354.61278,36.950001L359.00278,38.060001L361.35278,38.310001L363.77278,38.560001L370.96278,39.000001L376.26278,39.230001L377.85278,37.690001L378.76278,34.850001L379.78278,31.800001L381.15278,27.890001L381.79278,28.280001L385.04278,30.250001L385.33278,30.280001L389.08278,30.580001L389.13278,30.760001L389.87278,33.820001L390.90278,33.900001L391.86278,33.980001L391.93278,33.990001L392.08278,34.090001L392.66278,34.480001L393.94278,35.360001L395.29278,36.300001L395.64278,36.540001L395.72278,36.730001L396.17278,37.690001L396.23278,37.830001L396.35278,37.940001L398.12278,39.540001L401.68278,41.250001L401.98278,41.400001L405.96278,42.280001L411.39278,42.830001L416.09278,43.250001L416.64278,43.190001L419.12278,42.930001L419.85278,41.630001L421.26278,38.930001L422.81278,36.580001L422.88278,36.480001L423.39278,37.050001L423.95278,37.990001L423.97278,38.450001L424.01278,39.560001L423.76278,41.010001L424.27278,42.700001L424.27278,42.710001 Z"
       inkscape:connector-curvature="0" />
    <path
       style="fill:none;fill-rule:evenodd;stroke:#000000"
       id="path27"
       data-varname-2="Banja_Luka"
       data-type-2="upanija|kanton"
       data-nl-name-2=""
       data-name-2="Banja_Luka"
       data-name-1="Republika Srpska"
       data-name-0="Bosnia and Herzegovina"
       data-iso="BIH"
       data-id-2="26"
       data-id-1="3"
       data-id-0="29"
       data-engtype-2="Canton"
       d="M 380.50278,196.63L379.06278,202.5L386.56278,211.83L389.72278,219.33L392.39278,227.67L390.97278,233.4L390.96278,233.4L387.89278,233.67L379.89278,238L374.22278,236.17L371.53278,231.5L370.56278,229L370.14278,225.38L366.64278,219.59L359.27278,213.31L348.36278,222.72L336.73278,233L331.43278,233L325.89278,229.79L321.46278,226.78L321.46278,226.77L318.81278,220.33L319.89278,208.33L321.47278,201.92L313.31278,201.17L307.39278,199.58L306.14278,193.75L304.17278,192.47L305.64278,192.44L306.14278,186.25L300.77278,180.5L289.01278,172.12L288.14278,158L275.14278,152.62L271.01278,140L278.89278,138L286.56278,137L292.56278,138.33L300.22278,138L307.89278,140L307.89278,136.33L305.22278,129.5L308.22278,121L309.39278,114L312.22278,107.33L319.81278,100.33L325.72278,92.500001L326.86278,90.500001L326.87278,90.500001L334.51278,91.010001L337.89278,87.620001L342.77278,86.620001L346.27278,87.000001L353.14278,84.380001L358.01278,88.620001L358.01278,93.620001L364.95278,98.000001L365.34278,98.160001L370.06278,103.83L370.06278,111.31L372.72278,118.5L382.22278,127L387.72278,134.33L389.14278,139.33L392.47278,143.31L394.56278,145.17L395.72278,149.33L399.39278,154.83L390.72278,159.67L388.39278,164.33L382.72278,175.5L381.72278,179L380.89278,186.17L380.39278,191.5 Z"
       inkscape:connector-curvature="0" />
    <path
       style="fill:none;fill-rule:evenodd;stroke:#000000"
       id="path28-6"
       data-varname-2="Mrkonjic_Grad"
       data-type-2="upanija|kanton"
       data-nl-name-2=""
       data-name-2="Mrkonjic_Grad"
       data-name-1="Republika Srpska"
       data-name-0="Bosnia and Herzegovina"
       data-iso="BIH"
       data-id-2="27"
       data-id-1="3"
       data-id-0="29"
       data-engtype-2="Canton"
       d="M 393.39278,235.83L390.39278,242.17L388.96278,249.59L386.41278,249.32L385.51278,250.44L385.11278,250.83L383.38278,251.64L382.91278,252.14L382.76278,252.46L382.57278,253.58L382.62278,256.53L382.58278,257.78L382.45278,258.58L382.04278,259.58L382.17278,261.61L382.22278,261.91L381.72278,262L376.56278,266.17L376.97278,270.92L371.59278,277.87L370.72278,277.33L366.06278,275.83L360.21278,282.89L356.22278,282L349.89278,280.83L344.39278,280.83L340.22278,289.67L342.22278,296.33L335.40278,300.17L335.39278,307.33L323.89278,318.67L326.72278,327.32L321.06278,330.83L315.22278,327.5L310.75278,328.25L309.23278,326.33L308.58278,326.09L307.13278,325.04L305.54278,323.52L305.17278,323.05L304.45278,321.59L304.00278,321.11L301.74278,319.81L299.57278,318.92L296.27278,317.37L295.55278,316.89L294.57278,316.07L293.70278,315.21L292.62278,313.95L292.08278,313.59L288.63278,311.67L287.78278,310.9L287.10278,310.37L286.68278,309.94L284.35278,306.67L283.45278,305.93L282.63278,305.13L281.86278,304.63L286.64278,299.5L292.14278,291.75L294.14278,278.9L299.06278,276.75L308.39278,272.58L307.72278,268.08L310.22278,264.33L309.31278,255.75L303.14278,246.5L305.97278,245.08L311.14278,240.67L319.97278,240.67L325.47278,245.42L326.89278,241.42L322.22278,234.33L321.39278,227.83L321.46278,226.78L325.89278,229.79L331.43278,233L336.73278,233L348.36278,222.72L359.27278,213.31L366.64278,219.59L370.14278,225.38L370.56278,229L371.53278,231.5L374.22278,236.17L379.89278,238L387.89278,233.67L390.96278,233.4L390.97278,233.4 Z"
       inkscape:connector-curvature="0" />
    <path
       style="fill:none;fill-rule:evenodd;stroke:#000000"
       id="path29"
       data-varname-2="Kozarska_Dubica"
       data-type-2="upanija|kanton"
       data-nl-name-2=""
       data-name-2="Kozarska_Dubica"
       data-name-1="Republika Srpska"
       data-name-0="Bosnia and Herzegovina"
       data-iso="BIH"
       data-id-2="28"
       data-id-1="3"
       data-id-0="29"
       data-engtype-2="Canton"
       d="M 298.05278,65.040001L297.06278,65.000001L287.22278,65.070001L265.89278,63.670001L261.22278,60.000001L258.06278,54.330001L249.22278,57.500001L243.72278,60.170001L237.72278,59.000001L232.39278,59.170001L227.72278,58.670001L223.97278,58.100001L223.22278,54.830001L216.72278,53.500001L213.39278,47.670001L216.72278,44.500001L220.56278,41.330001L223.89278,34.500001L222.56278,30.170001L219.68278,28.330001L219.89278,22.500001L221.01278,19.190001L221.01278,19.180001L221.99278,19.770001L226.66278,21.220001L229.76278,21.660001L233.21278,22.150001L237.94278,22.270001L241.18278,21.520001L244.43278,20.710001L245.54278,21.030001L248.87278,21.990001L253.90278,23.920001L259.70278,25.680001L263.98278,26.800001L267.48278,26.810001L267.89278,26.720001L269.08278,26.480001L270.71278,26.140001L271.01278,25.820001L272.87278,23.850001L272.88278,23.830001L273.04278,22.720001L273.26278,21.180001L273.32278,18.350001L273.35278,18.280001L274.26278,15.150001L274.92278,15.180001L275.67278,15.210001L277.72278,14.980001L278.11278,14.930001L278.79278,14.080001L279.27278,13.470001L281.34278,12.840001L281.62278,12.710001L283.63278,11.760001L283.89278,11.580001L285.03278,10.800001L285.70278,10.350001L287.84278,8.3200006L287.90278,8.2600006L288.77278,7.2000006L289.50278,6.3100006L289.57278,6.2300006L291.06278,3.3900006L293.06278,0.6000006L293.13278,0.5000006L293.36278,0.6200006L293.57278,0.7400006L294.99278,1.5200006L295.80278,1.9600006L296.46278,3.4700006L296.08278,3.9700006L294.71278,5.7700006L293.96278,8.7200006L293.58278,11.360001L294.64278,13.790001L295.55278,13.850001L296.46278,13.910001L299.15278,13.720001L299.40278,13.700001L300.69278,13.990001L303.05278,14.520001L305.52278,15.080001L305.73278,15.130001L305.79278,15.010001L305.96278,14.610001L306.38278,13.630001L306.63278,13.060001L305.36278,10.320001L304.71278,8.3100006L304.49278,7.6300006L306.53278,8.7900006L307.69278,11.020001L308.40278,12.890001L308.56278,13.290001L309.24278,15.010001L311.34278,15.670001L311.86278,15.230001L312.63278,14.580001L312.81278,14.050001L313.36278,12.490001L314.64278,12.250001L314.33278,14.260001L314.01278,15.080001L313.73278,15.810001L313.80278,17.450001L314.05278,17.520001L315.73278,18.020001L317.18278,17.340001L317.58278,17.160001L318.20278,16.810001L316.89278,21.170001L318.20278,24.170001L318.20278,31.170001L315.06278,35.330001L314.66278,39.500001L314.66278,42.830001L313.92278,48.500001L314.22278,54.000001L312.56278,58.670001L304.89278,60.170001 Z"
       inkscape:connector-curvature="0" />
    <path
       style="fill:none;fill-rule:evenodd;stroke:#000000"
       id="path30-5"
       data-varname-2="Bosanski_Novi"
       data-type-2="upanija|kanton"
       data-nl-name-2=""
       data-name-2="Bosanski_Novi"
       data-name-1="Republika Srpska"
       data-name-0="Bosnia and Herzegovina"
       data-iso="BIH"
       data-id-2="29"
       data-id-1="3"
       data-id-0="29"
       data-engtype-2="Canton"
       d="M 215.89278,77.670001L213.56278,83.830001L208.22278,90.170001L203.72278,93.170001L195.22278,96.830001L193.72278,102.17L194.89278,111.31L194.87278,111.61L178.56278,111.67L170.81278,116L167.27278,120.79L162.64278,111.32L158.97278,109.17L149.56278,110.25L148.56278,103.25L143.31278,107.75L136.89278,111.31L137.22278,104.42L134.56278,100.25L129.56278,96.670001L131.10278,89.060001L132.48278,88.330001L133.09278,87.940001L133.83278,87.350001L134.42278,87.050001L135.18278,86.870001L137.87278,86.570001L138.98278,86.200001L140.60278,85.440001L141.12278,85.140001L141.89278,84.420001L142.75278,83.820001L143.53278,83.140001L144.13278,82.880001L145.45278,82.490001L146.65278,81.820001L146.98278,81.690001L147.75278,81.540001L148.60278,81.490001L153.22278,81.500001L156.84278,81.300001L155.16278,79.870001L154.10278,79.140001L152.41278,78.350001L152.94278,76.920001L152.92278,73.870001L151.67278,70.790001L152.87278,69.150001L153.13278,68.800001L153.74278,68.350001L155.91278,66.780001L160.28278,67.030001L163.04278,63.730001L163.05278,63.660001L163.43278,61.520001L163.53278,59.050001L163.73278,57.500001L174.39278,61.000001L190.06278,65.330001L206.56278,71.330001L211.74278,73.140001 Z"
       inkscape:connector-curvature="0" />
  </g>
  <path
     id="path6281"
     style="stroke-linejoin:miter;stroke-opacity:1.0;fill-opacity:1.0;stroke:#000000;stroke-linecap:butt;stroke-width:1.0;fill:none"
     d="" />
</svg>
