<?xml version="1.0" encoding="utf-8"?>
<!-- Generator: Adobe Illustrator 16.0.0, SVG Export Plug-In . SVG Version: 6.00 Build 0)  -->
<!DOCTYPE svg PUBLIC "-//W3C//DTD SVG 1.1//EN" "http://www.w3.org/Graphics/SVG/1.1/DTD/svg11.dtd">
<svg version="1.1" id="Mapa" xmlns="http://www.w3.org/2000/svg" xmlns:xlink="http://www.w3.org/1999/xlink" x="0px" y="0px"
	 width="1000px" height="828px" viewBox="0 0 1000 828" enable-background="new 0 0 1000 828" xml:space="preserve">
<path fill="none" stroke="#000000" d="M985.481,371.54l1.329,0.83c-1.35,0.03-0.81-0.2-3.81,0c-3,0.2-7.83,0.8-11.67,0
	c-3.83-0.8-5.16-1.54-9.5-3.2c-4.33-1.67-5.33-1.5-7.16-1.34c-1.47,0.14-1.87,1.23-4.78,1.92v-0.01c0,0-2.93-2.24,0-4.07
	c2.94-1.84,5.28-1.34,4.44-3.17c-0.83-1.83,1.17-2,2.67-1.67c1.5,0.34,4.67-2.33,1.83-4c-2.83-1.66-5.1-0.83-4.55-3.16
	c0.55-2.34,2.779-3.17,0-2.84c-2.78,0.34-5.101,2.36-5.69-0.07c-0.59-2.43-2.09-5.26-3.26-3.76c-1.16,1.5-1.66,2.83-4.16,1.5
	s-3.34-1.17-3.67-3.75s1.67-3.08,0-4.58s-2.17-1.34-3-2c-0.83-0.67-4.83,0-4.83,0s-3.34-1.93-3.5-0.3
	c-0.17,1.63-3.84,2.39-5.67-0.65c-1.83-3.05,1.33-3.39-3-4.05c-4.33-0.67-7.5-1.17-8.83-1.84c-1.34-0.66-0.5-3.83-3.34-2
	c-2.83,1.84-8.33,2.84-10,2.5c-1.66-0.33-5.66,1.34-5.66,1.84s-2.84,0.83-3.17,2c-1.17,0.08-5.33-3.67-6.42-5.67
	c-1.08-2-0.66-1.58-3.25-3.25c-2.58-1.67-3.58-1.83-4.66-4.42c-1.09-2.58-2.5-0.75-4.67-1s-3.08-1.33-3.35-3.16
	c-0.271-1.84,0-3.33,0-3.33c1.399-0.4,0.39-0.68,0.68-2.01c0.34-1.5-0.66-2.66,0-5.19c0.3-1.11,0.49-1.3,0.63-1.16v0.01
	c0.16,0.19,0.21,0.86,0.21,0.86s2,0.65,3,0c1-0.64,2.33-0.85,3.33-0.18c1,0.66,5.17-0.5,7.17-2.5s3,2.83,4.33,1.26
	c1.33-1.58,4-0.6,6.83-0.1c2.1,0.37,3.37-0.44,3.89-0.89l1.99,0.57l0.69-0.03l2.39-0.12l3.76-1.15l2.83-1.06l2.51,0.15l0.94,0.06
	l2.3,1.05l2.5-0.06l2.601-0.01h0.13l2.739,3.36l0.32,0.49l1.96,3.12l1.78,1.96l0.45,0.5l0.649,3.49l-0.05,0.42l-0.29,2.51l2.36,2.7
	l1.029,2.64l1.04,3.57l2.44,1.68l1.12,0.77l3.81,1.94l3.2,1.59l1.61,1.38l1.13,0.97l2.6,2.69l2.36,2.63l2.45,1.65l3.069,0.43
	l3.74-0.58l1.36-0.63l0.97-0.45l0.95,2.2l0.27,2.28l0.03,0.27l1.07,2.44l2.87,2.53l2.3,2.98l2.189,3.1l3.091,2.94l0.18,0.17
	l4.399,2.27l2.931,1.69l3.729,2.85L985.481,371.54z"
	data-engtype-1="Opstina"
    data-id-0="29"
    data-id-1="3"
	data-id-2="1"
    data-iso="BIH"
    data-name-0="Bosnia and Herzegovina"
    data-name-1="Republika Srpska"
    data-name-2="Bratunac"
    data-nl-name-2=""
    data-type-2="Opstina"
    data-varname-2="Bratunac"
    id="path2"/>
 
<path fill="none" stroke="#000000" d="M999.12,378.41l-0.521-1.97l0.341-3.85l-0.79-0.29l-2.32-0.86l-1.13-2.02l-1.75-1.74
	l-0.72-0.71l-2.78,0.27l-0.54,0.8l-0.351,0.51l0.11,2.23l0.48,1.53l-1.58,0.53l-0.03-0.02l-0.73-0.45c-1.35,0.03-0.81-0.2-3.81,0
	c-3,0.2-7.83,0.8-11.67,0c-3.83-0.8-5.16-1.54-9.5-3.2c-4.33-1.67-5.33-1.5-7.16-1.34c-1.47,0.14-1.87,1.23-4.78,1.92v-0.01
	c0,0-2.93-2.24,0-4.07c2.94-1.84,5.28-1.34,4.44-3.17c-0.83-1.83,1.17-2,2.67-1.67c1.5,0.34,4.67-2.33,1.83-4
	c-2.83-1.66-5.1-0.83-4.55-3.16c0.55-2.34,2.779-3.17,0-2.84c-2.78,0.34-5.101,2.36-5.69-0.07c-0.59-2.43-2.09-5.26-3.26-3.76
	c-1.16,1.5-1.66,2.83-4.16,1.5s-3.34-1.17-3.67-3.75s1.67-3.08,0-4.58s-2.17-1.34-3-2c-0.83-0.67-4.83,0-4.83,0s-3.34-1.93-3.5-0.3
	c-0.17,1.63-3.84,2.39-5.67-0.65c-1.83-3.05,1.33-3.39-3-4.05c-4.33-0.67-7.5-1.17-8.83-1.84c-1.34-0.66-0.5-3.83-3.34-2
	c-2.83,1.84-8.33,2.84-10,2.5c-1.66-0.33-5.66,1.34-5.66,1.84s-2.84,0.83-3.17,2c-0.33,1.16-1,3.66,0,4.33s1.5,0.83,1.33,3.17
	c-0.16,2.33-1.5,1.66,0,3.33s1,2.5-3,2s-9.5-1.67-6.66,2c2.83,3.67-0.67,4.67,1.33,7.17s8,0.16,11,1.33s1,2,0,3.83
	c-1,1.84-1.67,3.3-0.67,4.9s2.5,0.94-0.33,3.1c-2.83,2.17-3,1-3,3.5s1.33,1.84-0.5,4c-1.83,2.17-2.54,0.55-1.83,4.17
	c0.29,1.46,0.38,2.31,0.39,2.81c0.04,0.75-0.119,0.71-0.119,0.71c0.18,0.06,0.329,0.1,0.439,0.1c0.62,0,1.12,2.13,1.12,4
	c0,1.88,1.75,3.5,3.25,4.13s2.25,0.63,2,2.63s1.13,3.12,3.13,3.62s3.5,0.5,3.62,1.38c0.12,0.87,3.19,2.98,2.37,3.92
	c1.91-0.66,4.02-2.06,3.63-2.97c-0.5-1.16,1.83-4.5,7.17-2.16l0.04-0.01l-0.47-1.25l-1.34-3.35l-0.221-0.54l-2.97-3.4l-2.27-3.67
	l0.55-0.8l1.64-2.38l1.82,0.32l0.55,0.1l3.24,0.59l5.029,1.97l6.171,1.06l4.02,2.62l4.75,1.62l3.47,2.43l7.19,1.86l6.75,0.55
	l8.05,0.75l5.78,0.92l6.42,0.13l5.95-0.03l1.649-1.44l2.63-3.73l3.881-1.89l2.409-2.49l1.641-2.8l3.95-1.81l3.64-1.44l4.149-2.48
	l0.03-0.62l0.101-1.99L999.12,378.41z"
	data-engtype-1="Opstina"
    data-id-0="29"
    data-id-1="3"
	data-id-2="2"
    data-iso="BIH"
    data-name-0="Bosnia and Herzegovina"
    data-name-1="Republika Srpska"
    data-name-2="Srebrenica"
    data-nl-name-2=""
    data-type-2="Opstina"
    data-varname-2="Srebrenica"
    id="path3"/>
    <path fill="none" stroke="#000000" d="M916.66,122.79l0.24,1.99l-3.25,2.41l-2.21,1.62l-0.79,1.7l1.67,1.42l0.01,1.44l-1.45,1.63
	l-2.5,0.92l-0.14,1.83l0.68,3.8l-0.22,2.75l-0.95,2.6l-0.14,3.26l0.04,2.16l-0.23,2.82l-0.05,2.71l-1.12,2.64l-0.06,2.78l-0.73,3.28
	l-0.56,1.26l-0.91,2.02l-1.29,2.67l-1.54,1.69l-0.58,0.56l-1.72,1.69l-3.261,2.47l-2.09,3.94l-1.52,3.56l-1.2,3.11l-0.11,2.63
	l-1.029,2.58l-1.86,2.62l-0.86,4.12l-0.79,3.13l-1.63,3.24l-1.1,1.56l-2.021,0.66l-4.069-0.05l-0.551,1.12L876.5,211
	c0,0-0.25-6.75-4.75-4.75S866.25,205,866,202s-2.96-2.5-5.35-2c-2.4,0.5-1.261-3.75-5.2-1.75c-3.95,2-6.38-1-10.91,0.75l-0.11,0.02
	c-0.529-3.3-2.859-4.14,0.07-6.02c3.5-2.25,1-5.98,4.5-5.99c3.5-0.01,3.25-3.76,5.25-4.01s2-7-4-4s-4.25-2.89-9.75,1.18
	c3-7.68,0-4.73-2.75-6.83s-2.25-8.32-3.75-6.71c-1.5,1.61-4.25,0.11-9.25,3.86c-1.25-3.25-2.75-1.75-4-4.13
	c-1.25-2.37,3.5-3.62,0-5.37s-3.5-0.75-4.25-3s-1.25-8-5.25-5.5s-5.16,2.21-6.96,3.48c-0.39-0.84-0.44-0.69-1.58-1.79l0.05,0.03
	l0.88-5.22l0.82-2.09l0.17-0.77l0.29-2.78l0.87-3.83l0.24-2.75l0.25-0.74l0.42-0.62l0.58-0.5l0.66-0.35l1-0.3l0.989-0.19l0.74-0.02
	l0.74,0.08l2.38,0.47l3.54,0.48l0.58-0.09l0.28-0.15l0.27-0.27l0.15-0.32l0.08-0.33l-0.04-0.69l-0.23-0.67l-0.4-0.53l-1.399-1.28
	l-0.91-0.66l-0.83-0.75l-1.83-1.41l-2-1.12l0.29-0.41l2.12,0.03l5.82,0.1l4.989-0.93l3.341-1.02l2.29-0.7l6.359-2.08l3.05-2.25
	l2.891-2.28l0.78-0.36l2.289-1.03l2.62-1.68l1.63-2.08l0.601-0.77l3.899-0.78l2.841-1.5l2.819-2.37l2.471-1.72h2.529h0.261h0.38
	l2.939,1.4l1.351,2.35l0.84,1.97l3.24,1.09l0.199-0.11l2.101-1.14l2.439-1.58l2.82-0.86l3.98,0.67l3.42,0.99l2.859,0.38l3.91,0.59
	l1.021,0.38l4.06,1.67l4.58,2.02l2.38,0.3l0.32,0.04l0.39,1.59l1.69-1.09h2.43l1.25,1.48l-1.4,1.79l1.08,2.51L916.66,122.79z"
	data-engtype-1="Opstina"
    data-id-0="29"
    data-id-1="3"
	data-id-2="4"
    data-iso="BIH"
    data-name-0="Bosnia and Herzegovina"
    data-name-1="Republika Srpska"
    data-name-2="Grad Bijeljina"
    data-nl-name-2=""
    data-type-2="Opstina"
    data-varname-2="Grad Bijeljina"
    id="path4"/>
<path fill="none" stroke="#000000" d="M901.17,436.83c0.33,2.34-1.34,1.84-3.17,2.67s-1,5.33,0.67,6.17c1.66,0.83,0,0.83-0.84,4.5
	c-0.83,3.66-2,0.66-3.83,0.66s-3.17,0.84-4.5,4.39c-1.33,3.561-2.17,1.28-5.53,0c-3.359-1.27-1.47,0.28-3.3,2.78
	c-1.84,2.5,2.66,1.5,5,3.83c2.33,2.34,0,1.84,2,6.17s0,0,3.16,2.33c3.17,2.34-0.33,2.17,0,4.5c0.22,1.51,1.34,2.47,2.1,2.96
	c-0.62,0.03-1.689,0.28-3.43,0.38c-3,0.16-4.67-0.34-7.67-2.34s-0.66-1.5-4.33-3.33s-1.33-2-4.17-1.58
	c-2.83,0.41-3.83,1.08-7.33-1.75c-3.5-2.84-2.5-1.5-5.35,0.5c-2.86,2-4.15,1.66-6.32-1.52c-2.16-3.19-6.16-2.15-8-0.48
	c-1.83,1.66-6.83,0.66-6.83,0.66l-0.2,0.3l-0.75-0.49l-1.95-1.76l-1.39-2.01l-0.35-0.68l-0.641-1.66l-0.979-1.48l-0.221-0.67
	l-0.31-1.42l-0.25-0.67l-0.38-0.53l-1.25-1.1l-0.65-0.36l-0.85-0.22l-1.41-0.13l-1.979-0.04l-1.49,0.05l-0.97,0.1l-1.7,0.381
	l-0.16-0.721c-0.37-0.52-0.87-1.47-1.5-3.34c-0.62-1.88-1.12,0.24-3.37,0c-2.25-0.26-1-1.26-1.87-2.88
	c-0.88-1.62-2.38-0.25-4.76-0.83c-2.37-0.57-1.24-2.17-1.74-3.17s-1-1.25-0.76-3.88c0.12-1.22,0.45-1.86,0.77-2.39
	c0,0,3.36,3.27,4.49,1.649c1.12-1.63-0.76-1.63,1.74-3.26c2.5-1.62,2.76-1.74,3.63-3.37s2.25-2.37,4.63-2.25
	c2.37,0.12,4,2.97,4.12-0.01c0.12-2.99,0.25-4.74,3.38-4.87c3.12-0.12,5.74-2.12,7.37-0.74c1.63,1.37,3.5,1.62,4.37,1.12
	c0.88-0.5,3.88-1.66,3.76-2.58c-0.13-0.92-2-2.92,0-3.67s2.87-0.87,2.37-3.37s-1.63-4-1-4.76c0.63-0.74-0.22-0.5,1.14-1.37
	c1.36-0.87,3.73-4,2.86-6s-2.87-2.63-1.75-4s2.13-0.75,1.94-2.63c-0.19-1.87-1.061-0.37-0.19-1.87c0.14-0.24,0.3-0.44,0.46-0.6
	v-0.01c0.84-0.87,1.79-0.95,1.17-2.52c-0.76-1.87-4.38-4.12-2.26-4c2.13,0.13,6-0.5,7.13,1.38s0.13,3,4,3.25s3.63-1.51,7.5-0.63
	s4,4.87,5.37,0c1.38-4.87-1.5-4.24,1.38-4.87s3.25-2.63,4.88-3.25c1.33-0.51,2.75,0.24,3.561,0.52c0.18,0.06,0.329,0.1,0.439,0.1
	c0.62,0,1.12,2.13,1.12,4c0,1.88,1.75,3.5,3.25,4.13s2.25,0.63,2,2.63s1.13,3.12,3.13,3.62s3.5,0.5,3.62,1.38
	c0.12,0.87,3.19,2.98,2.37,3.92l-0.01,0.01c-0.551,0.19-1.08,0.32-1.53,0.36c-2,0.16-7.16,1.66-9.33,2.5
	c-2.17,0.83-0.33,2.16,0.83,3.3c1.17,1.15,6.5,8.36,8.84,10.53c2.33,2.17,0.16,1.33-0.5,3c-0.67,1.67,0,0.67,1.66,2.5
	c1.67,1.83,0.17,1.33,0,3.83C900.17,434.33,900.83,434.5,901.17,436.83z"
	data-engtype-1="Opstina"
    data-id-0="29"
    data-id-1="3"
	data-id-2="5"
    data-iso="BIH"
    data-name-0="Bosnia and Herzegovina"
    data-name-1="Republika Srpska"
    data-name-2="Rogatica"
    data-nl-name-2=""
    data-type-2="Opstina"
    data-varname-2="Rogatica"
    id="path5"/>
<path fill="none" stroke="#000000" d="M893.52,304.74l0.7,0.2c-0.52,0.45-1.79,1.26-3.89,0.89c-2.83-0.5-5.5-1.48-6.83,0.1
	c-1.33,1.57-2.33-3.26-4.33-1.26s-6.17,3.16-7.17,2.5c-1-0.67-2.33-0.46-3.33,0.18c-1,0.65-3,0-3,0s-0.05-0.67-0.21-0.86v-0.01
	c-0.56-3.14-4.21-5.6-6.34-6.23c-2.12-0.63-2.62-1-5.37-5.13c-2.75-4.12-3.13,1.13-3.87,2.91c-0.76,1.79-2.26,1.47-4.63,0
	c-2.37-1.46-1.63-1.91-4.25-0.41c-0.69,0.4-1.17,0.48-1.53,0.36c-0.989-0.33-0.979-2.22-1.72-3.23c-1-1.37-2.37,0.13-5.14-0.63
	c-2.771-0.74-2.73-1-1.99-5.24c0.76-4.26,5.38-2.38,5.38-5.5c0-2.93,1.32-2.35,4.08-3.6c0.18-0.09,0.37-0.18,0.57-0.28
	c3.14-1.62-0.15-1.38-1.4-3s-0.87-1.38-0.63-4.25c0.26-2.87,2.63-3.13,1.88-6.63s-1.75-0.74-5.38-1.62
	c-3.62-0.88-3.37-1.25-5.12-4.25s-3.38-2.37-4.62-4.13c-1.26-1.74-2.13-3.5-2.13-3.5l-0.28-0.18l0.8-1.22l0.54-0.58l0.32-0.46
	l0.54-1.44l0.9-1.34l0.59-1.97l0.84-1.62l0.54-1.19l0.93-1.61l0.74-1.48l1.22-1.95l0.681-0.81l0.3-0.51l0.189-0.66l0.221-1.4
	l0.16-0.66l0.84-1.43l0.189-1.11l-0.01-2.1l-0.37-5.69l0.021-1.24l0.1-0.76l0.23-0.66l0.729-1.1l0.5-1.61l0.28-0.65l1.17-1.95
	l0.68-0.81l0.311-0.5l0.199-0.63l0.53-2.29l0.94-2.67l-0.08-1.58l0.26-0.01c0,0,5,0.25,5.5-5c0.08-0.85,0.04-1.59-0.07-2.23
	l0.11-0.02c4.53-1.75,6.96,1.25,10.91-0.75c3.939-2,2.8,2.25,5.2,1.75c2.39-0.5,5.1-1,5.35,2s1.25,6.25,5.75,4.25
	s4.75,4.75,4.75,4.75l0.27,0.13l-1.09,2.2l0.471,0.92l0.96,1.87l-0.38,2.26l-0.061,0.37l-1.95,2.68l-0.89,2.32l-0.811,1.83
	l-2.279,1.18l-3.141-0.07l-2.119,0.01l-1.631,0.01l-1.93,2.1l0.58,4.92l0.78,4.23l0.649,2.15l0.9,2.96l0.189,0.46l0.15,0.34
	l0.94,2.24l0.6,1.41l0.13,0.32l1.42,3.86l0.66,5.93l-1.08,4.42l-2.899,1.98l-3.46,1.79l-0.921,3.53l0.79,3.16l1.721,2.57l-0.23,2.38
	l0.08,2.45l2.14,2.07l1.23,2.54l0.34,2.86l2,3.41l3.07,2.91l0.24,0.32l2.31,3.2l2.17,2.37l3.99,0.39l3.59-0.19l2.96-0.32l2.1,0.84
	l0.851,0.33l1.14,2.02L893.52,304.74z"
	data-engtype-1="Opstina"
    data-id-0="29"
    data-id-1="3"
	data-id-2="6"
    data-iso="BIH"
    data-name-0="Bosnia and Herzegovina"
    data-name-1="Republika Srpska"
    data-name-2="Zvornik"
    data-nl-name-2=""
    data-type-2="Opstina"
    data-varname-2="Zvornik"
    id="path5"/>

<path fill="none" stroke="#000000" d="M884.84,597.35l0.17,10.71l-6.16-0.279l-4.02-0.391l-0.11,3.11l-0.56,2.83l-0.01,0.04l-3.17,2.76
	l-3.591-2.87l-2.62-2.88l-0.329-0.6l-1.94-3.431l-3.44-2.409l-3.76-1.48l-0.64-2.36l-0.021-0.05l0.011-0.02l0.939-3.21l0.271-2.15
	l-1.21-2.03l-3.23-2.22l-4.04-3.74l-4.92-4.85l-2.88,0.62l-2.82,0.71l-3.41,0.37l-4.22,0.29l-3.77,1.08l-4.13,1.72l4.109,6.32
	l-3.5,1.92l-4.84,2.08l-4.4,1.949l-5.899,2.15l-4,1.97l-3.76,3.01l-3.29,2.681l-0.471,0.21L795,608.5c-1.25-2.25-7-0.5-11-2.5
	s-5.25-5-8.25-10.75s-6.25,2-11-2s-7-3.75-7.75-5.41s1-3.84-5.75-1.59c-2.15,0.64-8.25-4.25-6.25-5.82c2-1.56,3.25-4.18,1.5-5.68
	s1.25-4.5,3.48-6.25c2.239-1.75-2.23-3.25-3.48-6.25s-1.75-5.75,0-7.5s6.25-0.25,0-5.25s-3.25,0-1.5-7.5s3.5-6.25,4.5-7.5
	s-3.5-1.75-3-4s2.5-1,3.75-1.75s-2.25-1-2.5-6s3.75-4,6.5-5.75c2.74-1.75-3-4.25-3-7.5s5.99-4.77,5.99-4.77l0.649,0.38l1.61,0.85
	l0.88,0.12l0.5,0.14l2.92,1.15l1.931,0.88l2.329,0.68l0.32,0.141l0.99,0.6l0.34,0.13l1.17,0.24l2.57,0.24l0.81,0.14l0.71,0.23
	l0.99,0.59l0.31,0.13l0.7,0.18l1.9,0.33l0.689,0.19l0.311,0.13l0.979,0.59l0.71,0.25l0.811,0.14l1.32,0.11l9.279,0.22l1.391,0.07
	l1.35,0.15l0.87,0.21l1.95,0.81l2.31,0.69l0.32,0.149l0.97,0.62l0.62,0.24l1.25,0.22l1.35,0.08l0.92-0.02l0.9-0.08l0.87-0.21
	l0.39-0.16l0.721-0.4l1.939-1.35l1.4-0.8l0.85-0.711l2.42-1.27l1.19-0.56l1.12-0.771l0.62-0.25l1.34-0.4l0.529-0.289l0.74-0.561
	l0.681-0.33l1.199-0.38l1.74-0.43l1.87-0.33l0.04,0.22c1.34,0,2.5,2,3.17,3.33s1,3.67,4.17,5.17c3.16,1.5,3.16-1.5,5.66-2.67
	c0.689-0.32,1.1-0.26,1.35,0c0.641,0.68,0.12,2.76,0.45,3c0,0,0.01,0.01,0.021,0.02c0.02,0.021,0.04,0.04,0.06,0.061
	c0.021,0.02,0.04,0.04,0.07,0.07c0.29,0.449,0.18,1.58-0.11,4.52c-0.34,3.33,2,2,5.33,4s2.67,6.16,2.67,6.16v0.06l-0.57-0.02
	l-4.22,1.78l-0.08,0.06l-3.06,2.57l-1.37,3.279l1.05,2.561l2.39-2.57l1.91-1.609l1.58-0.23l1.86-0.27l0.03,0.75l0.109,3.329
	l1.891,1.45l-0.761,3.62l0.561,1.45l0.76,1.95l2.76,3.56l0.28,0.141l4.55,2.34l6.65,3.35l1.09,5.21l1.99,3.32l4.88,5.06l2.3,6.311
	l-0.02,5.479l2.989,6.09l4.351,5.42L884.84,597.35z"
	data-engtype-1="Opstina"
    data-id-0="29"
    data-id-1="3"
	data-id-2="7"
    data-iso="BIH"
    data-name-0="Bosnia and Herzegovina"
    data-name-1="Republika Srpska"
    data-name-2="Foca"
    data-nl-name-2=""
    data-type-2="Opstina"
    data-varname-2="Foca"
    id="path6"/>
 



	
</svg>
