<?xml version="1.0" ?><!DOCTYPE svg  PUBLIC '-//W3C//DTD SVG 1.1//EN'  'http://www.w3.org/Graphics/SVG/1.1/DTD/svg11.dtd'><svg enable_background="new 0 0 1000 828" height="828px" style="stroke-linejoin: round; stroke:#000; fill: none;" version="1.1" viewBox="0 0 1000 828" width="1000px" xmlns="http://www.w3.org/2000/svg" xmlns:xlink="http://www.w3.org/1999/xlink"><defs><style type="text/css"><![CDATA[path { fill-rule: evenodd; }]]></style></defs><metadata><views><view h="828.558053898" padding="0" w="1000"><proj flip="auto" id="robinson" lon0="18.7764628216"/><bbox h="43.94" w="53.1" x="208.78" y="-757.84"/></view></views></metadata><g class="" id="entities"><path d="M741.728702,95.299892L739.790065,98.134857L739.211602,100.057027L738.500646,101.681533L737.992452,103.189286L737.565258,103.845120L736.899157,104.310734L735.957669,104.729665L732.023185,105.979437L730.269790,106.965461L730.250642,108.536058L730.047499,109.660881L729.746457,110.332962L728.759018,111.988623L728.365126,112.394654L726.906034,113.518221L726.296633,113.760899L724.993981,114.126080L724.472361,114.411923L723.030319,115.572778L722.682521,116.025446L721.848994,117.438255L721.545378,118.110229L721.336153,119.270997L721.420650,123.364382L721.291752,124.549523L720.877372,125.593497L719.878363,127.245147L718.175116,128.890912L717.346419,129.514913L716.644113,130.245042L715.823419,130.873691L714.906228,131.763583L713.406575,132.834233L712.721785,133.074484L711.681779,133.245925L710.472483,134.244237L709.331029,134.881001L708.728066,135.304339L707.188468,136.858882L706.585406,137.165587L704.994944,137.710188L704.064339,138.244288L703.343952,138.440200L702.516293,138.514834L698.941462,138.427373L698.119062,138.470520L697.376134,138.665266L697.055957,138.874005L696.825899,139.151545L696.690225,139.460568L696.630937,139.781251L696.696885,140.422611L696.814662,140.729295L697.186564,141.226049L698.585614,142.452754L699.536126,143.083587L700.435892,143.812358L701.935135,144.636732L702.958833,145.364316L703.889753,146.225977L704.402436,146.881250L704.734050,147.574991L704.900577,148.695450L704.722714,149.831043L704.362800,150.635504L704.756440,151.905128L705.292414,153.018502L705.747210,153.792604L706.460570,154.662290L706.762403,155.326786L706.941239,156.076374L707.218708,158.049967L707.536826,159.148061L707.907329,159.695934L709.234639,161.077250L710.754514,162.266202L711.272803,162.585583L712.178288,162.897968L713.092704,163.082135L716.316078,162.993549L719.748126,163.007536L722.209030,163.085632L724.132662,163.288448L725.051356,163.508747L726.998869,164.295522L729.282723,164.992537L730.603195,165.723344L730.975055,165.867873L731.815906,166.060189L732.734115,166.163922L735.040039,166.240848L739.060078,166.638297L741.204364,166.469294L742.318560,166.257166L742.887100,165.993752L743.536884,165.569491L745.057469,165.000696L745.602329,164.634706L745.801706,164.361960L746.021663,163.733707L746.320141,162.061051L746.654456,161.494552L747.193853,161.142526L748.694953,160.560863L749.487340,159.912751L750.370611,159.325247L751.403034,158.459132L754.694366,156.730360L755.594243,156.106683L756.177253,155.821072L756.934126,155.653202L758.191042,155.576261L759.483996,155.638047L760.709034,155.859542L761.077625,155.988942L761.658884,156.331674L762.278936,156.879575L763.997923,158.220162L764.672237,158.463795L765.404975,158.532572L766.114040,158.431155L766.666345,158.159545L768.040161,157.066094L768.721168,156.356155L769.165463,156.056556L770.280594,154.722911L771.154249,153.831076L773.390421,152.215243L774.007321,151.957591L775.318098,151.579855L776.517399,150.917645L776.860570,150.790565L778.079989,150.602859L779.922916,150.578376L787.683666,150.801058L791.409836,150.692632L795.021662,151.062213L795.855020,151.219605L796.598202,151.474928L797.917726,152.214077L800.225732,152.976532L802.763833,154.221620L803.641187,148.996256L804.455740,146.908067L804.634097,146.143193L804.921994,143.356440L805.786891,139.532868L806.030901,136.784247L806.277090,136.042549L806.702399,135.423293L807.280544,134.920652L807.940704,134.573116L808.939849,134.272227L809.927399,134.083296L810.669571,134.061137L811.414125,134.136943L813.793131,134.605771L817.335204,135.092087L817.912731,135.001122L818.192015,134.850679L818.457469,134.576615L818.613298,134.261731L818.685980,133.929351L818.651674,133.244759L818.416675,132.570655L818.020798,132.043494L816.617081,130.764057L815.705181,130.100416L814.882826,129.348125L813.049820,127.935652L811.046687,126.821742L811.339866,126.414663L807.461472,126.372672L799.909203,126.252530L799.727847,126.250198L792.949649,125.890938L787.289167,125.327548L782.631017,123.750489L781.621076,123.030764L778.157866,120.562392L774.928137,117.908405L773.498212,117.055599L771.133465,115.643945L768.443753,114.751432L765.029335,112.205640L760.769457,109.707554L759.363998,107.378536L758.999526,106.775259L759.665587,104.161364L759.712925,103.975819L758.428166,101.641855L755.762610,100.607872L756.442851,98.893464L756.763320,98.084672L758.956730,98.724237L759.866196,98.989165L761.271123,99.508511L763.250010,100.239087L764.762565,100.356958L766.217525,100.470161L768.349047,99.175896L766.605993,96.102897L764.363457,93.503586L762.813379,91.258982L762.405121,89.871079L760.504579,90.813084L758.131196,91.695539L757.336539,92.032875L756.386277,92.330523L755.801569,92.598988L753.491530,94.311291L752.907748,94.600753L752.525441,94.702298L751.687764,94.820184L748.617984,95.045449L747.893673,95.241534L746.940969,95.722405L745.876232,95.931326L744.656138,95.889308L741.728702,95.299892Z " data-engtype-1="District" data-id-0="29" data-id-1="1" data-iso="BIH" data-name-0="Bosnia and Herzegovina" data-name-1="Brcko" data-nl-name-1="" data-type-1="Distrikt" data-varname-1=""/><path d="M631.893697,43.808167L630.934126,42.606989L630.081283,41.540159L627.648002,37.410500L622.942111,37.579947L620.061496,38.074260L619.594610,38.153724L619.134607,38.588435L616.250693,41.314638L616.294316,42.789271L616.329742,43.984602L617.564561,45.897304L618.074029,46.685965L618.348194,49.681590L616.686946,53.309036L614.917739,54.584710L612.916587,56.026227L608.150020,57.055354L609.572829,57.869529L610.697726,58.351953L610.673368,58.367138L612.660355,59.438265L614.449395,60.279264L615.611861,61.183321L617.133106,62.159776L617.679602,62.319792L618.417101,62.298768L621.628976,62.958679L622.840295,63.281040L623.600026,63.632597L624.558137,64.367238L625.574498,65.563196L626.437230,66.295471L627.189080,67.108318L628.262481,68.077643L629.061676,69.138038L631.288616,71.599744L632.283273,73.078106L632.812944,73.672474L633.418774,74.186263L634.823062,75.066697L635.675903,75.818673L636.591862,76.477225L638.145003,78.047672L638.467341,78.681674L638.965710,80.839315L639.243221,81.488456L639.896541,82.351238L640.541734,83.752204L640.731759,84.034726L640.997880,84.294531L641.336613,84.503503L641.708834,84.644763L642.099658,84.727651L642.906317,84.752167L643.705560,84.581722L644.391801,84.212810L644.937977,83.726520L645.756188,82.511184L646.257456,81.906423L646.541768,81.368202L646.685963,80.685201L646.869857,78.896508L647.117891,78.267180L648.187354,77.195317L648.630346,76.882394L649.303145,76.700244L649.663880,76.681562L650.382466,76.760961L651.029410,76.981642L651.924558,77.559613L652.243913,77.690386L652.977677,77.843342L653.768321,77.855018L654.546701,77.703229L655.216519,77.376298L655.758423,76.955955L656.318269,76.363964L656.687775,76.087233L657.037157,75.984480L657.617755,75.948282L657.504534,72.656556L657.543672,71.505155L657.707025,70.804492L657.872713,70.485686L658.123173,70.204248L658.463300,69.988206L658.844620,69.849237L659.676795,69.725450L661.022622,69.738295L664.259264,69.968353L664.811219,69.863251L665.280798,69.620347L666.064811,68.939508L667.408202,68.136036L668.024342,67.680573L669.427480,66.356201L670.532774,64.828573L671.463884,63.826478L672.529643,62.088528L674.273490,59.777003L674.311814,59.726776L676.724811,61.807040L678.273959,62.879257L681.918995,64.801711L683.636831,65.430054L685.359503,66.686714L686.421047,67.338389L687.891673,67.995894L690.609107,69.393791L691.812767,70.231108L692.454882,70.507874L693.487556,70.838357L694.117727,71.130302L694.969129,71.841470L695.891621,72.490737L696.735169,73.256767L697.278180,73.584895L698.962825,74.446658L699.738564,74.788790L700.575016,75.028164L702.281077,75.399483L703.691579,75.914420L707.062023,78.828789L708.454982,79.327342L711.642967,79.867922L712.304816,80.102599L713.033838,80.547432L713.598917,80.812462L714.295336,80.992261L716.177573,81.307491L716.882848,81.505968L717.200011,81.647237L718.424747,82.478494L721.948597,84.352903L723.146103,85.202795L723.791089,85.486477L724.834711,85.816855L725.478072,86.098199L726.677623,86.943388L729.415779,88.348890L731.182829,89.100652L733.539835,90.325158L734.498383,91.011521L735.056597,91.324349L736.777045,91.886969L738.336526,92.799752L740.029143,93.432386L740.573218,93.835074L741.728702,95.299892L744.656138,95.889308L745.876232,95.931326L746.940969,95.722405L747.893673,95.241534L748.617984,95.045449L751.687764,94.820184L752.525441,94.702298L752.907748,94.600753L753.491530,94.311291L755.801569,92.598988L756.386277,92.330523L757.336539,92.032875L758.131196,91.695539L760.504579,90.813084L762.405121,89.871079L762.118793,88.898705L763.199944,86.387713L764.952989,84.873580L766.027107,83.441660L763.254177,82.029010L763.179996,82.040685L760.172079,82.490169L756.578419,81.989315L753.391095,81.066982L751.440240,81.753480L750.363853,82.003325L749.971740,82.095557L749.443329,82.218144L748.416693,81.871398L747.409700,80.379307L747.958489,78.552072L748.763038,76.704914L748.795321,74.485192L746.921098,72.678743L744.641543,70.791646L743.091098,69.660052L741.807442,68.722292L738.790042,68.268002L736.777078,67.294010L736.431618,66.962334L734.612587,65.216325L732.054738,62.984375L730.696680,60.563098L732.320623,58.804002L733.717185,57.429152L734.499564,55.720171L733.115576,51.929354L732.542928,51.887297L729.645004,51.672338L727.855953,52.395483L727.407761,52.752962L726.125105,53.773983L725.848437,54.907127L725.623529,55.829977L726.604928,57.453682L727.199590,58.437223L727.447411,59.072660L727.946769,60.352851L728.200161,61.002277L727.719388,62.414399L726.032852,62.511342L723.124176,62.074512L723.013664,62.058160L720.161450,62.142256L717.075591,62.107216L715.429660,60.921683L714.763358,59.440601L714.756160,59.424248L715.407523,58.854229L716.899086,57.550636L717.586650,56.735287L718.143967,56.074121L719.921022,54.917641L721.119140,53.719077L720.722821,52.062534L718.151148,52.257631L718.098155,52.261135L717.026540,53.196887L716.210605,54.296167L715.631747,55.076512L714.783129,55.345191L713.957666,55.606859L713.014200,55.271597L710.798135,54.483077L708.750181,51.821875L708.520747,51.522801L707.858800,51.498268L706.778878,51.457379L705.365553,51.403639L704.341035,52.567213L705.999895,54.184021L707.698794,55.579992L708.064589,55.881376L708.789961,58.608932L707.536076,59.879791L707.485883,59.930018L705.216834,58.479275L705.103781,58.266682L703.553953,55.353368L700.304866,52.202723L698.021622,51.909493L697.110945,51.792668L695.707155,52.375623L695.587835,52.424689L695.767516,52.969084L695.952117,53.530996L696.093252,53.959727L696.237371,54.063697L698.410382,55.636063L699.047403,56.089306L700.358659,57.022647L700.691304,57.904572L700.826025,58.262010L700.044898,59.472139L698.661150,61.004613L698.615337,61.056006L697.951926,63.078981L697.779610,65.699841L696.590907,66.328172L695.255119,64.319353L694.778546,63.603398L693.440366,62.246208L693.201307,62.003264L690.337308,62.289424L689.804074,62.341983L687.055561,62.304608L686.661020,62.200656L682.888498,61.203177L679.411883,58.443064L678.771590,57.957136L677.693338,57.138291L675.831689,55.723675L675.467343,55.446821L672.180682,52.509970L670.870692,49.241137L665.917680,46.265348L662.223956,46.657924L659.755517,46.920808L658.523615,47.051666L649.742308,48.145246L642.090587,47.951301L640.948307,47.531863L640.362435,45.178736L639.442183,44.999968L636.471946,44.425103L632.520038,44.592189L631.893697,43.808167Z M58.373411,15.282747L58.021257,14.881736L55.434378,12.544586L53.926854,11.142711L53.381527,10.636437L50.952318,12.133031L46.385577,14.947208L43.593270,15.246505L41.092757,15.515402L39.542489,15.480329L39.157049,15.472145L35.374442,15.386799L31.623060,15.525924L28.033365,16.536032L24.681567,17.650166L24.628531,17.625616L20.634785,15.763255L19.490799,18.093241L19.403568,18.173906L17.476950,19.956685L14.088115,20.640553L11.481370,23.489321L10.746999,24.295877L9.061546,26.147400L6.866726,28.197553L5.145815,30.522282L4.411714,32.907674L5.478918,38.087115L7.004331,42.825494L7.457354,45.586510L7.730202,47.250288L6.764105,52.863944L5.042076,56.039076L4.722128,56.437413L2.679568,58.986222L1.836498,60.026966L0.682908,61.450797L0.604187,61.547742L2.384506,63.340606L3.847748,64.813390L5.434599,68.919655L6.384827,72.730123L8.004444,76.487734L10.278685,79.479125L12.218063,81.650739L11.042542,85.173609L9.396220,89.581587L9.354291,89.695983L6.768294,89.920106L4.895473,90.452393L3.518928,91.827439L3.018430,92.505609L2.469582,93.249133L1.689887,95.270713L1.691624,96.968912L2.253694,98.847948L2.375158,99.254090L3.913540,100.447987L5.541365,101.583504L6.261334,103.521872L5.965541,107.210506L5.896302,108.073986L6.040184,108.579231L6.951045,111.751770L8.732662,115.485277L10.380180,118.039066L10.949049,118.919853L15.649161,123.511360L16.813594,124.715160L19.079174,127.057356L19.486584,128.645975L19.509709,128.735786L19.864046,130.117911L18.707714,132.730434L18.690585,132.743263L18.679837,132.767755L17.719332,133.485009L15.407637,135.249527L11.906007,136.537015L8.774038,138.664100L8.104233,140.438936L7.569403,141.854564L8.510659,144.970210L11.192433,148.701280L13.321569,152.973035L14.471368,156.218596L18.277724,157.892595L18.510090,157.992847L19.068657,158.269122L20.707357,159.072291L20.909355,159.171375L22.607919,160.004839L25.045580,162.255712L25.253823,162.448040L26.849493,163.909712L26.975821,163.917871L29.408428,164.065901L29.793912,164.088047L30.726108,163.389855L32.197682,162.288349L34.225103,160.784670L34.786853,160.377854L35.217010,160.234477L35.239128,160.227483L37.935782,159.377702L38.054427,159.363714L41.527603,158.940568L43.008709,156.971669L44.571905,154.894281L47.624499,158.796021L48.526129,159.948887L50.683517,159.735568L57.201238,159.090942L60.300228,166.934342L61.305809,169.478635L62.395874,169.612665L66.762245,170.149945L67.769430,174.065764L69.758112,177.100339L70.096720,177.613078L70.109624,177.631723L74.727163,180.942273L74.753067,180.956256L75.073988,181.121720L79.917757,183.593140L84.500748,187.135212L89.359907,190.490663L92.861130,194.833829L92.975233,195.517663L93.530683,198.829546L92.718241,201.705602L92.390380,202.885573L92.377198,202.912364L89.547217,206.409046L87.161195,208.839836L85.687178,209.254470L84.617237,209.554961L82.118287,209.984732L82.099938,209.988226L81.264865,211.697961L81.064274,212.107918L81.091660,215.076534L81.620261,217.197222L82.820555,217.905267L84.572550,218.939372L91.420047,221.281187L94.267530,222.304758L94.349561,222.333870L94.913653,222.536486L95.398311,222.706497L98.891433,223.886081L103.952178,224.687208L108.531609,230.667411L109.572555,231.857333L110.589944,233.020456L112.888766,235.648181L114.030586,236.940467L114.841834,239.590162L114.792634,239.772936L114.478334,240.942911L114.270378,241.714734L114.028619,242.634392L114.285373,243.209463L115.305027,245.494569L115.804999,247.561926L116.119893,248.865635L115.950467,250.348574L115.724335,252.558960L115.386298,253.720578L115.092378,254.732032L113.538691,257.834981L117.439383,258.298201L121.174497,260.365197L122.127300,261.446390L122.937521,262.366963L122.608086,263.455111L122.240304,264.645654L122.085615,265.147236L121.969039,265.525457L121.960329,265.554551L120.246738,267.010393L118.119361,267.067416L116.994116,268.371947L116.702303,268.710586L117.322105,269.440226L118.817040,271.198549L119.418424,271.906057L122.591605,271.424301L125.731374,272.070132L130.133508,274.793040L131.126178,275.434190L135.684090,278.380387L136.439508,278.951695L137.189792,279.518344L137.551252,279.791778L137.739806,279.933730L137.251063,281.864022L136.928563,283.136896L136.911401,283.204379L136.324169,286.509801L135.693890,289.050733L135.515978,289.780190L135.481618,289.920961L135.358053,290.721377L134.960671,293.373865L134.864180,294.981605L134.815608,295.872712L134.747542,297.124436L135.633472,301.386675L135.946425,302.082294L137.074164,304.587872L137.286693,305.046174L138.099336,305.958117L138.221582,306.095373L139.149733,307.137582L140.008641,308.101846L142.339082,310.185042L145.627760,312.399622L146.298583,315.481802L148.196525,324.202087L148.581628,325.969774L148.744990,326.719868L149.249830,329.048033L154.041640,332.120385L163.857546,338.411326L166.182559,340.498533L166.811906,343.897279L168.262922,348.043537L169.764623,350.932803L172.297255,351.671095L172.549135,351.744342L173.083969,351.847819L175.279509,352.269863L176.773571,356.776223L176.888108,357.243591L177.578653,360.059385L179.168935,360.791806L180.316486,361.320774L181.096739,361.680005L182.255686,362.310112L184.601247,363.567990L185.509957,364.242263L187.157534,365.465245L188.117570,366.315048L190.454101,368.385473L191.034803,368.835359L198.755028,374.813923L199.219531,375.174278L202.342663,377.592124L205.128264,379.732112L206.457420,380.753855L208.586927,382.278899L213.238667,383.320383L218.271904,384.229350L219.008752,384.361859L220.820158,385.046486L224.182773,386.299495L227.077971,388.590451L227.661713,389.048406L230.416755,393.976555L230.911941,395.034225L232.143904,397.665586L232.358294,398.123512L233.127614,398.923137L234.771225,400.689735L237.166028,401.781064L237.958007,402.137866L238.186734,402.163435L241.389995,402.480720L242.267765,402.567886L244.918595,406.175362L246.150101,408.008124L247.714016,410.297597L250.540160,412.151233L254.595278,414.766047L260.823574,420.259356L261.176517,420.570797L261.908839,421.212272L265.885604,423.757231L268.082283,424.518388L270.769739,425.449204L274.942848,427.673382L277.665296,430.462285L278.978608,434.172629L279.106516,437.329799L279.133234,437.994460L279.554571,441.645416L280.257876,445.689055L282.933881,448.117530L285.842618,448.998282L286.966523,449.337568L287.765096,451.429048L289.443193,455.823427L300.827970,459.241746L303.872886,459.690237L304.120964,459.726256L307.885698,462.598444L311.483148,465.705304L311.615212,465.819167L311.689845,465.899336L313.772463,468.132444L315.266031,469.733487L317.023867,473.018042L317.587726,474.437816L318.418673,476.529126L318.684028,477.197181L320.372107,477.867558L325.757692,480.002999L327.174449,481.803825L331.123728,486.822862L336.874686,494.130581L343.343057,499.985985L349.252672,506.259578L350.131511,507.191319L351.433696,508.573825L351.716956,508.802694L359.740451,515.265598L362.430601,518.506914L363.663731,519.961438L363.818788,520.048570L366.434851,521.514711L368.812064,522.830984L371.278099,523.669774L373.840061,524.541093L379.639873,526.474259L380.776287,527.351386L381.715879,528.077485L382.176807,528.426013L382.617285,528.759437L383.247338,529.225302L384.618238,531.683583L385.256509,532.817460L388.729043,534.578686L392.730955,535.563858L396.484516,536.530443L401.401811,537.997746L404.004759,538.110437L405.754481,538.177819L411.063919,538.772641L411.521300,538.964332L418.130406,541.715385L422.102769,543.877429L430.002887,548.174806L432.106437,549.319150L434.022413,550.060361L431.525158,552.272377L428.781835,554.702814L428.352324,555.961021L426.901999,560.211989L426.506001,561.383072L425.941280,566.876042L425.917188,567.108402L425.955598,567.317526L426.672809,571.225845L426.923524,572.592138L428.173415,574.897185L430.518426,579.220344L431.914232,581.793814L432.068624,582.068009L433.703832,584.971464L433.815356,585.168978L437.801594,592.220332L437.902943,592.399261L438.153517,592.894221L438.625248,593.824888L439.971645,596.482126L442.191692,600.863658L444.617180,605.202268L445.601712,606.963759L449.331879,612.553904L449.669141,612.739818L454.595509,615.447212L458.935688,617.020536L460.611521,617.628256L466.977928,621.296687L471.197898,623.883335L471.966157,624.355117L475.166459,627.437994L474.045121,633.021689L473.934257,633.571352L473.928098,633.601566L477.905494,636.025680L477.951710,636.054732L478.522156,636.130268L479.395878,636.240667L479.498992,636.253450L481.960068,636.563730L485.341616,637.772316L487.602282,640.691549L489.203228,641.788597L491.200264,643.201755L494.532089,645.449350L495.526365,646.121077L499.226217,648.742931L504.633795,650.295609L506.218871,650.751188L513.909924,655.939300L514.227369,656.096201L516.680668,657.315386L517.887989,657.915103L523.234938,660.569694L524.852983,661.892357L524.872645,661.908629L530.063742,666.111476L531.381770,667.299360L534.815779,670.395809L534.931958,670.500420L535.019049,670.723590L537.189569,676.284364L542.339075,684.765450L543.127156,685.764013L545.809618,689.163140L548.049617,692.000853L551.599528,697.004504L552.192573,698.117101L553.155261,699.924947L553.347143,700.925960L553.786013,703.217509L549.560072,705.245179L535.990695,707.613552L525.969854,709.362250L524.466539,709.625022L517.480364,710.844712L515.966708,710.844712L515.552140,710.844712L515.490481,711.216784L515.487016,711.267944L515.469401,711.514443L515.494279,711.546999L515.490627,711.642343L515.572288,711.644669L515.575103,711.812102L515.632469,711.812102L515.652533,711.896982L515.709898,711.896982L515.729480,711.981861L515.768527,711.981861L515.799862,711.981861L515.808356,712.072555L515.877291,712.066741L515.880767,712.108599L515.884243,712.150458L515.941127,712.150458L515.961191,712.235338L516.018557,712.235338L516.045187,712.405098L516.119521,712.400447L516.122617,712.489978L516.190589,712.489978L516.199951,712.573695L516.481095,712.574858L516.488047,712.658575L516.605191,712.658575L516.634897,712.743455L516.695351,712.757408L516.713293,712.828336L516.747520,712.828336L516.782711,712.828336L516.788024,712.909728L516.859854,712.909728L516.867192,712.998096L516.934683,712.998096L516.939605,713.039955L516.943564,713.081814L516.982612,713.081814L517.014911,713.081814L517.017808,713.116697L517.021960,713.166695L517.068239,713.166695L517.091861,713.166695L517.095337,713.208554L517.105959,713.336456L517.178368,713.337619L517.182910,713.421337L517.222922,713.421337L517.252811,713.421337L517.258509,713.489939L517.266813,713.589936L517.307308,713.589936L517.334787,713.589936L517.345210,713.674817L517.485014,713.674817L517.492064,713.759698L517.568233,713.765512L517.568533,713.844579L517.683943,713.841091L517.729162,713.839928L517.716833,713.929460L518.182044,713.929460L518.278077,713.948064L518.285414,714.013178L518.699524,714.007365L518.713807,714.098060L519.014240,714.081781L519.001432,714.182941L519.344196,714.182941L519.358961,714.267823L519.504163,714.251544L519.507265,714.352704L519.647552,714.352704L519.654508,714.436423L519.753240,714.435260L519.794796,714.436423L519.803684,714.543397L519.815953,714.691068L519.865896,714.677115L519.887012,714.681766L519.893391,714.775950L520.180617,714.751532L520.187977,714.944551L520.242838,714.937574L520.264934,715.029433L520.376780,715.029433L520.405901,715.049200L520.412758,715.114315L520.465307,715.114315L520.490197,715.199197L520.524712,715.179430L520.552293,715.209662L520.567637,715.284079L520.620185,715.284079L520.644979,715.367799L520.833286,715.365473L520.854498,715.365473L520.861745,715.452681L520.932613,715.452681L520.925366,715.365473L520.987557,715.365473L521.002517,715.452681L521.187643,715.452681L521.210689,715.463146L521.219766,715.537564L521.356295,715.532912L521.368075,715.622446L521.719043,715.622446L521.726098,715.707329L522.048141,715.707329L522.081408,715.718956L522.084122,715.792211L523.417029,715.773607L523.425055,715.875931L523.845929,715.875931L523.852987,715.960814L523.921928,715.960814L523.937490,716.130580L523.994861,716.130580L524.028955,716.384066L524.092593,716.384066L524.100610,716.445693L524.113458,716.553832L524.290874,716.553832L524.327808,716.574762L524.331198,716.638716L524.625571,716.630576L524.618843,716.723599L524.894027,716.704994L524.906875,716.807320L524.976781,716.807320L525.005017,717.146854L525.146276,717.146854L525.153239,717.230575L525.222663,717.230575L525.229722,717.315459L525.298372,717.300342L525.307170,717.400343L525.377077,717.400343L525.391678,717.570111L525.462067,717.570111L525.476089,717.738716L525.534519,717.728251L525.560115,717.908485L525.642559,717.914299L525.644141,718.078253L525.724847,718.074765L525.728553,718.246860L525.776858,718.230580L525.793159,718.252674L525.812580,718.416629L525.882970,718.416629L525.890029,718.501514L526.030810,718.501514L526.037869,718.586399L526.114816,718.584073L526.115223,718.670121L526.185131,718.670121L526.192191,718.755006L526.889829,718.755006L526.978834,718.770122L526.971137,718.839891L527.184042,718.825937L527.199518,719.011987L527.407123,719.009661L527.414087,719.093384L527.553905,719.093384L527.560967,719.178269L527.841567,719.178269L527.855691,719.348040L527.580677,719.328272L527.596178,719.601534L527.660302,719.601534L527.664262,719.625953L527.674595,719.686419L527.810653,719.681768L527.821476,719.771305L527.962260,719.771305L527.969322,719.856191L528.166906,719.872471L528.186596,719.941077L528.401624,719.923635L528.422635,720.239923L528.425443,720.279459L528.285140,720.279459L528.278077,720.194573L527.926115,720.194573L527.919534,720.103872L527.568538,720.109686L527.563895,720.053871L527.561477,720.024800L526.999786,720.024800L527.002204,720.053871L527.006846,720.109686L526.726241,720.109686L526.715524,720.056197L526.683503,720.024800L526.508004,720.024800L526.501042,719.941077L526.360739,719.941077L526.344330,719.871308L526.143468,719.856191L526.136410,719.771305L525.925234,719.771305L525.918559,719.679443L525.426879,719.686419L525.417125,719.621302L525.352804,719.601534L524.997953,719.601534L524.990992,719.517811L524.500662,719.517811L524.480588,719.432925L524.212040,719.432925L524.207980,719.384087L524.204983,719.348040L523.994292,719.348040L523.432607,719.348040L523.439725,719.253852L523.004169,719.263154L522.995477,719.187571L522.972526,719.178269L522.716514,719.178269L522.709460,719.093384L522.639069,719.093384L522.635108,719.045708L522.632112,719.009661L522.509362,719.011987L522.489397,718.980591L522.484759,718.924776L522.453902,718.924776L522.414850,718.924776L522.411468,718.884078L522.407796,718.839891L522.339816,718.839891L522.197106,718.839891L522.189956,718.753843L521.908973,718.755006L521.901920,718.670121L521.761621,718.670121L521.764114,718.584073L521.543976,718.586399L521.534805,718.522444L521.451587,718.501514L521.045156,718.501514L521.038969,718.398024L520.898288,718.416629L520.891236,718.331744L520.609676,718.331744L520.603782,718.243371L520.562221,718.230580L520.532235,718.246860L520.511480,718.078253L520.308025,718.078253L520.293739,717.970113L519.949990,717.993369L519.932333,717.908485L519.872550,717.908485L519.872526,717.728251L519.437078,717.738716L519.439187,717.642204L519.360218,717.654995L519.347958,717.542204L519.142483,717.570111L519.142280,717.486389L519.065045,717.485227L519.050946,717.315459L518.910651,717.315459L518.906207,717.244528L518.833213,717.230575L518.824140,717.150342L518.804853,717.132900L518.685966,717.146854L518.677471,717.067784L518.660307,717.058482L518.608528,717.061970L518.603894,717.006156L518.601480,716.977087L518.572071,716.977087L518.531573,716.977087L518.528194,716.936389L518.524525,716.892203L518.464743,716.892203L518.384230,716.892203L518.363877,716.821273L518.166500,716.807320L518.167645,716.704994L518.018772,716.723599L518.007191,716.630576L517.941818,716.638716L517.934770,716.553832L517.864865,716.553832L517.860901,716.459647L517.838821,716.460810L517.646654,716.468949L517.639606,716.384066L517.618875,716.384066L517.498831,716.384066L517.495259,716.341043L517.491783,716.299183L517.418503,716.299183L517.282068,716.299183L517.262484,716.202672L517.203765,716.215462L517.201819,716.035232L517.049861,716.045697L517.041367,715.960814L516.972427,715.960814L516.965380,715.875931L516.825088,715.875931L516.824886,715.774770L516.748233,715.792211L516.741186,715.707329L516.599931,715.707329L516.610914,715.607330L516.382689,715.622446L516.378341,715.523610L516.235352,715.537564L516.224065,715.465472L516.199380,715.452681L516.017630,715.452681L516.013861,715.355008L515.870294,715.367799L515.849364,715.284079L515.652668,715.284079L515.647843,715.225941L515.645623,715.199197L515.581504,715.199197L515.365043,715.199197L515.350477,715.105013L515.146841,715.114315L515.145680,715.065479L515.145294,715.049200L515.017827,715.029433L514.662524,715.029433L514.437868,715.029433L514.435456,715.011991L514.426389,714.937574L514.291017,714.944551L514.276839,714.860832L514.143299,714.860832L514.137509,714.773624L514.065871,714.775950L514.050438,714.677115L513.988924,714.691068L513.981881,714.606186L513.841111,714.606186L513.835513,714.509677L513.764165,714.521304L513.760016,714.471306L513.757218,714.437586L513.692136,714.437586L513.546449,714.436423L513.524076,714.352704L513.467672,714.352704L513.474521,714.435260L513.405776,714.437586L513.428736,714.714323L513.440891,714.860832L513.509830,714.860832L513.518222,714.944551L513.584751,714.944551L513.595650,715.029433L513.649645,715.029433L513.679157,715.199197L513.738454,715.199197L513.752250,715.365473L513.342661,715.367799L513.335715,715.284079L513.051375,715.291056L513.048094,715.199197L512.985807,715.192220L512.970667,715.114315L512.820928,715.105013L512.822854,715.029433L512.782840,715.029433L512.752951,715.029433L512.735400,714.957341L512.675524,714.944551L512.657009,714.860832L512.528291,714.860832L512.522600,714.774787L512.450864,714.775950L512.445077,714.677115L512.373921,714.691068L512.366880,714.606186L512.085822,714.606186L512.076371,714.509677L511.660328,714.509677L511.664475,714.606186L511.314767,714.621302L511.320553,714.691068L510.899205,714.691068L510.891685,714.606186L510.752361,714.606186L510.749662,714.509677L510.604553,714.521304L510.604650,714.435260L510.451346,714.435260L510.449804,714.352704L510.413647,714.352704L510.379419,714.352704L510.375274,714.267823L510.302479,714.267823L510.295441,714.182941L510.226021,714.182941L510.220526,714.081781L510.148598,714.098060L510.145996,714.066665L510.141561,714.013178L509.860506,714.007365L509.868025,714.098060L509.511861,714.081781L509.527283,714.267823L509.600560,714.267823L509.604223,714.312007L509.607597,714.352704L509.642307,714.352704L509.677982,714.352704L509.694467,714.435260L509.824727,714.436423L509.828679,714.484096L509.831764,714.521304L509.902149,714.509677L509.910150,714.606186L509.979571,714.606186L509.986608,714.691068L510.069817,714.677115L510.085240,714.863157L510.140488,714.860832L510.143187,714.893389L510.147429,714.944551L510.229770,714.937574L510.225816,715.029433L510.365623,715.029433L510.372660,715.114315L510.444685,715.105013L510.449601,715.199197L510.563858,715.199197L510.582948,715.214313L510.597410,715.284079L510.738857,715.280591L510.745123,715.367799L511.096765,715.358497L511.103128,715.452681L511.329714,715.452681L511.383709,715.452681L511.385734,715.477099L511.390747,715.537564L511.672003,715.528261L511.678849,715.622446L511.738148,715.622446L511.746922,715.664306L511.755793,715.707329L511.796289,715.707329L511.826179,715.707329L511.828494,715.735235L511.833218,715.792211L511.873233,715.774770L511.891938,715.802676L511.917587,715.960814L511.996170,715.960814L511.994531,716.045697L512.141186,716.035232L512.142344,716.130580L512.281190,716.130580L512.289676,716.215462L512.509901,716.202672L512.507299,716.299183L512.632646,716.299183L512.654631,716.384066L512.863383,716.384066L512.872352,716.468949L513.012645,716.468949L513.019685,716.553832L513.139248,716.553832L513.157858,716.574762L513.167501,716.638716L513.255534,716.630576L513.244448,716.723599L513.384741,716.723599L513.391686,716.807320L513.523302,716.807320L513.539021,716.892203L513.676711,716.872436L513.686838,716.977087L513.809776,716.977087L513.833692,717.061970L514.046978,717.058482L514.051898,717.146854L514.207427,717.132900L514.199621,717.230575L514.391020,717.230575L514.416765,717.244528L514.416382,717.315459L514.622437,717.300342L514.634591,717.400343L514.784046,717.400343L514.845275,717.400343L514.847783,717.430575L514.852317,717.485227L515.063387,717.478250L515.070527,717.570111L515.280730,717.570111L515.287773,717.654995L515.408303,717.654995L515.424213,717.672437L515.435016,717.738716L515.646665,717.721274L515.652746,717.823600L516.074117,717.823600L516.077293,717.728251L516.418055,717.738716L516.433681,717.816624L516.495007,717.823600L516.494339,717.914299L516.642831,717.908485L516.649876,717.993369L516.853329,717.970113L516.867608,718.078253L517.118311,718.078253L517.145793,718.089881L517.156116,718.161975L517.377892,718.156161L517.372403,718.246860L517.584632,718.230580L517.590620,718.331744L517.748179,718.342210L517.738928,718.416629L517.952893,718.398024L517.955217,718.501514L518.084427,718.501514L518.103527,718.586399L518.203809,718.586399L518.243825,718.586399L518.246239,718.615469L518.250776,718.670121L518.299471,718.670121L518.321167,718.670121L518.324739,718.713145L518.335261,718.839891L518.390512,718.825937L518.412217,718.924776L518.515393,718.924776L518.552999,718.924776L518.555605,718.956172L518.560046,719.009661L519.047479,719.009661L519.058288,719.093384L519.198588,719.093384L519.205636,719.178269L519.329544,719.178269L519.353467,719.263154L519.565989,719.244549L519.570725,719.348040L519.672937,719.348040L519.711508,719.348040L519.714502,719.384087L519.718557,719.432925L519.780270,719.432925L519.795033,719.517811L519.865037,719.495717L519.872860,719.601534L520.124052,719.601534L520.151535,719.613162L520.161476,719.686419L520.322992,719.686419L520.366483,719.705025L520.377773,719.771305L520.448647,719.771305L520.455697,719.856191L520.526089,719.856191L520.533139,719.941077L520.610279,719.923635L520.617052,720.109686L520.672498,720.109686L520.694013,720.194573L520.764405,720.194573L520.771455,720.279459L521.050615,720.279459L521.060076,720.364345L521.355531,720.351554L521.347733,720.449231L521.479358,720.449231L521.494991,720.532955L521.636259,720.527141L521.641864,720.617841L521.803865,720.617841L521.853043,720.617841L521.855458,720.646912L521.860095,720.702728L521.908309,720.702728L521.930488,720.702728L521.934932,720.756218L521.946506,720.779475L522.077168,720.779475L522.084896,720.872501L522.576685,720.872501L522.583641,720.956225L522.796074,720.948085L522.800910,721.041112L522.974965,721.041112L523.082002,721.041112L523.086543,721.095765L523.089055,721.125999L523.137752,721.125999L523.155497,721.136465L523.166020,721.210886L523.300540,721.210886L523.313861,721.295773L523.384255,721.295773L523.391309,721.380660L523.534506,721.374846L523.538572,721.464384L523.822749,721.449268L523.826238,721.549272L523.984866,721.549272L524.036939,721.549272L524.039451,721.579506L524.043993,721.634159L524.255175,721.628345L524.261749,721.719046L524.753545,721.719046L524.760601,721.803934L525.243720,721.803934L525.319422,721.821377L525.329271,721.887659L525.541416,721.870216L525.547511,721.972546L525.770750,721.972546L525.828126,721.972546L525.830446,722.000454L525.835183,722.057434L526.029010,722.057434L526.052461,722.142322L526.177822,722.142322L526.263164,722.142322L526.267418,722.193487L526.270221,722.227209L526.359420,722.227209L526.407158,722.244652L526.418069,722.312097L526.624817,722.305120L526.635252,722.395822L526.775560,722.395822L526.782619,722.480710L526.978858,722.480710L526.999899,722.565598L527.103564,722.565598L527.141172,722.565598L527.143396,722.592344L527.148231,722.650487L527.253342,722.650487L527.283626,722.666766L527.295117,722.735375L527.509004,722.733049L527.513267,722.819100L527.653576,722.819100L527.660636,722.903989L527.991400,722.903989L528.010785,722.910966L528.018711,722.988877L528.238864,722.974923L528.236960,723.073765L528.376788,723.073765L528.390908,723.243543L528.461787,723.243543L528.475037,723.402854L528.545725,723.412157L528.547949,723.438903L528.552785,723.497046L528.608717,723.497046L528.636820,723.666824L528.698056,723.666824L528.704912,723.702873L528.714181,723.750550L528.808205,723.750550L528.850351,723.770319L528.862036,723.835439L529.420969,723.830788L529.430829,723.920329L529.884554,723.920329L530.062476,723.920329L530.065378,723.955215L530.069538,724.005218L530.416704,724.005218L530.501088,724.016847L530.498022,724.090107L530.778648,724.090107L530.785711,724.174997L531.347446,724.174997L531.354414,724.258723L531.431562,724.258723L531.438458,724.428502L531.488122,724.428502L531.508856,724.428502L531.515920,724.513392L531.586318,724.513392L531.600350,724.682009L531.665926,724.682009L531.677812,724.766899L531.748211,724.766899L531.755275,724.851789L531.828470,724.850626L531.829345,724.872720L531.839803,725.021569L531.912419,725.019243L531.917266,725.106459L531.961145,725.106459L531.987183,725.106459L531.994151,725.190186L532.119036,725.190186L532.141531,725.275077L532.240379,725.275077L532.281847,725.275077L532.283976,725.300660L532.288912,725.359967L532.364225,725.343687L532.366376,725.444857L532.467636,725.444857L532.506693,725.444857L532.509983,725.484395L532.513758,725.529748L532.567763,725.529748L532.654075,725.529748L532.659785,725.598358L532.668108,725.698366L532.738508,725.698366L532.752639,725.868148L532.836153,725.863496L532.837169,726.037930L532.891175,726.037930L532.905692,726.212363L532.991521,726.206549L532.995683,726.256553L532.998587,726.291440L533.039573,726.291440L533.068505,726.291440L533.071409,726.326327L533.075570,726.376331L533.117039,726.376331L533.139129,726.392612L533.153036,726.461223L533.280720,726.454245L533.289412,726.494947L533.300324,726.544951L533.370725,726.544951L533.377791,726.629843L533.445781,726.629843L533.455258,726.714734L533.702143,726.714734L533.806298,726.714734L533.809202,726.749621L533.813365,726.799626L533.918002,726.799626L533.950121,726.814743L533.960751,726.884517L534.061049,726.884517L534.101072,726.884517L534.103492,726.913590L534.108138,726.969409L534.156841,726.969409L534.178540,726.969409L534.182121,727.012436L534.192576,727.138030L534.254685,727.142682L534.277111,727.307814L534.323403,727.307814L534.347031,727.307814L534.354097,727.392706L534.494419,727.392706L534.501389,727.476435L534.577198,727.495042L534.578858,727.561327L534.678675,727.561327L534.719180,727.561327L534.721504,727.589237L534.726247,727.646220L534.766753,727.646220L534.796650,727.646220L534.803620,727.729949L534.943557,727.731112L534.948204,727.786932L534.960652,727.809027L535.021991,727.816005L535.023280,727.924155L535.098979,727.900897L535.100916,727.924155L535.105950,727.984627L535.161404,727.984627L535.175117,728.039284L535.475357,727.793909L535.912878,727.124075L536.371427,726.510064L536.798688,726.082120L537.221362,725.784420L539.711741,724.365707L542.347830,722.863289L544.657273,720.407370L546.596169,718.551515L546.814922,718.342210L547.574783,718.544538L552.352121,719.812004L559.634797,719.812004L560.098627,719.829446L562.174295,719.905030L562.668117,719.923635L563.386111,720.229457L564.957175,720.899246L568.124395,722.249303L571.111445,724.742478L572.191498,725.546028L573.097854,726.221667L573.810712,726.751947L575.251580,724.072664L576.129307,722.772586L577.186219,721.207397L578.476612,719.421297L578.678768,719.142222L579.994988,718.603841L580.632510,718.342210L585.111330,721.957429L590.614966,726.398426L590.728684,728.674236L590.901930,732.160733L591.127055,736.688246L593.748022,738.161798L596.554462,739.740047L600.757799,742.363930L601.052402,743.043174L601.737530,744.623831L602.903609,747.314150L609.793063,749.193814L616.816921,752.115746L623.976949,756.638413L626.095095,757.990140L627.841110,759.105738L629.428455,760.118978L631.688593,761.634789L632.064150,761.887233L633.213087,765.423851L636.728586,766.819925L636.819811,766.831560L638.103227,766.988619L643.266695,767.620352L644.836331,769.761064L647.510896,773.409709L658.000859,778.381483L658.470090,778.603724L657.890866,783.053344L663.324519,785.008277L666.255538,786.215007L669.080181,787.378699L669.247749,787.447357L670.278682,788.045502L671.653034,788.843811L672.189137,790.410197L672.928180,792.567813L676.664681,795.435418L677.070849,795.657708L681.914234,798.303132L688.067582,801.599277L691.352660,803.832872L694.695426,806.106110L698.207015,808.781011L699.340444,809.644729L700.835393,812.267377L701.431532,813.313903L702.985061,812.374474L706.486543,810.259349L707.568938,809.905476L707.797749,809.830977L710.425405,808.974241L711.217111,808.897414L714.088539,808.620374L719.734544,808.862493L719.942540,808.877626L719.757585,808.551696L719.546576,808.299102L718.732386,807.714764L716.974323,806.806836L716.123217,806.534460L714.750990,806.340073L713.340503,806.273725L708.108992,806.193410L706.708699,806.071191L705.798309,805.889608L705.356936,805.748766L704.556992,805.368144L702.083277,803.695525L700.610364,802.814419L699.757392,802.039240L698.841374,801.373477L698.062431,800.605297L697.168943,799.937220L696.397415,799.148104L695.503297,798.410208L694.207049,796.832018L691.067755,793.851472L690.508108,793.252118L689.490685,791.968469L688.598941,791.228315L687.820065,790.441618L686.011717,789.098667L685.367103,788.814718L684.324122,788.490040L683.681155,788.202603L682.802175,787.503215L681.869758,786.856199L681.077919,786.085838L680.153502,785.419052L679.300108,784.651033L677.880257,783.778293L677.267385,783.288399L676.733163,782.741490L675.963948,781.782664L675.302005,781.186894L674.895674,780.741233L672.503937,777.459942L671.614187,776.716434L670.831294,775.924064L669.923604,775.252709L669.133462,774.482460L668.224075,773.813444L667.434052,773.038555L666.525270,772.364896L665.735565,771.587693L664.827202,770.912883L664.037532,770.135694L663.129204,769.460896L662.339568,768.683720L661.431276,768.008933L660.642058,767.230608L659.733419,766.556996L658.944235,765.778685L658.036114,765.105084L657.245999,764.326786L656.337814,763.652034L655.548217,762.873749L654.639586,762.199008L653.850505,761.420736L652.945386,760.747170L652.166868,759.973564L651.266128,759.300009L650.488286,758.511294L649.568096,757.841240L648.710917,757.072313L646.442452,755.893925L645.260213,755.426297L643.299131,754.916795L642.968351,754.771389L641.993786,754.152546L641.678946,754.012958L640.280335,753.581400L639.630582,753.292920L638.763282,752.584520L637.836877,751.935448L637.063030,751.139819L636.175069,750.397703L633.593373,746.876808L632.698089,746.144032L631.920222,745.356595L631.008908,744.695944L630.231075,743.908519L629.335865,743.175766L626.926300,739.898223L626.510313,739.474872L625.838583,738.936381L625.086766,738.124581L624.261207,737.381406L624.075797,737.117400L623.544682,735.933452L623.210580,735.383352L622.387677,734.642524L621.633153,733.837738L620.723906,733.119018L619.682983,731.859527L617.954921,730.082543L617.450473,729.433626L617.249895,729.081259L617.003348,728.328849L616.959572,727.186872L617.125543,726.460060L617.945204,724.838997L618.137252,724.152902L618.226521,723.079580L618.111200,722.033014L617.880855,721.398103L617.496297,720.900409L616.862322,720.372485L616.084235,719.611999L615.160236,718.984079L614.385842,718.221278L613.753165,717.691041L613.361904,717.193366L613.220250,716.881738L613.037309,716.202672L612.938932,715.474774L612.886892,713.565518L613.047352,712.024882L613.413709,710.729603L612.419655,708.666953L612.217980,708.375116L611.178020,707.270559L610.110487,705.800934L608.824415,704.061592L607.967870,703.237274L606.872507,701.824670L605.600260,700.542296L605.649711,696.887083L605.775338,696.163960L606.054982,695.540822L607.477930,694.063207L608.318780,693.455192L609.046247,692.743715L609.909304,692.131057L610.685640,691.399825L612.037456,690.466318L613.084257,689.471205L612.103274,687.313604L611.203950,684.756150L610.321123,683.621587L610.012919,683.022923L609.714538,682.018569L609.469663,680.804984L609.483028,680.259805L609.608621,679.748338L609.797987,679.233386L610.080913,678.764932L610.856381,678.077947L611.565126,677.337495L612.402617,676.660979L613.324435,675.459067L615.118043,673.442343L615.565537,672.820478L616.425272,671.355908L618.455852,669.038199L619.188536,668.045571L620.204974,667.166856L621.648621,665.690721L621.947223,665.042157L622.105621,663.891484L622.067272,662.653650L621.838277,661.411176L621.500833,660.618509L621.273325,660.283777L620.723267,659.696835L620.094904,659.219148L619.018612,658.565962L618.154495,657.825611L617.205623,657.192189L616.563128,656.666857L616.012738,656.340270L614.006643,655.608064L613.015656,655.010680L612.654415,654.863078L611.407010,654.589956L607.265897,654.066958L606.534334,654.065796L604.810985,654.270346L603.617595,654.218046L602.877348,654.001874L602.548014,653.810108L602.280198,653.566043L601.915001,653.020966L601.362600,651.934305L600.865490,651.310204L600.542262,650.748864L600.272379,649.637811L599.962225,647.268133L599.717140,646.555726L599.525750,646.241942L597.959615,644.688139L597.060504,644.040822L595.676433,642.729926L595.284698,642.205803L595.137575,641.868784L594.946126,641.135481L594.806301,639.945466L594.665796,636.169780L594.675314,633.687560L594.873323,630.136276L598.081117,629.523872L600.740758,628.738324L603.344523,627.479827L604.718482,626.492093L606.632574,625.613594L607.779500,625.225476L609.825601,624.828062L610.576350,624.529421L611.489035,623.862418L612.403223,622.707371L613.132025,621.945089L613.417017,621.395458L613.830210,620.235776L614.578007,619.173707L614.718623,618.871588L614.878713,618.179040L614.933391,617.413288L614.817124,613.687983L614.902234,612.054260L615.081081,611.283881L615.821651,609.618801L616.004195,608.875154L616.089719,608.094327L616.056969,604.847879L615.785398,601.594501L615.626845,600.806724L615.374192,600.049159L614.481718,598.333027L614.235593,597.567336L614.035097,596.369422L613.780704,593.569274L613.555582,592.471298L613.273614,591.842722L612.612026,590.982936L612.450270,590.684335L612.214906,590.004641L611.790208,588.100344L611.527546,587.332354L610.566453,585.622101L609.380031,583.068356L608.709304,581.490574L608.482894,580.618033L608.303148,579.040260L608.133397,575.468802L608.036998,574.721750L607.857381,574.024658L607.718000,573.706320L607.337529,573.200929L606.721360,572.660685L605.965187,571.872975L605.073184,571.154975L604.689026,570.690250L603.455416,568.921978L603.123920,568.286471L602.463222,566.543767L601.614358,565.442381L601.455474,565.148446L601.169160,564.131874L600.928969,562.275328L600.694823,561.216936L600.402690,560.613968L599.681260,559.780966L599.370610,559.186131L599.074137,558.174216L598.797684,556.679002L598.877056,556.148068L599.033563,555.631076L599.409020,554.893346L600.342673,553.945335L602.283367,551.037411L602.647943,550.621497L603.258621,550.071978L604.146241,548.837015L604.932860,547.998217L606.985661,546.053417L607.517188,545.467886L607.962362,544.845180L608.538195,543.681090L609.012722,542.886443L610.638804,542.930590L611.608543,541.459797L611.812847,541.237901L612.320821,540.876592L613.893901,540.062197L614.645294,539.788021L615.469979,539.667198L616.291242,539.690433L617.056192,539.846109L617.396195,539.977388L618.359933,540.565240L618.996421,540.802239L621.246736,541.236739L621.952568,541.430753L623.577213,542.281164L624.282664,542.470532L626.180741,542.798149L626.884464,542.984032L627.199218,543.111826L628.198342,543.690385L628.907367,543.926223L629.710988,544.066797L632.267810,544.325870L633.066260,544.467606L633.767425,544.701121L634.768721,545.270386L635.856266,545.575931L637.111529,545.709534L640.171290,545.865211L640.998297,545.975579L641.712504,546.164947L642.281606,546.454227L642.979364,546.968890L644.061402,547.625290L644.674262,548.102777L645.451494,548.956678L646.428105,550.351965L647.037245,550.896837L647.775908,551.333664L648.649288,551.617136L650.027845,551.818123L651.903665,551.906418L653.279009,551.887830L654.549214,551.737961L655.270613,551.489341L657.166874,550.139361L657.636969,549.643284L658.045462,549.085634L659.612984,548.410646L660.547935,548.109747L661.976938,547.902952L663.467510,547.862290L682.847686,548.426911L685.354505,548.625573L688.246999,549.144885L690.014298,549.179738L693.057456,548.731294L693.786024,548.539602L694.354623,548.228248L695.489888,547.227965L695.784729,546.727242L695.857102,546.424021L695.857179,545.795505L695.692132,545.185577L695.548574,544.907915L694.710285,543.805399L694.354286,542.760973L693.603208,539.203655L693.575167,538.567009L693.747533,536.700060L693.607453,535.674226L693.362098,535.068949L692.733342,534.201115L692.446162,533.551691L691.937823,530.849441L691.620168,529.765520L691.457922,529.455331L690.802665,528.580527L690.499984,527.902060L690.253795,526.718228L690.102596,525.008120L689.680633,516.605110L689.704179,515.359701L689.818407,514.594099L690.081549,513.927246L690.910312,512.893276L693.132025,509.270887L695.044684,509.150063L695.733909,509.009489L696.673936,508.663282L697.893642,507.616527L698.424438,507.068171L699.343563,505.744913L699.879917,505.167512L700.174555,504.680728L700.341876,504.078929L700.556357,502.460575L700.717343,501.863421L700.845425,501.600859L701.614649,500.540154L702.026817,499.362108L702.288400,498.817232L702.771666,498.232854L703.055127,497.756523L703.225064,497.158203L703.519331,495.222664L703.733160,494.665005L704.326061,493.838971L704.448702,493.575244L704.606585,492.976921L704.831938,491.355054L705.145306,490.484867L705.991387,489.461320L706.607355,488.414536L708.017718,486.298886L709.427302,485.103383L709.989558,484.807121L710.710448,484.649114L711.502171,484.602642L712.750721,484.679321L713.588639,484.829195L714.411382,485.089441L715.967727,485.741217L717.927100,486.293077L718.610378,486.598633L719.079275,486.965764L720.308221,488.103172L720.638892,488.692207L721.094849,490.038735L721.418687,490.718388L722.453543,492.226401L722.849479,492.712031L723.404177,493.125630L725.092090,493.763455L726.362866,494.498869L726.711512,494.640608L727.494552,494.829979L728.792896,494.967071L730.162376,495.007733L731.554639,494.975203L733.863236,494.687079L737.946159,493.891252L739.505466,494.958938L742.031411,496.227612L742.825451,496.518059L744.395288,496.931655L745.080562,497.208160L746.315000,498.033028L749.846481,499.897689L751.319243,500.965366L754.834926,502.875329L755.343683,503.249421L756.115005,503.972046L756.768110,504.446050L757.894037,505.111746L759.505742,505.963326L760.376694,506.074856L760.878573,506.215431L763.802381,507.369070L765.726880,508.253177L768.059544,508.927003L768.383408,509.068739L769.371942,509.667050L769.710557,509.801815L770.885218,510.043463L773.452528,510.279302L774.258050,510.415228L774.966978,510.652229L775.958304,511.237759L776.271827,511.365554L776.974858,511.552598L778.865972,511.883701L779.563944,512.073069L779.873262,512.202025L780.850401,512.794526L781.559634,513.039658L782.371124,513.182555L783.686375,513.292923L792.975498,513.505526L794.357241,513.575231L795.711976,513.734393L796.578939,513.943511L798.532817,514.750937L800.842910,515.438700L801.160798,515.587406L802.128664,516.212434L802.749305,516.448272L803.998735,516.669007L805.350568,516.746845L806.267256,516.734066L807.173399,516.646933L808.043023,516.442463L808.434516,516.283302L809.151668,515.884817L811.091463,514.526716L812.492726,513.732070L813.343539,513.022232L815.761597,511.751260L816.948797,511.193612L818.073377,510.416390L818.693722,510.165448L820.030292,509.768124L820.555907,509.478843L821.301939,508.918871L821.983125,508.592414L823.182479,508.207868L824.917948,507.778013L827.680405,507.293555L828.318975,507.075142L829.265845,506.533756L829.951221,506.333932L830.738809,506.234019L833.275655,506.122489L834.067017,506.027224L834.754604,505.830884L835.702212,505.309248L836.005966,505.201203L836.695400,505.057143L838.569625,504.841053L839.262360,504.691184L839.568725,504.575007L840.785037,503.898854L842.123099,503.527086L842.736730,503.268010L843.530246,502.605797L844.394534,502.003996L845.164585,501.274399L846.548775,500.471609L848.517173,499.135560L849.238728,498.749848L849.627211,498.597655L850.418972,498.408284L852.806480,498.164309L853.508298,498.026057L853.815807,497.918011L854.769434,497.413796L855.407724,497.237205L857.623373,497.004847L858.315247,496.852653L858.871264,496.569177L859.860396,495.750117L860.252361,495.352785L860.419689,495.061176L860.533471,494.740522L860.647329,494.042285L860.611937,492.545895L860.412217,491.442188L860.146097,490.772993L859.948720,490.477896L858.323057,488.940833L857.410509,488.289061L855.805800,486.775227L855.458017,486.225692L855.062152,485.322965L854.733373,484.760648L853.754941,483.706883L853.238245,482.926142L851.550480,480.652459L851.128290,480.228393L850.454615,479.693953L849.673795,478.910881L848.771447,478.247477L847.993381,477.467888L847.101933,476.739418L845.842066,475.154672L842.361828,471.375188L840.379654,469.439537L839.706923,468.902758L838.548749,468.135930L836.602589,466.382674L835.205836,464.370311L834.860579,463.692936L834.225205,462.026797L833.241821,460.553524L833.023568,459.879626L832.710415,458.458627L832.465616,457.788210L832.085274,457.257221L830.829383,456.156895L830.184707,455.804837L829.331900,455.585236L827.924255,455.446968L825.942087,455.410949L824.449121,455.463235L823.477902,455.560836L820.674953,456.190591L817.489458,456.501982L815.588862,456.577506L804.180446,456.268439L801.757173,456.314915L800.393694,456.526382L798.475259,457.168916L797.631126,457.319964L796.300938,457.401297L794.044857,457.424535L792.730701,457.545373L792.312597,457.638325L791.548791,457.919505L789.994928,458.728187L789.528806,459.118585L789.220411,459.683266L789.074240,460.307203L788.861209,461.892019L788.665980,462.440428L788.098661,463.273498L787.979987,463.543054L787.832346,464.156525L787.538657,466.588325L787.116944,467.589854L786.267918,469.009649L785.929281,469.463936L785.104411,470.145946L784.392946,470.877915L783.547623,471.487887L782.839615,472.226824L782.015813,472.911152L780.557851,475.007118L779.930376,476.050449L779.083098,477.072864L778.848573,477.635192L778.566033,479.569638L778.282793,480.434036L777.526858,481.497104L777.097375,482.668218L776.789421,483.215434L775.772837,484.156505L775.028748,485.042969L773.228563,484.869859L772.029455,484.671189L771.337676,484.439988L770.326350,483.873022L769.234079,483.559332L766.293709,483.222405L765.500134,483.076016L764.801578,482.843653L763.800112,482.273200L763.447800,482.133782L762.647687,481.940919L760.846484,481.738763L757.019307,481.504075L756.474781,481.243827L755.577502,480.661753L754.888744,480.420094L754.096447,480.281837L751.473215,480.058767L750.582892,479.929804L749.712133,479.697439L748.908433,479.329140L746.414578,477.694445L744.942514,476.811452L743.079432,475.170937L742.669890,474.636491L742.147218,473.743034L737.628963,471.643575L736.238182,471.335685L734.800599,471.207881L721.551438,470.843059L719.124031,470.824469L717.262581,470.991776L716.434236,471.212528L714.912256,471.760922L713.591630,471.982836L712.201693,472.045575L710.797619,472.024662L709.424320,471.934038L708.147575,471.730714L707.414745,471.480916L706.413858,470.908123L705.716866,470.678076L704.923772,470.538653L702.383344,470.294664L701.203393,470.040217L700.585100,469.739296L699.870612,469.235050L698.429217,468.395025L697.543033,467.636328L696.541649,466.404750L695.911518,465.806387L695.525923,465.341638L694.697553,463.683641L694.347356,462.403248L689.476672,462.269631L688.180146,460.529124L687.121737,459.496201L685.459779,457.136383L684.569889,455.620093L683.114523,453.609980L682.137020,452.567736L681.830120,451.976316L681.656631,451.309370L681.581454,450.604077L681.593408,449.886002L681.820460,448.833286L682.158557,448.180274L683.212084,446.552386L684.163509,445.583317L684.460641,445.108076L685.017963,443.761363L685.254681,442.499466L689.276685,441.908022L689.338629,440.618227L689.448248,440.030264L689.663405,439.529449L690.318288,438.762537L690.555895,438.201295L690.674708,437.197331L690.637174,436.756933L692.864806,435.874973L693.003738,435.868001L696.968601,435.683242L699.260996,434.722261L700.053198,434.722261L701.479833,434.722261L703.857397,434.722261L704.229445,434.802440L705.634681,435.106886L705.928890,435.314886L705.845871,435.535667L707.586482,436.732531L708.934730,437.830619L709.784876,438.174569L710.708876,438.334924L711.640209,438.334924L712.093443,438.265205L712.926160,437.916607L713.469210,437.298425L713.932881,436.149206L714.024105,435.298618L713.956988,434.420138L713.765189,433.541654L713.349321,432.225084L713.097064,430.952663L712.920351,429.230524L712.902964,427.962732L712.978099,427.169051L713.168786,426.450900L713.482932,425.918677L714.152553,425.108719L715.092380,423.494602L715.361682,422.857784L715.472785,422.253501L715.296256,419.857270L715.484234,418.248919L715.525239,416.530153L715.489060,415.785233L716.783414,414.366274L718.072006,412.829926L720.333034,409.757191L720.674798,406.492639L721.984389,403.419788L723.028485,400.923343L722.018728,397.924768L722.479763,397.458705L722.721909,396.302259L723.062031,395.513081L724.500103,394.034668L725.339817,393.420984L726.026678,392.673633L726.780443,391.972770L726.941179,391.718228L727.360964,390.557088L727.644084,390.021263L728.391711,389.316901L729.068825,388.563718L729.901139,387.944198L730.597242,387.200307L731.419782,386.520340L732.305959,385.299878L733.364742,384.172395L737.381504,380.598095L738.540760,379.488009L739.040979,378.918432L739.890357,377.671168L740.606913,376.902810L740.873700,376.358796L741.165585,375.481161L741.446539,374.951091L742.184239,374.253626L742.847734,373.487573L743.660297,372.802887L744.479490,371.654374L745.087424,370.937130L747.456836,368.564498L747.966270,368.557523L748.508613,368.394773L749.695367,367.554285L750.096463,367.174145L750.801388,366.174383L752.778315,363.815611L753.747691,362.011335L754.985847,360.066360L755.356367,359.661783L755.959628,359.151409L756.646779,358.387588L757.460003,357.705144L758.363255,356.556489L758.881392,356.069354L759.466418,355.649649L760.504383,355.049736L761.359012,354.339369L762.779628,353.555752L765.095126,352.037332L766.202755,351.568781L767.714762,351.209518L768.369956,350.968846L769.535189,350.222411L772.997379,348.519079L773.683448,348.049350L774.684435,346.961060L776.852092,346.327382L779.927303,345.983217L780.707259,345.815786L781.305099,345.546034L782.244675,344.964670L785.551959,343.304279L786.022921,342.971733L787.638271,341.521772L788.632927,339.890398L788.916457,339.224120L789.041041,338.489233L788.951790,337.361311L788.724878,336.629900L788.283961,335.792666L789.829819,334.429821L789.387037,333.566986L789.123438,332.790196L788.487112,329.055011L788.471993,326.487282L788.264543,324.561441L788.327972,322.152925L788.165605,318.595283L786.964800,317.168235L786.028835,315.743492L785.240426,314.935159L784.956940,314.428057L784.551635,313.255664L784.283025,312.643874L783.590660,311.707572L782.087079,310.273440L779.794633,308.370536L778.464516,307.389990L776.926429,306.483877L776.666501,306.287299L776.240865,305.815045L775.126267,304.257521L774.794661,303.693363L774.546056,303.058245L774.181837,301.756586L773.947587,301.121454L773.147434,299.706930L772.881246,299.093886L772.702661,298.434305L772.341709,296.415981L772.160201,295.761034L771.892269,295.154941L771.237557,294.034647L770.973199,293.420399L770.693013,292.063919L770.386299,288.837828L770.150382,287.820997L769.875878,287.236953L769.202797,286.381822L769.044906,286.096776L768.819053,285.453383L768.635722,284.378336L768.580809,282.875109L768.682577,281.706947L768.947455,280.155966L770.532856,279.761525L772.935790,279.755708L773.686395,279.666115L774.352405,279.450859L776.042359,278.231451L776.738135,277.498401L777.542927,276.854941L778.240727,276.118388L779.889285,274.851221L780.492683,274.584753L782.099859,274.059959L783.035283,273.487453L783.603110,273.255889L787.389114,272.238862L788.609650,269.739295L790.496177,266.871909L791.488426,265.951390L792.182201,265.206588L793.866078,263.978812L794.563950,263.739074L796.582468,263.484205L797.336535,263.336404L798.938066,262.578775L800.133671,262.393731L802.880232,262.380929L810.999825,262.684681L812.342910,262.659077L813.537928,262.457740L814.114301,262.160970L815.543302,261.063494L816.200403,260.298858L816.749965,259.778623L817.072177,259.322395L817.481264,258.169012L817.758153,257.635959L819.211820,256.149675L820.141015,255.455988L820.481740,255.128929L821.436460,253.913791L822.885931,252.063113L823.770937,250.715231L824.313541,250.142548L824.629475,249.676948L825.169827,248.240556L826.070123,246.899587L826.663332,244.928829L827.505489,243.306084L828.035753,242.119851L828.969368,240.511012L829.708826,239.030195L830.928944,237.080173L831.609937,236.271043L831.913567,235.762276L832.101084,235.103318L832.317337,233.695734L832.484935,233.043742L833.319635,231.609337L833.515330,230.502077L833.495465,228.401610L833.133332,222.708826L833.146363,221.470997L833.247477,220.710589L833.482752,220.047989L834.213211,218.946360L834.707646,217.338133L834.993132,216.687145L836.159490,214.739965L836.839637,213.927070L837.149169,213.433272L837.352054,212.798550L837.875292,210.508838L838.815877,207.839345L838.685723,205.337465L838.384776,203.893132L837.889315,203.080097L836.746283,201.914108L834.751984,200.313603L834.203980,199.983945L831.788919,198.720046L828.433576,197.301186L827.014885,196.991316L825.070154,196.851524L823.623911,196.888802L822.237586,197.114798L819.388999,198.275054L818.677722,198.641998L817.663902,199.361900L816.440179,200.404463L815.856711,202.882079L815.633277,203.559999L814.299651,205.861610L813.598492,206.655973L813.278441,207.135847L812.671525,209.098400L811.923677,210.749926L811.623312,212.180126L811.193935,213.018665L810.304954,214.005099L808.429593,216.944513L807.565312,217.951849L807.297364,218.501510L806.901966,219.680005L806.147569,220.730385L805.562069,222.085839L805.170704,222.592380L804.553934,222.927744L803.823161,223.114056L801.635573,223.506474L800.127240,223.661345L796.820033,222.163858L795.415524,220.441590L793.739617,219.227009L793.176487,218.705303L792.137866,217.497677L791.248435,216.760513L790.469723,215.965112L789.579992,215.281502L788.794860,214.509374L787.015985,213.163079L786.477187,212.905696L784.950454,212.397914L783.713041,211.644387L783.382928,211.496476L781.035215,210.850087L779.095832,210.037143L776.756399,209.386081L775.122083,208.477611L773.199291,207.948829L772.413811,207.655318L770.051248,206.471943L768.853605,205.617010L768.204406,205.330477L766.817731,204.883203L765.538498,204.137739L765.222112,204.008447L764.516210,203.832563L762.621187,203.542527L761.913388,203.345674L761.340419,203.025351L760.021861,201.946723L759.641404,201.554173L759.207251,200.886714L759.231133,199.163870L759.087736,195.297485L759.113732,194.080089L759.319572,192.997808L759.457576,192.694906L760.045535,191.872402L760.283229,191.254934L760.446159,190.163282L760.594788,187.403189L760.193910,185.446929L759.857591,184.334197L759.513574,183.633922L758.551647,182.018947L758.064018,180.581046L758.038556,180.029880L758.135470,179.512502L758.302206,178.991623L758.572864,178.511525L759.910310,177.282129L760.384512,176.946516L762.276157,176.076013L763.028204,175.789339L763.849517,175.602883L765.955451,175.282410L769.424814,174.531915L770.826409,174.399063L774.087342,174.291848L774.902725,174.140349L775.261396,174.008661L776.190432,173.425966L777.614055,172.758191L779.392518,171.730291L779.855936,171.336374L780.060768,171.031028L780.294099,170.334088L780.390119,168.764193L780.187745,165.865542L779.976262,164.688322L779.720717,163.977316L779.535281,163.661440L778.769484,162.811713L777.864353,161.519030L776.539581,159.836982L775.832508,159.169044L773.508102,157.887933L771.192516,156.972835L769.165463,156.056556L768.721168,156.356155L768.040161,157.066094L766.666345,158.159545L766.114040,158.431155L765.404975,158.532572L764.672237,158.463795L763.997923,158.220162L762.278936,156.879575L761.658884,156.331674L761.077625,155.988942L760.709034,155.859542L759.483996,155.638047L758.191042,155.576261L756.934126,155.653202L756.177253,155.821072L755.594243,156.106683L754.694366,156.730360L751.403034,158.459132L750.370611,159.325247L749.487340,159.912751L748.694953,160.560863L747.193853,161.142526L746.654456,161.494552L746.320141,162.061051L746.021663,163.733707L745.801706,164.361960L745.602329,164.634706L745.057469,165.000696L743.536884,165.569491L742.887100,165.993752L742.318560,166.257166L741.204364,166.469294L739.060078,166.638297L735.040039,166.240848L732.734115,166.163922L731.815906,166.060189L730.975055,165.867873L730.603195,165.723344L729.282723,164.992537L726.998869,164.295522L725.051356,163.508747L724.132662,163.288448L722.209030,163.085632L719.748126,163.007536L716.316078,162.993549L713.092704,163.082135L712.178288,162.897968L711.272803,162.585583L710.754514,162.266202L709.234639,161.077250L707.907329,159.695934L707.536826,159.148061L707.218708,158.049967L706.941239,156.076374L706.762403,155.326786L706.460570,154.662290L705.747210,153.792604L705.292414,153.018502L704.756440,151.905128L704.362800,150.635504L704.722714,149.831043L704.900577,148.695450L704.734050,147.574991L704.402436,146.881250L703.889753,146.225977L702.958833,145.364316L701.935135,144.636732L700.435892,143.812358L699.536126,143.083587L698.585614,142.452754L697.186564,141.226049L696.814662,140.729295L696.696885,140.422611L696.630937,139.781251L696.690225,139.460568L696.825899,139.151545L697.055957,138.874005L697.376134,138.665266L698.119062,138.470520L698.941462,138.427373L702.516293,138.514834L703.343952,138.440200L704.064339,138.244288L704.994944,137.710188L706.585406,137.165587L707.188468,136.858882L708.728066,135.304339L709.331029,134.881001L710.472483,134.244237L711.681779,133.245925L710.648840,132.283749L709.406816,131.439352L708.505002,130.724402L707.858354,130.437486L706.812764,130.114412L706.165279,129.839157L704.953878,129.005216L703.695960,128.389374L701.407273,127.154168L700.910370,126.787916L699.660969,125.652985L699.272831,125.171244L698.751980,123.963955L698.447528,123.400543L697.727682,122.575828L697.559674,122.304030L697.041889,121.093172L696.699169,120.533228L695.866529,119.788959L695.102516,118.996848L694.200023,118.328386L693.442301,117.531585L692.623352,116.784938L692.291331,116.231945L691.917055,115.326609L691.582985,114.766599L689.912684,113.224206L687.373893,111.815942L686.128613,111.185886L684.668909,110.111270L682.322511,108.873274L680.545799,108.134662L678.623809,107.247846L676.310814,106.574555L675.995226,106.429860L675.030678,105.813736L674.693283,105.670206L673.514982,105.411151L672.212291,105.310796L670.870016,105.310796L669.554028,105.449659L668.738745,105.672540L667.249330,106.252492L665.340698,106.695911L664.694013,106.960794L663.889317,107.631746L663.038607,108.236178L662.346089,108.973622L661.513370,109.593206L660.813344,110.327128L659.977719,110.946695L659.303295,111.706266L658.742874,112.227808L658.426921,112.701508L658.255146,113.305877L658.061740,114.946270L657.910064,115.551778L657.785286,115.818946L657.165597,116.621607L657.025991,116.882936L656.624007,118.068231L656.345744,118.617704L655.451106,119.597640L653.559186,122.543165L652.697407,123.551020L652.558267,123.818145L652.383000,124.422378L652.147255,126.046073L651.981307,126.637449L651.854453,126.892893L651.230035,127.688378L651.095471,127.958980L650.894565,128.922404L650.920988,129.991947L651.062860,130.720903L651.346979,131.435853L651.566920,131.784577L652.112844,132.420204L652.741722,132.991679L653.753435,133.749749L655.264788,134.678077L655.724468,135.174889L656.009727,135.805810L656.147814,136.481038L656.171412,137.160923L656.074634,137.811644L655.813252,138.386558L654.344571,139.825563L653.461859,140.400455L652.651609,141.039475L652.046396,141.289017L651.052019,141.580537L650.446544,141.886048L650.048791,142.296502L649.207859,143.474210L648.811578,144.713689L647.773305,146.957037L645.582905,146.982688L644.322380,147.120271L643.534950,147.327810L642.022375,147.864144L640.725648,148.077510L638.419338,148.146300L634.208713,148.015715L632.879129,147.892126L632.060980,147.744052L631.344872,147.499204L630.360427,146.923224L629.639050,146.672543L626.544996,146.156019L625.308245,145.836541L623.823605,145.361984L621.624010,145.912330L620.908026,146.173508L620.383668,146.466167L619.959981,146.947710L619.824219,147.261351L619.695494,147.934100L619.676633,148.996256L619.148877,149.202622L618.685579,149.490601L618.362158,149.898665L618.133826,150.362688L612.781373,150.135340L610.930067,150.114354L609.679810,150.272915L609.313749,150.404660L608.991885,150.599362L608.754056,150.838366L608.451254,151.378162L608.004121,152.437918L607.408377,153.241174L607.273011,153.544286L607.121773,154.234443L607.071996,154.993373L607.103157,156.619614L607.419237,162.015592L607.657028,163.135753L607.974584,163.787325L608.750301,164.630043L609.727383,165.915661L610.290134,166.501929L611.239050,167.338780L612.257782,168.080046L613.766601,168.908714L614.753803,169.562549L615.492666,169.814291L617.935741,170.228031L618.663061,170.505410L619.144299,170.853880L620.407664,171.979692L620.807396,172.678943L621.048536,173.349050L624.182959,174.282525L625.532334,174.514435L627.907199,174.790627L628.567763,174.792958L629.971272,174.634468L632.221569,174.238241L635.532998,174.873368L636.293337,175.101780L636.878476,175.425749L639.091869,177.099174L639.649347,177.433620L641.923899,178.151448L643.846146,178.947342L645.903591,179.422776L647.974491,179.427437L649.224422,179.547460L650.043680,179.777018L650.776654,180.162720L651.661802,180.922464L652.423855,181.853486L653.460944,182.909170L654.855160,184.966884L655.917635,186.835775L657.339195,188.866555L657.764454,189.299966L659.069400,190.381148L659.620644,190.717848L661.303955,191.305031L662.611678,192.009875L663.405320,192.254530L664.767891,192.418797L668.091480,192.591219L668.958988,192.764806L669.358195,192.916257L669.718268,193.131783L670.193845,193.651373L670.925334,195.030709L671.414444,195.658622L671.727482,196.217798L671.923430,196.935399L672.290954,199.650791L672.580842,200.367187L672.821292,200.691018L673.068370,200.918165L673.632023,201.268786L675.196824,201.918767L677.583996,202.502347L679.805304,202.651445L678.707041,204.855248L678.326775,205.326983L677.737575,205.848798L677.046993,206.603559L676.219622,207.227861L675.521387,207.961641L674.697519,208.588258L673.994357,209.320858L672.540414,210.414499L671.972789,210.709162L671.217291,210.883863L669.590318,211.073703L668.837395,211.223945L668.507733,211.339247L667.567184,211.858683L667.228381,211.978642L666.447431,212.125388L664.197514,212.189443L658.459624,212.007758L657.108700,212.043862L656.283357,212.142857L655.572395,212.346670L654.630863,212.856781L653.958914,213.043122L653.182378,213.132799L650.693209,213.256249L649.920061,213.394840L649.567088,213.517125L649.021055,213.879321L648.005873,215.243070L645.958240,214.151840L645.023139,213.462388L644.374421,213.185207L643.329655,212.862605L642.694617,212.572610L641.846219,211.858683L640.925326,211.209969L640.090522,210.438958L639.545801,210.111682L637.850241,209.266117L636.659384,208.829353L633.303595,208.363469L632.488470,208.130525L632.088600,207.949993L631.351373,207.496915L630.370527,206.692080L629.532110,205.834821L628.908861,205.067238L628.448645,204.636269L628.122191,204.448738L627.379324,204.200638L626.138987,204.022425L622.974761,203.925746L620.763778,204.027084L619.993366,204.179672L619.659593,204.303140L618.964510,204.708486L618.427650,204.937948L617.750818,205.080050L615.911199,205.300193L615.235495,205.471414L614.706925,205.762606L613.505156,206.761965L613.129347,207.145165L612.408986,208.087431L611.849883,208.557976L611.523216,208.757141L611.165396,208.922530L610.410753,209.125188L608.072495,209.377928L607.377808,209.535162L607.074250,209.660948L606.181749,210.293373L605.110462,210.864063L603.960327,211.569849L603.040279,211.987959L602.374066,212.046192L601.480763,211.851695L600.901602,211.586154L600.404097,211.130772L599.531254,209.443151L598.558246,208.401904L597.452799,206.750317L597.148725,206.121352L597.069255,205.543630L597.198218,205.012493L597.337830,204.792350L597.849669,204.261207L598.755481,203.134844L599.292155,202.674741L600.379782,202.003800L600.826532,201.645030L601.009405,201.368962L601.185469,200.744602L601.144723,200.092278L601.040811,199.774268L600.872563,199.473729L600.467242,199.061360L599.419095,198.222633L598.822874,197.908108L598.098215,197.728711L597.314251,197.640178L594.912184,197.569118L594.257183,192.923247L594.221347,191.083673L594.138905,190.347361L593.847344,189.252197L593.431372,188.402849L591.746655,186.948792L591.487302,185.964255L591.254878,185.345560L590.434780,183.519733L589.454706,181.827851L589.205105,181.078606L588.973361,179.506675L588.749294,175.542284L588.542437,174.459662L588.259437,173.835018L587.409906,172.752363L586.838139,171.632394L586.379883,171.119602L585.746745,170.799104L585.026057,170.627783L583.462202,170.416836L582.658274,170.253671L582.259443,170.128967L581.496056,169.770003L580.782559,169.310806L579.777789,168.517109L577.919478,166.738533L574.835271,166.216372L570.582917,165.809595L569.409433,165.472750L568.417815,164.902788L567.681051,164.649858L566.390409,164.440054L564.518456,164.314171L561.629174,164.272210L559.762066,164.430729L558.921864,164.647527L557.422068,165.188352L555.193123,165.748987L554.651477,166.063685L553.302431,167.272345L553.003451,167.809648L552.594221,168.958830L551.876893,170.043888L551.746741,170.345743L551.600792,171.029863L551.555099,171.780404L551.596489,174.918818L551.495815,175.635512L551.247808,176.265963L549.504923,178.265648L548.601047,178.970648L547.252284,179.871404L546.693639,180.393441L545.491298,181.239409L545.106749,181.678702L544.807167,182.217035L544.244804,183.607123L543.715425,185.596068L542.977618,186.704116L542.835940,187.017535L542.629519,188.117400L542.629112,189.319772L542.793673,190.509304L543.031495,191.235128L543.208482,191.557844L544.075050,192.669275L544.625166,193.851751L544.970060,194.414438L545.780840,195.224093L546.550405,196.185180L547.092367,196.746680L547.719981,197.272063L548.587115,197.867336L549.569370,198.660636L550.819865,199.497027L551.640722,200.289141L552.528264,201.029991L554.153949,203.278115L555.301044,205.133630L557.530370,207.578446L558.534474,208.865459L559.599751,209.900874L561.751836,212.813690L562.836138,215.663486L563.678420,218.229009L563.972812,218.817097L564.626731,219.699802L564.920163,220.375214L565.158040,221.546688L565.407227,224.089857L565.618598,225.362569L565.873238,226.178816L566.883553,228.320105L567.093870,229.170081L567.276331,230.483448L567.515067,234.948473L567.412756,237.120920L566.825149,239.355000L566.011883,241.911472L565.572508,243.009237L564.685657,244.811257L559.877951,245.939242L559.175396,246.189515L558.865343,246.371108L558.248941,247.002023L556.448201,249.546580L555.671790,250.267095L554.981545,251.044638L554.174949,251.759318L553.237387,252.990786L552.331374,253.975480L549.967415,254.922915L547.637978,255.668983L545.788498,256.483713L544.436988,256.957416L542.599919,257.729069L540.343089,258.267940L538.795631,259.084970L536.524710,259.616849L534.672342,260.330282L532.401722,260.866807L532.089504,260.992500L531.153164,261.533676L530.828185,261.650058L529.679200,261.826957L526.734543,261.953812L525.984276,262.093469L525.656237,262.213341L524.438643,262.886017L523.105757,263.264249L522.496306,263.529593L521.702365,264.194111L520.821255,264.773668L520.014391,265.421883L519.407691,265.669762L518.403775,265.939752L517.790038,266.200431L516.241128,267.585274L515.988298,268.051925L515.817562,268.561631L514.380625,268.866522L513.425520,269.199341L512.318581,270.890176L511.526349,271.600014L510.841251,272.355228L509.399877,273.444398L508.824544,273.736470L508.056144,273.895887L506.756147,273.955232L502.074826,273.746943L500.729158,273.736470L499.510025,273.897051L498.840657,274.219376L498.432487,274.727878L497.869658,276.086971L497.431268,276.683894L497.170625,277.201689L496.853430,279.263527L496.622928,279.904641L496.414866,280.182727L495.857044,280.552731L494.325082,281.115879L493.663937,281.535910L493.071573,281.798865L492.309469,281.950122L491.046661,282.016442L489.748717,281.957103L488.512550,281.753488L488.135957,281.632482L487.525546,281.304370L486.855165,280.766821L485.751514,280.020995L484.957491,279.239093L481.419944,280.033794L476.189187,280.681883L474.631932,280.737733L472.540295,280.593455L467.413084,279.690549L466.754359,279.433405L465.474825,278.600300L462.784382,277.198198L460.022896,276.156786L459.583133,276.078825L459.027805,276.081153L456.237394,275.637821L453.294714,275.264303L452.572311,275.106052L451.933575,274.840749L451.460189,274.478863L450.233631,273.375744L450.051447,273.104616L449.547801,271.917693L449.227114,271.366117L448.427291,270.609731L447.683293,269.806789L446.791380,269.136501L446.014233,268.364964L445.094469,267.703974L444.237929,266.937078L442.749460,266.073583L440.316329,264.360530L438.480517,263.271232L437.626415,262.503128L436.713047,261.842087L435.942429,261.071640L435.055752,260.403603L434.295911,259.607538L433.414544,258.866165L432.151043,257.284467L431.561150,256.700197L430.590773,255.877322L429.561947,255.182469L428.404578,254.560936L427.442265,253.883529L426.764863,253.608840L425.249491,253.172362L424.514702,252.828997L423.582280,252.108507L422.496841,250.910780L421.953659,250.544125L420.296986,249.688588L419.525156,249.415048L419.166066,249.349863L418.453584,249.332403L417.748504,249.465100L416.407147,249.866680L415.796893,249.882976L415.234673,249.749116L414.099541,249.076321L413.229467,248.781826L412.350114,248.615371L411.470648,248.714313L410.882098,248.869127L410.345904,249.112405L409.581245,249.798004L408.735765,250.414922L407.973443,251.145904L406.108582,252.165541L404.307045,253.257330L399.248396,254.072086L397.571396,254.098857L395.953200,253.920775L394.971034,253.616988L394.200890,253.106017L392.000829,250.494073L391.328852,249.956308L390.050160,249.374307L389.072445,249.093781L386.518894,248.824894L385.619371,249.941176L385.223941,250.326458L383.488907,251.143576L383.016866,251.635937L382.867309,251.961848L382.676883,253.085066L382.732442,256.025138L382.692123,257.280976L382.562615,258.075902L382.153143,259.077987L382.280586,261.112374L382.565006,262.697482L383.533580,265.835015L384.637483,267.891332L384.895555,268.668692L385.055636,269.852173L384.957099,270.966979L384.677473,271.602341L383.349289,272.864905L382.892810,273.191889L381.785680,273.799306L380.958486,274.490500L380.062275,275.666911L379.351420,276.463975L379.025229,277.356445L378.684136,279.297270L378.458013,279.790614L377.791191,280.555058L377.535281,281.023961L377.243179,282.033895L377.267520,282.572599L377.432594,283.084539L377.687671,283.609274L378.071333,284.099101L378.322884,284.300383L381.781114,286.200323L382.285217,286.602877L383.734865,288.222379L386.857224,291.163464L388.107036,292.740998L388.702736,293.340128L389.067275,293.874106L389.377892,294.936235L389.504818,296.112356L389.866872,305.254386L389.880711,307.729635L389.670764,311.783174L391.112881,312.822992L392.856784,314.600193L393.226539,315.086358L393.779038,316.254076L394.113375,316.797222L395.646465,318.351047L397.682864,319.954855L401.820816,322.261083L403.456528,323.876456L404.852712,324.961498L407.317563,328.190968L407.726928,328.604965L408.387141,329.139903L409.936597,330.709813L410.274140,331.345910L410.469865,332.071544L410.922608,335.232180L410.832554,336.820602L410.790529,339.938072L410.708961,340.707832L410.529405,341.445030L409.759295,343.093822L409.143189,345.056526L408.215924,346.413423L407.728518,348.044699L407.453209,348.714411L405.989442,351.479256L404.732689,353.411584L403.875924,354.418428L403.616150,355.040435L403.496858,355.756610L403.460220,356.923874L403.732356,362.313599L403.957395,364.373629L404.387788,365.984892L401.724972,366.477800L397.868551,366.659152L396.735216,367.271795L395.951624,367.621710L394.457995,368.123911L392.966145,368.734222L391.680149,369.027170L390.750586,369.096920L389.319339,369.106220L382.980760,368.877209L380.623919,368.871396L379.751721,368.939983L378.970564,369.095757L378.636140,369.221306L377.715795,369.760700L377.395346,369.881599L376.653536,370.038534L375.396344,370.125720L373.614924,370.059459L372.720397,369.939723L371.848253,369.725826L368.127310,368.104148L365.818128,366.820741L365.313625,366.435949L364.561149,365.698912L363.908745,365.193214L361.586803,363.758647L360.568062,363.519163L358.431339,362.272910L357.424438,361.578863L355.731639,360.226795L353.172057,359.238603L350.828218,358.031834L350.332027,357.664453L349.096207,356.532075L348.714662,356.050753L348.061593,354.563757L347.025230,353.195332L346.517676,351.991989L346.182226,351.430424L344.611355,349.878259L342.816984,348.523730L342.169437,348.235382L340.786268,347.798207L339.215298,346.887809L337.497856,346.308778L336.942183,345.996007L335.983380,345.315814L333.613625,344.155407L332.810404,343.864722L330.698183,343.337999L329.889444,343.014755L326.963459,341.221778L326.185213,340.902016L324.634529,340.461324L323.952892,340.175280L323.000562,339.489237L321.568790,338.641560L320.693505,337.878762L319.692431,336.655482L318.811729,335.919414L318.042590,335.125200L317.148693,334.455403L316.375561,333.687923L315.480839,333.025094L314.710240,332.241323L313.826500,331.507550L309.342955,325.831384L308.691402,325.588328L307.241217,324.538182L305.651032,323.015858L305.279957,322.550666L304.564712,321.088786L304.111075,320.608466L301.851161,319.308218L299.680189,318.416176L296.379023,316.871658L295.663293,316.391317L294.677484,315.573684L293.812493,314.706033L292.732605,313.449901L292.192534,313.087015L288.738394,311.173701L287.887060,310.401385L287.206438,309.868669L286.791538,309.438308L284.456364,306.169817L283.565132,305.428866L282.741126,304.632074L281.576623,303.882967L280.437542,302.975656L278.585191,301.896175L276.307473,300.849253L275.223943,300.117563L270.800607,296.477637L270.113157,295.998351L268.641680,295.134001L267.795305,294.369690L266.883227,293.708910L266.112082,292.934116L265.222243,292.264018L264.458034,291.479904L263.566806,290.803978L262.795744,290.023341L261.882728,289.367181L261.026225,288.652845L260.387221,288.356173L259.015332,287.914071L258.709073,287.775623L257.745489,287.167147L257.108934,286.929805L253.903966,286.348081L250.672596,285.533662L249.923591,284.384154L248.261653,283.013565L245.150854,280.758676L242.963540,279.084340L241.859719,278.399004L241.052101,278.077860L238.531444,277.465821L235.560929,276.195185L234.594855,275.686692L233.270791,274.710424L230.328383,272.183007L229.004269,271.150839L228.328364,270.723771L227.178691,270.100038L226.254295,269.412297L225.689879,269.170248L224.181232,268.688475L223.679279,268.378929L223.061194,267.837801L222.142641,267.191935L221.381028,266.411069L220.492285,265.743079L219.737235,264.948233L218.832249,264.244153L217.678975,263.037310L217.105548,262.598560L215.830473,261.754801L214.564658,261.561608L213.619451,261.319534L212.833090,260.990173L210.859774,259.990442L210.367812,259.630815L209.752196,259.058201L208.837118,258.392474L208.010012,257.619664L206.320527,256.497680L205.751512,255.980909L204.885624,254.991586L204.395941,254.581886L202.153056,253.266641L200.649469,252.487958L199.681249,251.830320L198.948102,251.566099L196.888642,251.214578L196.110147,251.028342L195.760079,250.893320L194.442851,250.184451L192.535699,249.662980L192.133683,249.517480L191.372414,249.121717L190.671102,248.627011L190.031211,248.063624L189.229942,247.106787L189.027851,246.754081L188.768169,246.045171L188.515705,244.541189L188.430343,240.924284L188.227188,238.841598L187.903028,237.737948L186.872982,236.253579L186.624808,235.538743L186.476416,234.763358L186.424071,233.186948L186.576137,232.453451L186.731436,232.119300L186.963457,231.824733L187.547675,231.454485L189.098894,230.931710L189.783533,230.539336L190.383500,230.294828L191.154162,230.148123L193.189626,229.911764L193.900673,229.712663L195.203975,229.089741L197.583140,228.726465L198.336140,228.550648L198.911735,228.277024L199.829851,227.664568L201.716576,226.784299L202.469255,226.497859L203.854669,226.263816L205.319410,226.214912L212.351353,226.434982L214.832749,226.443133L216.271176,226.358132L218.177747,226.090321L219.042178,226.060047L220.348031,226.149706L222.278489,226.522311L223.716364,226.685326L232.090831,226.997381L232.994160,227.111490L233.820011,227.312927L234.186361,227.460803L235.492345,228.212984L239.085632,229.435551L239.746270,229.300488L239.961573,229.316788L240.228528,229.446030L240.387098,229.711499L240.268581,230.365852L243.301367,230.208668L245.806301,230.174902L250.788681,230.280856L253.744339,230.456669L255.166127,230.683711L257.583741,231.526672L258.425345,231.702481L259.713448,231.788640L261.914851,231.610502L262.649488,231.627966L267.149731,232.304422L268.275383,232.676994L269.221211,233.287076L269.775280,233.526915L270.946487,233.830789L271.545112,233.849417L272.410756,233.698063L272.981579,233.528080L274.466780,232.738701L277.569521,232.144914L278.151430,231.871305L279.089411,231.267032L281.745187,230.115522L282.600809,229.930393L284.758506,229.687048L285.530801,229.534520L286.844738,228.920911L287.562095,228.715986L290.597715,228.398117L294.971448,227.548131L298.011633,227.281489L298.740764,227.040463L299.212160,226.720257L300.196661,225.890045L300.545749,225.360240L300.653370,225.024890L300.738027,224.311099L300.688472,223.574012L300.509301,222.857876L300.361502,222.523677L299.969164,221.997339L298.575302,220.679147L297.683833,219.959487L297.112343,219.245641L296.286021,218.056658L295.900133,217.375399L295.618249,216.547397L295.459662,215.685613L295.277458,213.029147L295.304929,210.385382L295.505718,209.126353L296.528246,205.746299L296.610848,204.572206L296.450637,203.441189L296.140502,202.763267L295.892209,202.472062L295.290538,202.086503L294.025201,201.612415L293.504050,201.317709L291.927336,200.201776L290.363441,198.647822L290.030863,197.997806L289.791144,196.867833L289.677875,195.231083L289.625021,192.678595L287.918198,190.519790L287.780402,187.088607L287.542603,185.929300L287.207698,185.267495L285.691290,183.687521L284.821547,182.956943L283.805669,181.712493L282.614325,180.579881L281.222424,179.578922L279.079786,178.523178L277.539599,177.463918L275.785248,175.932676L275.177876,175.262599L274.683697,174.535411L274.260929,173.427131L273.425401,170.236190L273.018272,165.336379L272.886628,164.537963L272.357075,162.403746L272.035897,159.434821L271.770410,158.189853L271.236105,157.110392L270.061646,155.417716L269.641648,155.000368L268.978987,154.473432L267.602396,153.142079L267.216488,152.645437L267.064746,152.335324L266.746884,151.317537L266.300309,149.413651L266.288704,148.775899L266.549059,146.862595L266.454191,145.725773L266.207097,144.972542L266.011211,144.618076L265.227103,143.659609L264.284796,142.824725L263.611717,142.343145L262.121863,141.523399L261.397511,141.032478L260.765274,140.735125L259.543595,140.489079L255.953671,140.279180L254.689670,140.098434L253.957624,139.857049L252.631313,139.134053L250.330066,138.453028L248.422371,137.633221L246.124864,136.949845L244.806833,136.220977L244.449208,136.079867L243.641910,135.890943L242.758965,135.785984L238.512133,135.619217L236.745612,135.406966L235.990734,135.158562L234.702534,134.436667L233.018868,133.846548L232.475385,133.500170L231.049475,132.190446L230.713243,131.636457L230.333083,130.746562L230.007060,130.200721L229.213138,129.440266L228.474478,128.620315L227.606510,127.869168L226.311926,126.130056L223.086554,126.040241L221.740622,126.496312L219.278308,127.000203L217.375158,127.669716L216.467757,127.837676L215.519344,127.911158L212.574389,127.900660L207.609273,127.708206L205.675187,127.553076L203.731003,127.231151L203.000014,127.169331L202.272364,127.190326L200.374199,127.403778L198.974850,127.448101L190.753578,127.285971L188.909059,127.147170L187.673172,126.888227L185.991323,126.032076L182.832104,125.310051L182.492829,125.168911L181.499962,124.581017L180.766859,124.325561L179.045523,124.080602L176.320428,124.021112L175.464419,124.087601L174.686247,124.239242L174.344748,124.361722L173.094081,125.024271L171.261782,125.495516L170.510499,125.787125L169.140131,126.640948L167.413746,127.997470L167.313686,128.075618L165.946857,128.957395L165.461296,129.151011L163.654698,129.672370L162.445438,130.367506L162.100515,130.495802L161.322596,130.640427L160.485127,130.666086L159.227328,130.478308L158.467160,130.140072L157.979014,129.709693L155.425382,126.833406L154.203439,125.227233L153.339368,124.474869L152.574631,123.688665L151.027309,122.514003L150.467092,122.182713L148.600397,121.587784L147.836189,121.262321L145.317904,119.676968L144.530876,119.303661L144.083840,119.160171L143.158466,118.977016L142.212499,118.882522L137.022553,118.707532L136.169560,118.565207L135.419101,118.279388L133.914789,117.033433L133.534100,116.553941L133.018919,115.369776L132.711346,114.814434L131.765932,113.751565L130.426979,111.691098L130.091166,111.007368L129.472061,109.334172L128.442132,107.930462L127.780337,106.433361L127.411694,105.942096L126.802688,105.345803L125.812202,104.107685L124.933862,103.346827L123.534203,102.470425L122.693388,101.701372L121.787636,101.032671L121.009079,100.267096L119.430478,99.108206L118.865663,98.797764L116.996442,98.288914L116.259260,97.985468L115.343484,97.338890L114.880008,96.809016L114.613882,96.202104L114.589270,95.926657L114.663217,95.421277L114.938342,94.682456L115.743946,93.730025L115.893419,93.445226L116.090097,92.413397L115.997700,91.310342L115.779571,90.635657L115.613024,90.348504L114.938067,89.571081L114.792347,89.300264L114.635022,88.695589L114.670381,88.069894L114.778715,87.771052L114.965857,87.499057L115.516473,87.137172L117.036240,86.646873L117.962210,86.116877L118.305080,85.995467L119.086305,85.851877L121.309123,85.784167L125.967065,85.935930L127.269668,86.102868L128.057525,86.331678L128.407975,86.504452L129.756842,87.602952L131.209631,88.563680L132.592664,87.828252L133.197910,87.436019L133.936004,86.845328L134.525393,86.547645L135.294367,86.370202L137.978282,86.069014L139.089158,85.698946L140.709037,84.943626L141.225394,84.644763L142.001227,83.924986L142.858356,83.317909L143.639200,82.644277L144.243276,82.376923L145.559222,81.993985L146.759318,81.316831L147.093708,81.191907L147.862496,81.043632L148.712739,80.985256L153.335433,80.998099L156.948150,80.798452L155.274127,79.372877L154.212251,78.640808L152.524164,77.849180L152.477644,77.976448L152.232117,78.647814L150.258964,80.074578L145.699477,80.076913L139.344968,78.982909L135.417379,79.288812L131.574605,79.169720L130.791137,79.145201L128.424878,78.216973L126.886493,77.614491L125.575566,75.873553L124.930745,74.082338L122.408745,72.813032L118.429354,71.201536L117.628162,69.320218L116.783224,67.077953L115.119207,65.501296L111.450398,64.075252L109.566810,63.036934L108.227308,61.056006L107.983057,60.693917L105.645326,59.237358L102.578117,58.392836L100.446002,58.062265L98.658520,57.785425L94.598562,56.947887L91.230926,54.997077L91.028141,54.797319L87.458313,51.293822L86.265195,48.363725L86.186693,48.091502L85.223024,44.748758L83.785553,40.934872L83.781232,38.522995L82.491428,36.502489L78.352468,33.954825L75.331564,30.988617L74.820852,28.649884L71.178182,27.731192L70.988054,27.332618L69.876257,25.000726L69.706394,22.564688L71.015417,20.328430L71.548090,18.342250L69.708415,16.815445L65.938435,16.306889L62.711521,17.006006L61.983207,16.877406L59.363647,16.410939L58.850964,15.827556L58.373411,15.282747Z " data-engtype-1="Entity" data-id-0="29" data-id-1="2" data-iso="BIH" data-name-0="Bosnia and Herzegovina" data-name-1="Federacija Bosna i Hercegovina" data-nl-name-1="" data-type-1="Entity"   
data-varname-1="Federation of Bosnia and Herzegovina"/>
	
	
	
<path fill="none" stroke="#000000" d="M985.481,371.54l1.329,0.83c-1.35,0.03-0.81-0.2-3.81,0c-3,0.2-7.83,0.8-11.67,0
	c-3.83-0.8-5.16-1.54-9.5-3.2c-4.33-1.67-5.33-1.5-7.16-1.34c-1.47,0.14-1.87,1.23-4.78,1.92v-0.01c0,0-2.93-2.24,0-4.07
	c2.94-1.84,5.28-1.34,4.44-3.17c-0.83-1.83,1.17-2,2.67-1.67c1.5,0.34,4.67-2.33,1.83-4c-2.83-1.66-5.1-0.83-4.55-3.16
	c0.55-2.34,2.779-3.17,0-2.84c-2.78,0.34-5.101,2.36-5.69-0.07c-0.59-2.43-2.09-5.26-3.26-3.76c-1.16,1.5-1.66,2.83-4.16,1.5
	s-3.34-1.17-3.67-3.75s1.67-3.08,0-4.58s-2.17-1.34-3-2c-0.83-0.67-4.83,0-4.83,0s-3.34-1.93-3.5-0.3
	c-0.17,1.63-3.84,2.39-5.67-0.65c-1.83-3.05,1.33-3.39-3-4.05c-4.33-0.67-7.5-1.17-8.83-1.84c-1.34-0.66-0.5-3.83-3.34-2
	c-2.83,1.84-8.33,2.84-10,2.5c-1.66-0.33-5.66,1.34-5.66,1.84s-2.84,0.83-3.17,2c-1.17,0.08-5.33-3.67-6.42-5.67
	c-1.08-2-0.66-1.58-3.25-3.25c-2.58-1.67-3.58-1.83-4.66-4.42c-1.09-2.58-2.5-0.75-4.67-1s-3.08-1.33-3.35-3.16
	c-0.271-1.84,0-3.33,0-3.33c1.399-0.4,0.39-0.68,0.68-2.01c0.34-1.5-0.66-2.66,0-5.19c0.3-1.11,0.49-1.3,0.63-1.16v0.01
	c0.16,0.19,0.21,0.86,0.21,0.86s2,0.65,3,0c1-0.64,2.33-0.85,3.33-0.18c1,0.66,5.17-0.5,7.17-2.5s3,2.83,4.33,1.26
	c1.33-1.58,4-0.6,6.83-0.1c2.1,0.37,3.37-0.44,3.89-0.89l1.99,0.57l0.69-0.03l2.39-0.12l3.76-1.15l2.83-1.06l2.51,0.15l0.94,0.06
	l2.3,1.05l2.5-0.06l2.601-0.01h0.13l2.739,3.36l0.32,0.49l1.96,3.12l1.78,1.96l0.45,0.5l0.649,3.49l-0.05,0.42l-0.29,2.51l2.36,2.7
	l1.029,2.64l1.04,3.57l2.44,1.68l1.12,0.77l3.81,1.94l3.2,1.59l1.61,1.38l1.13,0.97l2.6,2.69l2.36,2.63l2.45,1.65l3.069,0.43
	l3.74-0.58l1.36-0.63l0.97-0.45l0.95,2.2l0.27,2.28l0.03,0.27l1.07,2.44l2.87,2.53l2.3,2.98l2.189,3.1l3.091,2.94l0.18,0.17
	l4.399,2.27l2.931,1.69l3.729,2.85L985.481,371.54z"
	data-engtype-1="Opstina"
    data-id-0="29"
    data-id-1="3"
	data-id-2="1" 
    data-iso="BIH"
    data-name-0="Bosnia and Herzegovina"
    data-name-1="Republika Srpska"
    data-name-2="Bratunac"
    data-nl-name-2=""
    data-type-2="Opstina"
    data-varname-2="Republic-Srpska|Bratunac"
    id="path2"/>	
</g></svg>
