<?xml version="1.0" encoding="UTF-8" standalone="no"?>
<svg
   xmlns:dc="http://purl.org/dc/elements/1.1/"
   xmlns:cc="http://creativecommons.org/ns#"
   xmlns:rdf="http://www.w3.org/1999/02/22-rdf-syntax-ns#"
   xmlns:svg="http://www.w3.org/2000/svg"
   xmlns="http://www.w3.org/2000/svg"
   xmlns:sodipodi="http://sodipodi.sourceforge.net/DTD/sodipodi-0.dtd"
   xmlns:inkscape="http://www.inkscape.org/namespaces/inkscape"
   enable_background="new 0 0 1000 828"
   height="828px"
   style="stroke-linejoin: round; stroke:#000; fill: none;"
   version="1.1"
   viewBox="0 0 1000 828"
   width="1000px"
   id="svg3097"
   inkscape:version="0.48.4 r9939"
   sodipodi:docname="test.svg">
  <sodipodi:namedview
     pagecolor="#ffffff"
     bordercolor="#666666"
     borderopacity="1"
     objecttolerance="10"
     gridtolerance="10"
     guidetolerance="10"
     inkscape:pageopacity="0"
     inkscape:pageshadow="2"
     inkscape:window-width="1366"
     inkscape:window-height="744"
     id="namedview3119"
     showgrid="false"
     inkscape:zoom="0.62016872"
     inkscape:cx="464.08345"
     inkscape:cy="359.37586"
     inkscape:window-x="0"
     inkscape:window-y="24"
     inkscape:window-maximized="1"
     inkscape:current-layer="svg3097" />
  <defs
     id="defs3099">
    <style
       type="text/css"
       id="style3101">path { fill-rule: evenodd; }</style>
  </defs>
  <metadata
     id="metadata3103">
    <views
       id="views3105">
      <view
         h="828.558053898"
         padding="0"
         w="1000"
         id="view3107">
        <proj
           flip="auto"
           id="robinson"
           lon0="18.7764628216" />
        <bbox
           h="43.94"
           w="53.1"
           x="208.78"
           y="-757.84"
           id="bbox3110" />
      </view>
    </views>
    <rdf:RDF>
      <cc:Work
         rdf:about="">
        <dc:format>image/svg+xml</dc:format>
        <dc:type
           rdf:resource="http://purl.org/dc/dcmitype/StillImage" />
        <dc:title></dc:title>
      </cc:Work>
    </rdf:RDF>
  </metadata>
  <g
     id="g4254">
   <path
       inkscape:connector-curvature="0"
       d="M 985.37378,372.04 986.70278,372.87 982.89278,372.87 971.22278,372.87 961.72278,369.67 954.56278,368.33 949.78278,370.25 949.78278,370.24 949.78278,366.17 954.22278,363 956.89278,361.33 958.72278,357.33 954.17278,354.17 954.17278,351.33 948.48278,351.26 945.22278,347.5 941.06278,349 937.39278,345.25 937.39278,340.67 934.39278,338.67 929.56278,338.67 926.06278,338.37 920.39278,337.72 917.39278,333.67 908.56278,331.83 905.22278,329.83 895.22278,332.33 889.56278,334.17 886.39278,336.17 879.97278,330.5 876.72278,327.25 872.06278,322.83 867.39278,321.83 864.04278,318.67 864.04278,315.34 864.72278,313.33 864.72278,308.14 865.35278,306.98 865.35278,306.99 865.56278,307.85 868.56278,307.85 871.89278,307.67 879.06278,305.17 883.39278,306.43 890.22278,306.33 894.11278,305.44 896.10278,306.01 896.79278,305.98 899.18278,305.86 902.94278,304.71 905.77278,303.65 908.28278,303.8 909.22278,303.86 911.52278,304.91 914.02278,304.85 916.62378,304.84 916.75378,304.84 919.49278,308.2 919.81278,308.69 921.77278,311.81 923.55278,313.77 924.00278,314.27 924.65178,317.76 924.60178,318.18 924.31178,320.69 926.67178,323.39 927.70078,326.03 928.74078,329.6 931.18078,331.28 932.30078,332.05 936.11078,333.99 939.31078,335.58 940.92078,336.96 942.05078,337.93 944.65078,340.62 947.01078,343.25 949.46078,344.9 952.52978,345.33 956.26978,344.75 957.62978,344.12 958.59978,343.67 959.54978,345.87 959.81978,348.15 959.84978,348.42 960.91978,350.86 963.78978,353.39 966.08978,356.37 968.27878,359.47 971.36978,362.41 971.54978,362.58 975.94878,364.85 978.87978,366.54 982.60878,369.39 Z"
       data-engtype-2="Canton"
       data-id-0="29"
       data-id-1="3"
       data-id-2="1"
       data-iso="BIH"
       data-name-0="Bosnia and Herzegovina"
       data-name-1="Republika Srpska"
       data-name-2="Bratunac"
       data-nl-name-2=""
       data-type-2="upanija|kanton"
       data-varname-2="Bratunac"
       id="path2"
       style="fill:none;fill-rule:evenodd;stroke:#000000" />
   <path
       inkscape:connector-curvature="0"
       d="M 999.01278,378.91 998.49178,376.94 998.83278,373.09 998.04278,372.8 995.72278,371.94 994.59278,369.92 992.84278,368.18 992.12278,367.47 989.34278,367.74 988.80278,368.54 988.45178,369.05 988.56178,371.28 989.04178,372.81 987.46178,373.34 987.43178,373.32 986.70178,372.87 982.89178,372.87 971.22178,372.87 961.72178,369.67 954.56178,368.33 949.78178,370.25 949.78178,370.24 949.78178,366.17 954.22178,363 956.89178,361.33 958.72178,357.33 954.17178,354.17 954.17178,351.33 948.48178,351.26 945.22178,347.5 941.06178,349 937.39178,345.25 937.39178,340.67 934.39178,338.67 929.56178,338.67 926.06178,338.37 920.39178,337.72 917.39178,333.67 908.56178,331.83 905.22178,329.83 895.22178,332.33 889.56178,334.17 886.39178,336.17 886.39178,340.5 887.72178,343.67 887.72178,347 884.72178,349 878.06178,351 879.39178,358.17 890.39178,359.5 890.39178,363.33 889.72178,368.23 889.39178,371.33 886.39178,374.83 885.89178,378.83 884.06178,383 884.45178,385.81 884.33278,386.52 884.77178,386.62 885.89178,390.62 889.14178,394.75 891.14178,397.38 894.27178,401 897.89178,402.38 900.26178,406.3 903.89178,403.33 911.06178,401.17 911.10178,401.16 910.63178,399.91 909.29178,396.56 909.07078,396.02 906.10078,392.62 903.83078,388.95 904.38078,388.15 906.02078,385.77 907.84078,386.09 908.39078,386.19 911.63078,386.78 916.65978,388.75 922.83078,389.81 926.85078,392.43 931.60078,394.05 935.07078,396.48 942.26078,398.34 949.01078,398.89 957.06078,399.64 962.84078,400.56 969.26078,400.69 975.21078,400.66 976.85978,399.22 979.48978,395.49 983.37078,393.6 985.77978,391.11 987.42078,388.31 991.37078,386.5 995.01078,385.06 999.15978,382.58 999.18978,381.96 999.29078,379.97 Z"
       data-engtype-2="Canton"
       data-id-0="29"
       data-id-1="3"
       data-id-2="2"
       data-iso="BIH"
       data-name-0="Bosnia and Herzegovina"
       data-name-1="Republika Srpska"
       data-name-2="Srebrenica"
       data-nl-name-2=""
       data-type-2="upanija|kanton"
       data-varname-2="Srebrenica"
       id="path3"
       style="fill:none;fill-rule:evenodd;stroke:#000000" />
   <path
       inkscape:connector-curvature="0"
       d="M 916.55278,123.29 916.79278,125.28 913.54278,127.69 911.33278,129.31 910.54278,131.01 912.21278,132.43 912.22278,133.87 910.77278,135.5 908.27278,136.42 908.13278,138.25 908.81278,142.05 908.59278,144.8 907.64278,147.4 907.50278,150.66 907.54278,152.82 907.31278,155.64 907.26278,158.35 906.14278,160.99 906.08278,163.77 905.35278,167.05 904.79278,168.31 903.88278,170.33 902.59278,173 901.05278,174.69 900.47278,175.25 898.75278,176.94 895.49178,179.41 893.40178,183.35 891.88178,186.91 890.68178,190.02 890.57178,192.65 889.54278,195.23 887.68278,197.85 886.82278,201.97 886.03278,205.1 884.40278,208.34 883.30278,209.9 881.28178,210.56 877.21278,210.51 876.66178,211.63 876.39278,211.5 871.64278,206.75 865.89278,202.5 860.54278,200.5 855.34278,198.75 844.43278,199.5 844.32278,199.52 844.39278,193.5 848.89278,187.51 854.14278,183.5 850.14278,179.5 840.39278,180.68 837.64278,173.85 833.89278,167.14 824.64278,171 820.64278,166.87 820.64278,161.5 816.39278,158.5 811.14278,153 804.18278,156.48 802.60278,154.69 802.65278,154.72 803.53278,149.5 804.35278,147.41 804.52278,146.64 804.81278,143.86 805.68278,140.03 805.92278,137.28 806.17278,136.54 806.59278,135.92 807.17278,135.42 807.83278,135.07 808.83278,134.77 809.82178,134.58 810.56178,134.56 811.30178,134.64 813.68178,135.11 817.22178,135.59 817.80178,135.5 818.08178,135.35 818.35178,135.08 818.50178,134.76 818.58178,134.43 818.54178,133.74 818.31178,133.07 817.91178,132.54 816.51278,131.26 815.60278,130.6 814.77278,129.85 812.94278,128.44 810.94278,127.32 811.23278,126.91 813.35278,126.94 819.17278,127.04 824.16178,126.11 827.50278,125.09 829.79278,124.39 836.15178,122.31 839.20178,120.06 842.09278,117.78 842.87278,117.42 845.16178,116.39 847.78178,114.71 849.41178,112.63 850.01278,111.86 853.91178,111.08 856.75278,109.58 859.57178,107.21 862.04278,105.49 864.57178,105.49 864.83278,105.49 865.21278,105.49 868.15178,106.89 869.50278,109.24 870.34278,111.21 873.58278,112.3 873.78178,112.19 875.88278,111.05 878.32178,109.47 881.14178,108.61 885.12178,109.28 888.54178,110.27 891.40078,110.65 895.31078,111.24 896.33178,111.62 900.39178,113.29 904.97178,115.31 907.35178,115.61 907.67178,115.65 908.06178,117.24 909.75178,116.15 912.18178,116.15 913.43178,117.63 912.03178,119.42 913.11178,121.93 Z"
       data-engtype-2="Canton"
       data-id-0="29"
       data-id-1="3"
       data-id-2="4"
       data-iso="BIH"
       data-name-0="Bosnia and Herzegovina"
       data-name-1="Republika Srpska"
       data-name-2="Bijeljina"
       data-nl-name-2=""
       data-type-2="upanija|kanton"
       data-varname-2="Bijeljina"
       id="path4"
       style="fill:none;fill-rule:evenodd;stroke:#000000" />
   <path
       inkscape:connector-curvature="0"
       d="M 901.06278,437.33 897.89278,440 898.56278,446.17 897.72278,450.67 893.89278,451.33 889.39278,455.72 883.86278,455.72 880.56278,458.5 885.56278,462.33 887.56278,468.5 890.72278,470.83 890.72278,475.33 892.82278,478.29 889.39278,478.67 881.72278,476.33 877.39278,473 873.22278,471.42 865.89278,469.67 860.54278,470.17 854.22278,468.65 846.22278,468.17 839.39278,468.83 839.19278,469.13 838.44278,468.64 836.49278,466.88 835.10278,464.87 834.75278,464.19 834.11178,462.53 833.13278,461.05 832.91178,460.38 832.60178,458.96 832.35178,458.29 831.97178,457.76 830.72178,456.66 830.07178,456.3 829.22178,456.08 827.81178,455.95 825.83278,455.91 824.34278,455.96 823.37278,456.06 821.67278,456.441 821.51278,455.72 820.01278,452.38 816.64278,452.38 814.77278,449.5 810.01278,448.67 808.27278,445.5 807.51278,441.62 808.28278,439.23 812.77278,440.879 814.51278,437.619 818.14278,434.249 822.77278,431.999 826.89278,431.989 830.27278,427.119 837.64278,426.379 842.01278,427.499 845.77278,424.919 845.77278,421.249 848.14278,417.879 847.14278,413.119 848.28278,411.749 851.14278,405.749 849.39278,401.749 851.33278,399.119 851.14278,397.249 851.60278,396.649 851.60278,396.639 852.77278,394.119 850.51278,390.119 857.64278,391.499 861.64278,394.749 869.14278,394.119 874.51278,394.119 875.89278,389.249 880.77278,385.999 884.33378,386.519 884.77278,386.619 885.89278,390.619 889.14278,394.749 891.14278,397.379 894.27278,400.999 897.89278,402.379 900.26278,406.299 900.25278,406.309 898.72278,406.669 889.39278,409.169 890.22278,412.469 899.06278,422.999 898.56278,425.999 900.22278,428.499 900.22278,432.329 Z"
       data-engtype-2="Canton"
       data-id-0="29"
       data-id-1="3"
       data-id-2="5"
       data-iso="BIH"
       data-name-0="Bosnia and Herzegovina"
       data-name-1="Republika Srpska"
       data-name-2="Rogatica"
       data-nl-name-2=""
       data-type-2="upanija|kanton"
       data-varname-2="Rogatica"
       id="path5"
       style="fill:none;fill-rule:evenodd;stroke:#000000" />
   <path
       inkscape:connector-curvature="0"
       d="M 893.41278,305.24 894.11278,305.44 890.22278,306.33 883.39278,306.43 879.06278,305.17 871.89278,307.67 868.56278,307.85 865.56278,307.85 865.35278,306.99 865.35278,306.98 859.01278,300.75 853.64278,295.62 849.77278,298.53 845.14278,298.53 840.89278,298.12 839.36278,298.48 837.64278,295.25 832.50278,294.62 830.51278,289.38 835.89278,283.88 839.97278,280.28 840.54278,280 839.14278,277 838.51278,272.75 840.39278,266.12 835.01278,264.5 829.89278,260.25 825.27278,256.12 823.14278,252.62 822.86278,252.44 823.66278,251.22 824.20278,250.64 824.52278,250.18 825.06278,248.74 825.96278,247.4 826.55278,245.43 827.39278,243.81 827.93278,242.62 828.86278,241.01 829.60278,239.53 830.82278,237.58 831.50378,236.77 831.80378,236.26 831.99278,235.6 832.21378,234.2 832.37378,233.54 833.21378,232.11 833.40278,231 833.39278,228.9 833.02278,223.21 833.04378,221.97 833.14378,221.21 833.37378,220.55 834.10278,219.45 834.60278,217.84 834.88278,217.19 836.05278,215.24 836.73278,214.43 837.04378,213.93 837.24278,213.3 837.77278,211.01 838.71278,208.34 838.63278,206.76 838.89278,206.75 844.39278,201.75 844.32278,199.52 844.43278,199.5 855.34278,198.75 860.54278,200.5 865.89278,202.5 871.64278,206.75 876.39278,211.5 876.66278,211.63 875.57278,213.83 876.04378,214.75 877.00378,216.62 876.62378,218.88 876.56278,219.25 874.61278,221.93 873.72278,224.25 872.91178,226.08 870.63278,227.26 867.49178,227.19 865.37278,227.2 863.74178,227.21 861.81178,229.31 862.39178,234.23 863.17178,238.46 863.82078,240.61 864.72078,243.57 864.90978,244.03 865.05978,244.37 865.99978,246.61 866.59978,248.02 866.72978,248.34 868.14978,252.2 868.80978,258.13 867.72978,262.55 864.83078,264.53 861.37078,266.32 860.44978,269.85 861.23978,273.01 862.96078,275.58 862.73078,277.96 862.81078,280.41 864.95078,282.48 866.18078,285.02 866.52078,287.88 868.52078,291.29 871.59078,294.2 871.83078,294.52 874.14078,297.72 876.31078,300.09 880.30078,300.48 883.89078,300.29 886.85078,299.97 888.95078,300.81 889.80178,301.14 890.94178,303.16 Z"
       data-engtype-2="Canton"
       data-id-0="29"
       data-id-1="3"
       data-id-2="6"
       data-iso="BIH"
       data-name-0="Bosnia and Herzegovina"
       data-name-1="Republika Srpska"
       data-name-2="Zvornik"
       data-nl-name-2=""
       data-type-2="upanija|kanton"
       data-varname-2="Zvornik"
       id="path7"
       style="fill:none;fill-rule:evenodd;stroke:#000000" />
   <path
       inkscape:connector-curvature="0"
       d="M 884.73278,597.85 884.90278,608.56 878.74278,608.281 874.72278,607.89 874.61278,611 874.05278,613.83 874.04278,613.87 870.87278,616.63 867.28178,613.76 864.66178,610.88 864.33278,610.28 862.39278,606.849 858.95278,604.44 855.19278,602.96 854.55278,600.6 854.53178,600.55 854.54278,600.53 855.48178,597.32 855.75278,595.17 854.54278,593.14 851.31278,590.92 847.27278,587.18 842.35278,582.33 839.47278,582.95 836.65278,583.66 833.24278,584.03 829.02278,584.32 825.25278,585.4 821.12278,587.12 825.23178,593.44 821.73178,595.36 816.89178,597.44 812.49178,599.389 806.59278,601.539 802.59278,603.509 798.83278,606.519 795.54278,609.2 795.07178,609.41 794.89278,609 783.89278,606.5 775.64278,595.75 764.64278,593.75 756.89278,588.34 751.14278,586.75 744.89278,580.93 746.39278,575.25 749.87278,569 746.39278,562.75 746.39278,555.25 746.39278,550 744.89278,542.5 749.39278,535 746.39278,531 750.14278,529.25 747.64278,523.25 754.14278,517.5 751.14278,510 757.13278,505.23 757.78178,505.61 759.39178,506.46 760.27178,506.58 760.77178,506.72 763.69178,507.87 765.62278,508.75 767.95178,509.43 768.27178,509.571 769.26178,510.171 769.60178,510.301 770.77178,510.541 773.34178,510.781 774.15178,510.921 774.86178,511.151 775.85178,511.741 776.16178,511.871 776.86178,512.051 778.76178,512.381 779.45078,512.571 779.76178,512.701 780.74078,513.291 781.45078,513.541 782.26178,513.681 783.58178,513.791 792.86078,514.011 794.25178,514.081 795.60178,514.231 796.47178,514.441 798.42178,515.251 800.73178,515.941 801.05178,516.09 802.02178,516.71 802.64178,516.95 803.89178,517.17 805.24178,517.25 806.16178,517.23 807.06178,517.15 807.93178,516.94 808.32178,516.78 809.04278,516.38 810.98178,515.03 812.38178,514.23 813.23178,513.519 815.65178,512.249 816.84178,511.689 817.96178,510.918 818.58178,510.668 819.92178,510.268 820.45078,509.979 821.19078,509.418 821.87178,509.088 823.07078,508.708 824.81078,508.278 826.68078,507.948 826.72078,508.168 829.89078,511.498 834.06078,516.668 839.72078,513.998 841.07078,513.998 841.52078,516.998 841.54178,517.018 841.60178,517.079 841.67178,517.149 841.56178,521.669 846.89178,525.669 849.56178,531.829 849.56178,531.889 848.99178,531.869 844.77178,533.649 844.69178,533.709 841.63178,536.279 840.26178,539.558 841.31178,542.119 843.70178,539.549 845.61178,537.94 847.19178,537.71 849.05178,537.44 849.08178,538.19 849.19078,541.519 851.08178,542.969 850.32078,546.589 850.88178,548.039 851.64178,549.989 854.40178,553.549 854.68178,553.69 859.23178,556.03 865.88178,559.38 866.97178,564.59 868.96178,567.91 873.84178,572.97 876.14178,579.281 876.12178,584.76 879.11078,590.85 883.46178,596.27 Z"
       data-engtype-2="Canton"
       data-id-0="29"
       data-id-1="3"
       data-id-2="7"
       data-iso="BIH"
       data-name-0="Bosnia and Herzegovina"
       data-name-1="Republika Srpska"
       data-name-2="Foca"
       data-nl-name-2=""
       data-type-2="upanija|kanton"
       data-varname-2="Foca"
       id="path6"
       style="fill:none;fill-rule:evenodd;stroke:#000000" />
   <path
       inkscape:connector-curvature="0"
       d="M 850.14278,179.5 854.14278,183.5 848.89278,187.51 844.39278,193.5 844.32278,199.52 844.39278,201.75 838.89278,206.75 838.63278,206.76 838.58278,205.84 838.27178,204.39 837.78178,203.58 836.64178,202.41 834.64178,200.81 834.09178,200.48 831.68178,199.22 828.32178,197.8 826.90178,197.49 824.96278,197.35 823.51278,197.39 822.13278,197.61 819.28178,198.77 818.57178,199.14 817.55178,199.86 816.56178,200.7 816.39178,200.5 810.89178,192.25 810.89178,185 802.58178,185 801.14178,178 800.64178,173.85 800.64178,169.5 803.39178,163.25 804.64178,157.5 804.18178,156.48 811.14178,153 816.39178,158.5 820.64178,161.5 820.64178,166.87 824.64178,171 833.89178,167.14 837.64178,173.85 840.39178,180.68 Z"
       data-engtype-2="Canton"
       data-id-0="29"
       data-id-1="3"
       data-id-2="8"
       data-iso="BIH"
       data-name-0="Bosnia and Herzegovina"
       data-name-1="Republika Srpska"
       data-name-2="Ugljevik"
       data-nl-name-2=""
       data-type-2="upanija|kanton"
       data-varname-2="Ugljevik"
       id="path10"
       style="fill:none;fill-rule:evenodd;stroke:#000000" />
   <path
       inkscape:connector-curvature="0"
       d="M 851.60278,396.64 851.60278,396.65 851.14278,397.25 851.33278,399.12 849.39278,401.75 851.14278,405.75 848.28278,411.75 847.14278,413.12 848.14278,417.88 845.77278,421.25 845.77278,424.92 842.01278,427.5 837.64278,426.38 830.27278,427.12 826.89278,431.99 822.77278,432 818.14278,434.25 814.51278,437.62 812.77278,440.88 808.28278,439.231 809.01278,437.251 805.51278,435.381 800.14278,436.121 792.39278,433.751 786.89278,428.501 783.14278,425.351 774.51278,424.251 773.27278,421.501 762.39278,421.501 763.01278,417.501 763.14278,413.001 764.14278,409.381 762.77278,403.751 760.01278,399.121 758.39278,394.621 756.01278,397.611 752.64278,398.751 750.77278,402.381 748.51278,406.001 742.89278,406.881 739.77278,406.461 738.01278,405.001 733.14278,407.381 728.64278,406.621 727.51278,402.881 726.14278,399.001 722.52278,398.111 722.37378,397.961 722.61278,396.801 722.95278,396.011 724.39278,394.531 725.23278,393.921 725.92278,393.171 726.67278,392.471 726.83278,392.221 727.25278,391.061 727.53178,390.521 728.28178,389.821 728.96278,389.061 729.79278,388.441 730.49178,387.701 731.31178,387.021 732.20178,385.801 733.25278,384.671 737.27278,381.101 738.43278,379.991 738.93278,379.421 739.78278,378.171 740.50378,377.401 740.76378,376.861 741.06378,375.981 741.34378,375.451 742.07278,374.751 742.74278,373.991 743.55378,373.301 744.37378,372.151 744.98278,371.441 747.35278,369.061 747.86278,369.061 748.40278,368.891 749.59278,368.051 749.99178,367.671 750.69178,366.671 752.67178,364.321 753.64178,362.511 754.88178,360.571 755.25178,360.161 755.85178,359.651 756.54178,358.891 757.35178,358.211 758.25178,357.061 758.77178,356.571 759.36178,356.151 760.39178,355.551 761.25178,354.841 762.67178,354.061 764.98178,352.541 766.09178,352.071 767.60178,351.711 768.26178,351.471 769.43178,350.721 772.54178,349.191 773.64178,353.251 776.14178,359.001 780.39178,362.251 782.64178,366.501 793.64178,372.001 800.64178,374.251 806.14178,379.001 808.28178,387.501 814.89178,387.501 817.89178,389.751 823.14178,388.001 828.39178,392.001 837.64178,392.001 843.14178,396.251 847.64178,396.461 Z"
       data-engtype-2="Canton"
       data-id-0="29"
       data-id-1="3"
       data-id-2="9"
       data-iso="BIH"
       data-name-0="Bosnia and Herzegovina"
       data-name-1="Republika Srpska"
       data-name-2="Sokolac"
       data-nl-name-2=""
       data-type-2="upanija|kanton"
       data-varname-2="Sokolac"
       id="path8"
       style="fill:none;fill-rule:evenodd;stroke:#000000" />
   <path
       inkscape:connector-curvature="0"
       d="M 821.51278,455.72 821.67278,456.441 820.56278,456.691 817.38278,457.001 815.48278,457.081 804.07278,456.77 801.65278,456.81 800.28278,457.031 798.36278,457.671 797.52278,457.821 796.19278,457.901 793.93278,457.921 792.62278,458.041 792.20178,458.141 791.44178,458.421 789.88178,459.232 789.42178,459.622 789.11078,460.182 788.96178,460.812 788.75178,462.392 788.56178,462.943 787.99178,463.772 787.87278,464.043 787.72278,464.663 787.43278,467.093 787.01278,468.093 786.16178,469.513 785.82178,469.963 784.99178,470.653 784.28178,471.382 783.44178,471.992 782.73178,472.732 781.91178,473.412 780.45178,475.512 779.82178,476.552 778.97178,477.573 778.74178,478.133 778.46278,480.073 778.17278,480.932 777.42278,482.002 776.99178,483.172 776.68178,483.722 775.66078,484.662 774.92178,485.542 773.12178,485.372 771.92178,485.172 771.23178,484.943 770.22178,484.373 769.12178,484.062 766.18178,483.722 765.39178,483.582 764.69178,483.342 763.69178,482.772 763.34178,482.632 762.54178,482.443 760.74078,482.243 756.91078,482.003 756.36078,481.743 755.47078,481.163 754.78078,480.923 754.26078,480.833 754.39078,480.123 742.61078,469.003 732.14078,464.123 720.77078,459.443 719.31078,458.943 719.31078,458.932 718.01078,451.622 717.84078,450.842 717.85078,450.842 720.89078,447.162 723.56078,447.162 727.06078,443.332 727.06078,438.832 731.89078,433.002 733.13078,428.172 734.89078,422.832 733.22078,417.672 737.56078,410.332 739.77078,406.462 742.89078,406.882 748.51078,406.002 750.77078,402.382 752.64078,398.752 756.01078,397.612 758.39078,394.622 760.01078,399.122 762.77078,403.752 764.14078,409.382 763.14078,413.002 763.01078,417.502 762.39078,421.502 773.27078,421.502 774.51078,424.252 783.14078,425.352 786.89078,428.502 792.39078,433.752 800.14078,436.122 805.51078,435.382 809.01078,437.252 808.28078,439.232 807.51078,441.622 808.27078,445.502 810.01078,448.672 814.77078,449.502 816.64078,452.382 820.01078,452.382 Z"
       data-engtype-2="Canton"
       data-id-0="29"
       data-id-1="3"
       data-id-2="10"
       data-iso="BIH"
       data-name-0="Bosnia and Herzegovina"
       data-name-1="Republika Srpska"
       data-name-2="Pale"
       data-nl-name-2=""
       data-type-2="upanija|kanton"
       data-varname-2="Pale"
       id="path9"
       style="fill:none;fill-rule:evenodd;stroke:#000000" />
   <path
       inkscape:connector-curvature="0"
       d="M 793.00378,616.73 795.81378,622.559 791.17378,625.469 787.94378,627.799 785.42378,631.769 783.43378,635.999 783.51378,640.999 782.68378,646.659 783.16278,652.729 784.75378,659.749 785.91278,664.879 791.57278,683.169 784.08378,683.709 774.87378,683.339 761.72378,682.799 759.91278,682.719 759.89278,682.719 759.60278,682.709 759.56278,682.739 753.01278,678.119 746.64278,671.259 742.01278,667.619 737.77278,663.879 730.77278,661.999 725.14278,666.499 720.51278,660.999 722.39278,656.379 719.14278,648.249 719.68278,647.599 715.89278,634.249 702.14278,627.749 699.72278,622.579 700.06278,617.579 700.64278,614.079 701.31278,609.419 697.89278,592.249 703.64278,594.249 712.39278,594.249 715.89278,590.999 719.67278,585.999 725.64278,580.999 737.14278,586.499 751.14278,586.749 756.89278,588.339 764.64278,593.749 775.64278,595.749 783.89278,606.5 794.89278,609 795.07278,609.41 791.84378,610.87 789.57278,613.26 789.66278,613.691 790.11278,615.93 Z"
       data-engtype-2="Canton"
       data-id-0="29"
       data-id-1="3"
       data-id-2="11"
       data-iso="BIH"
       data-name-0="Bosnia and Herzegovina"
       data-name-1="Republika Srpska"
       data-name-2="Gacko"
       data-nl-name-2=""
       data-type-2="upanija|kanton"
       data-varname-2="Gacko"
       id="path14"
       style="fill:none;fill-rule:evenodd;stroke:#000000" />
   <path
       inkscape:connector-curvature="0"
       d="M 748.63278,756.49 748.99178,756.42 751.13278,766.87 753.93278,768.16 754.68278,768.5 757.46278,770.84 757.90178,771.37 759.63178,773.48 762.75178,775.24 767.68178,776.3 770.95178,776.611 772.37278,776.871 775.51278,777.461 774.03278,779.851 772.78278,781.881 772.32278,783.781 771.82278,785.821 771.59378,789.751 772.53278,793.001 780.48278,800.441 778.26278,802.13 776.19278,802.46 774.94278,802.67 770.16278,803.7 768.23278,805.5 767.78278,805.92 766.89278,811.01 775.63278,815.47 775.85278,815.26 775.67278,815.47 775.79278,818.151 774.79278,818.651 774.09278,819.001 773.75278,819.181 771.42278,819.851 767.49178,819.442 763.82178,818.502 761.50278,817.892 757.70178,823.413 755.40178,826.763 751.62278,826.923 748.51278,827.063 740.84278,821.753 738.29278,819.573 736.92278,818.403 735.51278,817.173 733.36278,814.553 732.77278,813.824 731.32278,812.044 730.78278,811.374 730.15278,811.204 725.66278,809.984 725.63378,809.973 724.68378,809.744 720.41278,809.424 719.83378,809.384 719.65278,809.054 719.44278,808.804 718.62378,808.214 716.86278,807.314 716.01278,807.035 714.64278,806.845 713.23278,806.775 708.00378,806.696 706.60378,806.576 705.69378,806.395 705.25478,806.255 704.45378,805.875 701.97478,804.205 700.50478,803.314 699.65378,802.544 698.73378,801.874 697.95378,801.114 697.06378,800.444 696.29378,799.654 695.39378,798.914 694.10378,797.334 690.96378,794.354 690.40278,793.754 689.38278,792.474 688.49178,791.735 687.71278,790.945 685.90178,789.604 685.26178,789.314 684.21178,788.995 683.57078,788.705 682.69078,788.005 681.76078,787.365 680.97078,786.594 680.04078,785.924 679.18978,785.154 677.76978,784.284 677.15978,783.794 676.62078,783.244 675.84978,782.284 675.18978,781.694 674.79078,781.244 672.39078,777.964 671.50078,777.224 670.72078,776.424 669.81078,775.754 669.02078,774.984 668.11078,774.313 667.32078,773.543 666.41078,772.873 665.63178,772.093 664.72178,771.413 663.93178,770.642 663.02178,769.962 662.23178,769.182 661.32178,768.512 660.53178,767.733 659.62278,767.062 658.83278,766.283 657.93278,765.613 657.14278,764.833 656.23278,764.153 655.44278,763.373 654.53278,762.703 653.74278,761.923 652.84378,761.253 652.06378,760.473 651.16378,759.803 650.38478,759.013 649.46478,758.343 648.60478,757.573 646.33478,756.392 645.15378,755.932 643.19378,755.422 642.86378,755.272 641.88478,754.653 641.57378,754.512 640.17478,754.082 639.52478,753.792 638.65478,753.082 637.73478,752.442 636.95478,751.641 636.06478,750.902 633.48478,747.381 632.59478,746.641 631.81478,745.862 630.90478,745.202 630.12578,744.412 629.22578,743.682 626.82578,740.403 626.40578,739.972 625.73578,739.443 624.98578,738.623 624.15578,737.883 623.97578,737.623 623.43578,736.433 623.10578,735.883 622.28578,735.143 621.52578,734.343 620.61578,733.623 619.57578,732.363 617.84678,730.583 617.34678,729.933 617.14678,729.583 616.89678,728.833 616.85678,727.693 617.01678,726.963 617.83678,725.343 618.03578,724.654 618.12678,723.584 618.00678,722.534 617.77678,721.904 617.39678,721.404 616.75678,720.874 615.97678,720.114 615.05678,719.484 614.28578,718.723 613.64578,718.194 613.25578,717.694 613.11478,717.383 612.93478,716.703 612.83478,715.973 612.78378,714.074 612.94378,712.523 613.30378,711.234 612.90378,710.393 619.14378,710.393 626.14378,714.753 631.39378,718.003 638.64378,725.003 646.89378,732.253 657.14378,739.503 669.14378,739.503 672.64378,734.753 671.14378,728.753 674.14378,726.753 679.89378,728.003 684.39378,725.233 686.64378,721.503 688.95378,718.513 697.39378,722.003 705.14378,728.003 710.14378,739.003 720.89378,747.753 726.89378,754.453 739.89378,752.753 Z"
       data-engtype-2="Canton"
       data-id-0="29"
       data-id-1="3"
       data-id-2="12"
       data-iso="BIH"
       data-name-0="Bosnia and Herzegovina"
       data-name-1="Republika Srpska"
       data-name-2="Trebinje"
       data-nl-name-2=""
       data-type-2="upanija|kanton"
       data-varname-2="Trebinje"
       id="path11"
       style="fill:none;fill-rule:evenodd;stroke:#000000" />
   <path
       inkscape:connector-curvature="0"
       d="M 754.39278,480.12 754.26278,480.83 753.99178,480.78 751.36178,480.559 750.47178,480.429 749.60178,480.2 748.80178,479.83 746.30178,478.19 744.83178,477.309 742.97178,475.669 742.56178,475.139 742.04178,474.24 737.52078,472.139 736.13078,471.839 734.69078,471.709 721.44078,471.339 719.01078,471.319 717.15078,471.489 716.32078,471.709 714.80078,472.259 713.48078,472.48 712.09078,472.549 710.69078,472.519 709.31078,472.429 708.04078,472.23 707.30078,471.98 706.30078,471.41 705.61078,471.18 704.81078,471.04 702.27078,470.79 701.09078,470.54 700.47078,470.24 699.76078,469.74 698.32078,468.9 697.43078,468.139 696.43078,466.9 695.80078,466.309 695.42078,465.839 694.64978,464.299 695.00978,464.119 698.26978,464.119 698.26978,459.119 699.48978,454.879 706.26978,454.879 709.14978,455.719 712.50978,456.749 719.30978,458.929 719.30978,458.94 720.76978,459.44 732.13978,464.12 742.60978,469 Z"
       data-engtype-2="Canton"
       data-id-0="29"
       data-id-1="3"
       data-id-2="13"
       data-iso="BIH"
       data-name-0="Bosnia and Herzegovina"
       data-name-1="Republika Srpska"
       data-name-2="Bileca"
       data-nl-name-2=""
       data-type-2="upanija|kanton"
       data-varname-2="Bileca"
       id="path12"
       style="fill:none;fill-rule:evenodd;stroke:#000000" />
   <path
       inkscape:connector-curvature="0"
       d="M 715.89278,634.25 719.68278,647.6 719.67278,647.59 703.56278,653.441 703.56278,662.17 699.39278,665.33 693.06278,666 687.39278,665.17 680.47278,662.17 680.33278,662.25 674.77178,661 669.39178,661 665.77178,657.25 659.27178,657.25 653.89178,654.38 648.39178,649.62 642.39178,643.75 636.01178,641.38 628.77178,638.25 622.51178,635.5 617.64178,637.12 612.90178,634.75 605.27178,634.75 600.39178,632.12 594.76178,630.64 597.97178,630.02 600.63178,629.241 603.23178,627.981 604.61178,626.991 606.52178,626.111 607.67178,625.731 609.72178,625.331 610.47178,625.031 611.38178,624.361 612.29178,623.211 613.02078,622.451 613.31078,621.901 613.72078,620.741 614.47078,619.671 614.61078,619.371 614.77078,618.681 614.82078,617.911 614.71178,614.191 614.79178,612.55 614.97178,611.78 615.71178,610.12 615.89178,609.38 615.98178,608.59 615.95178,605.35 615.68178,602.09 615.52178,601.31 615.26178,600.55 614.37178,598.83 614.13178,598.07 613.92178,596.87 613.67178,594.07 613.44178,592.969 613.16178,592.339 612.50278,591.48 612.34278,591.179 612.10278,590.499 611.68278,588.599 611.42278,587.829 622.72278,577.669 624.13278,569.169 623.39278,558.829 621.22278,550.669 618.89278,541.299 621.14278,541.739 621.84278,541.928 623.47278,542.779 624.17278,542.968 626.07178,543.298 626.77178,543.479 627.09178,543.609 628.09178,544.189 628.80178,544.428 629.60178,544.569 632.16178,544.829 632.96278,544.969 633.66178,545.199 634.66178,545.768 635.75278,546.079 637.00278,546.209 640.06278,546.369 640.89278,546.479 641.60278,546.668 642.17278,546.948 642.87278,547.468 643.95178,548.118 644.56178,548.597 645.34178,549.457 646.32078,550.847 646.93078,551.398 647.67078,551.828 648.54078,552.118 649.92078,552.318 651.79078,552.408 653.17078,552.387 654.44078,552.238 655.16078,551.988 657.06078,550.637 657.53078,550.137 657.93078,549.587 659.50078,548.907 660.43978,548.607 661.87078,548.397 663.35978,548.357 667.13978,548.466 668.63978,559.916 664.46978,565.666 657.71978,570.826 659.21978,577.416 665.05978,579.496 672.13978,576.076 680.88978,573.746 687.05978,578.246 692.13978,585.826 697.88978,592.246 701.30978,609.416 700.63978,614.076 700.05978,617.576 699.71978,622.576 702.13978,627.746 Z"
       data-engtype-2="Canton"
       data-id-0="29"
       data-id-1="3"
       data-id-2="14"
       data-iso="BIH"
       data-name-0="Bosnia and Herzegovina"
       data-name-1="Republika Srpska"
       data-name-2="Istocno_Novo_Sarajevo"
       data-nl-name-2=""
       data-type-2="upanija|kanton"
       data-varname-2="Istocno_Novo_Sarajevo"
       id="path13"
       style="fill:none;fill-rule:evenodd;stroke:#000000" />
   <path
       inkscape:connector-curvature="0"
       d="M 705.39278,451.38 709.15278,455.72 706.27278,454.88 699.49278,454.88 698.27278,459.12 698.27278,464.12 695.01278,464.12 694.65278,464.3 694.59278,464.18 694.24178,462.901 689.37278,462.77 688.07178,461.031 687.01178,460.001 685.35178,457.641 684.46178,456.121 683.00178,454.111 682.03078,453.071 681.72078,452.481 681.55078,451.81 681.47078,451.1 681.48078,450.39 681.71078,449.33 682.05078,448.68 683.10078,447.05 684.05078,446.08 684.35078,445.61 684.91078,444.259 685.14078,442.999 689.17078,442.409 689.21078,441.619 689.27078,441.619 693.89078,443.999 698.51078,447.619 Z"
       data-engtype-2="Canton"
       data-id-0="29"
       data-id-1="3"
       data-id-2="15"
       data-iso="BIH"
       data-name-0="Bosnia and Herzegovina"
       data-name-1="Republika Srpska"
       data-name-2="Nevesinje"
       data-nl-name-2=""
       data-type-2="upanija|kanton"
       data-varname-2="Nevesinje"
       id="path19"
       style="fill:none;fill-rule:evenodd;stroke:#000000" />
   <path
       inkscape:connector-curvature="0"
       d="M 705.39278,451.38 709.15278,455.72 706.27278,454.88 699.49278,454.88 698.27278,459.12 698.27278,464.12 695.01278,464.12 694.65278,464.3 694.59278,464.18 694.24178,462.901 689.37278,462.77 688.07178,461.031 687.01178,460.001 685.35178,457.641 684.46178,456.121 683.00178,454.111 682.03078,453.071 681.72078,452.481 681.55078,451.81 681.47078,451.1 681.48078,450.39 681.71078,449.33 682.05078,448.68 683.10078,447.05 684.05078,446.08 684.35078,445.61 684.91078,444.259 685.14078,442.999 689.17078,442.409 689.21078,441.619 689.27078,441.619 693.89078,443.999 698.51078,447.619 Z"
       data-engtype-2="Canton"
       data-id-0="29"
       data-id-1="3"
       data-id-2="16"
       data-iso="BIH"
       data-name-0="Bosnia and Herzegovina"
       data-name-1="Republika Srpska"
       data-name-2="Istocno_Sarajevo"
       data-nl-name-2=""
       data-type-2="upanija|kanton"
       data-varname-2="Istocno_Sarajevo"
       id="path15"
       style="fill:none;fill-rule:evenodd;stroke:#000000" />
   <path
       inkscape:connector-curvature="0"
       d="M 677.07278,104.54 676.99278,104.86 673.89278,103.67 666.22278,102 658.71278,104.54 658.22278,109.17 658.87278,110.92 659.87278,111.45 659.19178,112.21 653.82178,111.62 645.39178,114.25 639.14178,116.75 638.14178,123.88 631.01178,128 629.70078,131.04 626.51178,129.38 619.77178,128.12 610.89178,125.5 606.22178,124.25 602.27178,119.75 599.39178,118.12 597.77178,115 597.36178,110.12 600.14178,105.75 600.39178,99.500001 598.51178,95.500001 600.27178,91.120001 598.64178,84.850001 598.73178,84.360001 606.39178,84.170001 612.64178,84.170001 619.27178,84.170001 624.89178,81.880001 632.77178,85.500001 641.99178,85.230001 651.06178,86.180001 658.06178,79.670001 664.89178,76.500001 664.69178,75.860001 664.95178,75.750001 667.64178,76.380001 667.01178,80.750001 667.64178,83.620001 671.27178,85.500001 675.51178,85.820001 676.89178,90.370001 671.01178,92.880001 675.77178,96.880001 Z"
       data-engtype-2="Canton"
       data-id-0="29"
       data-id-1="3"
       data-id-2="17"
       data-iso="BIH"
       data-name-0="Bosnia and Herzegovina"
       data-name-1="Republika Srpska"
       data-name-2="Modrica"
       data-nl-name-2=""
       data-type-2="upanija|kanton"
       data-varname-2="Modrica"
       id="path16"
       style="fill:none;fill-rule:evenodd;stroke:#000000" />
   <path
       inkscape:connector-curvature="0"
       d="M 631.01278,131.25 635.51278,134.38 632.77278,136.85 632.64278,137.38 625.47278,141.62 621.64278,145.76 621.79278,146.34 621.51278,146.41 620.80278,146.67 620.27278,146.97 619.85278,147.45 619.71278,147.76 619.59278,148.43 619.57278,149.5 619.04378,149.7 618.58378,149.99 618.25378,150.4 618.02378,150.86 612.67378,150.64 610.82278,150.61 609.57278,150.77 609.20278,150.9 608.88378,151.1 608.64378,151.34 608.34378,151.88 607.89378,152.94 607.30378,153.74 607.16278,154.04 607.01378,154.73 606.96378,155.49 606.99278,157.12 607.31278,162.52 607.55278,163.64 607.86278,164.29 608.64278,165.13 609.62278,166.42 610.18278,167 611.13278,167.84 612.15278,168.58 613.66278,169.41 614.64278,170.06 615.38278,170.31 617.83278,170.73 618.55278,171.01 619.03178,171.35 620.30278,172.48 620.70178,173.18 620.94178,173.85 619.39178,175.75 617.01178,178 612.89178,179.62 612.89178,183.99 609.89178,182.12 607.27178,181.31 602.64178,182.38 597.77178,184.62 596.60178,186.94 591.50178,186.94 591.38178,186.46 591.14178,185.85 590.32178,184.02 589.34278,182.33 589.10278,181.58 588.86278,180.01 588.64278,176.04 588.43278,174.96 588.15278,174.33 587.30278,173.25 586.73278,172.13 586.27278,171.62 585.64278,171.3 584.92278,171.13 583.35278,170.92 582.55278,170.75 582.15278,170.63 581.39278,170.27 580.67278,169.81 579.67278,169.02 577.81278,167.24 574.72278,166.72 570.47278,166.31 569.30278,165.97 568.31278,165.4 567.57278,165.15 566.28278,164.94 564.41278,164.81 561.52278,164.77 559.65278,164.93 558.81278,165.15 557.31278,165.69 555.08378,166.25 554.54378,166.56 553.19278,167.77 552.89278,168.31 552.48278,169.46 551.77278,170.54 551.64278,170.85 551.49278,171.53 551.44278,172.28 551.49278,175.42 551.39278,176.14 551.14278,176.77 549.39278,178.77 548.49278,179.47 541.39278,179.47 535.39278,179.79 530.64278,184.5 526.39278,180 526.39278,174.5 521.39278,168.5 511.89278,168.5 507.39278,162.5 504.86278,151.87 505.70278,145.81 518.12378,133.83 519.56278,135.17 521.39278,139.01 526.72278,141.17 531.72278,144.33 540.56278,143 546.39278,141.17 552.22278,140.33 551.06278,147.33 555.06278,143 555.72278,139.01 560.39278,134.17 565.22278,131.5 563.72278,122.17 568.72278,120 577.89278,118.17 575.06278,112.83 577.95278,109.67 579.89278,106 582.72278,102.33 586.39278,96.170001 591.22278,90.370001 596.52278,83.870001 597.56278,84.130001 598.73278,84.360001 598.64278,84.850001 600.27278,91.120001 598.51278,95.500001 600.39278,99.500001 600.14278,105.75 597.36278,110.12 597.77278,115 599.39278,118.12 602.27278,119.75 606.22278,124.25 610.89278,125.5 619.77278,128.12 626.51278,129.38 629.70178,131.04 Z"
       data-engtype-2="Canton"
       data-id-0="29"
       data-id-1="3"
       data-id-2="18"
       data-iso="BIH"
       data-name-0="Bosnia and Herzegovina"
       data-name-1="Republika Srpska"
       data-name-2="Doboj"
       data-nl-name-2=""
       data-type-2="upanija|kanton"
       data-varname-2="Doboj"
       id="path17"
       style="fill:none;fill-rule:evenodd;stroke:#000000" />
   <path
       inkscape:connector-curvature="0"
       d="M 625.46378,66.060001 620.56378,70.500001 615.06378,72.830001 612.72378,80.000001 606.39378,84.170001 598.73378,84.360001 597.56378,84.130001 596.52378,83.870001 595.39378,83.500001 587.56378,79.500001 573.56378,81.170001 569.39378,71.670001 564.39378,73.330001 554.72378,74.760001 542.72378,74.500001 540.72378,69.330001 538.50378,63.000001 540.67378,61.560001 540.70278,61.540001 541.16278,61.230001 545.11278,57.820001 546.54378,53.430001 546.38378,50.170001 546.96378,47.480001 550.39378,46.420001 551.26378,46.150001 553.80378,43.760001 554.62378,40.110001 555.41278,39.010001 556.65278,37.270001 559.28278,35.400001 561.50378,34.530001 564.60378,35.550001 567.44378,38.740001 571.12478,41.880001 572.74378,39.530001 574.71478,37.610001 577.29478,37.680001 578.88478,39.770001 581.35478,43.180001 580.66478,44.790001 580.44478,45.310001 580.57478,45.880001 580.88578,47.260001 581.90578,47.730001 582.36578,47.940001 584.85578,49.090001 587.47578,51.530001 589.65578,54.670001 590.43578,54.800001 594.77578,55.510001 594.94578,55.490001 601.23578,54.810001 601.35578,54.860001 602.56578,55.360001 604.85578,56.320001 607.88578,57.590001 608.04578,57.560001 609.46578,58.370001 610.59578,58.850001 610.56578,58.870001 612.55578,59.940001 614.34578,60.780001 615.50578,61.680001 617.02578,62.660001 617.57578,62.820001 618.31578,62.800001 621.52578,63.460001 622.73578,63.780001 623.49578,64.130001 624.45578,64.870001 Z"
       data-engtype-2="Canton"
       data-id-0="29"
       data-id-1="3"
       data-id-2="19"
       data-iso="BIH"
       data-name-0="Bosnia and Herzegovina"
       data-name-1="Republika Srpska"
       data-name-2="Brod"
       data-nl-name-2=""
       data-type-2="upanija|kanton"
       data-varname-2="Brod"
       id="path18-7"
       style="fill:none;fill-rule:evenodd;stroke:#000000" />
   <path
       inkscape:connector-curvature="0"
       d="M 596.52278,83.870001 591.22278,90.370001 586.39278,96.170001 582.72278,102.33 579.89278,106 577.95278,109.67 575.06278,112.83 577.89278,118.17 568.72278,120 563.72278,122.17 565.22278,131.5 560.39278,134.17 555.72278,139.01 555.06278,143 551.06278,147.33 552.22278,140.33 546.39278,141.17 540.56278,143 531.72278,144.33 526.72278,141.17 521.39278,139.01 519.56278,135.17 518.12378,133.83 517.22378,128 516.06378,118.67 511.89378,110.83 512.72378,102.5 513.62378,97.670001 510.22378,92.500001 509.24378,87.330001 510.72378,81.740001 506.22378,81.670001 504.88378,80.830001 505.22378,77.670001 506.89378,72.500001 509.06378,67.830001 513.62478,61.550001 516.42478,63.820001 521.14478,66.710001 526.19478,68.020001 530.57478,67.700001 536.70478,64.190001 538.50578,63.000001 540.72578,69.330001 542.72578,74.500001 554.72578,74.760001 564.39578,73.330001 569.39578,71.670001 573.56578,81.170001 587.56578,79.500001 595.39578,83.500001 Z"
       data-engtype-2="Canton"
       data-id-0="29"
       data-id-1="3"
       data-id-2="20"
       data-iso="BIH"
       data-name-0="Bosnia and Herzegovina"
       data-name-1="Republika Srpska"
       data-name-2="Derventa"
       data-nl-name-2=""
       data-type-2="upanija|kanton"
       data-varname-2="Derventa"
       id="path25"
       style="fill:none;fill-rule:evenodd;stroke:#000000" />
   <path
       inkscape:connector-curvature="0"
       d="M 567.17378,230.98 567.40278,235.45 567.30278,237.62 566.71278,239.85 565.90178,242.41 565.46278,243.51 564.58278,245.31 559.77178,246.44 559.06178,246.69 558.76178,246.87 558.14178,247.5 556.34178,250.05 555.56178,250.77 554.87278,251.54 554.06178,252.26 553.13178,253.49 552.22178,254.48 549.86178,255.42 547.53178,256.17 545.68178,256.98 544.33178,257.46 542.49078,258.23 540.23078,258.77 538.68078,259.58 536.40978,260.12 534.55978,260.83 532.28978,261.37 531.97878,261.49 531.03978,262.03 530.71978,262.15 529.56978,262.33 526.62078,262.45 525.87078,262.59 525.55078,262.71 524.33078,263.39 523.00078,263.76 522.39078,264.03 521.59078,264.69 520.71078,265.27 519.89978,265.92 519.29978,266.17 518.28978,266.44 517.67978,266.7 516.12978,268.09 515.87978,268.55 515.70978,269.06 514.26978,269.37 513.30978,269.7 512.20978,271.39 503.13978,268.5 499.88978,264.69 493.88978,264.69 497.30978,256.51 493.13978,254 485.13978,255.5 483.63978,248.54 482.38978,239.76 469.63978,239.75 467.63978,233.4 470.88978,230.71 473.63978,228.5 477.38978,225 473.13978,218 467.88978,213.75 463.13978,206.25 463.13978,200.5 461.63978,194 461.10978,191.71 463.21978,185.33 462.46978,179.67 463.83978,175.5 467.05978,174 471.07978,172.89 471.38978,173.5 477.45978,178.33 482.38978,179.67 488.88978,176 501.05978,172 507.38978,162.5 511.88978,168.5 521.38978,168.5 526.38978,174.5 526.38978,180 530.63978,184.5 535.38978,179.79 541.38978,179.47 548.48978,179.47 547.13978,180.37 546.57978,180.89 545.37978,181.74 544.99978,182.18 544.69878,182.72 544.12978,184.11 543.59978,186.1 542.87078,187.2 542.72978,187.52 542.51978,188.62 542.51978,189.82 542.67978,191.01 542.91978,191.74 543.09978,192.06 543.95978,193.17 544.50978,194.35 544.85978,194.91 545.67078,195.72 546.44078,196.69 546.98078,197.25 547.61078,197.77 548.48078,198.37 549.46078,199.16 550.71078,200 551.52978,200.79 552.42078,201.53 554.04078,203.78 555.18978,205.63 557.41978,208.08 558.41978,209.37 559.48878,210.4 561.63878,213.31 562.72878,216.16 563.56878,218.73 563.85878,219.32 564.51878,220.2 564.80878,220.88 565.04878,222.05 565.29878,224.59 565.50878,225.86 565.75878,226.68 566.76878,228.82 566.97878,229.67 Z"
       data-engtype-2="Canton"
       data-id-0="29"
       data-id-1="3"
       data-id-2="21"
       data-iso="BIH"
       data-name-0="Bosnia and Herzegovina"
       data-name-1="Republika Srpska"
       data-name-2="Teslic"
       data-nl-name-2=""
       data-type-2="upanija|kanton"
       data-varname-2="Teslic"
       id="path20-7"
       style="fill:none;fill-rule:evenodd;stroke:#000000" />
   <path
       inkscape:connector-curvature="0"
       d="M 516.06278,118.67 517.22278,128 518.12278,133.83 505.70178,145.81 504.86178,151.87 507.39178,162.5 501.06178,172 488.89178,176 482.39178,179.67 477.46178,178.33 471.39178,173.5 471.08178,172.89 477.39178,163.5 469.39178,163.5 464.39178,161 460.00178,156.67 461.39178,147.52 454.39178,146.83 449.56178,148.83 443.39178,149.17 443.39178,155 437.89178,151.67 431.55178,145.93 432.64178,145.25 434.89178,139.01 425.50178,131 433.39178,122.5 435.42178,112.6 438.39178,112.17 437.39178,105.5 442.89178,105.67 446.22178,102.67 453.22178,108.5 459.72178,108.5 462.89178,107.67 468.56178,102.67 465.06178,98.000001 472.06178,92.830001 477.06178,89.500001 488.39178,87.330001 494.06178,89.170001 504.86178,80.830001 504.88278,80.830001 506.22278,81.670001 510.72278,81.740001 509.24278,87.330001 510.22278,92.500001 513.62278,97.670001 512.72278,102.5 511.89278,110.83 Z"
       data-engtype-2="Canton"
       data-id-0="29"
       data-id-1="3"
       data-id-2="22"
       data-iso="BIH"
       data-name-0="Bosnia and Herzegovina"
       data-name-1="Republika Srpska"
       data-name-2="Prnjavor"
       data-nl-name-2=""
       data-type-2="upanija|kanton"
       data-varname-2="Prnjavor"
       id="path21"
       style="fill:none;fill-rule:evenodd;stroke:#000000" />
   <path
       inkscape:connector-curvature="0"
       d="M 435.42278,112.6 434.89278,110 432.06278,104.54 429.72278,97.000001 421.89278,93.830001 418.72278,86.500001 415.13278,82.790001 416.06278,81.500001 416.06278,77.330001 418.06278,75.000001 421.06278,69.830001 421.06278,66.670001 421.39278,57.500001 418.06278,50.500001 425.50278,44.610001 427.49278,45.480001 428.27278,45.820001 430.38278,45.670001 430.79278,45.640001 432.54278,44.910001 433.96278,44.010001 434.00278,43.980001 434.97278,43.360001 434.71278,44.060001 434.48278,44.650001 434.13278,45.580001 433.23278,46.860001 433.22278,48.580001 433.21278,49.130001 434.94278,50.740001 435.74278,50.860001 438.37278,51.260001 440.89278,51.790001 444.33278,52.250001 447.29278,51.140001 449.31278,48.900001 450.27278,47.060001 450.53278,46.790001 450.93278,46.360001 451.99278,45.260001 452.27278,46.260001 452.54278,47.220001 452.57278,47.340001 452.70278,48.490001 452.78278,49.140001 454.07278,49.840001 455.36278,50.540001 456.14278,50.260001 457.27278,49.850001 458.14278,49.540001 460.91278,49.400001 463.21278,50.320001 463.22278,50.330001 465.34278,50.580001 465.49278,50.570001 467.69278,50.450001 470.11278,49.050001 472.23278,46.610001 473.56278,45.580001 475.45278,44.120001 479.27278,43.200001 479.39278,43.170001 481.61278,43.440001 482.51278,44.180001 483.43278,44.930001 485.15278,46.550001 487.82278,48.190001 488.14278,48.380001 488.41278,48.540001 491.85278,50.790001 494.64278,52.610001 497.60278,54.540001 499.01278,55.460001 499.82278,55.990001 502.00278,57.410001 504.48178,57.230001 506.53178,57.080001 506.94178,57.170001 507.72178,57.640001 510.75178,59.450001 511.82078,60.090001 512.72078,60.810001 513.62078,61.550001 509.05978,67.830001 506.88978,72.500001 505.21978,77.670001 504.87978,80.830001 504.85878,80.830001 494.05878,89.170001 488.38878,87.330001 477.05878,89.500001 472.05878,92.830001 465.05878,98.000001 468.55878,102.67 462.88878,107.67 459.71878,108.5 453.21878,108.5 446.21878,102.67 442.88878,105.67 437.38878,105.5 438.38878,112.17 Z"
       data-engtype-2="Canton"
       data-id-0="29"
       data-id-1="3"
       data-id-2="23"
       data-iso="BIH"
       data-name-0="Bosnia and Herzegovina"
       data-name-1="Republika Srpska"
       data-name-2="Srbac"
       data-nl-name-2=""
       data-type-2="upanija|kanton"
       data-varname-2="Srbac"
       id="path22-2"
       style="fill:none;fill-rule:evenodd;stroke:#000000" />
   <path
       inkscape:connector-curvature="0"
       d="M 512.21378,271.39 511.42378,272.1 510.73378,272.86 509.29478,273.94 508.71478,274.24 507.95378,274.4 506.65378,274.46 501.96478,274.25 500.62478,274.24 499.40378,274.4 498.73378,274.72 498.32378,275.23 497.76378,276.59 497.32378,277.18 497.06378,277.7 496.74378,279.76 496.51378,280.4 496.30378,280.68 495.75378,281.05 494.21378,281.62 493.55378,282.04 492.96378,282.3 492.20378,282.45 490.94378,282.52 489.64378,282.46 488.40378,282.25 488.03378,282.13 487.42378,281.8 486.74378,281.27 485.64378,280.52 484.85378,279.74 481.31378,280.53 478.93378,280.83 468.39378,274.92 472.89378,269.93 464.64378,269.93 453.64378,259.5 440.64378,253.75 440.64378,240.25 430.51378,235.75 426.89378,230.71 418.89378,219.5 410.89378,221.25 404.39378,225.5 398.37378,222.75 395.23378,218.25 393.56378,210.25 396.64378,201 391.31378,198.15 392.46378,198 402.64378,188.5 405.89378,181.5 413.39378,184.62 420.14378,184.62 429.71378,191 434.89378,195 442.39378,196.04 449.14378,192.44 457.39378,189.66 461.11378,191.71 461.64378,194 463.14378,200.5 463.14378,206.25 467.89378,213.75 473.14378,218 477.39378,225 473.64378,228.5 470.89378,230.71 467.64378,233.4 469.64378,239.75 482.39378,239.76 483.64378,248.54 485.14378,255.5 493.14378,254 497.31378,256.51 493.89378,264.69 499.89378,264.69 503.14378,268.5 Z"
       data-engtype-2="Canton"
       data-id-0="29"
       data-id-1="3"
       data-id-2="24"
       data-iso="BIH"
       data-name-0="Bosnia and Herzegovina"
       data-name-1="Republika Srpska"
       data-name-2="Kotor_Varos"
       data-nl-name-2=""
       data-type-2="upanija|kanton"
       data-varname-2="Kotor_Varos"
       id="path23"
       style="fill:none;fill-rule:evenodd;stroke:#000000" />
   <path
       inkscape:connector-curvature="0"
       d="M 469.39278,163.5 477.39278,163.5 471.08278,172.89 467.06278,174 463.84278,175.5 462.47278,179.67 463.22278,185.33 461.11278,191.71 457.39278,189.66 449.14278,192.44 442.39278,196.04 434.89278,195 429.71278,191 420.14278,184.62 413.39278,184.62 405.89278,181.5 402.64278,188.5 392.46278,198 391.31278,198.15 388.39278,196.64 380.50278,196.63 380.39278,191.5 380.89278,186.17 381.72278,179 382.72278,175.5 388.39278,164.33 390.72278,159.67 399.39278,154.83 395.72278,149.33 394.56278,145.17 392.47278,143.31 399.64278,144.75 410.89278,149.75 421.64278,148.75 429.39278,151.87 431.55278,145.93 437.89278,151.67 443.39278,155 443.39278,149.17 449.56278,148.83 454.39278,146.83 461.39278,147.52 460.00278,156.67 464.39278,161 Z"
       data-engtype-2="Canton"
       data-id-0="29"
       data-id-1="3"
       data-id-2="25"
       data-iso="BIH"
       data-name-0="Bosnia and Herzegovina"
       data-name-1="Republika Srpska"
       data-name-2="Celinac"
       data-nl-name-2=""
       data-type-2="upanija|kanton"
       data-varname-2="Celinac"
       id="path24-3"
       style="fill:none;fill-rule:evenodd;stroke:#000000" />
   <path
       inkscape:connector-curvature="0"
       d="M 434.89278,139.01 432.64278,145.25 431.55278,145.93 429.39278,151.87 421.64278,148.75 410.89278,149.75 399.64278,144.75 392.47278,143.31 389.14278,139.33 387.72278,134.33 382.22278,127 372.72278,118.5 370.06278,111.31 370.06278,103.83 365.34278,98.160001 365.56278,97.670001 370.72278,93.830001 374.39278,91.330001 379.39278,89.830001 381.06278,93.170001 388.22278,93.170001 392.39278,89.450001 394.72278,86.500001 398.06278,83.330001 401.89278,81.170001 408.72278,82.330001 415.13278,82.790001 418.72278,86.500001 421.89278,93.830001 429.72278,97.000001 432.06278,104.54 434.89278,110 435.42278,112.6 433.39278,122.5 425.50278,131 Z"
       data-engtype-2="Canton"
       data-id-0="29"
       data-id-1="3"
       data-id-2="26"
       data-iso="BIH"
       data-name-0="Bosnia and Herzegovina"
       data-name-1="Republika Srpska"
       data-name-2="Laktasi"
       data-nl-name-2=""
       data-type-2="upanija|kanton"
       data-varname-2="Laktasi"
       id="path32-1"
       style="fill:none;fill-rule:evenodd;stroke:#000000" />
   <path
       inkscape:connector-curvature="0"
       d="M 424.30278,42.800001 425.50278,44.610001 418.06278,50.500001 421.39278,57.500001 421.06278,66.670001 421.06278,69.830001 418.06278,75.000001 416.06278,77.330001 416.06278,81.500001 415.13278,82.790001 408.72278,82.330001 401.89278,81.170001 398.06278,83.330001 394.72278,86.500001 392.39278,89.450001 388.22278,93.170001 381.06278,93.170001 379.39278,89.830001 374.39278,91.330001 370.72278,93.830001 365.56278,97.670001 365.34278,98.160001 364.95278,98.000001 358.01278,93.620001 358.01278,88.620001 353.14278,84.380001 346.27278,87.000001 342.77278,86.620001 337.89278,87.620001 334.51278,91.010001 326.87278,90.500001 326.86278,90.500001 324.56278,87.000001 322.39278,80.330001 316.06278,78.670001 311.72278,75.350001 306.97278,74.000001 301.22278,72.000001 295.22278,68.670001 298.05278,65.040001 304.89278,60.170001 312.56278,58.670001 314.22278,54.000001 313.92278,48.500001 314.66278,42.830001 314.66278,39.500001 315.06278,35.330001 318.20278,31.170001 318.20278,24.170001 316.89278,21.170001 318.20278,16.810001 318.20278,16.800001 319.36278,16.140001 320.23278,17.060001 321.07278,17.950001 321.51278,18.480001 322.76278,19.980001 323.00278,20.150001 325.99278,22.300001 328.47278,24.350001 328.81278,24.630001 329.25278,24.890001 329.35278,24.950001 332.40278,26.730001 336.31278,28.300001 340.32278,29.600001 344.13278,31.230001 346.84278,32.770001 349.21278,34.120001 350.80278,35.050001 352.56278,36.090001 353.58278,36.690001 354.61278,36.950001 359.00278,38.060001 361.35278,38.310001 363.77278,38.560001 370.96278,39.000001 376.26278,39.230001 377.85278,37.690001 378.76278,34.850001 379.78278,31.800001 381.15278,27.890001 381.79278,28.280001 385.04278,30.250001 385.33278,30.280001 389.08278,30.580001 389.13278,30.760001 389.87278,33.820001 390.90278,33.900001 391.86278,33.980001 391.93278,33.990001 392.08278,34.090001 392.66278,34.480001 393.94278,35.360001 395.29278,36.300001 395.64278,36.540001 395.72278,36.730001 396.17278,37.690001 396.23278,37.830001 396.35278,37.940001 398.12278,39.540001 401.68278,41.250001 401.98278,41.400001 405.96278,42.280001 411.39278,42.830001 416.09278,43.250001 416.64278,43.190001 419.12278,42.930001 419.85278,41.630001 421.26278,38.930001 422.81278,36.580001 422.88278,36.480001 423.39278,37.050001 423.95278,37.990001 423.97278,38.450001 424.01278,39.560001 423.76278,41.010001 424.27278,42.700001 424.27278,42.710001 Z"
       data-engtype-2="Canton"
       data-id-0="29"
       data-id-1="3"
       data-id-2="26"
       data-iso="BIH"
       data-name-0="Bosnia and Herzegovina"
       data-name-1="Republika Srpska"
       data-name-2="Gradiska"
       data-nl-name-2=""
       data-type-2="upanija|kanton"
       data-varname-2="Gradiska"
       id="path26-2"
       style="fill:none;fill-rule:evenodd;stroke:#000000" />
   <path
       inkscape:connector-curvature="0"
       d="M 380.50278,196.63 379.06278,202.5 386.56278,211.83 389.72278,219.33 392.39278,227.67 390.97278,233.4 390.96278,233.4 387.89278,233.67 379.89278,238 374.22278,236.17 371.53278,231.5 370.56278,229 370.14278,225.38 366.64278,219.59 359.27278,213.31 348.36278,222.72 336.73278,233 331.43278,233 325.89278,229.79 321.46278,226.78 321.46278,226.77 318.81278,220.33 319.89278,208.33 321.47278,201.92 313.31278,201.17 307.39278,199.58 306.14278,193.75 304.17278,192.47 305.64278,192.44 306.14278,186.25 300.77278,180.5 289.01278,172.12 288.14278,158 275.14278,152.62 271.01278,140 278.89278,138 286.56278,137 292.56278,138.33 300.22278,138 307.89278,140 307.89278,136.33 305.22278,129.5 308.22278,121 309.39278,114 312.22278,107.33 319.81278,100.33 325.72278,92.500001 326.86278,90.500001 326.87278,90.500001 334.51278,91.010001 337.89278,87.620001 342.77278,86.620001 346.27278,87.000001 353.14278,84.380001 358.01278,88.620001 358.01278,93.620001 364.95278,98.000001 365.34278,98.160001 370.06278,103.83 370.06278,111.31 372.72278,118.5 382.22278,127 387.72278,134.33 389.14278,139.33 392.47278,143.31 394.56278,145.17 395.72278,149.33 399.39278,154.83 390.72278,159.67 388.39278,164.33 382.72278,175.5 381.72278,179 380.89278,186.17 380.39278,191.5 Z"
       data-engtype-2="Canton"
       data-id-0="29"
       data-id-1="3"
       data-id-2="26"
       data-iso="BIH"
       data-name-0="Bosnia and Herzegovina"
       data-name-1="Republika Srpska"
       data-name-2="Banja_Luka"
       data-nl-name-2=""
       data-type-2="upanija|kanton"
       data-varname-2="Banja_Luka"
       id="path27"
       style="fill:none;fill-rule:evenodd;stroke:#000000" />
   <path
       inkscape:connector-curvature="0"
       d="M 393.39278,235.83 390.39278,242.17 388.96278,249.59 386.41278,249.32 385.51278,250.44 385.11278,250.83 383.38278,251.64 382.91278,252.14 382.76278,252.46 382.57278,253.58 382.62278,256.53 382.58278,257.78 382.45278,258.58 382.04278,259.58 382.17278,261.61 382.22278,261.91 381.72278,262 376.56278,266.17 376.97278,270.92 371.59278,277.87 370.72278,277.33 366.06278,275.83 360.21278,282.89 356.22278,282 349.89278,280.83 344.39278,280.83 340.22278,289.67 342.22278,296.33 335.40278,300.17 335.39278,307.33 323.89278,318.67 326.72278,327.32 321.06278,330.83 315.22278,327.5 310.75278,328.25 309.23278,326.33 308.58278,326.09 307.13278,325.04 305.54278,323.52 305.17278,323.05 304.45278,321.59 304.00278,321.11 301.74278,319.81 299.57278,318.92 296.27278,317.37 295.55278,316.89 294.57278,316.07 293.70278,315.21 292.62278,313.95 292.08278,313.59 288.63278,311.67 287.78278,310.9 287.10278,310.37 286.68278,309.94 284.35278,306.67 283.45278,305.93 282.63278,305.13 281.86278,304.63 286.64278,299.5 292.14278,291.75 294.14278,278.9 299.06278,276.75 308.39278,272.58 307.72278,268.08 310.22278,264.33 309.31278,255.75 303.14278,246.5 305.97278,245.08 311.14278,240.67 319.97278,240.67 325.47278,245.42 326.89278,241.42 322.22278,234.33 321.39278,227.83 321.46278,226.78 325.89278,229.79 331.43278,233 336.73278,233 348.36278,222.72 359.27278,213.31 366.64278,219.59 370.14278,225.38 370.56278,229 371.53278,231.5 374.22278,236.17 379.89278,238 387.89278,233.67 390.96278,233.4 390.97278,233.4 Z"
       data-engtype-2="Canton"
       data-id-0="29"
       data-id-1="3"
       data-id-2="27"
       data-iso="BIH"
       data-name-0="Bosnia and Herzegovina"
       data-name-1="Republika Srpska"
       data-name-2="Mrkonjic_Grad"
       data-nl-name-2=""
       data-type-2="upanija|kanton"
       data-varname-2="Mrkonjic_Grad"
       id="path28-6"
       style="fill:none;fill-rule:evenodd;stroke:#000000" />
   <path
       inkscape:connector-curvature="0"
       d="M 298.05278,65.040001 297.06278,65.000001 287.22278,65.070001 265.89278,63.670001 261.22278,60.000001 258.06278,54.330001 249.22278,57.500001 243.72278,60.170001 237.72278,59.000001 232.39278,59.170001 227.72278,58.670001 223.97278,58.100001 223.22278,54.830001 216.72278,53.500001 213.39278,47.670001 216.72278,44.500001 220.56278,41.330001 223.89278,34.500001 222.56278,30.170001 219.68278,28.330001 219.89278,22.500001 221.01278,19.190001 221.01278,19.180001 221.99278,19.770001 226.66278,21.220001 229.76278,21.660001 233.21278,22.150001 237.94278,22.270001 241.18278,21.520001 244.43278,20.710001 245.54278,21.030001 248.87278,21.990001 253.90278,23.920001 259.70278,25.680001 263.98278,26.800001 267.48278,26.810001 267.89278,26.720001 269.08278,26.480001 270.71278,26.140001 271.01278,25.820001 272.87278,23.850001 272.88278,23.830001 273.04278,22.720001 273.26278,21.180001 273.32278,18.350001 273.35278,18.280001 274.26278,15.150001 274.92278,15.180001 275.67278,15.210001 277.72278,14.980001 278.11278,14.930001 278.79278,14.080001 279.27278,13.470001 281.34278,12.840001 281.62278,12.710001 283.63278,11.760001 283.89278,11.580001 285.03278,10.800001 285.70278,10.350001 287.84278,8.3200006 287.90278,8.2600006 288.77278,7.2000006 289.50278,6.3100006 289.57278,6.2300006 291.06278,3.3900006 293.06278,0.6000006 293.13278,0.5000006 293.36278,0.6200006 293.57278,0.7400006 294.99278,1.5200006 295.80278,1.9600006 296.46278,3.4700006 296.08278,3.9700006 294.71278,5.7700006 293.96278,8.7200006 293.58278,11.360001 294.64278,13.790001 295.55278,13.850001 296.46278,13.910001 299.15278,13.720001 299.40278,13.700001 300.69278,13.990001 303.05278,14.520001 305.52278,15.080001 305.73278,15.130001 305.79278,15.010001 305.96278,14.610001 306.38278,13.630001 306.63278,13.060001 305.36278,10.320001 304.71278,8.3100006 304.49278,7.6300006 306.53278,8.7900006 307.69278,11.020001 308.40278,12.890001 308.56278,13.290001 309.24278,15.010001 311.34278,15.670001 311.86278,15.230001 312.63278,14.580001 312.81278,14.050001 313.36278,12.490001 314.64278,12.250001 314.33278,14.260001 314.01278,15.080001 313.73278,15.810001 313.80278,17.450001 314.05278,17.520001 315.73278,18.020001 317.18278,17.340001 317.58278,17.160001 318.20278,16.810001 316.89278,21.170001 318.20278,24.170001 318.20278,31.170001 315.06278,35.330001 314.66278,39.500001 314.66278,42.830001 313.92278,48.500001 314.22278,54.000001 312.56278,58.670001 304.89278,60.170001 Z"
       data-engtype-2="Canton"
       data-id-0="29"
       data-id-1="3"
       data-id-2="28"
       data-iso="BIH"
       data-name-0="Bosnia and Herzegovina"
       data-name-1="Republika Srpska"
       data-name-2="Kozarska_Dubica"
       data-nl-name-2=""
       data-type-2="upanija|kanton"
       data-varname-2="Kozarska_Dubica"
       id="path29"
       style="fill:none;fill-rule:evenodd;stroke:#000000" />
   <path
       inkscape:connector-curvature="0"
       d="M 215.89278,77.670001 213.56278,83.830001 208.22278,90.170001 203.72278,93.170001 195.22278,96.830001 193.72278,102.17 194.89278,111.31 194.87278,111.61 178.56278,111.67 170.81278,116 167.27278,120.79 162.64278,111.32 158.97278,109.17 149.56278,110.25 148.56278,103.25 143.31278,107.75 136.89278,111.31 137.22278,104.42 134.56278,100.25 129.56278,96.670001 131.10278,89.060001 132.48278,88.330001 133.09278,87.940001 133.83278,87.350001 134.42278,87.050001 135.18278,86.870001 137.87278,86.570001 138.98278,86.200001 140.60278,85.440001 141.12278,85.140001 141.89278,84.420001 142.75278,83.820001 143.53278,83.140001 144.13278,82.880001 145.45278,82.490001 146.65278,81.820001 146.98278,81.690001 147.75278,81.540001 148.60278,81.490001 153.22278,81.500001 156.84278,81.300001 155.16278,79.870001 154.10278,79.140001 152.41278,78.350001 152.94278,76.920001 152.92278,73.870001 151.67278,70.790001 152.87278,69.150001 153.13278,68.800001 153.74278,68.350001 155.91278,66.780001 160.28278,67.030001 163.04278,63.730001 163.05278,63.660001 163.43278,61.520001 163.53278,59.050001 163.73278,57.500001 174.39278,61.000001 190.06278,65.330001 206.56278,71.330001 211.74278,73.140001 Z"
       data-engtype-2="Canton"
       data-id-0="29"
       data-id-1="3"
       data-id-2="29"
       data-iso="BIH"
       data-name-0="Bosnia and Herzegovina"
       data-name-1="Republika Srpska"
       data-name-2="Bosanski_Novi"
       data-nl-name-2=""
       data-type-2="upanija|kanton"
       data-varname-2="Bosanski_Novi"
       id="path30-5"
       style="fill:none;fill-rule:evenodd;stroke:#000000" />
  </g>
</svg>
