<?xml version="1.0" encoding="UTF-8" standalone="no"?>
<svg
   xmlns:dc="http://purl.org/dc/elements/1.1/"
   xmlns:cc="http://creativecommons.org/ns#"
   xmlns:rdf="http://www.w3.org/1999/02/22-rdf-syntax-ns#"
   xmlns:svg="http://www.w3.org/2000/svg"
   xmlns="http://www.w3.org/2000/svg"
   xmlns:sodipodi="http://sodipodi.sourceforge.net/DTD/sodipodi-0.dtd"
   xmlns:inkscape="http://www.inkscape.org/namespaces/inkscape"
   enable_background="new 0 0 1000 828"
   height="828px"
   style="stroke-linejoin: round; stroke:#000; fill: none;"
   version="1.1"
   viewBox="0 0 1000 828"
   width="1000px"
   id="svg3097"
   inkscape:version="0.48.4 r9939"
   sodipodi:docname="entities.svg">
  <sodipodi:namedview
     pagecolor="#ffffff"
     bordercolor="#666666"
     borderopacity="1"
     objecttolerance="10"
     gridtolerance="10"
     guidetolerance="10"
     inkscape:pageopacity="0"
     inkscape:pageshadow="2"
     inkscape:window-width="1366"
     inkscape:window-height="744"
     id="namedview3119"
     showgrid="false"
     inkscape:zoom="0.62016872"
     inkscape:cx="464.08345"
     inkscape:cy="359.37586"
     inkscape:window-x="0"
     inkscape:window-y="24"
     inkscape:window-maximized="1"
     inkscape:current-layer="svg3097" />
  <defs
     id="defs3099">
    <style
       type="text/css"
       id="style3101">path { fill-rule: evenodd; }</style>
  </defs>
  <metadata
     id="metadata3103">
    <views
       id="views3105">
      <view
         h="828.558053898"
         padding="0"
         w="1000"
         id="view3107">
        <proj
           flip="auto"
           id="robinson"
           lon0="18.7764628216" />
        <bbox
           h="43.94"
           w="53.1"
           x="208.78"
           y="-757.84"
           id="bbox3110" />
      </view>
    </views>
    <rdf:RDF>
      <cc:Work
         rdf:about="">
        <dc:format>image/svg+xml</dc:format>
        <dc:type
           rdf:resource="http://purl.org/dc/dcmitype/StillImage" />
        <dc:title></dc:title>
      </cc:Work>
    </rdf:RDF>
  </metadata>
  <g
     id="opstine"
     transform="translate(-0.10417398,0.5)">
    <path
       inkscape:connector-curvature="0"
        d="M985.481,371.54l1.329,0.83c-1.35,0.03-0.81-0.2-3.81,0c-3,0.2-7.83,0.8-11.67,0
	c-3.83-0.8-5.16-1.54-9.5-3.2c-4.33-1.67-5.33-1.5-7.16-1.34c-1.47,0.14-1.87,1.23-4.78,1.92v-0.01c0,0-2.93-2.24,0-4.07
	c2.94-1.84,5.28-1.34,4.44-3.17c-0.83-1.83,1.17-2,2.67-1.67c1.5,0.34,4.67-2.33,1.83-4c-2.83-1.66-5.1-0.83-4.55-3.16
	c0.55-2.34,2.779-3.17,0-2.84c-2.78,0.34-5.101,2.36-5.69-0.07c-0.59-2.43-2.09-5.26-3.26-3.76c-1.16,1.5-1.66,2.83-4.16,1.5
	s-3.34-1.17-3.67-3.75s1.67-3.08,0-4.58s-2.17-1.34-3-2c-0.83-0.67-4.83,0-4.83,0s-3.34-1.93-3.5-0.3
	c-0.17,1.63-3.84,2.39-5.67-0.65c-1.83-3.05,1.33-3.39-3-4.05c-4.33-0.67-7.5-1.17-8.83-1.84c-1.34-0.66-0.5-3.83-3.34-2
	c-2.83,1.84-8.33,2.84-10,2.5c-1.66-0.33-5.66,1.34-5.66,1.84s-2.84,0.83-3.17,2c-1.17,0.08-5.33-3.67-6.42-5.67
	c-1.08-2-0.66-1.58-3.25-3.25c-2.58-1.67-3.58-1.83-4.66-4.42c-1.09-2.58-2.5-0.75-4.67-1s-3.08-1.33-3.35-3.16
	c-0.271-1.84,0-3.33,0-3.33c1.399-0.4,0.39-0.68,0.68-2.01c0.34-1.5-0.66-2.66,0-5.19c0.3-1.11,0.49-1.3,0.63-1.16v0.01
	c0.16,0.19,0.21,0.86,0.21,0.86s2,0.65,3,0c1-0.64,2.33-0.85,3.33-0.18c1,0.66,5.17-0.5,7.17-2.5s3,2.83,4.33,1.26
	c1.33-1.58,4-0.6,6.83-0.1c2.1,0.37,3.37-0.44,3.89-0.89l1.99,0.57l0.69-0.03l2.39-0.12l3.76-1.15l2.83-1.06l2.51,0.15l0.94,0.06
	l2.3,1.05l2.5-0.06l2.601-0.01h0.13l2.739,3.36l0.32,0.49l1.96,3.12l1.78,1.96l0.45,0.5l0.649,3.49l-0.05,0.42l-0.29,2.51l2.36,2.7
	l1.029,2.64l1.04,3.57l2.44,1.68l1.12,0.77l3.81,1.94l3.2,1.59l1.61,1.38l1.13,0.97l2.6,2.69l2.36,2.63l2.45,1.65l3.069,0.43
	l3.74-0.58l1.36-0.63l0.97-0.45l0.95,2.2l0.27,2.28l0.03,0.27l1.07,2.44l2.87,2.53l2.3,2.98l2.189,3.1l3.091,2.94l0.18,0.17
	l4.399,2.27l2.931,1.69l3.729,2.85L985.481,371.54z"
       data-engtype-2="Opstina"
       data-id-0="29"
       data-id-1="3"
       data-id-2="11"
       data-iso="BIH"
       data-name-0="Bosnia and Herzegovina"
       data-name-1="Republika Srpska"
       data-name-2="Bratunac"
       data-nl-name-2=""
       data-type-2="opstina"
       data-varname-2="Opstina Bratunac"
       id="path18"
       style="fill:none;stroke:#000000;stroke-width:0.86110741;stroke-linejoin:round" />
    <path
       inkscape:connector-curvature="0"
       d="M982.22,481.81l2.86,7.721l-3.03,7.06l-2.359,1.79l-2.23,1.021l2.51,3.52l-0.18,2.53l-0.5,1.29l-0.86,2.27
	l-0.029,1.17l-0.091,2.87l3.54,3.311l2.051,1.92l-4.181,2.33l-5.04-3.63l-3.59,0.039l-3.82,0.051l0.351,2.81l0.13,1.061l-0.68,2.569
	l0.109,3.16l-7.42,0.22l-2.49-5.58l-0.649-3.909l-3.84,4.68l-4.641-1.68l-0.38-6.41l0.05-4.12l-2.279-1.55l-2.25,2.1l-4.41,1.78
	l-6.07-0.05l-5.03-0.771c-0.26-0.56-1.239-3.05,0.23-5.55c1.67-2.83-1.67-3.5-6-6.5s-5.17-1.66-7-4.29s-0.33-2.54-1.67-2.37
	c-1.33,0.16-4.33,1.66-5.5,0.66c-1.16-1-1.83,0-3.83,0.5s-2.33,0.84-6.5,1.17c-4.16,0.33-3-1.67-3-4.67s-0.83-1.66-2-3
	c-0.82-0.93-0.49-1.13,0.25-2.15c0.3-0.43,0.68-1.01,1.08-1.85c0.52-1.1,0.96-1.39,1.38-1.39c0.23,0.189,0.49,0.279,0.771,0.229
	h0.01c0.22,0.1,0.45,0.19,0.68,0.18c0.7,0.66,0.35,2.94,1.16,4.15c1,1.5,3.34,1.5,6.67,1s-0.67-2,1.02-2.48
	c1.69-0.479,0.15-0.85,0.15-1.689c0-0.83-0.67-2.33,0.83-5.33s2.5-0.17,3.17-1.83c0.66-1.67,1-1.67,2.5-1.17s3.66,1.83,5,1.17
	c1.33-0.67,2.66-0.17,5,2.66c2.33,2.84,3.16,1.67,4.16,0.34c1-1.34,2.67,1.33,5.84,3c3.16,1.66,8.16,2.16,10.83,2.74
	s2.17-1.41,2.17-1.41s1.5-1.5,3.16-1.5c1.67,0-0.16-1.67,0-2.33c0.17-0.67,0.17-0.67,0.67-2.66c0.5-1.979,1.83-1.01,4-0.18
	c2.17,0.84,0.5-1.33,1.33-4.33c0.84-3,1.34,1.17,2.84,0s4.33-1.5,5-0.99c0.66,0.51,2.33-0.01,6.16-1.68c3.84-1.66,0,0,2.67,1.34
	c2.34,1.17,2.5-1,2.5-1.55l0.5,0.7l3.34,1.62l2.94,1.619l2.1,1.15L982.22,481.81z"
       data-engtype-2="Opstina"
       data-id-0="29"
       data-id-1="3"
       data-id-2="12"
       data-iso="BIH"
       data-name-0="Bosnia and Herzegovina"
       data-name-1="Republika Srpska"
       data-name-2=""
       data-nl-name-2=""
       data-type-2="upanija|kanton"
       data-varname-2=""
       id="path20"
       style="fill:none;stroke:#000000;stroke-width:0.86110741;stroke-linejoin:round" />
	   <path
       inkscape:connector-curvature="0"
       d="M972.14,467.72l1.36,1.9c0,0.55-0.16,2.72-2.5,1.55c-2.67-1.34,1.17-3-2.67-1.34
	c-3.83,1.67-5.5,2.189-6.16,1.68c-0.67-0.51-3.5-0.18-5,0.99s-2-3-2.84,0c-0.83,3,0.84,5.17-1.33,4.33c-2.17-0.83-3.5-1.8-4,0.18
	c-0.5,1.99-0.5,1.99-0.67,2.66c-0.16,0.66,1.67,2.33,0,2.33c-1.66,0-3.16,1.5-3.16,1.5s0.5,1.99-2.17,1.41s-7.67-1.08-10.83-2.74
	c-3.17-1.67-4.84-4.34-5.84-3c-1,1.33-1.83,2.5-4.16-0.34c-2.34-2.83-3.67-3.33-5-2.66c-1.34,0.66-3.5-0.67-5-1.17
	s-1.84-0.5-2.5,1.17C909,477.83,908,475,906.5,478s-0.83,4.5-0.83,5.33c0,0.84,1.54,1.21-0.15,1.689
	c-1.689,0.48,2.311,1.98-1.02,2.48s-5.67,0.5-6.67-1c-0.811-1.21-0.46-3.49-1.16-4.15c0.16-0.01,0.33-0.06,0.5-0.18
	c1.16-0.84-1-1.17-2-2.55c-0.95-1.3-1.31-0.69-1.479-1.32c-0.011-0.06-0.021-0.1-0.021-0.1c-0.07-0.34-0.29-0.431-0.74-0.41
	c-0.76-0.49-1.88-1.45-2.1-2.96c-0.33-2.33,3.17-2.16,0-4.5c-3.16-2.33-1.16,2-3.16-2.33s0.33-3.83-2-6.17
	c-2.34-2.33-6.84-1.33-5-3.83c1.83-2.5-0.06-4.05,3.3-2.78c3.36,1.28,4.2,3.561,5.53,0c1.33-3.55,2.67-4.39,4.5-4.39s3,3,3.83-0.66
	c0.84-3.67,2.5-3.67,0.84-4.5c-1.67-0.84-2.5-5.34-0.67-6.17s3.5-0.33,3.17-2.67c-0.34-2.33-1-2.5-0.84-5c0.17-2.5,1.67-2,0-3.83
	c-1.66-1.83-2.33-0.83-1.66-2.5c0.66-1.67,2.83-0.83,0.5-3c-2.34-2.17-7.67-9.38-8.84-10.53c-1.16-1.14-3-2.47-0.83-3.3
	c2.17-0.84,7.33-2.34,9.33-2.5c0.45-0.04,0.979-0.17,1.53-0.36l0.01-0.01c1.91-0.66,4.02-2.06,3.63-2.97
	c-0.5-1.16,1.83-4.5,7.17-2.16l0.04-0.01l0.78,2.07l3.02,3.12l2.54,3.95l0.83,3.38l3.17,4.15l4.851,4.43l3.449,2.21l1.301,0.84
	l4.42,2.631l2.33,3.369l1.239,1.79l3.12,4.851l2.62,3.97l2.66,4.62l1.51,1.15l2.36,1.79l2.57,1.319l3.52,1.09l3.29,4.83l2.92,1.181
	l2.14,0.939l3.131,4.8l2.539,3.67L972.14,467.72z"
       data-engtype-2="Opstina"
       data-id-0="29"
       data-id-1="3"
       data-id-2="13"
       data-iso="BIH"
       data-name-0="Bosnia and Herzegovina"
       data-name-1="Republika Srpska"
       data-name-2=""
       data-nl-name-2=""
       data-type-2="upanija|kanton"
       data-varname-2=""
       id="path22"
       style="fill:none;stroke:#000000;stroke-width:0.86110741;stroke-linejoin:round" />
	    <path
       inkscape:connector-curvature="0"
       d="M999.12,378.41l-0.521-1.97l0.341-3.85l-0.79-0.29l-2.32-0.86l-1.13-2.02l-1.75-1.74
	l-0.72-0.71l-2.78,0.27l-0.54,0.8l-0.351,0.51l0.11,2.23l0.48,1.53l-1.58,0.53l-0.03-0.02l-0.73-0.45c-1.35,0.03-0.81-0.2-3.81,0
	c-3,0.2-7.83,0.8-11.67,0c-3.83-0.8-5.16-1.54-9.5-3.2c-4.33-1.67-5.33-1.5-7.16-1.34c-1.47,0.14-1.87,1.23-4.78,1.92v-0.01
	c0,0-2.93-2.24,0-4.07c2.94-1.84,5.28-1.34,4.44-3.17c-0.83-1.83,1.17-2,2.67-1.67c1.5,0.34,4.67-2.33,1.83-4
	c-2.83-1.66-5.1-0.83-4.55-3.16c0.55-2.34,2.779-3.17,0-2.84c-2.78,0.34-5.101,2.36-5.69-0.07c-0.59-2.43-2.09-5.26-3.26-3.76
	c-1.16,1.5-1.66,2.83-4.16,1.5s-3.34-1.17-3.67-3.75s1.67-3.08,0-4.58s-2.17-1.34-3-2c-0.83-0.67-4.83,0-4.83,0s-3.34-1.93-3.5-0.3
	c-0.17,1.63-3.84,2.39-5.67-0.65c-1.83-3.05,1.33-3.39-3-4.05c-4.33-0.67-7.5-1.17-8.83-1.84c-1.34-0.66-0.5-3.83-3.34-2
	c-2.83,1.84-8.33,2.84-10,2.5c-1.66-0.33-5.66,1.34-5.66,1.84s-2.84,0.83-3.17,2c-0.33,1.16-1,3.66,0,4.33s1.5,0.83,1.33,3.17
	c-0.16,2.33-1.5,1.66,0,3.33s1,2.5-3,2s-9.5-1.67-6.66,2c2.83,3.67-0.67,4.67,1.33,7.17s8,0.16,11,1.33s1,2,0,3.83
	c-1,1.84-1.67,3.3-0.67,4.9s2.5,0.94-0.33,3.1c-2.83,2.17-3,1-3,3.5s1.33,1.84-0.5,4c-1.83,2.17-2.54,0.55-1.83,4.17
	c0.29,1.46,0.38,2.31,0.39,2.81c0.04,0.75-0.119,0.71-0.119,0.71c0.18,0.06,0.329,0.1,0.439,0.1c0.62,0,1.12,2.13,1.12,4
	c0,1.88,1.75,3.5,3.25,4.13s2.25,0.63,2,2.63s1.13,3.12,3.13,3.62s3.5,0.5,3.62,1.38c0.12,0.87,3.19,2.98,2.37,3.92
	c1.91-0.66,4.02-2.06,3.63-2.97c-0.5-1.16,1.83-4.5,7.17-2.16l0.04-0.01l-0.47-1.25l-1.34-3.35l-0.221-0.54l-2.97-3.4l-2.27-3.67
	l0.55-0.8l1.64-2.38l1.82,0.32l0.55,0.1l3.24,0.59l5.029,1.97l6.171,1.06l4.02,2.62l4.75,1.62l3.47,2.43l7.19,1.86l6.75,0.55
	l8.05,0.75l5.78,0.92l6.42,0.13l5.95-0.03l1.649-1.44l2.63-3.73l3.881-1.89l2.409-2.49l1.641-2.8l3.95-1.81l3.64-1.44l4.149-2.48
	l0.03-0.62l0.101-1.99L999.12,378.41z"
       data-engtype-2="Opstina"
       data-id-0="29"
       data-id-1="3"
       data-id-2="14"
       data-iso="BIH"
       data-name-0="Bosnia and Herzegovina"
       data-name-1="Republika Srpska"
       data-name-2="Srebrenica"
       data-nl-name-2=""
       data-type-2="upanija|kanton"
       data-varname-2="Opština Srebrenica"
       id="path24"
       style="fill:none;stroke:#000000;stroke-width:0.86110741;stroke-linejoin:round" />
	   <path
       inkscape:connector-curvature="0"
       d="M922,499.33c4.33,3,7.67,3.67,6,6.5c-1.47,2.5-0.49,4.99-0.23,5.55l-0.34-0.05l-0.67-0.1l-0.439-0.07
	l-4.44,1l-1.57,3.95l0.73,5.35l0.28,4.03l0.01,0.09l-0.11,4.53l-1.39,2.85l-1.74,2.55l-5.06-1.609l-5.7-4.101l-1.5,1.17l-2.1,1.65
	l-5.221-3.57l-3.91,1.83l-3.8,2.13l-6.78-0.68l-0.609,0.35l-0.34,0.2l-3.86,2.24l-4.68-2.89l-0.03-0.091l-0.96-3.319l-3.29-2.061
	l-1.08-0.68l-6.27,0.71l-1.7-3.55l-0.311-0.641l-5.939,0.71l0.13,2.66l0.18,2.391l-0.56,1.409l-0.7,1.75l-4.33-0.13v-0.06
	c0,0,0.66-4.16-2.67-6.16s-5.67-0.67-5.33-4c0.29-2.939,0.4-4.07,0.11-4.52c0.6,0.55,2.979,2.52,5.72,1.52
	c3.17-1.17,7,0.33,6.83-2.84c-0.16-3.16-1.5-3-2-5.33s-0.83-5.17,3.17-3.5s3.67,3.5,6,2.33c2.33-1.16,2.67-0.33,2.5-2.83
	s-1.33-6.17,1.33-6.5c2.67-0.33,1.67-1,1.67-2.67c0-1.66,1.33-2.33,1.83-2.33s-0.66-5.5,2.5-5c3.17,0.5,6.17,0.08,7-0.71
	c0.84-0.79,1.84-2.29,4.67-1.96c2.83,0.34,7.73-2.83,9.75-1.65c-0.74,1.021-1.07,1.221-0.25,2.15c1.17,1.34,2,0,2,3s-1.16,5,3,4.67
	c4.17-0.33,4.5-0.67,6.5-1.17s2.67-1.5,3.83-0.5c1.17,1,4.17-0.5,5.5-0.66c1.34-0.17-0.16-0.26,1.67,2.37S917.67,496.33,922,499.33z"
       data-engtype-2="Opstina"
       data-id-0="29"
       data-id-1="3"
       data-id-2="15"
       data-iso="BIH"
       data-name-0="Bosnia and Herzegovina"
       data-name-1="Republika Srpska"
       data-name-2=""
       data-nl-name-2=""
       data-type-2="upanija|kanton"
       data-varname-2=""
       id="path26"
       style="fill:none;stroke:#000000;stroke-width:0.86110741;stroke-linejoin:round" />
	   <path
       inkscape:connector-curvature="0"
       d="M922,499.33c4.33,3,7.67,3.67,6,6.5c-1.47,2.5-0.49,4.99-0.23,5.55l-0.34-0.05l-0.67-0.1l-0.439-0.07
	l-4.44,1l-1.57,3.95l0.73,5.35l0.28,4.03l0.01,0.09l-0.11,4.53l-1.39,2.85l-1.74,2.55l-5.06-1.609l-5.7-4.101l-1.5,1.17l-2.1,1.65
	l-5.221-3.57l-3.91,1.83l-3.8,2.13l-6.78-0.68l-0.609,0.35l-0.34,0.2l-3.86,2.24l-4.68-2.89l-0.03-0.091l-0.96-3.319l-3.29-2.061
	l-1.08-0.68l-6.27,0.71l-1.7-3.55l-0.311-0.641l-5.939,0.71l0.13,2.66l0.18,2.391l-0.56,1.409l-0.7,1.75l-4.33-0.13v-0.06
	c0,0,0.66-4.16-2.67-6.16s-5.67-0.67-5.33-4c0.29-2.939,0.4-4.07,0.11-4.52c0.6,0.55,2.979,2.52,5.72,1.52
	c3.17-1.17,7,0.33,6.83-2.84c-0.16-3.16-1.5-3-2-5.33s-0.83-5.17,3.17-3.5s3.67,3.5,6,2.33c2.33-1.16,2.67-0.33,2.5-2.83
	s-1.33-6.17,1.33-6.5c2.67-0.33,1.67-1,1.67-2.67c0-1.66,1.33-2.33,1.83-2.33s-0.66-5.5,2.5-5c3.17,0.5,6.17,0.08,7-0.71
	c0.84-0.79,1.84-2.29,4.67-1.96c2.83,0.34,7.73-2.83,9.75-1.65c-0.74,1.021-1.07,1.221-0.25,2.15c1.17,1.34,2,0,2,3s-1.16,5,3,4.67
	c4.17-0.33,4.5-0.67,6.5-1.17s2.67-1.5,3.83-0.5c1.17,1,4.17-0.5,5.5-0.66c1.34-0.17-0.16-0.26,1.67,2.37S917.67,496.33,922,499.33z"
       data-engtype-2="Opstina"
       data-id-0="29"
       data-id-1="3"
       data-id-2="16"
       data-iso="BIH"
       data-name-0="Bosnia and Herzegovina"
       data-name-1="Republika Srpska"
       data-name-2="Bijeljina"
       data-nl-name-2=""
       data-type-2="upanija|kanton"
       data-varname-2="Grad Bijeljina"
       id="path28"
       style="fill:none;stroke:#000000;stroke-width:0.86110741;stroke-linejoin:round" />
	   <path
       inkscape:connector-curvature="0"
       d="M901.17,436.83c0.33,2.34-1.34,1.84-3.17,2.67s-1,5.33,0.67,6.17c1.66,0.83,0,0.83-0.84,4.5
	c-0.83,3.66-2,0.66-3.83,0.66s-3.17,0.84-4.5,4.39c-1.33,3.561-2.17,1.28-5.53,0c-3.359-1.27-1.47,0.28-3.3,2.78
	c-1.84,2.5,2.66,1.5,5,3.83c2.33,2.34,0,1.84,2,6.17s0,0,3.16,2.33c3.17,2.34-0.33,2.17,0,4.5c0.22,1.51,1.34,2.47,2.1,2.96
	c-0.62,0.03-1.689,0.28-3.43,0.38c-3,0.16-4.67-0.34-7.67-2.34s-0.66-1.5-4.33-3.33s-1.33-2-4.17-1.58
	c-2.83,0.41-3.83,1.08-7.33-1.75c-3.5-2.84-2.5-1.5-5.35,0.5c-2.86,2-4.15,1.66-6.32-1.52c-2.16-3.19-6.16-2.15-8-0.48
	c-1.83,1.66-6.83,0.66-6.83,0.66l-0.2,0.3l-0.75-0.49l-1.95-1.76l-1.39-2.01l-0.35-0.68l-0.641-1.66l-0.979-1.48l-0.221-0.67
	l-0.31-1.42l-0.25-0.67l-0.38-0.53l-1.25-1.1l-0.65-0.36l-0.85-0.22l-1.41-0.13l-1.979-0.04l-1.49,0.05l-0.97,0.1l-1.7,0.381
	l-0.16-0.721c-0.37-0.52-0.87-1.47-1.5-3.34c-0.62-1.88-1.12,0.24-3.37,0c-2.25-0.26-1-1.26-1.87-2.88
	c-0.88-1.62-2.38-0.25-4.76-0.83c-2.37-0.57-1.24-2.17-1.74-3.17s-1-1.25-0.76-3.88c0.12-1.22,0.45-1.86,0.77-2.39
	c0,0,3.36,3.27,4.49,1.649c1.12-1.63-0.76-1.63,1.74-3.26c2.5-1.62,2.76-1.74,3.63-3.37s2.25-2.37,4.63-2.25
	c2.37,0.12,4,2.97,4.12-0.01c0.12-2.99,0.25-4.74,3.38-4.87c3.12-0.12,5.74-2.12,7.37-0.74c1.63,1.37,3.5,1.62,4.37,1.12
	c0.88-0.5,3.88-1.66,3.76-2.58c-0.13-0.92-2-2.92,0-3.67s2.87-0.87,2.37-3.37s-1.63-4-1-4.76c0.63-0.74-0.22-0.5,1.14-1.37
	c1.36-0.87,3.73-4,2.86-6s-2.87-2.63-1.75-4s2.13-0.75,1.94-2.63c-0.19-1.87-1.061-0.37-0.19-1.87c0.14-0.24,0.3-0.44,0.46-0.6
	v-0.01c0.84-0.87,1.79-0.95,1.17-2.52c-0.76-1.87-4.38-4.12-2.26-4c2.13,0.13,6-0.5,7.13,1.38s0.13,3,4,3.25s3.63-1.51,7.5-0.63
	s4,4.87,5.37,0c1.38-4.87-1.5-4.24,1.38-4.87s3.25-2.63,4.88-3.25c1.33-0.51,2.75,0.24,3.561,0.52c0.18,0.06,0.329,0.1,0.439,0.1
	c0.62,0,1.12,2.13,1.12,4c0,1.88,1.75,3.5,3.25,4.13s2.25,0.63,2,2.63s1.13,3.12,3.13,3.62s3.5,0.5,3.62,1.38
	c0.12,0.87,3.19,2.98,2.37,3.92l-0.01,0.01c-0.551,0.19-1.08,0.32-1.53,0.36c-2,0.16-7.16,1.66-9.33,2.5
	c-2.17,0.83-0.33,2.16,0.83,3.3c1.17,1.15,6.5,8.36,8.84,10.53c2.33,2.17,0.16,1.33-0.5,3c-0.67,1.67,0,0.67,1.66,2.5
	c1.67,1.83,0.17,1.33,0,3.83C900.17,434.33,900.83,434.5,901.17,436.83z"
       data-engtype-2="Opstina"
       data-id-0="29"
       data-id-1="3"
       data-id-2="17"
       data-iso="BIH"
       data-name-0="Bosnia and Herzegovina"
       data-name-1="Republika Srpska"
       data-name-2="Rogatica"
       data-nl-name-2=""
       data-type-2="upanija|kanton"
       data-varname-2="Opština Rogatica"
       id="path30"
       style="fill:none;stroke:#000000;stroke-width:0.86110741;stroke-linejoin:round" />
	   <path
       inkscape:connector-curvature="0"
       d="M893.52,304.74l0.7,0.2c-0.52,0.45-1.79,1.26-3.89,0.89c-2.83-0.5-5.5-1.48-6.83,0.1
	c-1.33,1.57-2.33-3.26-4.33-1.26s-6.17,3.16-7.17,2.5c-1-0.67-2.33-0.46-3.33,0.18c-1,0.65-3,0-3,0s-0.05-0.67-0.21-0.86v-0.01
	c-0.56-3.14-4.21-5.6-6.34-6.23c-2.12-0.63-2.62-1-5.37-5.13c-2.75-4.12-3.13,1.13-3.87,2.91c-0.76,1.79-2.26,1.47-4.63,0
	c-2.37-1.46-1.63-1.91-4.25-0.41c-0.69,0.4-1.17,0.48-1.53,0.36c-0.989-0.33-0.979-2.22-1.72-3.23c-1-1.37-2.37,0.13-5.14-0.63
	c-2.771-0.74-2.73-1-1.99-5.24c0.76-4.26,5.38-2.38,5.38-5.5c0-2.93,1.32-2.35,4.08-3.6c0.18-0.09,0.37-0.18,0.57-0.28
	c3.14-1.62-0.15-1.38-1.4-3s-0.87-1.38-0.63-4.25c0.26-2.87,2.63-3.13,1.88-6.63s-1.75-0.74-5.38-1.62
	c-3.62-0.88-3.37-1.25-5.12-4.25s-3.38-2.37-4.62-4.13c-1.26-1.74-2.13-3.5-2.13-3.5l-0.28-0.18l0.8-1.22l0.54-0.58l0.32-0.46
	l0.54-1.44l0.9-1.34l0.59-1.97l0.84-1.62l0.54-1.19l0.93-1.61l0.74-1.48l1.22-1.95l0.681-0.81l0.3-0.51l0.189-0.66l0.221-1.4
	l0.16-0.66l0.84-1.43l0.189-1.11l-0.01-2.1l-0.37-5.69l0.021-1.24l0.1-0.76l0.23-0.66l0.729-1.1l0.5-1.61l0.28-0.65l1.17-1.95
	l0.68-0.81l0.311-0.5l0.199-0.63l0.53-2.29l0.94-2.67l-0.08-1.58l0.26-0.01c0,0,5,0.25,5.5-5c0.08-0.85,0.04-1.59-0.07-2.23
	l0.11-0.02c4.53-1.75,6.96,1.25,10.91-0.75c3.939-2,2.8,2.25,5.2,1.75c2.39-0.5,5.1-1,5.35,2s1.25,6.25,5.75,4.25
	s4.75,4.75,4.75,4.75l0.27,0.13l-1.09,2.2l0.471,0.92l0.96,1.87l-0.38,2.26l-0.061,0.37l-1.95,2.68l-0.89,2.32l-0.811,1.83
	l-2.279,1.18l-3.141-0.07l-2.119,0.01l-1.631,0.01l-1.93,2.1l0.58,4.92l0.78,4.23l0.649,2.15l0.9,2.96l0.189,0.46l0.15,0.34
	l0.94,2.24l0.6,1.41l0.13,0.32l1.42,3.86l0.66,5.93l-1.08,4.42l-2.899,1.98l-3.46,1.79l-0.921,3.53l0.79,3.16l1.721,2.57l-0.23,2.38
	l0.08,2.45l2.14,2.07l1.23,2.54l0.34,2.86l2,3.41l3.07,2.91l0.24,0.32l2.31,3.2l2.17,2.37l3.99,0.39l3.59-0.19l2.96-0.32l2.1,0.84
	l0.851,0.33l1.14,2.02L893.52,304.74z"
       data-engtype-2="Opstina"
       data-id-0="29"
       data-id-1="3"
       data-id-2="18"
       data-iso="BIH"
       data-name-0="Bosnia and Herzegovina"
       data-name-1="Republika Srpska"
       data-name-2="Zvornik"
       data-nl-name-2=""
       data-type-2="upanija|kanton"
       data-varname-2="Opština Zvornik"
       id="path32"
       style="fill:none;stroke:#000000;stroke-width:0.86110741;stroke-linejoin:round" />
	    <path
       inkscape:connector-curvature="0"
       d="M895.21,481.94c-0.42,0-0.86,0.29-1.38,1.39c-0.4,0.84-0.78,1.42-1.08,1.85c-2.02-1.18-6.92,1.99-9.75,1.65
	c-2.83-0.33-3.83,1.17-4.67,1.96c-0.83,0.79-3.83,1.21-7,0.71c-3.16-0.5-2,5-2.5,5s-1.83,0.67-1.83,2.33c0,1.67,1,2.34-1.67,2.67
	c-2.66,0.33-1.5,4-1.33,6.5s-0.17,1.67-2.5,2.83c-2.33,1.17-2-0.66-6-2.33s-3.67,1.17-3.17,3.5s1.84,2.17,2,5.33
	c0.17,3.17-3.66,1.67-6.83,2.84c-2.74,1-5.12-0.97-5.72-1.52c-0.03-0.03-0.05-0.051-0.07-0.07c-0.01-0.03-0.03-0.05-0.06-0.061
	c-0.011-0.01-0.021-0.02-0.021-0.02c-0.33-0.24,0.19-2.32-0.45-3c-0.25-0.26-0.66-0.32-1.35,0c-2.5,1.17-2.5,4.17-5.66,2.67
	c-3.17-1.5-3.5-3.84-4.17-5.17s-1.83-3.33-3.17-3.33l-0.04-0.22l0.89-0.16l0.641-0.21l0.949-0.55l0.681-0.2l0.79-0.1l2.54-0.11
	l0.79-0.09l0.68-0.2l0.95-0.521l0.31-0.109l0.69-0.141l1.87-0.22l0.689-0.149l0.311-0.11l1.21-0.68l1.34-0.37l0.62-0.261l0.79-0.659
	l0.859-0.61l0.771-0.73l1.39-0.8l1.97-1.33l0.721-0.39l0.39-0.15l0.79-0.189l2.39-0.25l0.7-0.13l0.311-0.11l0.949-0.51l0.641-0.17
	l2.21-0.24l0.689-0.15l0.561-0.279l0.99-0.82l0.39-0.4l0.17-0.29l0.11-0.319l0.12-0.7l-0.04-1.49l-0.2-1.109l-0.26-0.671l-0.2-0.289
	l-1.63-1.54l-0.91-0.65l-1.601-1.51l-0.35-0.55l-0.4-0.91l-0.329-0.561l-0.98-1.05l-0.51-0.78l-1.69-2.279l-0.42-0.42l-0.68-0.54
	l-0.78-0.78l-0.9-0.66l-0.779-0.78l-0.891-0.729l-1.26-1.59l-3.479-3.771l-1.98-1.939l-0.67-0.54l-0.41-0.271l0.2-0.3
	c0,0,5,1,6.83-0.66c1.84-1.67,5.84-2.71,8,0.48c2.17,3.18,3.46,3.52,6.32,1.52c2.85-2,1.85-3.34,5.35-0.5
	c3.5,2.83,4.5,2.16,7.33,1.75c2.84-0.42,0.5-0.25,4.17,1.58s1.33,1.33,4.33,3.33s4.67,2.5,7.67,2.34c1.74-0.1,2.81-0.35,3.43-0.38
	c0.42,0.28,0.74,0.41,0.74,0.41s0.01,0.04,0.021,0.1C893.781,478.81,894.26,481.18,895.21,481.94z"
       data-engtype-2="Opstina"
       data-id-0="29"
       data-id-1="3"
       data-id-2="19"
       data-iso="BIH"
       data-name-0="Bosnia and Herzegovina"
       data-name-1="Republika Srpska"
       data-name-2=""
       data-nl-name-2=""
       data-type-2="upanija|kanton"
       data-varname-2=""
       id="path34"
       style="fill:none;stroke:#000000;stroke-width:0.86110741;stroke-linejoin:round" />
	   <path
       inkscape:connector-curvature="0"
       d="M890.5,359c3,1.17,1,2,0,3.83c-1,1.84-1.67,3.3-0.67,4.9s2.5,0.94-0.33,3.1c-2.83,2.17-3,1-3,3.5
	s1.33,1.84-0.5,4c-1.83,2.17-2.54,0.55-1.83,4.17c0.29,1.46,0.38,2.31,0.39,2.81l-0.39,0.02c-0.71-0.8-1.17-1.83-3.93-2.33
	s-3.74-1.5-4.74-3.67c-1-2.16-3.17-2.33-5.17-5.33s-2-1.67-3.83-5.17s-2.67-1.83-5.85-3.83c-3.19-2-4.82-0.33-8.15-1.5
	s-2.83-0.5-2.5-2s-0.17-1.5-0.17-2.83c0-1.34-3.16-0.67-4.83-2.34c-0.88-0.88-1.58-2.04-2.04-2.94c-0.41-0.8-0.63-1.39-0.63-1.39
	s0-1,0.17-2.17c0.17-1.16-0.17-0.66-1.5-3.33s-1.5-5-3.22-7.67c-1.71-2.66,0.72-5.66,0.05-8.83c-0.66-3.17,5.67-1.67,6.34-3.5
	c0.66-1.83-0.17-1.67-1-2.33c-0.84-0.67,0.16-1.67,2-4c1.83-2.34,2-1.5,6.54-2.17s3.62-0.5,6.79-2s2.67-0.5,5-1
	c0.26-0.06,0.48-0.11,0.65-0.16c0,0-0.271,1.49,0,3.33c0.27,1.83,1.18,2.91,3.35,3.16s3.58-1.58,4.67,1
	c1.08,2.59,2.08,2.75,4.66,4.42c2.59,1.67,2.17,1.25,3.25,3.25c1.09,2,5.25,5.75,6.42,5.67c-0.33,1.16-1,3.66,0,4.33
	s1.5,0.83,1.33,3.17c-0.16,2.33-1.5,1.66,0,3.33s1,2.5-3,2s-9.5-1.67-6.66,2c2.83,3.67-0.67,4.67,1.33,7.17S887.5,357.83,890.5,359z"
       data-engtype-2="Opstina"
       data-id-0="29"
       data-id-1="3"
       data-id-2="20"
       data-iso="BIH"
       data-name-0="Bosnia and Herzegovina"
       data-name-1="Republika Srpska"
       data-name-2=""
       data-nl-name-2=""
       data-type-2="upanija|kanton"
       data-varname-2=""
       id="path36"
       style="fill:none;stroke:#000000;stroke-width:0.86110741;stroke-linejoin:round" />
	   <path
       inkscape:connector-curvature="0"
       d="M884.84,597.35l0.17,10.71l-6.16-0.279l-4.02-0.391l-0.11,3.11l-0.56,2.83l-0.01,0.04l-3.17,2.76
	l-3.591-2.87l-2.62-2.88l-0.329-0.6l-1.94-3.431l-3.44-2.409l-3.76-1.48l-0.64-2.36l-0.021-0.05l0.011-0.02l0.939-3.21l0.271-2.15
	l-1.21-2.03l-3.23-2.22l-4.04-3.74l-4.92-4.85l-2.88,0.62l-2.82,0.71l-3.41,0.37l-4.22,0.29l-3.77,1.08l-4.13,1.72l4.109,6.32
	l-3.5,1.92l-4.84,2.08l-4.4,1.949l-5.899,2.15l-4,1.97l-3.76,3.01l-3.29,2.681l-0.471,0.21L795,608.5c-1.25-2.25-7-0.5-11-2.5
	s-5.25-5-8.25-10.75s-6.25,2-11-2s-7-3.75-7.75-5.41s1-3.84-5.75-1.59c-2.15,0.64-8.25-4.25-6.25-5.82c2-1.56,3.25-4.18,1.5-5.68
	s1.25-4.5,3.48-6.25c2.239-1.75-2.23-3.25-3.48-6.25s-1.75-5.75,0-7.5s6.25-0.25,0-5.25s-3.25,0-1.5-7.5s3.5-6.25,4.5-7.5
	s-3.5-1.75-3-4s2.5-1,3.75-1.75s-2.25-1-2.5-6s3.75-4,6.5-5.75c2.74-1.75-3-4.25-3-7.5s5.99-4.77,5.99-4.77l0.649,0.38l1.61,0.85
	l0.88,0.12l0.5,0.14l2.92,1.15l1.931,0.88l2.329,0.68l0.32,0.141l0.99,0.6l0.34,0.13l1.17,0.24l2.57,0.24l0.81,0.14l0.71,0.23
	l0.99,0.59l0.31,0.13l0.7,0.18l1.9,0.33l0.689,0.19l0.311,0.13l0.979,0.59l0.71,0.25l0.811,0.14l1.32,0.11l9.279,0.22l1.391,0.07
	l1.35,0.15l0.87,0.21l1.95,0.81l2.31,0.69l0.32,0.149l0.97,0.62l0.62,0.24l1.25,0.22l1.35,0.08l0.92-0.02l0.9-0.08l0.87-0.21
	l0.39-0.16l0.721-0.4l1.939-1.35l1.4-0.8l0.85-0.711l2.42-1.27l1.19-0.56l1.12-0.771l0.62-0.25l1.34-0.4l0.529-0.289l0.74-0.561
	l0.681-0.33l1.199-0.38l1.74-0.43l1.87-0.33l0.04,0.22c1.34,0,2.5,2,3.17,3.33s1,3.67,4.17,5.17c3.16,1.5,3.16-1.5,5.66-2.67
	c0.689-0.32,1.1-0.26,1.35,0c0.641,0.68,0.12,2.76,0.45,3c0,0,0.01,0.01,0.021,0.02c0.02,0.021,0.04,0.04,0.06,0.061
	c0.021,0.02,0.04,0.04,0.07,0.07c0.29,0.449,0.18,1.58-0.11,4.52c-0.34,3.33,2,2,5.33,4s2.67,6.16,2.67,6.16v0.06l-0.57-0.02
	l-4.22,1.78l-0.08,0.06l-3.06,2.57l-1.37,3.279l1.05,2.561l2.39-2.57l1.91-1.609l1.58-0.23l1.86-0.27l0.03,0.75l0.109,3.329
	l1.891,1.45l-0.761,3.62l0.561,1.45l0.76,1.95l2.76,3.56l0.28,0.141l4.55,2.34l6.65,3.35l1.09,5.21l1.99,3.32l4.88,5.06l2.3,6.311
	l-0.02,5.479l2.989,6.09l4.351,5.42L884.84,597.35z"
       data-engtype-2="Opstina"
       data-id-0="29"
       data-id-1="3"
       data-id-2="21"
       data-iso="BIH"
       data-name-0="Bosnia and Herzegovina"
       data-name-1="Republika Srpska"
       data-name-2=""
       data-nl-name-2="Foca"
       data-type-2="upanija|kanton"
       data-varname-2="Opstina Foca"
       id="path38"
       style="fill:none;stroke:#000000;stroke-width:0.86110741;stroke-linejoin:round" />
	   <path
       inkscape:connector-curvature="0"
       d="M884.56,385.31c0.04,0.75-0.119,0.71-0.119,0.71c-0.811-0.28-2.23-1.03-3.561-0.52
	c-1.63,0.62-2,2.62-4.88,3.25s0,0-1.38,4.87c-1.37,4.87-1.5,0.88-5.37,0s-3.63,0.88-7.5,0.63s-2.87-1.37-4-3.25s-5-1.25-7.13-1.38
	c-2.12-0.12,1.5,2.13,2.26,4c0.62,1.57-0.33,1.65-1.17,2.52c-0.229-0.58-0.479,0.6-3.96-0.18c-3.5-0.79-2.5-0.96-4.5-0.21
	s-2.75-0.5-5.5-4.25s-4,1-9.25,0s-2.25-3-5.25-4s-4.5,1.5-5.25,1.75s-2.75-0.75-3-2.25s-3.25,0.75-6.61,0
	c-3.35-0.75-2.64-5.5-2.14-8.5s-0.5-3.75-5.5-4.75s-4,0.75-7-2.25s-5.5-2.25-11-5.5s-2.75-2-2.25-4.25s-1.75-1.5-4.25-3.25
	s-2.25-2.5-2.5-5.75c-0.19-2.48-0.82-3.65-1.1-4.06l0.35-0.17l0.68-0.47l1-1.09l2.17-0.63l3.08-0.35l0.78-0.16l0.59-0.27l0.94-0.59
	l3.31-1.66l0.47-0.33l1.62-1.45l0.99-1.63l0.29-0.67l0.1-0.58c1,0.07,4.54,0.35,5.601,0.98c1.26,0.76,0.88,1.5,3.76,1.76
	c2.87,0.24,1.12-0.88,3.87,2.37s1.91,2.87,6.14,3.75c4.23,0.88,4.11-0.75,7.49,1c3.37,1.75,2.87,2.62,5.74,1.75
	c2.88-0.87,1.63-5,3.63-4.5s3.63,2.5,5.25,3.63c1.62,1.12,2.25,3.5,4.62,3.62c2.38,0.12,4.43,2.16,7.84,0.39
	c0.46,0.9,1.16,2.06,2.04,2.94c1.67,1.67,4.83,1,4.83,2.34c0,1.33,0.5,1.33,0.17,2.83s-0.83,0.83,2.5,2s4.96-0.5,8.15,1.5
	c3.18,2,4.02,0.33,5.85,3.83s1.83,2.17,3.83,5.17s4.17,3.17,5.17,5.33c1,2.17,1.98,3.17,4.74,3.67s3.22,1.53,3.93,2.33
	L884.56,385.31z"
       data-engtype-2="Opstina"
       data-id-0="29"
       data-id-1="3"
       data-id-2="22"
       data-iso="BIH"
       data-name-0="Bosnia and Herzegovina"
       data-name-1="Republika Srpska"
       data-name-2=""
       data-nl-name-2=""
       data-type-2="upanija|kanton"
       data-varname-2=""
       id="path40"
       style="fill:none;stroke:#000000;stroke-width:0.86110741;stroke-linejoin:round" />
	   <path
       inkscape:connector-curvature="0"
       d="M865.46,306.48c-0.14-0.14-0.33,0.05-0.63,1.16c-0.66,2.53,0.34,3.69,0,5.19c-0.29,1.33,0.72,1.61-0.68,2.01
	c-0.17,0.05-0.391,0.1-0.65,0.16c-2.33,0.5-1.83-0.5-5,1s-2.25,1.33-6.79,2s-4.71-0.17-6.54,2.17c-1.84,2.33-2.84,3.33-2,4
	c0.83,0.66,1.66,0.5,1,2.33c-0.67,1.83-7,0.33-6.34,3.5c0.67,3.17-1.76,6.17-0.05,8.83c1.72,2.67,1.89,5,3.22,7.67
	s1.67,2.17,1.5,3.33c-0.17,1.17-0.17,2.17-0.17,2.17s0.22,0.59,0.63,1.39c-3.41,1.77-5.46-0.27-7.84-0.39
	c-2.37-0.12-3-2.5-4.62-3.62c-1.62-1.13-3.25-3.13-5.25-3.63s-0.75,3.63-3.63,4.5c-2.87,0.87-2.37,0-5.74-1.75
	c-3.38-1.75-3.26-0.12-7.49-1c-4.229-0.88-3.39-0.5-6.14-3.75s-1-2.13-3.87-2.37c-2.88-0.26-2.5-1-3.76-1.76
	c-1.061-0.63-4.601-0.91-5.601-0.98l0.021-0.15l-0.09-1.13l-0.23-0.73l-0.439-0.84l1.55-1.36l-0.44-0.86l-0.27-0.78l-0.63-3.73
	l-0.021-2.57l-0.21-1.93l0.07-2.41l-0.021-0.35c0.391,0.25,2.591,1.7,4.07,1.7c1.62,0,4.37-0.88,5.24,0c0.88,0.88,0,1.62,1.5,1.5
	s-0.37-1.38,4.13-2.12c4.5-0.76,2.25-1.5,2.75-2s2.5-3.76,3.62-3c1.13,0.74,6.38,2.87,6.76,1.24c0.37-1.62,0.62-5.5,2.12-6
	s0.38-7.87,1.25-8c0.87-0.12,0.63,0.61,1.87,1.37c1.26,0.76,5.88,0.01,7.63-0.61c1.75-0.63,2.5,0.34,4.13-0.77
	c1.62-1.11,2.561-0.99,3.78-2.23c1.22-1.26,2.52-1.04,2.31-4.9c0.36,0.12,0.84,0.04,1.53-0.36c2.62-1.5,1.88-1.05,4.25,0.41
	c2.37,1.47,3.87,1.79,4.63,0c0.74-1.78,1.12-7.03,3.87-2.91c2.75,4.13,3.25,4.5,5.37,5.13
	C861.25,300.88,864.901,303.34,865.46,306.48z"
       data-engtype-2="Opstina"
       data-id-0="29"
       data-id-1="3"
       data-id-2="23"
       data-iso="BIH"
       data-name-0="Bosnia and Herzegovina"
       data-name-1="Republika Srpska"
       data-name-2=""
       data-nl-name-2=""
       data-type-2="upanija|kanton"
       data-varname-2=""
       id="path42"
       style="fill:none;stroke:#000000;stroke-width:0.86110741;stroke-linejoin:round" />
	   <path
       inkscape:connector-curvature="0"
       d="M850.25,179c6-3,6,3.75,4,4s-1.75,4-5.25,4.01c-3.5,0.01-1,3.74-4.5,5.99
	c-2.93,1.88-0.6,2.72-0.07,6.02c0.11,0.64,0.15,1.38,0.07,2.23c-0.5,5.25-5.5,5-5.5,5l-0.26,0.01l-0.05-0.92l-0.311-1.45l-0.49-0.81
	l-1.14-1.17l-2-1.6l-0.55-0.33l-2.41-1.26l-3.36-1.42l-1.42-0.31l-1.939-0.14l-1.45,0.04l-1.38,0.22l-2.851,1.16l-0.71,0.37
	l-1.02,0.72l-0.99,0.84l-0.17-0.2c-2-3.75-10-2.25-5.5-8.25s2.5-5.25,0-7.25s-3.5,1.5-8.31,0c-4.811-1.5-5.69-3.5-1.44-7
	s1.75-3.5-0.5-4.15c-2.26-0.65,0-4.35,0-4.35s-0.25-3.75,2.75-6.25s2.25-3.5,1.25-5.75c-0.2-0.46-0.35-0.78-0.46-1.02
	c1.8-1.27,2.96-0.98,6.96-3.48s4.5,3.25,5.25,5.5s0.75,1.25,4.25,3s-1.25,3,0,5.37c1.25,2.38,2.75,0.88,4,4.13
	c5-3.75,7.75-2.25,9.25-3.86c1.5-1.61,1,4.61,3.75,6.71s5.75-0.85,2.75,6.83C846,176.11,844.25,182,850.25,179z"
       data-engtype-2="Opstina"
       data-id-0="29"
       data-id-1="3"
       data-id-2="24"
       data-iso="BIH"
       data-name-0="Bosnia and Herzegovina"
       data-name-1="Republika Srpska"
       data-name-2=""
       data-nl-name-2="Ugljevik"
       data-type-2="upanija|kanton"
       data-varname-2="Opstina Ugljevik"
       id="path44"
       style="fill:none;stroke:#000000;stroke-width:0.86110741;stroke-linejoin:round" />
	   <path
       inkscape:connector-curvature="0"
       d="M851.71,396.14v0.01c-0.16,0.16-0.32,0.36-0.46,0.6c-0.87,1.5,0,0,0.19,1.87
	c0.189,1.88-0.82,1.26-1.94,2.63s0.88,2,1.75,4s-1.5,5.13-2.86,6c-1.359,0.87-0.51,0.63-1.14,1.37c-0.63,0.76,0.5,2.26,1,4.76
	s-0.37,2.62-2.37,3.37s-0.13,2.75,0,3.67c0.12,0.92-2.88,2.08-3.76,2.58c-0.87,0.5-2.74,0.25-4.37-1.12
	c-1.63-1.38-4.25,0.62-7.37,0.74c-3.13,0.13-3.26,1.88-3.38,4.87c-0.12,2.979-1.75,0.13-4.12,0.01c-2.38-0.12-3.76,0.62-4.63,2.25
	s-1.13,1.75-3.63,3.37c-2.5,1.63-0.62,1.63-1.74,3.26c-1.13,1.62-4.49-1.649-4.49-1.649c0.37-0.61,0.73-1.04,0.73-1.98
	c0-1.75-1.12-1.13-3.5-1.87c-2.37-0.76-3.74,1.87-5.37,0.74c-1.63-1.12-3,0.38-7.75-2.37s-2.38-2-5.5-5.25s-2.12-1.75-3.75-3.15
	c-1.63-1.39-7.5-0.229-8.63-1.1c-1.12-0.87,0.38-1.13-1.24-2.75c-1.63-1.62-9.63,1.12-10.88,0s-0.75-1.88,0.62-4
	c1.38-2.12,0.88-1.5,0.13-4.5s0.5-1.62,1-3.62s-0.5-3.26-1.37-5.63c-0.88-2.37-1.63-1.75-2.76-4.63c-1.12-2.87-0.74-2.74-1.62-4.5
	c-0.88-1.74-2.62,1.5-2.38,2.99c0.26,1.48-1,1.64-3.37,1.14s-1.13,2.25-1.87,3.63c-0.76,1.37-0.26,2.24-2.26,3.62
	s-3.37,0.62-5.62,0.88c-1.47,0.16-2.2,0.16-3.12-0.42c-0.479-0.3-1.02-0.77-1.76-1.46c-2.12-2-2.87,1.5-4.87,2.38
	c-2,0.87-2.75,2.62-4.5-0.76c-1.75-3.37,0.63-2.5-1.13-3.74c-1.74-1.26-1-1.38-1.37-3.88c-0.36-2.41-3.4-0.99-3.62-0.89l-0.149-0.15
	l0.239-1.16l0.34-0.79l1.44-1.48l0.84-0.61l0.69-0.75l0.75-0.7l0.16-0.25l0.42-1.16l0.279-0.54l0.75-0.7l0.681-0.76l0.83-0.62
	l0.699-0.74l0.82-0.68l0.89-1.22l1.051-1.13l4.02-3.57l1.16-1.11l0.5-0.57l0.85-1.25l0.721-0.77l0.26-0.54l0.3-0.88l0.28-0.53
	l0.729-0.7l0.67-0.76l0.811-0.69l0.82-1.15l0.609-0.71l2.37-2.38h0.51l0.54-0.17l1.19-0.84l0.399-0.38l0.7-1l1.98-2.35l0.97-1.81
	l1.24-1.94l0.37-0.41l0.6-0.51l0.69-0.76l0.81-0.68l0.9-1.15l0.52-0.49l0.59-0.42l1.03-0.6l0.86-0.71l1.42-0.78l2.31-1.52l1.11-0.47
	l1.51-0.36l0.66-0.24l1.17-0.75l3.11-1.53c0.279,0.41,0.909,1.58,1.1,4.06c0.25,3.25,0,4,2.5,5.75s4.75,1,4.25,3.25
	s-3.25,1,2.25,4.25s8,2.5,11,5.5s2,1.25,7,2.25s6,1.75,5.5,4.75s-1.21,7.75,2.14,8.5c3.36,0.75,6.36-1.5,6.61,0s2.25,2.5,3,2.25
	s2.25-2.75,5.25-1.75s0,3,5.25,4s6.5-3.75,9.25,0s3.5,5,5.5,4.25s1-0.58,4.5,0.21C851.231,396.74,851.481,395.56,851.71,396.14z"
       data-engtype-2="Opstina"
       data-id-0="29"
       data-id-1="3"
       data-id-2="25"
       data-iso="BIH"
       data-name-0="Bosnia and Herzegovina"
       data-name-1="Republika Srpska"
       data-name-2=""
       data-nl-name-2="Sokolac"
       data-type-2="upanija|kanton"
       data-varname-2="Opstina Sokolac"
       id="path46"
       style="fill:none;stroke:#000000;stroke-width:0.86110741;stroke-linejoin:round" />
	   <path
       inkscape:connector-curvature="0"
       d="M851.71,396.14v0.01c-0.16,0.16-0.32,0.36-0.46,0.6c-0.87,1.5,0,0,0.19,1.87
	c0.189,1.88-0.82,1.26-1.94,2.63s0.88,2,1.75,4s-1.5,5.13-2.86,6c-1.359,0.87-0.51,0.63-1.14,1.37c-0.63,0.76,0.5,2.26,1,4.76
	s-0.37,2.62-2.37,3.37s-0.13,2.75,0,3.67c0.12,0.92-2.88,2.08-3.76,2.58c-0.87,0.5-2.74,0.25-4.37-1.12
	c-1.63-1.38-4.25,0.62-7.37,0.74c-3.13,0.13-3.26,1.88-3.38,4.87c-0.12,2.979-1.75,0.13-4.12,0.01c-2.38-0.12-3.76,0.62-4.63,2.25
	s-1.13,1.75-3.63,3.37c-2.5,1.63-0.62,1.63-1.74,3.26c-1.13,1.62-4.49-1.649-4.49-1.649c0.37-0.61,0.73-1.04,0.73-1.98
	c0-1.75-1.12-1.13-3.5-1.87c-2.37-0.76-3.74,1.87-5.37,0.74c-1.63-1.12-3,0.38-7.75-2.37s-2.38-2-5.5-5.25s-2.12-1.75-3.75-3.15
	c-1.63-1.39-7.5-0.229-8.63-1.1c-1.12-0.87,0.38-1.13-1.24-2.75c-1.63-1.62-9.63,1.12-10.88,0s-0.75-1.88,0.62-4
	c1.38-2.12,0.88-1.5,0.13-4.5s0.5-1.62,1-3.62s-0.5-3.26-1.37-5.63c-0.88-2.37-1.63-1.75-2.76-4.63c-1.12-2.87-0.74-2.74-1.62-4.5
	c-0.88-1.74-2.62,1.5-2.38,2.99c0.26,1.48-1,1.64-3.37,1.14s-1.13,2.25-1.87,3.63c-0.76,1.37-0.26,2.24-2.26,3.62
	s-3.37,0.62-5.62,0.88c-1.47,0.16-2.2,0.16-3.12-0.42c-0.479-0.3-1.02-0.77-1.76-1.46c-2.12-2-2.87,1.5-4.87,2.38
	c-2,0.87-2.75,2.62-4.5-0.76c-1.75-3.37,0.63-2.5-1.13-3.74c-1.74-1.26-1-1.38-1.37-3.88c-0.36-2.41-3.4-0.99-3.62-0.89l-0.149-0.15
	l0.239-1.16l0.34-0.79l1.44-1.48l0.84-0.61l0.69-0.75l0.75-0.7l0.16-0.25l0.42-1.16l0.279-0.54l0.75-0.7l0.681-0.76l0.83-0.62
	l0.699-0.74l0.82-0.68l0.89-1.22l1.051-1.13l4.02-3.57l1.16-1.11l0.5-0.57l0.85-1.25l0.721-0.77l0.26-0.54l0.3-0.88l0.28-0.53
	l0.729-0.7l0.67-0.76l0.811-0.69l0.82-1.15l0.609-0.71l2.37-2.38h0.51l0.54-0.17l1.19-0.84l0.399-0.38l0.7-1l1.98-2.35l0.97-1.81
	l1.24-1.94l0.37-0.41l0.6-0.51l0.69-0.76l0.81-0.68l0.9-1.15l0.52-0.49l0.59-0.42l1.03-0.6l0.86-0.71l1.42-0.78l2.31-1.52l1.11-0.47
	l1.51-0.36l0.66-0.24l1.17-0.75l3.11-1.53c0.279,0.41,0.909,1.58,1.1,4.06c0.25,3.25,0,4,2.5,5.75s4.75,1,4.25,3.25
	s-3.25,1,2.25,4.25s8,2.5,11,5.5s2,1.25,7,2.25s6,1.75,5.5,4.75s-1.21,7.75,2.14,8.5c3.36,0.75,6.36-1.5,6.61,0s2.25,2.5,3,2.25
	s2.25-2.75,5.25-1.75s0,3,5.25,4s6.5-3.75,9.25,0s3.5,5,5.5,4.25s1-0.58,4.5,0.21C851.231,396.74,851.481,395.56,851.71,396.14z"
       data-engtype-2="Opstina"
       data-id-0="29"
       data-id-1="3"
       data-id-2="26"
       data-iso="BIH"
       data-name-0="Bosnia and Herzegovina"
       data-name-1="Republika Srpska"
       data-name-2=""
       data-nl-name-2="Sokolac"
       data-type-2="upanija|kanton"
       data-varname-2="Opstina Sokolac"
       id="path48"
       style="fill:none;stroke:#000000;stroke-width:0.86110741;stroke-linejoin:round" />
	   <path
       inkscape:connector-curvature="0"
       d="M839.25,276.5c1.25,1.62,4.54,1.38,1.4,3c-0.2,0.1-0.391,0.19-0.57,0.28l-0.2-0.47
	c-0.78-0.2-12,0.31-14.13-0.93c-2.13-1.26-1.87-2.26-3.75-3.13s-2.62,6.13-4,7.63s-2.5,3.12-5.5,1.34c-3-1.77-3.38-0.1-7.62-0.1
	c-4.26,0-3.88,0.76-4.76-1.87c-0.87-2.63-2.12-3.63-4.37-5.13s-3.37-0.12-6.25-1.87c-1.9-1.16-2.27-2.3-2.3-2.96l0.189-0.05
	l1.221-2.5l1.89-2.87l0.99-0.92l0.689-0.74l1.69-1.23l0.689-0.24l2.021-0.26l0.76-0.14l1.601-0.76l1.189-0.19l2.75-0.01l8.12,0.3
	l1.34-0.02l1.2-0.2l0.57-0.3l1.43-1.1l0.66-0.76l0.55-0.52l0.32-0.46l0.41-1.15l0.279-0.53l1.45-1.49l0.93-0.69l0.341-0.33
	l0.96-1.22l1.449-1.85l0.08-0.12l0.28,0.18c0,0,0.87,1.76,2.13,3.5c1.24,1.76,2.87,1.13,4.62,4.13s1.5,3.37,5.12,4.25
	c3.63,0.88,4.63-1.88,5.38,1.62s-1.62,3.76-1.88,6.63C838.38,275.12,838,274.88,839.25,276.5z"
       data-engtype-2="Opstina"
       data-id-0="29"
       data-id-1="3"
       data-id-2="26"
       data-iso="BIH"
       data-name-0="Bosnia and Herzegovina"
       data-name-1="Republika Srpska"
       data-name-2=""
       data-nl-name-2="Sokolac"
       data-type-2="upanija|kanton"
       data-varname-2="Opstina Sokolac"
       id="path50"
       style="fill:none;stroke:#000000;stroke-width:0.86110741;stroke-linejoin:round" />
	   <path
       inkscape:connector-curvature="0"
       d="M839.88,279.31l0.2,0.47c-2.76,1.25-4.08,0.67-4.08,3.6c0,3.12-4.62,1.24-5.38,5.5
	c-0.74,4.24-0.78,4.5,1.99,5.24c2.77,0.76,4.14-0.74,5.14,0.63c0.74,1.01,0.73,2.9,1.72,3.23c0.21,3.86-1.09,3.64-2.31,4.9
	c-1.22,1.24-2.16,1.12-3.78,2.23c-1.63,1.11-2.38,0.14-4.13,0.77c-1.75,0.62-6.37,1.37-7.63,0.61c-1.24-0.76-1-1.49-1.87-1.37
	c-0.87,0.13,0.25,7.5-1.25,8s-1.75,4.38-2.12,6c-0.38,1.63-5.63-0.5-6.76-1.24c-1.12-0.76-3.12,2.5-3.62,3s1.75,1.24-2.75,2
	c-4.5,0.74-2.63,2-4.13,2.12s-0.62-0.62-1.5-1.5c-0.87-0.88-3.62,0-5.24,0c-1.479,0-3.68-1.45-4.07-1.7l-0.14-3.2l-1.21-1.43
	l-0.93-1.43l-0.79-0.8l-0.28-0.51l-0.41-1.17l-0.27-0.62l-0.69-0.93l-1.5-1.44l-2.3-1.9l-1.33-0.98l-1.53-0.91l-0.26-0.19
	l-0.43-0.48l-1.11-1.55l-0.34-0.57l-0.24-0.63l-0.37-1.3l-0.229-0.64l-0.8-1.41l-0.271-0.62l-0.18-0.66l-0.36-2.01l-0.18-0.66
	l-0.271-0.61l-0.649-1.12l-0.271-0.61l-0.279-1.36l-0.301-3.22l-0.239-1.02l-0.271-0.58l-0.68-0.86l-0.16-0.28l-0.22-0.65
	l-0.19-1.07l-0.05-1.5l0.1-1.17l0.271-1.55l1.58-0.4h2.41l0.75-0.09l0.659-0.22l1.69-1.22l0.7-0.73l0.8-0.65l0.7-0.73l1.649-1.27
	l0.601-0.27l1.609-0.52l0.94-0.57l0.56-0.23l3.601-0.97c0.03,0.66,0.399,1.8,2.3,2.96c2.88,1.75,4,0.37,6.25,1.87s3.5,2.5,4.37,5.13
	c0.88,2.63,0.5,1.87,4.76,1.87c4.24,0,4.62-1.67,7.62,0.1c3,1.78,4.12,0.16,5.5-1.34s2.12-8.5,4-7.63s1.62,1.87,3.75,3.13
	C827.88,279.62,839.1,279.11,839.88,279.31z"
       data-engtype-2="Opstina"
       data-id-0="29"
       data-id-1="3"
       data-id-2="27"
       data-iso="BIH"
       data-name-0="Bosnia and Herzegovina"
       data-name-1="Republika Srpska"
       data-name-2=""
       data-nl-name-2="Sokolac"
       data-type-2="upanija|kanton"
       data-varname-2="Opstina Sokolac"
       id="path52"
       style="fill:none;stroke:#000000;stroke-width:0.86110741;stroke-linejoin:round" />
	   <path
       inkscape:connector-curvature="0"
       d="M821.62,455.22l0.16,0.721l-1.11,0.25l-3.18,0.31l-1.9,0.08l-11.41-0.311l-2.42,0.04l-1.37,0.221
	l-1.92,0.64l-0.84,0.15l-1.33,0.08l-2.26,0.02l-1.31,0.12l-0.421,0.1l-0.76,0.28l-1.56,0.811l-0.46,0.39l-0.311,0.56l-0.149,0.63
	l-0.21,1.58l-0.19,0.551l-0.57,0.829l-0.119,0.271l-0.15,0.62l-0.29,2.43l-0.42,1l-0.851,1.42l-0.34,0.45l-0.83,0.69l-0.71,0.729
	l-0.84,0.61l-0.71,0.74l-0.82,0.68l-1.46,2.1l-0.63,1.04l-0.85,1.021l-0.23,0.56l-0.279,1.94l-0.29,0.859l-0.75,1.07l-0.431,1.17
	l-0.31,0.55l-1.021,0.94l-0.739,0.88l-1.8-0.17l-1.2-0.2l-0.69-0.229l-1.01-0.57l-1.1-0.311l-2.94-0.34l-0.79-0.14l-0.7-0.24
	l-1-0.57l-0.35-0.14l-0.8-0.189l-1.801-0.2l-3.83-0.24l-0.55-0.26l-0.89-0.58l-0.69-0.24l-0.52-0.09l0.13-0.71
	c-3-5.12-8.12-7-11.78-11.12c-3.649-4.12-4.22-3.12-10.47-4.88c-6.25-1.74-8.37-3.24-11.37-4.68c-0.45-0.221-0.939-0.381-1.46-0.5
	v-0.011c-0.46-0.939-0.8-4.439-1.3-7.31c-0.05-0.29-0.101-0.55-0.17-0.78h0.01c1.12-0.49,3.21-0.84,3.04-3.68s2,1.84,2.67,0
	c0.66-1.84,1.5-2.49,3.5-3.83c2-1.33,0-1.33,0-4.5c0-3.16,0.5-3.5,4.83-5.83s0.33-2.17,1.24-4.83c0.91-2.67,0.43-2.17,1.76-5.34
	c1.33-3.16-0.83-2.5-1.67-5.16c-0.83-2.67,4.34-4.34,4.34-7.34s2.21-3.87,2.21-3.87c0.92,0.58,1.65,0.58,3.12,0.42
	c2.25-0.26,3.62,0.5,5.62-0.88s1.5-2.25,2.26-3.62c0.74-1.38-0.5-4.13,1.87-3.63s3.63,0.34,3.37-1.14c-0.24-1.49,1.5-4.73,2.38-2.99
	c0.88,1.76,0.5,1.63,1.62,4.5c1.13,2.88,1.88,2.26,2.76,4.63c0.87,2.37,1.87,3.63,1.37,5.63s-1.75,0.62-1,3.62s1.25,2.38-0.13,4.5
	c-1.37,2.12-1.87,2.88-0.62,4s9.25-1.62,10.88,0c1.62,1.62,0.12,1.88,1.24,2.75c1.13,0.87,7-0.29,8.63,1.1
	c1.63,1.4,0.63-0.1,3.75,3.15s0.75,2.5,5.5,5.25s6.12,1.25,7.75,2.37c1.63,1.13,3-1.5,5.37-0.74c2.38,0.74,3.5,0.12,3.5,1.87
	c0,0.94-0.36,1.37-0.73,1.98c-0.319,0.529-0.649,1.17-0.77,2.39c-0.24,2.63,0.26,2.88,0.76,3.88s-0.63,2.6,1.74,3.17
	c2.38,0.58,3.88-0.79,4.76,0.83c0.87,1.62-0.38,2.62,1.87,2.88c2.25,0.24,2.75-1.88,3.37,0
	C820.75,453.75,821.25,454.7,821.62,455.22z"
       data-engtype-2="Opstina"
       data-id-0="29"
       data-id-1="3"
       data-id-2="28"
       data-iso="BIH"
       data-name-0="Bosnia and Herzegovina"
       data-name-1="Republika Srpska"
       data-name-2=""
       data-nl-name-2="Pale"
       data-type-2="upanija|kanton"
       data-varname-2="Opstina Pale"
       id="path54"
       style="fill:none;stroke:#000000;stroke-width:0.86110741;stroke-linejoin:round" />
	   <path
       inkscape:connector-curvature="0"
       d="M816.5,200l0.17,0.2l-0.229,0.2l-0.58,2.48l-0.23,0.68l-1.33,2.3l-0.7,0.8l-0.319,0.48l-0.61,1.96
	l-0.75,1.65l-0.3,1.43l-0.43,0.84L810.3,214l-1.87,2.94l-0.87,1.01l-0.26,0.55l-0.399,1.18l-0.75,1.05l-0.591,1.36l-0.39,0.5
	l-0.62,0.34l-0.729,0.18l-2.19,0.4l-1.5,0.15l-3.31-1.5l-1.4-1.72l-1.68-1.21l-0.561-0.52l-1.04-1.21l-0.89-0.74l-0.78-0.8
	l-0.89-0.68l-0.79-0.77l-1.771-1.35l-0.539-0.25l-1.53-0.51l-1.24-0.76l-0.33-0.14l-2.34-0.65l-1.94-0.81l-2.34-0.65l-1.64-0.91
	l-1.92-0.53l-0.79-0.29l-2.36-1.19l-1.2-0.85l-0.649-0.29l-1.38-0.45l-1.28-0.74l-0.32-0.13l-0.7-0.18l-1.899-0.29l-0.71-0.19
	l-0.57-0.32l-1.32-1.08l-0.38-0.4l-0.43-0.66l0.021-1.73l-0.141-3.86l0.021-1.22l0.21-1.08l0.14-0.31l0.58-0.82l0.24-0.62l0.17-1.09
	l0.14-2.76l-0.399-1.95l-0.33-1.12l-0.351-0.7l-0.96-1.61l-0.49-1.44l-0.02-0.55l0.09-0.52l0.17-0.52l0.271-0.48l1.34-1.23
	l0.47-0.33l1.9-0.87l0.75-0.29l0.819-0.19l2.11-0.32l3.46-0.75l1.41-0.13l3.26-0.11l0.811-0.15l0.359-0.13l0.931-0.58l1.42-0.67
	l1.779-1.03l0.471-0.39l0.199-0.31l0.23-0.7l0.1-1.57l-0.199-2.89l-0.21-1.18l-0.261-0.71l-0.18-0.32l-0.771-0.85l-0.909-1.29
	l-1.32-1.68l-0.71-0.67l-2.32-1.28l-2.319-0.92l-2.021-0.91l1.11-1.34l0.87-0.89l2.239-1.61l0.62-0.26l1.311-0.38l1.199-0.66
	l0.341-0.13l1.22-0.19l1.84-0.02l7.76,0.22l3.73-0.11l3.609,0.37l0.83,0.16l0.75,0.26l1.32,0.73l2.311,0.77l2.479,1.21
	c1.14,1.1,1.19,0.95,1.58,1.79c0.11,0.24,0.26,0.56,0.46,1.02c1,2.25,1.75,3.25-1.25,5.75s-2.75,6.25-2.75,6.25s-2.26,3.7,0,4.35
	c2.25,0.65,4.75,0.65,0.5,4.15s-3.37,5.5,1.44,7c4.81,1.5,5.81-2,8.31,0s4.5,1.25,0,7.25S814.5,196.25,816.5,200z"
       data-engtype-2="Opstina"
       data-id-0="29"
       data-id-1="3"
       data-id-2="29"
       data-iso="BIH"
       data-name-0="Bosnia and Herzegovina"
       data-name-1="Republika Srpska"
       data-name-2=""
       data-nl-name-2=""
       data-type-2="upanija|kanton"
       data-varname-2=""
       id="path56"
       style="fill:none;stroke:#000000;stroke-width:0.86110741;stroke-linejoin:round" />
	   <path
       inkscape:connector-curvature="0"
       d="M793.111,616.23l2.81,5.829l-4.64,2.91l-3.23,2.33l-2.52,3.97l-1.99,4.23l0.08,5l-0.83,5.66
	l0.479,6.07l1.591,7.02l1.159,5.13l5.66,18.29l-7.489,0.54l-9.21-0.37l-13.15-0.54l-1.811-0.08c0,0-0.01,0-0.02,0l-0.29-0.01
	l-0.04,0.03c-1.02-0.01-4.08-0.41-6.55-4.62c-3-5.12-0.12-6.101-6.37-6.86s-7.75-1.51-4.63-3.64c3.13-2.12,1.13-5-4.24-3.74
	c-5.38,1.24-3.76-1.38-7-1.88c-3.26-0.5-1.88,7.12-5.63,4.5s-5.75-4.5-4.63-5.5c1.13-1,3-1.25,1.88-4.62
	c-1.12-3.38-4.38-6.76-3.25-8.13c0.12-0.15,0.31-0.37,0.54-0.65c1.81-2.33,6.02-8.89-3.79-13.35c-11-5-12.25,0.5-13.75-6.5
	c-1-3.33-3.75-2.58-2.42-5.17c1.34-2.58,1.75-2.83,0.34-5c-1.42-2.16-0.67-3,0.58-3.5s3.75-2.33,0.67-4.66
	c-3.09-2.34-3.84-12.75-3.42-17.17c0,0,3,1.75,5.75,2s5.25,3.25,8.75,0s2.5-0.75,3.5-3.25s-0.94-5,3.78-5c4.72,0,1.72-5.75,5.97-5
	s4.75,5.5,11.5,5.5s7.25,2.5,14,0.25s5-0.07,5.75,1.59s3,1.41,7.75,5.41s8-3.75,11,2S780,604,784,606s9.75,0.25,11,2.5l0.18,0.41
	l-3.229,1.46l-2.271,2.39l0.09,0.431l0.45,2.239L793.111,616.23z"
       data-engtype-2="Opstina"
       data-id-0="29"
       data-id-1="3"
       data-id-2="29"
       data-iso="BIH"
       data-name-0="Bosnia and Herzegovina"
       data-name-1="Republika Srpska"
       data-name-2="Gacko"
       data-nl-name-2=""
       data-type-2="upanija|kanton"
       data-varname-2="Opstina Gacko"
       id="path58"
       style="fill:none;stroke:#000000;stroke-width:0.86110741;stroke-linejoin:round" />
	   <path
       inkscape:connector-curvature="0"
       d="M748.74,755.99l0.359-0.07l2.141,10.45l2.8,1.29l0.75,0.34l2.78,2.34l0.439,0.53l1.73,2.11
	l3.12,1.76l4.93,1.06l3.27,0.311l1.421,0.26l3.14,0.59l-1.48,2.39l-1.25,2.03l-0.46,1.9l-0.5,2.04l-0.229,3.93l0.939,3.25l7.95,7.44
	l-2.22,1.689l-2.07,0.33l-1.25,0.21l-4.78,1.03l-1.93,1.8l-0.45,0.42l-0.89,5.09l8.74,4.46l0.22-0.21l-0.18,0.21l0.12,2.681l-1,0.5
	l-0.7,0.35l-0.34,0.18l-2.33,0.67l-3.931-0.409l-3.67-0.94l-2.319-0.61l-3.801,5.521l-2.3,3.35l-3.779,0.16l-3.11,0.14l-7.67-5.31
	l-2.55-2.18l-1.37-1.17l-1.41-1.23l-2.15-2.62l-0.59-0.729l-1.45-1.78l-0.54-0.67l-0.63-0.17l-4.49-1.22l-0.029-0.011l-0.95-0.229
	l-4.271-0.32l-0.579-0.04l-0.181-0.33l-0.21-0.25l-0.819-0.59l-1.761-0.9l-0.85-0.279l-1.37-0.19l-1.41-0.07l-5.229-0.079l-1.4-0.12
	l-0.91-0.181l-0.439-0.14l-0.801-0.38l-2.479-1.67l-1.47-0.891l-0.851-0.77l-0.92-0.67l-0.78-0.76l-0.89-0.67l-0.77-0.79l-0.9-0.74
	l-1.29-1.58l-3.14-2.98l-0.561-0.6l-1.02-1.28l-0.891-0.739l-0.779-0.79l-1.811-1.341l-0.64-0.29l-1.05-0.319l-0.641-0.29l-0.88-0.7
	l-0.93-0.64l-0.79-0.771l-0.93-0.67l-0.851-0.77l-1.42-0.87l-0.61-0.49l-0.539-0.55l-0.771-0.96l-0.66-0.59l-0.399-0.45l-2.4-3.28
	l-0.89-0.74l-0.78-0.8l-0.91-0.67l-0.79-0.77l-0.91-0.671l-0.79-0.77l-0.91-0.67l-0.779-0.78l-0.91-0.68l-0.79-0.771l-0.91-0.68
	l-0.79-0.78l-0.91-0.67l-0.79-0.779l-0.909-0.671l-0.79-0.779l-0.9-0.67l-0.79-0.78l-0.91-0.68l-0.79-0.78l-0.91-0.67l-0.79-0.78
	l-0.899-0.67l-0.78-0.78l-0.9-0.67l-0.779-0.79l-0.92-0.67l-0.86-0.77l-2.27-1.181l-1.181-0.46l-1.96-0.51l-0.33-0.15l-0.979-0.619
	l-0.311-0.141l-1.399-0.43l-0.65-0.29l-0.87-0.71l-0.92-0.64l-0.78-0.801l-0.89-0.739l-2.58-3.521l-0.89-0.74l-0.78-0.779
	l-0.91-0.66l-0.779-0.79l-0.9-0.73l-2.4-3.279l-0.42-0.431l-0.67-0.529l-0.75-0.82l-0.83-0.74l-0.18-0.26l-0.54-1.19l-0.33-0.55
	l-0.82-0.74l-0.76-0.8l-0.91-0.72l-1.04-1.26l-1.729-1.78l-0.5-0.65l-0.2-0.35l-0.25-0.75l-0.04-1.14l0.16-0.73l0.82-1.62
	l0.199-0.689l0.091-1.07l-0.12-1.05l-0.23-0.63l-0.38-0.5l-0.64-0.53l-0.78-0.76l-0.92-0.63l-0.771-0.761l-0.64-0.529l-0.39-0.5
	l-0.141-0.311l-0.18-0.68l-0.1-0.73l-0.051-1.899l0.16-1.551l0.36-1.289l-0.4-0.841c0,0,3.99-1.87,6.24,0
	c2.25,1.86,5.75-0.64,7,4.36s2.5,3.5,5.25,3.25s5,0.75,7.25,7s6.25,6.75,8.25,7.25s6.5,4.5,10.25,7.25s11,0.75,12,0
	s3.5-4.75,3.5-4.75s-1.5-3-1.5-6s1.5-3.75,3-2s2.25-1.5,5.75,1.25s4.5,0.71,4.5-2.77c0-3.48,0.5-3.73,2.25-3.73
	c1.29,0,3.26-1.5,2.31-2.99c0.351,0.25,3.28,2.32,8.44,3.49c5.5,1.25,5,3.75,7.75,6s1.75,6,5,11s4.75,7.25,10.75,8.75s0.5,2,6,6.7
	c5.5,4.71,10,0.05,13-1.7C742.92,750.55,748.441,755.71,748.74,755.99z"
       data-engtype-2="Opstina"
       data-id-0="29"
       data-id-1="3"
       data-id-2="30"
       data-iso="BIH"
       data-name-0="Bosnia and Herzegovina"
       data-name-1="Republika Srpska"
       data-name-2="Trebinje"
       data-nl-name-2=""
       data-type-2="upanija|kanton"
       data-varname-2="Grad Trebinje"
       id="path60"
       style="fill:none;stroke:#000000;stroke-width:0.86110741;stroke-linejoin:round" />
	   <path
       inkscape:connector-curvature="0"
       d="M759.67,682.24l-0.64,0.439l-0.511,0.34l-4.199,2.881l-1.971,2.659l-0.619,3.86l-2.971,3.82
	l-2.56,5.319l-0.681,11.311l0.73,2.57l3.29,4.779l1.13,4.141l-2.42,1.43l0.98,3.47l2.239,4.29l-0.689,4.271l-0.561,3.52l1.55,4
	l2.07,4.76l-1.229,3.17l-3.641,1.971l0.021,0.12l0.109,0.56l-0.359,0.07c-0.3-0.28-5.82-5.44-8.74-3.74c-3,1.75-7.5,6.41-13,1.7
	c-5.5-4.7,0-5.2-6-6.7s-7.5-3.75-10.75-8.75s-2.25-8.75-5-11s-2.25-4.75-7.75-6c-5.16-1.17-8.09-3.24-8.44-3.49
	c-0.02-0.02-0.029-0.029-0.029-0.029c-0.351-0.511-1.061-1.03-2.28-1.48c-4.75-1.75-8.75-4.89-9-7.44c-0.25-2.56-4-6.06-8-6.56
	s-5.69-1.5-4.5-3.31c1.19-1.811,5.06-1.381,3.69-4.131c-1.381-2.75-5.19-5.619-5.381-7.939c-0.18-2.311-2.5-5.43-3.56-7.87
	c-0.83-1.91-1.92-2.48-3.32-3.53c5.42,0.221,9.07-0.97,11.82-1.1c2.75-0.12,0.75-2.87-0.62-6.12c-1.38-3.25,5.12-0.5,7.12-0.88
	c2-0.37,3.5-3.12,5.25-4.74c0.39-0.36,0.41-0.75,0.19-1.13l0.14-0.08c0,0,4.09,1.33,6.92,3c2.83,1.66,2.17,1.33,5.67,0.83
	s3.83-2.17,6.33-0.67s4,0.84,4.17-3.16c0.16-4-2.17-5.62,0-8.729c2.16-3.11,4.89-7.591,16.11-5.851l0.01,0.01
	c-0.23,0.28-0.42,0.5-0.54,0.65c-1.13,1.37,2.13,4.75,3.25,8.13c1.12,3.37-0.75,3.62-1.88,4.62c-1.12,1,0.88,2.88,4.63,5.5
	s2.37-5,5.63-4.5c3.24,0.5,1.62,3.12,7,1.88c5.37-1.26,7.37,1.62,4.24,3.74c-3.12,2.13-1.62,2.88,4.63,3.64s3.37,1.74,6.37,6.86
	C755.59,681.83,758.651,682.23,759.67,682.24z"
       data-engtype-2="Opstina"
       data-id-0="29"
       data-id-1="3"
       data-id-2="31"
       data-iso="BIH"
       data-name-0="Bosnia and Herzegovina"
       data-name-1="Republika Srpska"
       data-name-2="Bileća"
       data-nl-name-2=""
       data-type-2="upanija|kanton"
       data-varname-2="Opstina Bileca"
       id="path62"
       style="fill:none;stroke:#000000;stroke-width:0.86110741;stroke-linejoin:round" />
	   <path
       inkscape:connector-curvature="0"
       d="M756.77,504.45l0.471,0.28c0,0-5.99,1.52-5.99,4.77s5.74,5.75,3,7.5c-2.75,1.75-6.75,0.75-6.5,5.75
	s3.75,5.25,2.5,6s-3.25-0.5-3.75,1.75s4,2.75,3,4s-2.75,0-4.5,7.5s-4.75,2.5,1.5,7.5s1.75,3.5,0,5.25s-1.25,4.5,0,7.5
	s5.72,4.5,3.48,6.25c-2.23,1.75-5.23,4.75-3.48,6.25s0.5,4.12-1.5,5.68c-2,1.57,4.1,6.46,6.25,5.82c-6.75,2.25-7.25-0.25-14-0.25
	s-7.25-4.75-11.5-5.5s-1.25,5-5.97,5c-4.721,0-2.78,2.5-3.78,5s0,0-3.5,3.25s-6,0.25-8.75,0s-5.75-2-5.75-2
	c0.42-4.42-3.33-4.42-5.75-6.42s-4.83-4.83-5.08-7.58s-2.09-2.67-6.17-4.5s-8.67-2.42-8.75,2.33s-3.83,6-7.08,3.42
	s-3.42-1.58-5.84-2.08c-2.41-0.5-2.33-4.75-1.5-6.59c0.84-1.83,2.67-3.83,6.75-5.16c4.09-1.34,6.09-1.92,4.17-5.75
	c-1.92-3.84-4.91-1.729-1.5-11.45l15.6,0.46l2.5,0.2l2.9,0.51l1.76,0.04l3.05-0.449l0.73-0.19l0.56-0.31l1.141-1l0.29-0.5
	l0.08-0.311v-0.62l-0.17-0.609l-0.141-0.28l-0.84-1.101l-0.36-1.05l-0.75-3.56l-0.029-0.63l0.18-1.87l-0.14-1.03l-0.25-0.6
	l-0.63-0.87l-0.28-0.65l-0.51-2.7l-0.32-1.08l-0.16-0.31l-0.66-0.88l-0.3-0.68l-0.25-1.181l-0.15-1.71l-0.42-8.399l0.021-1.25
	l0.12-0.771l0.26-0.66l0.61-0.76c0.52,0.39,2.199,1.23,5.81-0.17c4.5-1.75,3.25-3.5,7-2.75s3.25,6.05,6.75,3.53
	c3.5-2.53-3.25-9.03,4.5-9.53s10.75,3.25,15,0s7.5-9.25,9.5-9.25l0.1-0.14l0.15,0.1l2.53,1.271l0.8,0.289l1.56,0.41l0.69,0.28
	l1.229,0.82l3.54,1.87l1.471,1.069l3.51,1.91l0.51,0.37l0.771,0.72L756.77,504.45z"
       data-engtype-2="Opstina"
       data-id-0="29"
       data-id-1="3"
       data-id-2="32"
       data-iso="BIH"
       data-name-0="Bosnia and Herzegovina"
       data-name-1="Republika Srpska"
       data-name-2=""
       data-nl-name-2=""
       data-type-2="opstina"
       data-varname-2=""
       id="path64"
       style="fill:none;stroke:#000000;stroke-width:0.86110741;stroke-linejoin:round" />
	   <path
       inkscape:connector-curvature="0"
       d="M754.5,479.62l-0.13,0.71l-0.271-0.05l-2.63-0.221l-0.89-0.13l-0.87-0.229
	l-0.8-0.37l-2.5-1.64l-1.47-0.881l-1.86-1.64l-0.41-0.53l-0.52-0.899l-4.521-2.101l-1.39-0.3l-1.44-0.13l-13.25-0.37l-2.43-0.02
	l-1.86,0.17l-0.83,0.22l-1.52,0.55l-1.32,0.221l-1.39,0.069l-1.4-0.03l-1.38-0.09l-1.27-0.199l-0.74-0.25l-1-0.57l-0.69-0.23
	l-0.8-0.14l-2.54-0.25l-1.18-0.25l-0.62-0.3l-0.71-0.5l-1.44-0.84l-0.89-0.761l-1-1.239l-0.63-0.591l-0.38-0.47l-0.771-1.54
	l0.36-0.18c0,0,3,1.76,3.26,0c0.24-1.74,2.62-2.24,0-5c-2.63-2.74-1.68-4,1.22-4.24c2.9-0.26,4.021-1.88,6.78,0
	c0.96,0.65,1.96,0.82,2.88,0.84c1.71,0.061,3.12-0.359,3.36,1.03c0.32,1.81,3.89,1.45,6.8,2.18v0.011
	c0.521,0.119,1.01,0.279,1.46,0.5c3,1.439,5.12,2.939,11.37,4.68c6.25,1.76,6.82,0.76,10.47,4.88
	C746.38,472.62,751.5,474.5,754.5,479.62z"
       data-engtype-2="Opstina"
       data-id-0="29"
       data-id-1="3"
       data-id-2="33"
       data-iso="BIH"
       data-name-0="Bosnia and Herzegovina"
       data-name-1="Republika Srpska"
       data-name-2=""
       data-nl-name-2="Istocno Novo Sarajevo"
       data-type-2="opstina"
       data-varname-2="Opština Istocno Novo Sarajevo"
       id="path66"
       style="fill:none;stroke:#000000;stroke-width:0.86110741;stroke-linejoin:round" />
	    <path
       inkscape:connector-curvature="0"
       d="M740.571,93.83l1.16,1.47l-1.94,2.83l-0.58,1.93l-0.71,1.62l-0.51,1.51l-0.431,0.66l-0.659,0.46l-0.94,0.42
	l-3.32,1.05c-2.52-3.38-9.47-5.45-10.14-7.95c-0.56-2.09,0.16-3.93-1.71-3.61v-0.01c-0.55-1.96,3.04-2.88,4.38-4.34
	c1.33-1.46,1.51-2.93,1.51-2.93l2.74,1.41l1.76,0.75l2.36,1.23l0.96,0.68l0.56,0.31l1.721,0.57l1.56,0.91l1.69,0.63L740.571,93.83z"
       data-engtype-2="Opstina"
       data-id-0="29"
       data-id-1="3"
       data-id-2="34"
       data-iso="BIH"
       data-name-0="Bosnia and Herzegovina"
       data-name-1="Republika Srpska"
       data-name-2=""
       data-nl-name-2=""
       data-type-2="opstina"
       data-varname-2=""
       id="path68"
       style="fill:none;stroke:#000000;stroke-width:0.86110741;stroke-linejoin:round" />
	   <path
       inkscape:connector-curvature="0"
       d="M737.95,493.89l1.399,0.971l-0.1,0.14c-2,0-5.25,6-9.5,9.25s-7.25-0.5-15,0s-1,7-4.5,9.53
	c-3.5,2.52-3-2.78-6.75-3.53s-2.5,1-7,2.75c-3.61,1.4-5.29,0.56-5.81,0.17l0.22-0.28l2.22-3.62l1.91-0.119l0.69-0.141l0.939-0.35
	l1.22-1.04l0.53-0.55l0.92-1.32l0.54-0.58l0.29-0.49l0.17-0.6l0.22-1.62l0.16-0.6l0.12-0.261l0.771-1.06l0.42-1.18l0.26-0.54
	l0.479-0.59l0.28-0.471l0.17-0.6l0.3-1.94l0.211-0.55l0.6-0.83l0.12-0.26l0.16-0.6l0.22-1.62l0.31-0.87l0.851-1.03l0.62-1.04
	l1.409-2.12l1.41-1.2l0.561-0.29l0.72-0.159l0.79-0.051l1.25,0.08l0.84,0.15l0.82,0.26l1.56,0.65l1.96,0.55l0.681,0.31l0.47,0.37
	l1.229,1.13l0.33,0.591l0.45,1.35l0.33,0.68l1.03,1.511l0.399,0.479l0.551,0.42l1.689,0.63l1.271,0.74l0.35,0.14l0.78,0.19l1.3,0.14
	l1.37,0.04l1.39-0.029l2.311-0.29L737.95,493.89z"
       data-engtype-2="Opstina"
       data-id-0="29"
       data-id-1="3"
       data-id-2="35"
       data-iso="BIH"
       data-name-0="Bosnia and Herzegovina"
       data-name-1="Republika Srpska"
       data-name-2=""
       data-nl-name-2=""
       data-type-2="opstina"
       data-varname-2=""
       id="path70"
       style="fill:none;stroke:#000000;stroke-width:0.86110741;stroke-linejoin:round" />
	   <path
       inkscape:connector-curvature="0"
       d="M722.63,397.61c0.22-0.1,3.26-1.52,3.62,0.89c0.37,2.5-0.37,2.62,1.37,3.88c1.76,1.24-0.62,0.37,1.13,3.74
	c1.75,3.38,2.5,1.63,4.5,0.76c2-0.88,2.75-4.38,4.87-2.38c0.74,0.69,1.28,1.16,1.76,1.46c0,0-2.21,0.87-2.21,3.87
	s-5.17,4.67-4.34,7.34c0.84,2.66,3,2,1.67,5.16c-1.33,3.17-0.85,2.67-1.76,5.34c-0.91,2.66,3.09,2.5-1.24,4.83s-4.83,2.67-4.83,5.83
	c0,3.17,2,3.17,0,4.5c-2,1.34-2.84,1.99-3.5,3.83c-0.67,1.84-2.84-2.84-2.67,0s-1.92,3.189-3.04,3.68h-0.01
	c-0.521-2.04-1.391-1.96-3.07-4.09c-1.88-2.37-4.5-0.87-6.13-2.87s-2-2-3.37-4.13c-1.38-2.13-0.88-4.37-0.88-4.37v-0.02l1.13,0.25
	l0.3,0.199l-0.08,0.23l1.74,1.19l1.34,1.1l0.851,0.34l0.93,0.16h0.93l0.45-0.061l0.84-0.35l0.54-0.62l0.46-1.149l0.09-0.851
	l-0.06-0.88l-0.2-0.88l-0.41-1.31l-0.25-1.28l-0.18-1.72l-0.02-1.271l0.08-0.79l0.189-0.72l0.311-0.53l0.67-0.81l0.939-1.62
	l0.271-0.63l0.109-0.61l-0.17-2.39l0.181-1.61l0.039-1.72l-0.029-0.74l1.29-1.42l1.29-1.54l2.26-3.07l0.34-3.27l1.311-3.07l1.05-2.5
	l-1.011-3l0.461-0.46L722.63,397.61z"/>
       data-engtype-2="Opstina"
       data-id-0="29"
       data-id-1="3"
       data-id-2="36"
       data-iso="BIH"
       data-name-0="Bosnia and Herzegovina"
       data-name-1="Republika Srpska"
       data-name-2=""
       data-nl-name-2=""
       data-type-2="opstina"
       data-varname-2=""
       id="path72"
       style="fill:none;stroke:#000000;stroke-width:0.86110741;stroke-linejoin:round" />
	   <path
       inkscape:connector-curvature="0"
       d="M722.63,397.61c0.22-0.1,3.26-1.52,3.62,0.89c0.37,2.5-0.37,2.62,1.37,3.88c1.76,1.24-0.62,0.37,1.13,3.74
	c1.75,3.38,2.5,1.63,4.5,0.76c2-0.88,2.75-4.38,4.87-2.38c0.74,0.69,1.28,1.16,1.76,1.46c0,0-2.21,0.87-2.21,3.87
	s-5.17,4.67-4.34,7.34c0.84,2.66,3,2,1.67,5.16c-1.33,3.17-0.85,2.67-1.76,5.34c-0.91,2.66,3.09,2.5-1.24,4.83s-4.83,2.67-4.83,5.83
	c0,3.17,2,3.17,0,4.5c-2,1.34-2.84,1.99-3.5,3.83c-0.67,1.84-2.84-2.84-2.67,0s-1.92,3.189-3.04,3.68h-0.01
	c-0.521-2.04-1.391-1.96-3.07-4.09c-1.88-2.37-4.5-0.87-6.13-2.87s-2-2-3.37-4.13c-1.38-2.13-0.88-4.37-0.88-4.37v-0.02l1.13,0.25
	l0.3,0.199l-0.08,0.23l1.74,1.19l1.34,1.1l0.851,0.34l0.93,0.16h0.93l0.45-0.061l0.84-0.35l0.54-0.62l0.46-1.149l0.09-0.851
	l-0.06-0.88l-0.2-0.88l-0.41-1.31l-0.25-1.28l-0.18-1.72l-0.02-1.271l0.08-0.79l0.189-0.72l0.311-0.53l0.67-0.81l0.939-1.62
	l0.271-0.63l0.109-0.61l-0.17-2.39l0.181-1.61l0.039-1.72l-0.029-0.74l1.29-1.42l1.29-1.54l2.26-3.07l0.34-3.27l1.311-3.07l1.05-2.5
	l-1.011-3l0.461-0.46L722.63,397.61z"/>
       data-engtype-2="Opstina"
       data-id-0="29"
       data-id-1="3"
       data-id-2="37"
       data-iso="BIH"
       data-name-0="Bosnia and Herzegovina"
       data-name-1="Republika Srpska"
       data-name-2=""
       data-nl-name-2=""
       data-type-2="opstina"
       data-varname-2=""
       id="path74"
       style="fill:none;stroke:#000000;stroke-width:0.86110741;stroke-linejoin:round" />
	   <path
       inkscape:connector-curvature="0"
       d="M658.981,110.42c-0.2,0-0.471-0.33-0.65-1.75c-0.33-2.67-2.69-3.76,0.49-4.63c3.18-0.87,4.01-2.87,7.51-2.54
	s4.17-0.17,7.67,1.67c0.98,0.51,2.06,0.92,3.1,1.19c2.69,0.7,5.141,0.49,4.9-1.19c-0.33-2.34,0.17-0.34,4.17-1.67
	s2.33-2.67,3.83-2.67s6-0.83,5.67-2c-0.34-1.16,4.2-1.66,0.01-3.33c-4.18-1.67-3.68-3.92-0.01-3.63c3.66,0.3,5.33-0.04,6.5,3.63
	c1.16,3.67,0,2.67,1.5,3.33c1.5,0.67,3.66-0.66,3.16,2.17s1.5,4,4,2.5s4.84-5.33,8.5-6.83c0.61-0.25,1.09-0.39,1.46-0.45
	c1.87-0.32,1.15,1.52,1.71,3.61c0.67,2.5,7.62,4.57,10.14,7.95l-0.62,0.2l-1.75,0.99l-0.02,1.57l-0.2,1.12l-0.3,0.67l-0.99,1.66
	l-0.399,0.4l-1.45,1.13l-0.61,0.24l-1.31,0.37l-0.521,0.28l-1.439,1.16l-0.351,0.46l-0.83,1.41l-0.31,0.67l-0.2,1.16l0.08,4.09
	l-0.13,1.19l-0.41,1.04l-1,1.66l-1.71,1.64l-0.82,0.62l-0.71,0.74l-0.819,0.62l-0.91,0.89l-1.5,1.07l-0.69,0.24l-1.04,0.18
	l-1.029-0.97l-1.24-0.84l-0.91-0.72l-0.64-0.28l-1.051-0.33l-0.64-0.27l-1.22-0.83l-1.25-0.62l-2.29-1.24l-0.5-0.36l-1.25-1.14
	l-0.391-0.48l-0.52-1.21l-0.3-0.56l-0.72-0.82l-0.171-0.28l-0.52-1.21l-0.34-0.56l-0.83-0.74L695.1,119l-0.899-0.67l-0.76-0.8
	l-0.82-0.74l-0.33-0.56l-0.37-0.9l-0.34-0.56l-1.67-1.55l-2.54-1.4l-1.24-0.63l-1.46-1.08l-2.35-1.24l-1.78-0.74l-1.92-0.88
	l-2.311-0.68l-0.31-0.14l-0.97-0.62l-0.34-0.14l-1.181-0.26l-1.3-0.1h-1.34l-1.32,0.14l-0.81,0.22l-1.49,0.58l-1.91,0.45
	l-0.649,0.26l-0.801,0.67l-0.85,0.61l-0.69,0.73l-0.84,0.62l-0.7,0.74l-0.829,0.62L658.981,110.42z"/>
       data-engtype-2="Opstina"
       data-id-0="29"
       data-id-1="3"
       data-id-2="37"
       data-iso="BIH"
       data-name-0="Bosnia and Herzegovina"
       data-name-1="Republika Srpska"
       data-name-2=""
       data-nl-name-2=""
       data-type-2="opstina"
       data-varname-2=""
       id="path74"
       style="fill:none;stroke:#000000;stroke-width:0.86110741;stroke-linejoin:round" />
	   <path
       inkscape:connector-curvature="0"
       d="M725.481,86.1l1.199,0.84c0,0-0.18,1.47-1.51,2.93c-1.34,1.46-4.93,2.38-4.38,4.34v0.01
	c-0.37,0.06-0.85,0.2-1.46,0.45c-3.66,1.5-6,5.33-8.5,6.83s-4.5,0.33-4-2.5s-1.66-1.5-3.16-2.17c-1.5-0.66-0.34,0.34-1.5-3.33
	c-1.17-3.67-2.84-3.33-6.5-3.63c-3.67-0.29-4.17,1.96,0.01,3.63c4.19,1.67-0.35,2.17-0.01,3.33c0.33,1.17-4.17,2-5.67,2
	s0.17,1.34-3.83,2.67s-4.5-0.67-4.17,1.67c0.24,1.68-2.21,1.89-4.9,1.19l0.08-0.32c-1.68-2.05-1.06-6.29-1.3-7.66
	c-0.26-1.38-4.38-1.5-4.76-4s5.26,2.5,5.88-2.51c0.62-5-0.5-4.37-1.38-4.55c-0.87-0.18-2.5-1.2-4.24-0.32
	c-1.76,0.88-4.13-0.12-3.63-1.88c0.5-1.74,0.13-1.5-0.63-2.87c-0.74-1.37,0.63-2.25,0.63-4.37c0-2.13-2.69-0.63-2.69-0.63
	l-0.26,0.11c-1.02-2.47-4.399-2.26-5.96-5.51l0.84-0.12l1.34,0.01l3.24,0.23l0.55-0.11l0.471-0.24l0.779-0.68l1.351-0.8l0.609-0.46
	l1.41-1.32l1.101-1.53l0.93-1l1.07-1.74l1.739-2.31l0.04-0.05l2.41,2.08l1.55,1.07l3.65,1.92l1.72,0.63l1.721,1.26l1.06,0.65
	l1.47,0.66l2.721,1.39l1.199,0.84l0.641,0.28l1.04,0.33l0.63,0.29l0.85,0.71l0.92,0.65l0.841,0.77l0.55,0.32l1.68,0.87l0.78,0.34
	l0.83,0.24l1.71,0.37l1.41,0.51l3.369,2.92l1.391,0.5l3.189,0.54l0.66,0.23l0.73,0.45l0.569,0.26l0.69,0.18l1.89,0.32l0.7,0.2
	l0.32,0.14l1.22,0.83l3.53,1.87l1.2,0.85l0.64,0.29l1.04,0.33L725.481,86.1z"/>
       data-engtype-2="Opstina"
       data-id-0="29"
       data-id-1="3"
       data-id-2="38"
       data-iso="BIH"
       data-name-0="Bosnia and Herzegovina"
       data-name-1="Republika Srpska"
       data-name-2=""
       data-nl-name-2=""
       data-type-2="opstina"
       data-varname-2=""
       id="path76"
       style="fill:none;stroke:#000000;stroke-width:0.86110741;stroke-linejoin:round" />
	   <path
       inkscape:connector-curvature="0"
        d="M716,633.75c9.81,4.46,5.6,11.02,3.79,13.35l-0.01-0.01
	c-11.221-1.74-13.95,2.74-16.11,5.851c-2.17,3.109,0.16,4.729,0,8.729c-0.17,4-1.67,4.66-4.17,3.16s-2.83,0.17-6.33,0.67
	s-2.84,0.83-5.67-0.83c-2.83-1.67-6.92-3-6.92-3l-0.14,0.08c-0.73-1.31-4.391-2.42-5.561-1.25c-1.5,1.5-3.63,0.38-5.38,0
	s-1.25-2.5-3.62-3.75c-2.38-1.25-5.88,0.63-6.5,0c-0.63-0.63-2.38-3.37-5.38-2.87s-5.25,0.24-5.5-4.76s-4.25-3.87-6-5.87
	s-3.62-2.63-6.38-2.37c-2.74,0.24-6.24-1.38-7.24-3.13s-3.76-2.5-6.26-2.75s-2.62,2.75-4.87,1.62c-2.25-1.12-2.37-3.87-4.74-2.37
	s-5.39,1-7.63,0c-2.26-1,0.5-3.25-4.88-2.63c-5.38,0.63-5.63-1.48-5.63-1.48l3.21-0.62l2.66-0.779l2.6-1.26l1.38-0.99l1.91-0.88
	l1.15-0.38l2.05-0.4l0.75-0.3l0.91-0.67l0.91-1.15l0.729-0.76l0.29-0.55l0.41-1.16l0.75-1.07l0.14-0.3l0.16-0.69l0.05-0.77
	l-0.109-3.72l0.08-1.641l0.18-0.77l0.74-1.66l0.18-0.74l0.09-0.79l-0.03-3.24l-0.27-3.26l-0.16-0.78l-0.26-0.76l-0.89-1.72
	l-0.24-0.76l-0.21-1.2l-0.25-2.8l-0.23-1.101l-0.28-0.63l-0.659-0.859l-0.16-0.301l-0.24-0.68l-0.42-1.9l-0.26-0.77
	c2.02-3.5,9.14-8.5,11.3-10.16c2.17-1.67,1.84-3.34,1.41-8.5c-0.431-5.17-2.07-6-0.74-10.34c1.33-4.33,1-4.33-2.17-8.16
	c-3.16-3.84-2.33-9.37-2.33-9.37l2.25,0.44l0.7,0.189l1.63,0.851l0.7,0.189l1.899,0.33l0.7,0.181l0.32,0.13l1,0.58l0.71,0.239
	l0.8,0.141l2.56,0.26l0.801,0.14l0.699,0.23l1,0.569l1.091,0.311l1.25,0.13l3.06,0.16l0.83,0.11l0.71,0.189l0.57,0.28l0.7,0.52
	l1.079,0.65l0.61,0.479l0.78,0.86l0.979,1.39l0.61,0.551l0.74,0.43l0.87,0.29l1.38,0.2l1.87,0.09l1.38-0.021l1.27-0.149l0.72-0.25
	l1.9-1.351l0.47-0.5l0.4-0.55l1.57-0.68l0.939-0.3l1.431-0.21l1.489-0.04l3.78,0.109c-3.41,9.721-0.42,7.61,1.5,11.45
	c1.92,3.83-0.08,4.41-4.17,5.75c-4.08,1.33-5.91,3.33-6.75,5.16c-0.83,1.84-0.91,6.09,1.5,6.59c2.42,0.5,2.59-0.5,5.84,2.08
	s7,1.33,7.08-3.42s4.67-4.16,8.75-2.33s5.92,1.75,6.17,4.5s2.66,5.58,5.08,7.58s6.17,2,5.75,6.42s0.33,14.83,3.42,17.17
	c3.08,2.33,0.58,4.16-0.67,4.66s-2,1.34-0.58,3.5c1.41,2.17,1,2.42-0.34,5c-1.33,2.59,1.42,1.84,2.42,5.17
	C703.75,634.25,705,628.75,716,633.75z"/>
       data-engtype-2="Opstina"
       data-id-0="29"
       data-id-1="3"
       data-id-2="39"
       data-iso="BIH"
       data-name-0="Bosnia and Herzegovina"
       data-name-1="Republika Srpska"
       data-name-2=""
       data-nl-name-2=""
       data-type-2="opstina"
       data-varname-2=""
       id="path78"
       style="fill:none;stroke:#000000;stroke-width:0.86110741;stroke-linejoin:round" />
	   <path
       inkscape:connector-curvature="0"
        d="M716,633.75c9.81,4.46,5.6,11.02,3.79,13.35l-0.01-0.01
	c-11.221-1.74-13.95,2.74-16.11,5.851c-2.17,3.109,0.16,4.729,0,8.729c-0.17,4-1.67,4.66-4.17,3.16s-2.83,0.17-6.33,0.67
	s-2.84,0.83-5.67-0.83c-2.83-1.67-6.92-3-6.92-3l-0.14,0.08c-0.73-1.31-4.391-2.42-5.561-1.25c-1.5,1.5-3.63,0.38-5.38,0
	s-1.25-2.5-3.62-3.75c-2.38-1.25-5.88,0.63-6.5,0c-0.63-0.63-2.38-3.37-5.38-2.87s-5.25,0.24-5.5-4.76s-4.25-3.87-6-5.87
	s-3.62-2.63-6.38-2.37c-2.74,0.24-6.24-1.38-7.24-3.13s-3.76-2.5-6.26-2.75s-2.62,2.75-4.87,1.62c-2.25-1.12-2.37-3.87-4.74-2.37
	s-5.39,1-7.63,0c-2.26-1,0.5-3.25-4.88-2.63c-5.38,0.63-5.63-1.48-5.63-1.48l3.21-0.62l2.66-0.779l2.6-1.26l1.38-0.99l1.91-0.88
	l1.15-0.38l2.05-0.4l0.75-0.3l0.91-0.67l0.91-1.15l0.729-0.76l0.29-0.55l0.41-1.16l0.75-1.07l0.14-0.3l0.16-0.69l0.05-0.77
	l-0.109-3.72l0.08-1.641l0.18-0.77l0.74-1.66l0.18-0.74l0.09-0.79l-0.03-3.24l-0.27-3.26l-0.16-0.78l-0.26-0.76l-0.89-1.72
	l-0.24-0.76l-0.21-1.2l-0.25-2.8l-0.23-1.101l-0.28-0.63l-0.659-0.859l-0.16-0.301l-0.24-0.68l-0.42-1.9l-0.26-0.77
	c2.02-3.5,9.14-8.5,11.3-10.16c2.17-1.67,1.84-3.34,1.41-8.5c-0.431-5.17-2.07-6-0.74-10.34c1.33-4.33,1-4.33-2.17-8.16
	c-3.16-3.84-2.33-9.37-2.33-9.37l2.25,0.44l0.7,0.189l1.63,0.851l0.7,0.189l1.899,0.33l0.7,0.181l0.32,0.13l1,0.58l0.71,0.239
	l0.8,0.141l2.56,0.26l0.801,0.14l0.699,0.23l1,0.569l1.091,0.311l1.25,0.13l3.06,0.16l0.83,0.11l0.71,0.189l0.57,0.28l0.7,0.52
	l1.079,0.65l0.61,0.479l0.78,0.86l0.979,1.39l0.61,0.551l0.74,0.43l0.87,0.29l1.38,0.2l1.87,0.09l1.38-0.021l1.27-0.149l0.72-0.25
	l1.9-1.351l0.47-0.5l0.4-0.55l1.57-0.68l0.939-0.3l1.431-0.21l1.489-0.04l3.78,0.109c-3.41,9.721-0.42,7.61,1.5,11.45
	c1.92,3.83-0.08,4.41-4.17,5.75c-4.08,1.33-5.91,3.33-6.75,5.16c-0.83,1.84-0.91,6.09,1.5,6.59c2.42,0.5,2.59-0.5,5.84,2.08
	s7,1.33,7.08-3.42s4.67-4.16,8.75-2.33s5.92,1.75,6.17,4.5s2.66,5.58,5.08,7.58s6.17,2,5.75,6.42s0.33,14.83,3.42,17.17
	c3.08,2.33,0.58,4.16-0.67,4.66s-2,1.34-0.58,3.5c1.41,2.17,1,2.42-0.34,5c-1.33,2.59,1.42,1.84,2.42,5.17
	C703.75,634.25,705,628.75,716,633.75z"/>
       data-engtype-2="Opstina"
       data-id-0="29"
       data-id-1="3"
       data-id-2="40"
       data-iso="BIH"
       data-name-0="Bosnia and Herzegovina"
       data-name-1="Republika Srpska"
       data-name-2=""
       data-nl-name-2="Nevesinje"
       data-type-2="opstina"
       data-varname-2="Opstina Nevesinje"
       id="path80"
       style="fill:none;stroke:#000000;stroke-width:0.86110741;stroke-linejoin:round" />
	   <path
       inkscape:connector-curvature="0"
        d="M718.12,451.12c0.5,2.87,0.84,6.37,1.3,7.31c-2.91-0.729-6.479-0.37-6.8-2.18
	c-0.24-1.39-1.65-0.97-3.36-1.03c-0.25-1.399-1.64-1.6-3.76-4.34c-2.12-2.76-3.5-1.13-6.88-3.76c-3.37-2.62-0.62-3.12-4.62-3.62
	s-4.62-2.38-4.62-2.38h-0.06l0.02-0.5l0.11-0.59l0.21-0.5l0.66-0.771l0.239-0.56l0.11-1l-0.03-0.44l2.221-0.88l0.14-0.01l3.97-0.19
	l2.29-0.96h0.79h1.431h2.38l0.37,0.08l0.27,0.061v0.02c0,0-0.5,2.24,0.88,4.37c1.37,2.13,1.74,2.13,3.37,4.13s4.25,0.5,6.13,2.87
	c1.68,2.13,2.55,2.05,3.07,4.09C718.02,450.57,718.071,450.83,718.12,451.12z"/>
       data-engtype-2="Opstina"
       data-id-0="29"
       data-id-1="3"
       data-id-2="41"
       data-iso="BIH"
       data-name-0="Bosnia and Herzegovina"
       data-name-1="Republika Srpska"
       data-name-2=""
       data-nl-name-2=""
       data-type-2="opstina"
       data-varname-2=""
       id="path82"
       style="fill:none;stroke:#000000;stroke-width:0.86110741;stroke-linejoin:round" />
	   <path
       inkscape:connector-curvature="0"
        d="M705.5,450.88c2.12,2.74,3.51,2.94,3.76,4.34c-0.92-0.02-1.92-0.189-2.88-0.84
	c-2.76-1.88-3.88-0.26-6.78,0c-2.899,0.24-3.85,1.5-1.22,4.24c2.62,2.76,0.24,3.26,0,5c-0.26,1.76-3.26,0-3.26,0l-0.36,0.18
	l-0.06-0.12l-0.351-1.279l-4.869-0.131l-1.301-1.739l-1.06-1.03l-1.66-2.36l-0.89-1.52l-1.46-2.01l-0.971-1.04l-0.31-0.59
	l-0.17-0.671l-0.08-0.71l0.01-0.71l0.23-1.06l0.34-0.65l1.05-1.63l0.95-0.97l0.3-0.47l0.56-1.351l0.23-1.26l4.03-0.59l0.04-0.79
	h0.06c0,0,0.62,1.88,4.62,2.38s1.25,1,4.62,3.62C702,449.75,703.38,448.12,705.5,450.88z"/>
       data-engtype-2="Opstina"
       data-id-0="29"
       data-id-1="3"
       data-id-2="42"
       data-iso="BIH"
       data-name-0="Bosnia and Herzegovina"
       data-name-1="Republika Srpska"
       data-name-2="Istocno Sarajevo"
       data-nl-name-2=""
       data-type-2="opstina"
       data-varname-2="Opstina Istocno Sarajevo"
       id="path84"
       style="fill:none;stroke:#000000;stroke-width:0.86110741;stroke-linejoin:round" />
	   <path
       inkscape:connector-curvature="0"
        d="M689.06,718.01c0.95,1.49-1.02,2.99-2.31,2.99c-1.75,0-2.25,0.25-2.25,3.73c0,3.479-1,5.52-4.5,2.77
	s-4.25,0.5-5.75-1.25s-3-1-3,2s1.5,6,1.5,6s-2.5,4-3.5,4.75s-8.25,2.75-12,0s-8.25-6.75-10.25-7.25s-6-1-8.25-7.25s-4.5-7.25-7.25-7
	s-4,1.75-5.25-3.25s-4.75-2.5-7-4.36c-2.25-1.87-6.24,0-6.24,0l-0.59-1.22l-0.2-0.29l-1.04-1.11l-1.069-1.47l-1.29-1.74
	l-0.851-0.819l-1.1-1.42l-1.271-1.28l0.051-3.65l0.119-0.729l0.28-0.62l1.431-1.48l0.84-0.6l0.729-0.72l0.86-0.61l0.78-0.729
	l1.35-0.931l1.04-1l-0.33-0.729l0.26-0.12c1.75,0.38,7.87,0,11.11,0.689c3.26,0.69,3.88,1.311,4.439-3.619
	c0.561-4.94,2.631-4.881,4.881-6.07c2.25-1.18,0.119-4.811,4.06-5.18c3.94-0.381,5.62,0.119,9.88-2.69
	c4.24-2.81,6.061,1.06,8.061,2.94c0.439,0.409,0.85,0.739,1.239,1.029c1.4,1.05,2.49,1.62,3.32,3.53c1.06,2.44,3.38,5.56,3.56,7.87
	c0.19,2.32,4,5.189,5.381,7.939c1.369,2.75-2.5,2.32-3.69,4.131c-1.19,1.81,0.5,2.81,4.5,3.31s7.75,4,8,6.56
	c0.25,2.551,4.25,5.69,9,7.44c1.22,0.45,1.93,0.97,2.28,1.48C689.031,717.98,689.04,717.99,689.06,718.01z"/>
       data-engtype-2="Opstina"
       data-id-0="29"
       data-id-1="3"
       data-id-2="42"
       data-iso="BIH"
       data-name-0="Bosnia and Herzegovina"
       data-name-1="Republika Srpska"
       data-name-2=""
       data-nl-name-2=""
       data-type-2="opstina"
       data-varname-2=""
       id="path84"
       style="fill:none;stroke:#000000;stroke-width:0.86110741;stroke-linejoin:round" />
	   <path
       inkscape:connector-curvature="0"
        d="M680.441,661.75c0.22,0.38,0.199,0.77-0.19,1.13c-1.75,1.62-3.25,4.37-5.25,4.74c-2,0.38-8.5-2.37-7.12,0.88
	c1.37,3.25,3.37,6,0.62,6.12c-2.75,0.13-6.4,1.32-11.82,1.1c-0.39-0.29-0.8-0.62-1.239-1.029c-2-1.881-3.82-5.75-8.061-2.94
	c-4.26,2.81-5.939,2.31-9.88,2.69c-3.94,0.369-1.81,4-4.06,5.18c-2.25,1.189-4.32,1.13-4.881,6.07c-0.56,4.93-1.18,4.31-4.439,3.619
	c-3.24-0.689-9.36-0.31-11.11-0.689l-0.26,0.12l-0.65-1.431l-0.899-2.55l-0.88-1.14l-0.311-0.601l-0.3-1l-0.24-1.22l0.011-0.54
	l0.13-0.51l0.189-0.52l0.28-0.471l0.78-0.68l0.699-0.74l0.841-0.68l0.92-1.2l1.8-2.02l0.45-0.62l0.85-1.46l2.04-2.32l0.73-0.99
	l1.01-0.88l1.45-1.479l0.3-0.65l0.16-1.15l-0.04-1.239l-0.23-1.24l-0.34-0.79l-0.23-0.34l-0.55-0.58l-0.63-0.48l-1.07-0.649
	l-0.869-0.74l-0.94-0.64l-0.65-0.521l-0.55-0.33l-2-0.729l-0.99-0.601l-0.369-0.149l-1.24-0.271l-4.141-0.52h-0.739l-1.721,0.199
	l-1.189-0.05l-0.74-0.22l-0.33-0.19l-0.27-0.239l-0.37-0.551l-0.55-1.09l-0.49-0.62l-0.33-0.56l-0.271-1.11l-0.31-2.37l-0.24-0.71
	l-0.189-0.319l-1.57-1.55l-0.9-0.65l-1.38-1.31l-0.399-0.521l-0.141-0.34l-0.189-0.73l-0.141-1.189l-0.14-3.78v-2.479l0.2-3.551
	c0,0,0.25,2.11,5.63,1.48c5.38-0.62,2.62,1.63,4.88,2.63c2.24,1,5.26,1.5,7.63,0s2.49,1.25,4.74,2.37c2.25,1.13,2.37-1.87,4.87-1.62
	s5.26,1,6.26,2.75s4.5,3.37,7.24,3.13c2.76-0.26,4.63,0.37,6.38,2.37s5.75,0.87,6,5.87s2.5,5.26,5.5,4.76s4.75,2.24,5.38,2.87
	c0.62,0.63,4.12-1.25,6.5,0c2.37,1.25,1.87,3.37,3.62,3.75s3.88,1.5,5.38,0C676.05,659.33,679.71,660.44,680.441,661.75z"/>
       data-engtype-2="Opstina"
       data-id-0="29"
       data-id-1="3"
       data-id-2="43"
       data-iso="BIH"
       data-name-0="Bosnia and Herzegovina"
       data-name-1=""
       data-name-2=""
       data-nl-name-2=""
       data-type-2="opstina"
       data-varname-2=""
       id="path84"
       style="fill:none;stroke:#000000;stroke-width:0.86110741;stroke-linejoin:round" />
	    <path
       inkscape:connector-curvature="0"
        d="M679.8,202.65l-1.09,2.21l-0.38,0.47l-0.59,0.52l-0.69,0.75l-0.83,0.63l-0.7,0.73l-0.819,0.63l-0.71,0.73
	l-1.45,1.09l-0.57,0.3l-0.75,0.17l-1.63,0.19l-0.75,0.15l-0.33,0.12l-0.939,0.52l-0.34,0.12l-0.78,0.15l-2.25,0.06l-5.74-0.18
	l-1.35,0.03l-0.83,0.1l-0.71,0.21l-0.94,0.51l-0.67,0.18l-0.78,0.09l-2.489,0.13l-0.771,0.14l-0.35,0.12l-0.551,0.36l-1.01,1.36
	l-2.05-1.09l-0.94-0.69l-0.649-0.27l-1.04-0.33l-0.64-0.29l-0.841-0.71l-0.93-0.65l-0.83-0.77l-0.55-0.33l-1.69-0.84l-1.189-0.44
	l-3.36-0.47l-0.81-0.23l-0.4-0.18l-0.74-0.45l-0.979-0.81l-0.84-0.86l-0.62-0.76l-0.46-0.43l-0.33-0.19l-0.74-0.25l-1.24-0.18
	l-3.17-0.09l-2.21,0.1l-0.77,0.15l-0.33,0.12l-0.7,0.41l-0.53,0.23l-0.68,0.14l-1.84,0.22l-0.67,0.17l-0.53,0.29l-1.21,1l-0.37,0.39
	l-0.72,0.94l-0.561,0.47l-0.33,0.2l-0.35,0.16l-0.76,0.2l-2.34,0.26l-0.69,0.16l-0.31,0.12l-0.891,0.63l-1.069,0.57l-1.15,0.71
	l-0.92,0.42l-0.67,0.06l-0.89-0.2l-0.58-0.26l-0.5-0.46l-0.87-1.69l-0.971-1.04l-1.109-1.65l-0.3-0.63l-0.08-0.58l0.13-0.53
	l0.14-0.22l0.51-0.53l0.9-1.13l0.54-0.46l1.09-0.67l0.45-0.35l0.18-0.28l0.17-0.63l-0.04-0.65l-0.1-0.32l-0.17-0.3l-0.4-0.41
	l-1.05-0.84l-0.6-0.31l-0.721-0.18l-0.79-0.09l-2.399-0.07l-0.65-4.65l-0.04-1.84l-0.08-0.73l-0.29-1.1l-0.42-0.85l-1.68-1.45
	l-0.14-0.51c0,0,2.819-0.93,5.1,0c2.29,0.94,3.29,1.05,1.17-2.32c-2.13-3.37,1.74-2.74,4.87-2.24s2.87,0.37,4.63-1.07
	c1.74-1.43,2.87-0.93,2.62,0.81c-0.25,1.76,2.88,3.86,3,1.87c0.12-1.99-2.12-4.37,0-4.37s4.38,0.88,4.12-1.62
	c-0.24-2.5,0.76-2.5,2.38-2.25s1.55-1.9,1.55-1.9l3.13,0.93l1.351,0.23l2.38,0.28h0.66l1.399-0.16l2.25-0.39l3.311,0.63l0.76,0.23
	l0.59,0.33l2.21,1.67l0.561,0.33l2.27,0.72l1.93,0.8l2.051,0.47l2.069,0.01l1.25,0.12l0.82,0.23l0.74,0.38l0.88,0.76l0.76,0.93
	l1.04,1.06l1.39,2.06l1.07,1.87l1.42,2.03l0.42,0.43l1.311,1.08l0.55,0.34l1.68,0.59l1.311,0.7l0.8,0.24l1.359,0.17l3.32,0.17
	l0.87,0.17l0.4,0.16l0.359,0.21l0.471,0.52l0.729,1.38l0.49,0.63l0.32,0.56l0.189,0.72l0.37,2.71l0.29,0.72l0.24,0.32l0.25,0.23
	l0.56,0.35l1.57,0.65l2.38,0.58L679.8,202.65z"/>
       data-engtype-2="Opstina"
       data-id-0="29"
       data-id-1="3"
       data-id-2="44"
       data-iso="BIH"
       data-name-0="Bosnia and Herzegovina"
       data-name-1=""
       data-name-2=""
       data-nl-name-2=""
       data-type-2="opstina"
       data-varname-2=""
       id="path86"
       style="fill:none;stroke:#000000;stroke-width:0.86110741;stroke-linejoin:round" />
	   <path
       inkscape:connector-curvature="0"
        d="M677.18,104.04l-0.08,0.32c-1.04-0.27-2.119-0.68-3.1-1.19c-3.5-1.84-4.17-1.34-7.67-1.67
	s-4.33,1.67-7.51,2.54c-3.181,0.87-0.82,1.96-0.49,4.63c0.18,1.42,0.45,1.75,0.65,1.75l1,0.53l-0.681,0.76
	c-2.189,0.08-3.55-0.21-5.37-0.59c-1.81-0.37-8.18,0.38-8.43,2.63s-4.25,2-6.25,2.5s-1.87,5.13-1,7.13s-5.37,3.37-7.13,4.12
	c-1.74,0.75-1.311,3.04-1.311,3.04c-2.619-0.37-2.09,0.09-3.189-1.66c-1.24-2-2.87-2.76-6.74-1.26c-3.88,1.5-5.5,0.38-8.88-2.62
	s-3.46,0.75-4.67-1.25s-1.83-3.75-3.95-4.5c-2.13-0.75-2.88-1.63-2.88-1.63s-3.12-2.62-1.62-3.12s1.18-2.75-0.41-4.88
	c-1.59-2.12-0.09-3.62,2.78-4.37s0.37-4.87,0.25-6.25s-2-2.25-1.88-4c0.13-1.75,3.13-2,1.76-4.38c-1.38-2.37-2.52-5.92-1.63-6.27
	l0.09-0.49c3.271,0.61,7.18,0.76,7.66-0.19c0,0,2.88,0.91,6.25,0c3.37-0.92,4.37-1.09,6.63,0c2.24,1.08,2.12-2.42,5.62-2.29
	c3.5,0.12,5.75,1.5,7.88,3.62c2.12,2.12,3.49-1.54,9.22-0.27c5.73,1.27,6.07,2.46,9.07,0.95c3-1.51,4.66-6.68,7-6.51
	c2.33,0.16,7.5,0,6.83-3.17c-0.05-0.23-0.12-0.45-0.2-0.64l0.26-0.11c0,0,2.69-1.5,2.69,0.63c0,2.12-1.37,3-0.63,4.37
	c0.76,1.37,1.13,1.13,0.63,2.87c-0.5,1.76,1.87,2.76,3.63,1.88c1.74-0.88,3.37,0.14,4.24,0.32c0.88,0.18,2-0.45,1.38,4.55
	c-0.62,5.01-6.26,0.01-5.88,2.51s4.5,2.62,4.76,4C676.12,97.75,675.5,101.99,677.18,104.04z"/>
       data-engtype-2="Opstina"
       data-id-0="29"
       data-id-1="3"
       data-id-2="45"
       data-iso="BIH"
       data-name-0="Bosnia and Herzegovina"
       data-name-1=""
       data-name-2="Modrica"
       data-nl-name-2=""
       data-type-2="opstina"
       data-varname-2="Opstina Modrica"
       id="path88"
       style="fill:none;stroke:#000000;stroke-width:0.86110741;stroke-linejoin:round" />
	   <path
       inkscape:connector-curvature="0"
        d="M665,76c0.67,3.17-4.5,3.33-6.83,3.17c-2.34-0.17-4,5-7,6.51c-3,1.51-3.34,0.32-9.07-0.95l0.811,0.02
	l0.8-0.17l0.68-0.37l0.551-0.48l0.819-1.22l0.5-0.6l0.28-0.54l0.15-0.68l0.18-1.79l0.25-0.63l1.07-1.07l0.439-0.32l0.67-0.18
	l0.36-0.02l0.72,0.08l0.65,0.22l0.89,0.58l0.32,0.13l0.74,0.15l0.789,0.01l0.78-0.15l0.67-0.32l0.54-0.42l0.561-0.6l0.37-0.27
	l0.35-0.11l0.58-0.03l-0.12-3.29l0.04-1.16l0.17-0.7l0.16-0.31l0.25-0.29l0.34-0.21l0.38-0.14c1.561,3.25,4.94,3.04,5.96,5.51
	C664.88,75.55,664.95,75.77,665,76z"/>
       data-engtype-2="Opstina"
       data-id-0="29"
       data-id-1="3"
       data-id-2="46"
       data-iso="BIH"
       data-name-0="Bosnia and Herzegovina"
       data-name-1=""
       data-name-2="Modrica"
       data-nl-name-2=""
       data-type-2="opstina"
       data-varname-2="Opstina Modrica"
       id="path90"
       style="fill:none;stroke:#000000;stroke-width:0.86110741;stroke-linejoin:round" />
	   
    
    
  </g>
</svg>
