<?xml version="1.0" encoding="utf-8"?>
<!-- Generator: Adobe Illustrator 16.0.0, SVG Export Plug-In . SVG Version: 6.00 Build 0)  -->
<!DOCTYPE svg PUBLIC "-//W3C//DTD SVG 1.1//EN" "http://www.w3.org/Graphics/SVG/1.1/DTD/svg11.dtd">
<svg version="1.1" id="Mapa" xmlns="http://www.w3.org/2000/svg" xmlns:xlink="http://www.w3.org/1999/xlink" x="0px" y="0px"
	 width="1000px" height="828px" viewBox="0 0 1000 828" enable-background="new 0 0 1000 828" xml:space="preserve">
<path fill="none" stroke="#000000" d="M985.481,371.54l1.329,0.83c-1.35,0.03-0.81-0.2-3.81,0c-3,0.2-7.83,0.8-11.67,0
	c-3.83-0.8-5.16-1.54-9.5-3.2c-4.33-1.67-5.33-1.5-7.16-1.34c-1.47,0.14-1.87,1.23-4.78,1.92v-0.01c0,0-2.93-2.24,0-4.07
	c2.94-1.84,5.28-1.34,4.44-3.17c-0.83-1.83,1.17-2,2.67-1.67c1.5,0.34,4.67-2.33,1.83-4c-2.83-1.66-5.1-0.83-4.55-3.16
	c0.55-2.34,2.779-3.17,0-2.84c-2.78,0.34-5.101,2.36-5.69-0.07c-0.59-2.43-2.09-5.26-3.26-3.76c-1.16,1.5-1.66,2.83-4.16,1.5
	s-3.34-1.17-3.67-3.75s1.67-3.08,0-4.58s-2.17-1.34-3-2c-0.83-0.67-4.83,0-4.83,0s-3.34-1.93-3.5-0.3
	c-0.17,1.63-3.84,2.39-5.67-0.65c-1.83-3.05,1.33-3.39-3-4.05c-4.33-0.67-7.5-1.17-8.83-1.84c-1.34-0.66-0.5-3.83-3.34-2
	c-2.83,1.84-8.33,2.84-10,2.5c-1.66-0.33-5.66,1.34-5.66,1.84s-2.84,0.83-3.17,2c-1.17,0.08-5.33-3.67-6.42-5.67
	c-1.08-2-0.66-1.58-3.25-3.25c-2.58-1.67-3.58-1.83-4.66-4.42c-1.09-2.58-2.5-0.75-4.67-1s-3.08-1.33-3.35-3.16
	c-0.271-1.84,0-3.33,0-3.33c1.399-0.4,0.39-0.68,0.68-2.01c0.34-1.5-0.66-2.66,0-5.19c0.3-1.11,0.49-1.3,0.63-1.16v0.01
	c0.16,0.19,0.21,0.86,0.21,0.86s2,0.65,3,0c1-0.64,2.33-0.85,3.33-0.18c1,0.66,5.17-0.5,7.17-2.5s3,2.83,4.33,1.26
	c1.33-1.58,4-0.6,6.83-0.1c2.1,0.37,3.37-0.44,3.89-0.89l1.99,0.57l0.69-0.03l2.39-0.12l3.76-1.15l2.83-1.06l2.51,0.15l0.94,0.06
	l2.3,1.05l2.5-0.06l2.601-0.01h0.13l2.739,3.36l0.32,0.49l1.96,3.12l1.78,1.96l0.45,0.5l0.649,3.49l-0.05,0.42l-0.29,2.51l2.36,2.7
	l1.029,2.64l1.04,3.57l2.44,1.68l1.12,0.77l3.81,1.94l3.2,1.59l1.61,1.38l1.13,0.97l2.6,2.69l2.36,2.63l2.45,1.65l3.069,0.43
	l3.74-0.58l1.36-0.63l0.97-0.45l0.95,2.2l0.27,2.28l0.03,0.27l1.07,2.44l2.87,2.53l2.3,2.98l2.189,3.1l3.091,2.94l0.18,0.17
	l4.399,2.27l2.931,1.69l3.729,2.85L985.481,371.54z"
	data-engtype-1="Opstina"
    data-id-0="29"
    data-id-1="3"
	data-id-2="1"
    data-iso="BIH"
    data-name-0="Bosnia and Herzegovina"
    data-name-1="Republika Srpska"
    data-name-2="Bratunac"
    data-nl-name-2=""
    data-type-2="Opstina"
    data-varname-2="Bratunac"
    id="path2"/>
 
<path fill="none" stroke="#000000" d="M999.12,378.41l-0.521-1.97l0.341-3.85l-0.79-0.29l-2.32-0.86l-1.13-2.02l-1.75-1.74
	l-0.72-0.71l-2.78,0.27l-0.54,0.8l-0.351,0.51l0.11,2.23l0.48,1.53l-1.58,0.53l-0.03-0.02l-0.73-0.45c-1.35,0.03-0.81-0.2-3.81,0
	c-3,0.2-7.83,0.8-11.67,0c-3.83-0.8-5.16-1.54-9.5-3.2c-4.33-1.67-5.33-1.5-7.16-1.34c-1.47,0.14-1.87,1.23-4.78,1.92v-0.01
	c0,0-2.93-2.24,0-4.07c2.94-1.84,5.28-1.34,4.44-3.17c-0.83-1.83,1.17-2,2.67-1.67c1.5,0.34,4.67-2.33,1.83-4
	c-2.83-1.66-5.1-0.83-4.55-3.16c0.55-2.34,2.779-3.17,0-2.84c-2.78,0.34-5.101,2.36-5.69-0.07c-0.59-2.43-2.09-5.26-3.26-3.76
	c-1.16,1.5-1.66,2.83-4.16,1.5s-3.34-1.17-3.67-3.75s1.67-3.08,0-4.58s-2.17-1.34-3-2c-0.83-0.67-4.83,0-4.83,0s-3.34-1.93-3.5-0.3
	c-0.17,1.63-3.84,2.39-5.67-0.65c-1.83-3.05,1.33-3.39-3-4.05c-4.33-0.67-7.5-1.17-8.83-1.84c-1.34-0.66-0.5-3.83-3.34-2
	c-2.83,1.84-8.33,2.84-10,2.5c-1.66-0.33-5.66,1.34-5.66,1.84s-2.84,0.83-3.17,2c-0.33,1.16-1,3.66,0,4.33s1.5,0.83,1.33,3.17
	c-0.16,2.33-1.5,1.66,0,3.33s1,2.5-3,2s-9.5-1.67-6.66,2c2.83,3.67-0.67,4.67,1.33,7.17s8,0.16,11,1.33s1,2,0,3.83
	c-1,1.84-1.67,3.3-0.67,4.9s2.5,0.94-0.33,3.1c-2.83,2.17-3,1-3,3.5s1.33,1.84-0.5,4c-1.83,2.17-2.54,0.55-1.83,4.17
	c0.29,1.46,0.38,2.31,0.39,2.81c0.04,0.75-0.119,0.71-0.119,0.71c0.18,0.06,0.329,0.1,0.439,0.1c0.62,0,1.12,2.13,1.12,4
	c0,1.88,1.75,3.5,3.25,4.13s2.25,0.63,2,2.63s1.13,3.12,3.13,3.62s3.5,0.5,3.62,1.38c0.12,0.87,3.19,2.98,2.37,3.92
	c1.91-0.66,4.02-2.06,3.63-2.97c-0.5-1.16,1.83-4.5,7.17-2.16l0.04-0.01l-0.47-1.25l-1.34-3.35l-0.221-0.54l-2.97-3.4l-2.27-3.67
	l0.55-0.8l1.64-2.38l1.82,0.32l0.55,0.1l3.24,0.59l5.029,1.97l6.171,1.06l4.02,2.62l4.75,1.62l3.47,2.43l7.19,1.86l6.75,0.55
	l8.05,0.75l5.78,0.92l6.42,0.13l5.95-0.03l1.649-1.44l2.63-3.73l3.881-1.89l2.409-2.49l1.641-2.8l3.95-1.81l3.64-1.44l4.149-2.48
	l0.03-0.62l0.101-1.99L999.12,378.41z"
	data-engtype-1="Opstina"
    data-id-0="29"
    data-id-1="3"
	data-id-2="2"
    data-iso="BIH"
    data-name-0="Bosnia and Herzegovina"
    data-name-1="Republika Srpska"
    data-name-2="Srebrenica"
    data-nl-name-2=""
    data-type-2="Opstina"
    data-varname-2="Srebrenica"
    id="path3"/>

<path fill="none" stroke="#000000" d="M916.66,122.79l0.24,1.99l-3.25,2.41l-2.21,1.62l-0.79,1.7l1.67,1.42l0.01,1.44l-1.45,1.63
	l-2.5,0.92l-0.14,1.83l0.68,3.8l-0.22,2.75l-0.95,2.6l-0.14,3.26l0.04,2.16l-0.23,2.82l-0.05,2.71l-1.12,2.64l-0.06,2.78l-0.73,3.28
	l-0.56,1.26l-0.91,2.02l-1.29,2.67l-1.54,1.69l-0.58,0.56l-1.72,1.69l-3.261,2.47l-2.09,3.94l-1.52,3.56l-1.2,3.11l-0.11,2.63
	l-1.029,2.58l-1.86,2.62l-0.86,4.12l-0.79,3.13l-1.63,3.24l-1.1,1.56l-2.021,0.66l-4.069-0.05l-0.551,1.12L876.5,211
	c0,0-0.25-6.75-4.75-4.75S866.25,205,866,202s-2.96-2.5-5.35-2c-2.4,0.5-1.261-3.75-5.2-1.75c-3.95,2-6.38-1-10.91,0.75l-0.11,0.02
	c-0.529-3.3-2.859-4.14,0.07-6.02c3.5-2.25,1-5.98,4.5-5.99c3.5-0.01,3.25-3.76,5.25-4.01s2-7-4-4s-4.25-2.89-9.75,1.18
	c3-7.68,0-4.73-2.75-6.83s-2.25-8.32-3.75-6.71c-1.5,1.61-4.25,0.11-9.25,3.86c-1.25-3.25-2.75-1.75-4-4.13
	c-1.25-2.37,3.5-3.62,0-5.37s-3.5-0.75-4.25-3s-1.25-8-5.25-5.5s-5.16,2.21-6.96,3.48c-0.39-0.84-0.44-0.69-1.58-1.79l0.05,0.03
	l0.88-5.22l0.82-2.09l0.17-0.77l0.29-2.78l0.87-3.83l0.24-2.75l0.25-0.74l0.42-0.62l0.58-0.5l0.66-0.35l1-0.3l0.989-0.19l0.74-0.02
	l0.74,0.08l2.38,0.47l3.54,0.48l0.58-0.09l0.28-0.15l0.27-0.27l0.15-0.32l0.08-0.33l-0.04-0.69l-0.23-0.67l-0.4-0.53l-1.399-1.28
	l-0.91-0.66l-0.83-0.75l-1.83-1.41l-2-1.12l0.29-0.41l2.12,0.03l5.82,0.1l4.989-0.93l3.341-1.02l2.29-0.7l6.359-2.08l3.05-2.25
	l2.891-2.28l0.78-0.36l2.289-1.03l2.62-1.68l1.63-2.08l0.601-0.77l3.899-0.78l2.841-1.5l2.819-2.37l2.471-1.72h2.529h0.261h0.38
	l2.939,1.4l1.351,2.35l0.84,1.97l3.24,1.09l0.199-0.11l2.101-1.14l2.439-1.58l2.82-0.86l3.98,0.67l3.42,0.99l2.859,0.38l3.91,0.59
	l1.021,0.38l4.06,1.67l4.58,2.02l2.38,0.3l0.32,0.04l0.39,1.59l1.69-1.09h2.43l1.25,1.48l-1.4,1.79l1.08,2.51L916.66,122.79z"
	data-engtype-1="Opstina"
    data-id-0="29"
    data-id-1="3"
	data-id-2="4"
    data-iso="BIH"
    data-name-0="Bosnia and Herzegovina"
    data-name-1="Republika Srpska"
    data-name-2="Bijeljina"
    data-nl-name-2=""
    data-type-2="Opstina"
    data-varname-2="Bijeljina"
    id="path4"/>
<path fill="none" stroke="#000000" d="M901.17,436.83c0.33,2.34-1.34,1.84-3.17,2.67s-1,5.33,0.67,6.17c1.66,0.83,0,0.83-0.84,4.5
	c-0.83,3.66-2,0.66-3.83,0.66s-3.17,0.84-4.5,4.39c-1.33,3.561-2.17,1.28-5.53,0c-3.359-1.27-1.47,0.28-3.3,2.78
	c-1.84,2.5,2.66,1.5,5,3.83c2.33,2.34,0,1.84,2,6.17s0,0,3.16,2.33c3.17,2.34-0.33,2.17,0,4.5c0.22,1.51,1.34,2.47,2.1,2.96
	c-0.62,0.03-1.689,0.28-3.43,0.38c-3,0.16-4.67-0.34-7.67-2.34s-0.66-1.5-4.33-3.33s-1.33-2-4.17-1.58
	c-2.83,0.41-3.83,1.08-7.33-1.75c-3.5-2.84-2.5-1.5-5.35,0.5c-2.86,2-4.15,1.66-6.32-1.52c-2.16-3.19-6.16-2.15-8-0.48
	c-1.83,1.66-6.83,0.66-6.83,0.66l-0.2,0.3l-0.75-0.49l-1.95-1.76l-1.39-2.01l-0.35-0.68l-0.641-1.66l-0.979-1.48l-0.221-0.67
	l-0.31-1.42l-0.25-0.67l-0.38-0.53l-1.25-1.1l-0.65-0.36l-0.85-0.22l-1.41-0.13l-1.979-0.04l-1.49,0.05l-0.97,0.1l-1.7,0.381
	l-0.16-0.721c-0.37-0.52-0.87-1.47-1.5-3.34c-0.62-1.88-1.12,0.24-3.37,0c-2.25-0.26-1-1.26-1.87-2.88
	c-0.88-1.62-2.38-0.25-4.76-0.83c-2.37-0.57-1.24-2.17-1.74-3.17s-1-1.25-0.76-3.88c0.12-1.22,0.45-1.86,0.77-2.39
	c0,0,3.36,3.27,4.49,1.649c1.12-1.63-0.76-1.63,1.74-3.26c2.5-1.62,2.76-1.74,3.63-3.37s2.25-2.37,4.63-2.25
	c2.37,0.12,4,2.97,4.12-0.01c0.12-2.99,0.25-4.74,3.38-4.87c3.12-0.12,5.74-2.12,7.37-0.74c1.63,1.37,3.5,1.62,4.37,1.12
	c0.88-0.5,3.88-1.66,3.76-2.58c-0.13-0.92-2-2.92,0-3.67s2.87-0.87,2.37-3.37s-1.63-4-1-4.76c0.63-0.74-0.22-0.5,1.14-1.37
	c1.36-0.87,3.73-4,2.86-6s-2.87-2.63-1.75-4s2.13-0.75,1.94-2.63c-0.19-1.87-1.061-0.37-0.19-1.87c0.14-0.24,0.3-0.44,0.46-0.6
	v-0.01c0.84-0.87,1.79-0.95,1.17-2.52c-0.76-1.87-4.38-4.12-2.26-4c2.13,0.13,6-0.5,7.13,1.38s0.13,3,4,3.25s3.63-1.51,7.5-0.63
	s4,4.87,5.37,0c1.38-4.87-1.5-4.24,1.38-4.87s3.25-2.63,4.88-3.25c1.33-0.51,2.75,0.24,3.561,0.52c0.18,0.06,0.329,0.1,0.439,0.1
	c0.62,0,1.12,2.13,1.12,4c0,1.88,1.75,3.5,3.25,4.13s2.25,0.63,2,2.63s1.13,3.12,3.13,3.62s3.5,0.5,3.62,1.38
	c0.12,0.87,3.19,2.98,2.37,3.92l-0.01,0.01c-0.551,0.19-1.08,0.32-1.53,0.36c-2,0.16-7.16,1.66-9.33,2.5
	c-2.17,0.83-0.33,2.16,0.83,3.3c1.17,1.15,6.5,8.36,8.84,10.53c2.33,2.17,0.16,1.33-0.5,3c-0.67,1.67,0,0.67,1.66,2.5
	c1.67,1.83,0.17,1.33,0,3.83C900.17,434.33,900.83,434.5,901.17,436.83z"
	data-engtype-1="Opstina"
    data-id-0="29"
    data-id-1="3"
	data-id-2="5"
    data-iso="BIH"
    data-name-0="Bosnia and Herzegovina"
    data-name-1="Republika Srpska"
    data-name-2="Rogatica"
    data-nl-name-2=""
    data-type-2="Opstina"
    data-varname-2="Rogatica"
    id="path5"/>
<path fill="none" stroke="#000000" d="M893.52,304.74l0.7,0.2c-0.52,0.45-1.79,1.26-3.89,0.89c-2.83-0.5-5.5-1.48-6.83,0.1
	c-1.33,1.57-2.33-3.26-4.33-1.26s-6.17,3.16-7.17,2.5c-1-0.67-2.33-0.46-3.33,0.18c-1,0.65-3,0-3,0s-0.05-0.67-0.21-0.86v-0.01
	c-0.56-3.14-4.21-5.6-6.34-6.23c-2.12-0.63-2.62-1-5.37-5.13c-2.75-4.12-3.13,1.13-3.87,2.91c-0.76,1.79-2.26,1.47-4.63,0
	c-2.37-1.46-1.63-1.91-4.25-0.41c-0.69,0.4-1.17,0.48-1.53,0.36c-0.989-0.33-0.979-2.22-1.72-3.23c-1-1.37-2.37,0.13-5.14-0.63
	c-2.771-0.74-2.73-1-1.99-5.24c0.76-4.26,5.38-2.38,5.38-5.5c0-2.93,1.32-2.35,4.08-3.6c0.18-0.09,0.37-0.18,0.57-0.28
	c3.14-1.62-0.15-1.38-1.4-3s-0.87-1.38-0.63-4.25c0.26-2.87,2.63-3.13,1.88-6.63s-1.75-0.74-5.38-1.62
	c-3.62-0.88-3.37-1.25-5.12-4.25s-3.38-2.37-4.62-4.13c-1.26-1.74-2.13-3.5-2.13-3.5l-0.28-0.18l0.8-1.22l0.54-0.58l0.32-0.46
	l0.54-1.44l0.9-1.34l0.59-1.97l0.84-1.62l0.54-1.19l0.93-1.61l0.74-1.48l1.22-1.95l0.681-0.81l0.3-0.51l0.189-0.66l0.221-1.4
	l0.16-0.66l0.84-1.43l0.189-1.11l-0.01-2.1l-0.37-5.69l0.021-1.24l0.1-0.76l0.23-0.66l0.729-1.1l0.5-1.61l0.28-0.65l1.17-1.95
	l0.68-0.81l0.311-0.5l0.199-0.63l0.53-2.29l0.94-2.67l-0.08-1.58l0.26-0.01c0,0,5,0.25,5.5-5c0.08-0.85,0.04-1.59-0.07-2.23
	l0.11-0.02c4.53-1.75,6.96,1.25,10.91-0.75c3.939-2,2.8,2.25,5.2,1.75c2.39-0.5,5.1-1,5.35,2s1.25,6.25,5.75,4.25
	s4.75,4.75,4.75,4.75l0.27,0.13l-1.09,2.2l0.471,0.92l0.96,1.87l-0.38,2.26l-0.061,0.37l-1.95,2.68l-0.89,2.32l-0.811,1.83
	l-2.279,1.18l-3.141-0.07l-2.119,0.01l-1.631,0.01l-1.93,2.1l0.58,4.92l0.78,4.23l0.649,2.15l0.9,2.96l0.189,0.46l0.15,0.34
	l0.94,2.24l0.6,1.41l0.13,0.32l1.42,3.86l0.66,5.93l-1.08,4.42l-2.899,1.98l-3.46,1.79l-0.921,3.53l0.79,3.16l1.721,2.57l-0.23,2.38
	l0.08,2.45l2.14,2.07l1.23,2.54l0.34,2.86l2,3.41l3.07,2.91l0.24,0.32l2.31,3.2l2.17,2.37l3.99,0.39l3.59-0.19l2.96-0.32l2.1,0.84
	l0.851,0.33l1.14,2.02L893.52,304.74z"
	data-engtype-1="Opstina"
    data-id-0="29"
    data-id-1="3"
	data-id-2="6"
    data-iso="BIH"
    data-name-0="Bosnia and Herzegovina"
    data-name-1="Republika Srpska"
    data-name-2="Zvornik"
    data-nl-name-2=""
    data-type-2="Opstina"
    data-varname-2="Zvornik"
    id="path5"/>

<path fill="none" stroke="#000000" d="M884.84,597.35l0.17,10.71l-6.16-0.279l-4.02-0.391l-0.11,3.11l-0.56,2.83l-0.01,0.04l-3.17,2.76
	l-3.591-2.87l-2.62-2.88l-0.329-0.6l-1.94-3.431l-3.44-2.409l-3.76-1.48l-0.64-2.36l-0.021-0.05l0.011-0.02l0.939-3.21l0.271-2.15
	l-1.21-2.03l-3.23-2.22l-4.04-3.74l-4.92-4.85l-2.88,0.62l-2.82,0.71l-3.41,0.37l-4.22,0.29l-3.77,1.08l-4.13,1.72l4.109,6.32
	l-3.5,1.92l-4.84,2.08l-4.4,1.949l-5.899,2.15l-4,1.97l-3.76,3.01l-3.29,2.681l-0.471,0.21L795,608.5c-1.25-2.25-7-0.5-11-2.5
	s-5.25-5-8.25-10.75s-6.25,2-11-2s-7-3.75-7.75-5.41s1-3.84-5.75-1.59c-2.15,0.64-8.25-4.25-6.25-5.82c2-1.56,3.25-4.18,1.5-5.68
	s1.25-4.5,3.48-6.25c2.239-1.75-2.23-3.25-3.48-6.25s-1.75-5.75,0-7.5s6.25-0.25,0-5.25s-3.25,0-1.5-7.5s3.5-6.25,4.5-7.5
	s-3.5-1.75-3-4s2.5-1,3.75-1.75s-2.25-1-2.5-6s3.75-4,6.5-5.75c2.74-1.75-3-4.25-3-7.5s5.99-4.77,5.99-4.77l0.649,0.38l1.61,0.85
	l0.88,0.12l0.5,0.14l2.92,1.15l1.931,0.88l2.329,0.68l0.32,0.141l0.99,0.6l0.34,0.13l1.17,0.24l2.57,0.24l0.81,0.14l0.71,0.23
	l0.99,0.59l0.31,0.13l0.7,0.18l1.9,0.33l0.689,0.19l0.311,0.13l0.979,0.59l0.71,0.25l0.811,0.14l1.32,0.11l9.279,0.22l1.391,0.07
	l1.35,0.15l0.87,0.21l1.95,0.81l2.31,0.69l0.32,0.149l0.97,0.62l0.62,0.24l1.25,0.22l1.35,0.08l0.92-0.02l0.9-0.08l0.87-0.21
	l0.39-0.16l0.721-0.4l1.939-1.35l1.4-0.8l0.85-0.711l2.42-1.27l1.19-0.56l1.12-0.771l0.62-0.25l1.34-0.4l0.529-0.289l0.74-0.561
	l0.681-0.33l1.199-0.38l1.74-0.43l1.87-0.33l0.04,0.22c1.34,0,2.5,2,3.17,3.33s1,3.67,4.17,5.17c3.16,1.5,3.16-1.5,5.66-2.67
	c0.689-0.32,1.1-0.26,1.35,0c0.641,0.68,0.12,2.76,0.45,3c0,0,0.01,0.01,0.021,0.02c0.02,0.021,0.04,0.04,0.06,0.061
	c0.021,0.02,0.04,0.04,0.07,0.07c0.29,0.449,0.18,1.58-0.11,4.52c-0.34,3.33,2,2,5.33,4s2.67,6.16,2.67,6.16v0.06l-0.57-0.02
	l-4.22,1.78l-0.08,0.06l-3.06,2.57l-1.37,3.279l1.05,2.561l2.39-2.57l1.91-1.609l1.58-0.23l1.86-0.27l0.03,0.75l0.109,3.329
	l1.891,1.45l-0.761,3.62l0.561,1.45l0.76,1.95l2.76,3.56l0.28,0.141l4.55,2.34l6.65,3.35l1.09,5.21l1.99,3.32l4.88,5.06l2.3,6.311
	l-0.02,5.479l2.989,6.09l4.351,5.42L884.84,597.35z"
	data-engtype-1="Opstina"
    data-id-0="29"
    data-id-1="3"
	data-id-2="7"
    data-iso="BIH"
    data-name-0="Bosnia and Herzegovina"
    data-name-1="Republika Srpska"
    data-name-2="Foca"
    data-nl-name-2=""
    data-type-2="Opstina"
    data-varname-2="Foca"
    id="path6"/>

<path fill="none" stroke="#000000" d="M850.25,179c6-3,6,3.75,4,4s-1.75,4-5.25,4.01c-3.5,0.01-1,3.74-4.5,5.99
	c-2.93,1.88-0.6,2.72-0.07,6.02c0.11,0.64,0.15,1.38,0.07,2.23c-0.5,5.25-5.5,5-5.5,5l-0.26,0.01l-0.05-0.92l-0.311-1.45l-0.49-0.81
	l-1.14-1.17l-2-1.6l-0.55-0.33l-2.41-1.26l-3.36-1.42l-1.42-0.31l-1.939-0.14l-1.45,0.04l-1.38,0.22l-2.851,1.16l-0.71,0.37
	l-1.02,0.72l-0.99,0.84l-0.17-0.2c-2-3.75-10-2.25-5.5-8.25s2.5-5.25,0-7.25s-3.5,1.5-8.31,0c-4.811-1.5-5.69-3.5-1.44-7
	s1.75-3.5-0.5-4.15c-2.26-0.65,0-4.35,0-4.35s-0.25-3.75,2.75-6.25s2.25-3.5,1.25-5.75c-0.2-0.46-0.35-0.78-0.46-1.02
	c1.8-1.27,2.96-0.98,6.96-3.48s4.5,3.25,5.25,5.5s0.75,1.25,4.25,3s-1.25,3,0,5.37c1.25,2.38,2.75,0.88,4,4.13
	c5-3.75,7.75-2.25,9.25-3.86c1.5-1.61,1,4.61,3.75,6.71s5.75-0.85,2.75,6.83C846,176.11,844.25,182,850.25,179z"
	data-engtype-1="Opstina"
    data-id-0="29"
    data-id-1="3"
	data-id-2="8"
    data-iso="BIH"
    data-name-0="Bosnia and Herzegovina"
    data-name-1="Republika Srpska"
    data-name-2="Ugljevik"
    data-nl-name-2=""
    data-type-2="Opstina"
    data-varname-2="Ugljevik"
    id="path7"/>
<path fill="none" stroke="#000000" d="M851.71,396.14v0.01c-0.16,0.16-0.32,0.36-0.46,0.6c-0.87,1.5,0,0,0.19,1.87
	c0.189,1.88-0.82,1.26-1.94,2.63s0.88,2,1.75,4s-1.5,5.13-2.86,6c-1.359,0.87-0.51,0.63-1.14,1.37c-0.63,0.76,0.5,2.26,1,4.76
	s-0.37,2.62-2.37,3.37s-0.13,2.75,0,3.67c0.12,0.92-2.88,2.08-3.76,2.58c-0.87,0.5-2.74,0.25-4.37-1.12
	c-1.63-1.38-4.25,0.62-7.37,0.74c-3.13,0.13-3.26,1.88-3.38,4.87c-0.12,2.979-1.75,0.13-4.12,0.01c-2.38-0.12-3.76,0.62-4.63,2.25
	s-1.13,1.75-3.63,3.37c-2.5,1.63-0.62,1.63-1.74,3.26c-1.13,1.62-4.49-1.649-4.49-1.649c0.37-0.61,0.73-1.04,0.73-1.98
	c0-1.75-1.12-1.13-3.5-1.87c-2.37-0.76-3.74,1.87-5.37,0.74c-1.63-1.12-3,0.38-7.75-2.37s-2.38-2-5.5-5.25s-2.12-1.75-3.75-3.15
	c-1.63-1.39-7.5-0.229-8.63-1.1c-1.12-0.87,0.38-1.13-1.24-2.75c-1.63-1.62-9.63,1.12-10.88,0s-0.75-1.88,0.62-4
	c1.38-2.12,0.88-1.5,0.13-4.5s0.5-1.62,1-3.62s-0.5-3.26-1.37-5.63c-0.88-2.37-1.63-1.75-2.76-4.63c-1.12-2.87-0.74-2.74-1.62-4.5
	c-0.88-1.74-2.62,1.5-2.38,2.99c0.26,1.48-1,1.64-3.37,1.14s-1.13,2.25-1.87,3.63c-0.76,1.37-0.26,2.24-2.26,3.62
	s-3.37,0.62-5.62,0.88c-1.47,0.16-2.2,0.16-3.12-0.42c-0.479-0.3-1.02-0.77-1.76-1.46c-2.12-2-2.87,1.5-4.87,2.38
	c-2,0.87-2.75,2.62-4.5-0.76c-1.75-3.37,0.63-2.5-1.13-3.74c-1.74-1.26-1-1.38-1.37-3.88c-0.36-2.41-3.4-0.99-3.62-0.89l-0.149-0.15
	l0.239-1.16l0.34-0.79l1.44-1.48l0.84-0.61l0.69-0.75l0.75-0.7l0.16-0.25l0.42-1.16l0.279-0.54l0.75-0.7l0.681-0.76l0.83-0.62
	l0.699-0.74l0.82-0.68l0.89-1.22l1.051-1.13l4.02-3.57l1.16-1.11l0.5-0.57l0.85-1.25l0.721-0.77l0.26-0.54l0.3-0.88l0.28-0.53
	l0.729-0.7l0.67-0.76l0.811-0.69l0.82-1.15l0.609-0.71l2.37-2.38h0.51l0.54-0.17l1.19-0.84l0.399-0.38l0.7-1l1.98-2.35l0.97-1.81
	l1.24-1.94l0.37-0.41l0.6-0.51l0.69-0.76l0.81-0.68l0.9-1.15l0.52-0.49l0.59-0.42l1.03-0.6l0.86-0.71l1.42-0.78l2.31-1.52l1.11-0.47
	l1.51-0.36l0.66-0.24l1.17-0.75l3.11-1.53c0.279,0.41,0.909,1.58,1.1,4.06c0.25,3.25,0,4,2.5,5.75s4.75,1,4.25,3.25
	s-3.25,1,2.25,4.25s8,2.5,11,5.5s2,1.25,7,2.25s6,1.75,5.5,4.75s-1.21,7.75,2.14,8.5c3.36,0.75,6.36-1.5,6.61,0s2.25,2.5,3,2.25
	s2.25-2.75,5.25-1.75s0,3,5.25,4s6.5-3.75,9.25,0s3.5,5,5.5,4.25s1-0.58,4.5,0.21C851.231,396.74,851.481,395.56,851.71,396.14z"
	data-engtype-1="Opstina"
    data-id-0="29"
    data-id-1="3"
	data-id-2="9"
    data-iso="BIH"
    data-name-0="Bosnia and Herzegovina"
    data-name-1="Republika Srpska"
    data-name-2="Sokolac"
    data-nl-name-2=""
    data-type-2="Opstina"
    data-varname-2="Sokolac"
    id="path8"/>

<path fill="none" stroke="#000000" d="M821.62,455.22l0.16,0.721l-1.11,0.25l-3.18,0.31l-1.9,0.08l-11.41-0.311l-2.42,0.04l-1.37,0.221
	l-1.92,0.64l-0.84,0.15l-1.33,0.08l-2.26,0.02l-1.31,0.12l-0.421,0.1l-0.76,0.28l-1.56,0.811l-0.46,0.39l-0.311,0.56l-0.149,0.63
	l-0.21,1.58l-0.19,0.551l-0.57,0.829l-0.119,0.271l-0.15,0.62l-0.29,2.43l-0.42,1l-0.851,1.42l-0.34,0.45l-0.83,0.69l-0.71,0.729
	l-0.84,0.61l-0.71,0.74l-0.82,0.68l-1.46,2.1l-0.63,1.04l-0.85,1.021l-0.23,0.56l-0.279,1.94l-0.29,0.859l-0.75,1.07l-0.431,1.17
	l-0.31,0.55l-1.021,0.94l-0.739,0.88l-1.8-0.17l-1.2-0.2l-0.69-0.229l-1.01-0.57l-1.1-0.311l-2.94-0.34l-0.79-0.14l-0.7-0.24
	l-1-0.57l-0.35-0.14l-0.8-0.189l-1.801-0.2l-3.83-0.24l-0.55-0.26l-0.89-0.58l-0.69-0.24l-0.52-0.09l0.13-0.71
	c-3-5.12-8.12-7-11.78-11.12c-3.649-4.12-4.22-3.12-10.47-4.88c-6.25-1.74-8.37-3.24-11.37-4.68c-0.45-0.221-0.939-0.381-1.46-0.5
	v-0.011c-0.46-0.939-0.8-4.439-1.3-7.31c-0.05-0.29-0.101-0.55-0.17-0.78h0.01c1.12-0.49,3.21-0.84,3.04-3.68s2,1.84,2.67,0
	c0.66-1.84,1.5-2.49,3.5-3.83c2-1.33,0-1.33,0-4.5c0-3.16,0.5-3.5,4.83-5.83s0.33-2.17,1.24-4.83c0.91-2.67,0.43-2.17,1.76-5.34
	c1.33-3.16-0.83-2.5-1.67-5.16c-0.83-2.67,4.34-4.34,4.34-7.34s2.21-3.87,2.21-3.87c0.92,0.58,1.65,0.58,3.12,0.42
	c2.25-0.26,3.62,0.5,5.62-0.88s1.5-2.25,2.26-3.62c0.74-1.38-0.5-4.13,1.87-3.63s3.63,0.34,3.37-1.14c-0.24-1.49,1.5-4.73,2.38-2.99
	c0.88,1.76,0.5,1.63,1.62,4.5c1.13,2.88,1.88,2.26,2.76,4.63c0.87,2.37,1.87,3.63,1.37,5.63s-1.75,0.62-1,3.62s1.25,2.38-0.13,4.5
	c-1.37,2.12-1.87,2.88-0.62,4s9.25-1.62,10.88,0c1.62,1.62,0.12,1.88,1.24,2.75c1.13,0.87,7-0.29,8.63,1.1
	c1.63,1.4,0.63-0.1,3.75,3.15s0.75,2.5,5.5,5.25s6.12,1.25,7.75,2.37c1.63,1.13,3-1.5,5.37-0.74c2.38,0.74,3.5,0.12,3.5,1.87
	c0,0.94-0.36,1.37-0.73,1.98c-0.319,0.529-0.649,1.17-0.77,2.39c-0.24,2.63,0.26,2.88,0.76,3.88s-0.63,2.6,1.74,3.17
	c2.38,0.58,3.88-0.79,4.76,0.83c0.87,1.62-0.38,2.62,1.87,2.88c2.25,0.24,2.75-1.88,3.37,0
	C820.75,453.75,821.25,454.7,821.62,455.22z"
	data-engtype-1="Opstina"
    data-id-0="29"
    data-id-1="3"
	data-id-2="10"
    data-iso="BIH"
    data-name-0="Bosnia and Herzegovina"
    data-name-1="Republika Srpska"
    data-name-2="Pale"
    data-nl-name-2=""
    data-type-2="Opstina"
    data-varname-2="Pale"
    id="path9"/>

<path fill="none" stroke="#000000" d="M793.111,616.23l2.81,5.829l-4.64,2.91l-3.23,2.33l-2.52,3.97l-1.99,4.23l0.08,5l-0.83,5.66
	l0.479,6.07l1.591,7.02l1.159,5.13l5.66,18.29l-7.489,0.54l-9.21-0.37l-13.15-0.54l-1.811-0.08c0,0-0.01,0-0.02,0l-0.29-0.01
	l-0.04,0.03c-1.02-0.01-4.08-0.41-6.55-4.62c-3-5.12-0.12-6.101-6.37-6.86s-7.75-1.51-4.63-3.64c3.13-2.12,1.13-5-4.24-3.74
	c-5.38,1.24-3.76-1.38-7-1.88c-3.26-0.5-1.88,7.12-5.63,4.5s-5.75-4.5-4.63-5.5c1.13-1,3-1.25,1.88-4.62
	c-1.12-3.38-4.38-6.76-3.25-8.13c0.12-0.15,0.31-0.37,0.54-0.65c1.81-2.33,6.02-8.89-3.79-13.35c-11-5-12.25,0.5-13.75-6.5
	c-1-3.33-3.75-2.58-2.42-5.17c1.34-2.58,1.75-2.83,0.34-5c-1.42-2.16-0.67-3,0.58-3.5s3.75-2.33,0.67-4.66
	c-3.09-2.34-3.84-12.75-3.42-17.17c0,0,3,1.75,5.75,2s5.25,3.25,8.75,0s2.5-0.75,3.5-3.25s-0.94-5,3.78-5c4.72,0,1.72-5.75,5.97-5
	s4.75,5.5,11.5,5.5s7.25,2.5,14,0.25s5-0.07,5.75,1.59s3,1.41,7.75,5.41s8-3.75,11,2S780,604,784,606s9.75,0.25,11,2.5l0.18,0.41
	l-3.229,1.46l-2.271,2.39l0.09,0.431l0.45,2.239L793.111,616.23z"
	data-engtype-1="Opstina"
    data-id-0="29"
    data-id-1="3"
	data-id-2="11"
    data-iso="BIH"
    data-name-0="Bosnia and Herzegovina"
    data-name-1="Republika Srpska"
    data-name-2="Gacko"
    data-nl-name-2=""
    data-type-2="Opstina"
    data-varname-2="Gacko"
    id="path10"/>
<path fill="none" stroke="#000000" d="M748.74,755.99l0.359-0.07l2.141,10.45l2.8,1.29l0.75,0.34l2.78,2.34l0.439,0.53l1.73,2.11
	l3.12,1.76l4.93,1.06l3.27,0.311l1.421,0.26l3.14,0.59l-1.48,2.39l-1.25,2.03l-0.46,1.9l-0.5,2.04l-0.229,3.93l0.939,3.25l7.95,7.44
	l-2.22,1.689l-2.07,0.33l-1.25,0.21l-4.78,1.03l-1.93,1.8l-0.45,0.42l-0.89,5.09l8.74,4.46l0.22-0.21l-0.18,0.21l0.12,2.681l-1,0.5
	l-0.7,0.35l-0.34,0.18l-2.33,0.67l-3.931-0.409l-3.67-0.94l-2.319-0.61l-3.801,5.521l-2.3,3.35l-3.779,0.16l-3.11,0.14l-7.67-5.31
	l-2.55-2.18l-1.37-1.17l-1.41-1.23l-2.15-2.62l-0.59-0.729l-1.45-1.78l-0.54-0.67l-0.63-0.17l-4.49-1.22l-0.029-0.011l-0.95-0.229
	l-4.271-0.32l-0.579-0.04l-0.181-0.33l-0.21-0.25l-0.819-0.59l-1.761-0.9l-0.85-0.279l-1.37-0.19l-1.41-0.07l-5.229-0.079l-1.4-0.12
	l-0.91-0.181l-0.439-0.14l-0.801-0.38l-2.479-1.67l-1.47-0.891l-0.851-0.77l-0.92-0.67l-0.78-0.76l-0.89-0.67l-0.77-0.79l-0.9-0.74
	l-1.29-1.58l-3.14-2.98l-0.561-0.6l-1.02-1.28l-0.891-0.739l-0.779-0.79l-1.811-1.341l-0.64-0.29l-1.05-0.319l-0.641-0.29l-0.88-0.7
	l-0.93-0.64l-0.79-0.771l-0.93-0.67l-0.851-0.77l-1.42-0.87l-0.61-0.49l-0.539-0.55l-0.771-0.96l-0.66-0.59l-0.399-0.45l-2.4-3.28
	l-0.89-0.74l-0.78-0.8l-0.91-0.67l-0.79-0.77l-0.91-0.671l-0.79-0.77l-0.91-0.67l-0.779-0.78l-0.91-0.68l-0.79-0.771l-0.91-0.68
	l-0.79-0.78l-0.91-0.67l-0.79-0.779l-0.909-0.671l-0.79-0.779l-0.9-0.67l-0.79-0.78l-0.91-0.68l-0.79-0.78l-0.91-0.67l-0.79-0.78
	l-0.899-0.67l-0.78-0.78l-0.9-0.67l-0.779-0.79l-0.92-0.67l-0.86-0.77l-2.27-1.181l-1.181-0.46l-1.96-0.51l-0.33-0.15l-0.979-0.619
	l-0.311-0.141l-1.399-0.43l-0.65-0.29l-0.87-0.71l-0.92-0.64l-0.78-0.801l-0.89-0.739l-2.58-3.521l-0.89-0.74l-0.78-0.779
	l-0.91-0.66l-0.779-0.79l-0.9-0.73l-2.4-3.279l-0.42-0.431l-0.67-0.529l-0.75-0.82l-0.83-0.74l-0.18-0.26l-0.54-1.19l-0.33-0.55
	l-0.82-0.74l-0.76-0.8l-0.91-0.72l-1.04-1.26l-1.729-1.78l-0.5-0.65l-0.2-0.35l-0.25-0.75l-0.04-1.14l0.16-0.73l0.82-1.62
	l0.199-0.689l0.091-1.07l-0.12-1.05l-0.23-0.63l-0.38-0.5l-0.64-0.53l-0.78-0.76l-0.92-0.63l-0.771-0.761l-0.64-0.529l-0.39-0.5
	l-0.141-0.311l-0.18-0.68l-0.1-0.73l-0.051-1.899l0.16-1.551l0.36-1.289l-0.4-0.841c0,0,3.99-1.87,6.24,0
	c2.25,1.86,5.75-0.64,7,4.36s2.5,3.5,5.25,3.25s5,0.75,7.25,7s6.25,6.75,8.25,7.25s6.5,4.5,10.25,7.25s11,0.75,12,0
	s3.5-4.75,3.5-4.75s-1.5-3-1.5-6s1.5-3.75,3-2s2.25-1.5,5.75,1.25s4.5,0.71,4.5-2.77c0-3.48,0.5-3.73,2.25-3.73
	c1.29,0,3.26-1.5,2.31-2.99c0.351,0.25,3.28,2.32,8.44,3.49c5.5,1.25,5,3.75,7.75,6s1.75,6,5,11s4.75,7.25,10.75,8.75s0.5,2,6,6.7
	c5.5,4.71,10,0.05,13-1.7C742.92,750.55,748.441,755.71,748.74,755.99z"
	data-engtype-1="Opstina"
    data-id-0="29"
    data-id-1="3"
	data-id-2="12"
    data-iso="BIH"
    data-name-0="Bosnia and Herzegovina"
    data-name-1="Republika Srpska"
    data-name-2="Trebinje"
    data-nl-name-2=""
    data-type-2="Opstina"
    data-varname-2="Trebinje"
    id="path11"/>
<path fill="none" stroke="#000000" d="M759.67,682.24l-0.64,0.439l-0.511,0.34l-4.199,2.881l-1.971,2.659l-0.619,3.86l-2.971,3.82
	l-2.56,5.319l-0.681,11.311l0.73,2.57l3.29,4.779l1.13,4.141l-2.42,1.43l0.98,3.47l2.239,4.29l-0.689,4.271l-0.561,3.52l1.55,4
	l2.07,4.76l-1.229,3.17l-3.641,1.971l0.021,0.12l0.109,0.56l-0.359,0.07c-0.3-0.28-5.82-5.44-8.74-3.74c-3,1.75-7.5,6.41-13,1.7
	c-5.5-4.7,0-5.2-6-6.7s-7.5-3.75-10.75-8.75s-2.25-8.75-5-11s-2.25-4.75-7.75-6c-5.16-1.17-8.09-3.24-8.44-3.49
	c-0.02-0.02-0.029-0.029-0.029-0.029c-0.351-0.511-1.061-1.03-2.28-1.48c-4.75-1.75-8.75-4.89-9-7.44c-0.25-2.56-4-6.06-8-6.56
	s-5.69-1.5-4.5-3.31c1.19-1.811,5.06-1.381,3.69-4.131c-1.381-2.75-5.19-5.619-5.381-7.939c-0.18-2.311-2.5-5.43-3.56-7.87
	c-0.83-1.91-1.92-2.48-3.32-3.53c5.42,0.221,9.07-0.97,11.82-1.1c2.75-0.12,0.75-2.87-0.62-6.12c-1.38-3.25,5.12-0.5,7.12-0.88
	c2-0.37,3.5-3.12,5.25-4.74c0.39-0.36,0.41-0.75,0.19-1.13l0.14-0.08c0,0,4.09,1.33,6.92,3c2.83,1.66,2.17,1.33,5.67,0.83
	s3.83-2.17,6.33-0.67s4,0.84,4.17-3.16c0.16-4-2.17-5.62,0-8.729c2.16-3.11,4.89-7.591,16.11-5.851l0.01,0.01
	c-0.23,0.28-0.42,0.5-0.54,0.65c-1.13,1.37,2.13,4.75,3.25,8.13c1.12,3.37-0.75,3.62-1.88,4.62c-1.12,1,0.88,2.88,4.63,5.5
	s2.37-5,5.63-4.5c3.24,0.5,1.62,3.12,7,1.88c5.37-1.26,7.37,1.62,4.24,3.74c-3.12,2.13-1.62,2.88,4.63,3.64s3.37,1.74,6.37,6.86
	C755.59,681.83,758.651,682.23,759.67,682.24z"
	data-engtype-1="Opstina"
    data-id-0="29"
    data-id-1="3"
	data-id-2="13"
    data-iso="BIH"
    data-name-0="Bosnia and Herzegovina"
    data-name-1="Republika Srpska"
    data-name-2="Bileca"
    data-nl-name-2=""
    data-type-2="Opstina"
    data-varname-2="Bileca"
    id="path12"/>

<path  fill="none" stroke="#000000" d="M754.5,479.62l-0.13,0.71l-0.271-0.05l-2.63-0.221l-0.89-0.13l-0.87-0.229
	l-0.8-0.37l-2.5-1.64l-1.47-0.881l-1.86-1.64l-0.41-0.53l-0.52-0.899l-4.521-2.101l-1.39-0.3l-1.44-0.13l-13.25-0.37l-2.43-0.02
	l-1.86,0.17l-0.83,0.22l-1.52,0.55l-1.32,0.221l-1.39,0.069l-1.4-0.03l-1.38-0.09l-1.27-0.199l-0.74-0.25l-1-0.57l-0.69-0.23
	l-0.8-0.14l-2.54-0.25l-1.18-0.25l-0.62-0.3l-0.71-0.5l-1.44-0.84l-0.89-0.761l-1-1.239l-0.63-0.591l-0.38-0.47l-0.771-1.54
	l0.36-0.18c0,0,3,1.76,3.26,0c0.24-1.74,2.62-2.24,0-5c-2.63-2.74-1.68-4,1.22-4.24c2.9-0.26,4.021-1.88,6.78,0
	c0.96,0.65,1.96,0.82,2.88,0.84c1.71,0.061,3.12-0.359,3.36,1.03c0.32,1.81,3.89,1.45,6.8,2.18v0.011
	c0.521,0.119,1.01,0.279,1.46,0.5c3,1.439,5.12,2.939,11.37,4.68c6.25,1.76,6.82,0.76,10.47,4.88
	C746.38,472.62,751.5,474.5,754.5,479.62z"
	data-engtype-1="Opstina"
    data-id-0="29"
    data-id-1="3"
	data-id-2="14"
    data-iso="BIH"
    data-name-0="Bosnia and Herzegovina"
    data-name-1="Republika Srpska"
    data-name-2="Istocno_Novo_Sarajevo"
    data-nl-name-2=""
    data-type-2="Opstina"
    data-varname-2="Istocno_Novo_Sarajevo"
    id="path13"/>

<path fill="none" stroke="#000000" d="M716,633.75c9.81,4.46,5.6,11.02,3.79,13.35l-0.01-0.01
	c-11.221-1.74-13.95,2.74-16.11,5.851c-2.17,3.109,0.16,4.729,0,8.729c-0.17,4-1.67,4.66-4.17,3.16s-2.83,0.17-6.33,0.67
	s-2.84,0.83-5.67-0.83c-2.83-1.67-6.92-3-6.92-3l-0.14,0.08c-0.73-1.31-4.391-2.42-5.561-1.25c-1.5,1.5-3.63,0.38-5.38,0
	s-1.25-2.5-3.62-3.75c-2.38-1.25-5.88,0.63-6.5,0c-0.63-0.63-2.38-3.37-5.38-2.87s-5.25,0.24-5.5-4.76s-4.25-3.87-6-5.87
	s-3.62-2.63-6.38-2.37c-2.74,0.24-6.24-1.38-7.24-3.13s-3.76-2.5-6.26-2.75s-2.62,2.75-4.87,1.62c-2.25-1.12-2.37-3.87-4.74-2.37
	s-5.39,1-7.63,0c-2.26-1,0.5-3.25-4.88-2.63c-5.38,0.63-5.63-1.48-5.63-1.48l3.21-0.62l2.66-0.779l2.6-1.26l1.38-0.99l1.91-0.88
	l1.15-0.38l2.05-0.4l0.75-0.3l0.91-0.67l0.91-1.15l0.729-0.76l0.29-0.55l0.41-1.16l0.75-1.07l0.14-0.3l0.16-0.69l0.05-0.77
	l-0.109-3.72l0.08-1.641l0.18-0.77l0.74-1.66l0.18-0.74l0.09-0.79l-0.03-3.24l-0.27-3.26l-0.16-0.78l-0.26-0.76l-0.89-1.72
	l-0.24-0.76l-0.21-1.2l-0.25-2.8l-0.23-1.101l-0.28-0.63l-0.659-0.859l-0.16-0.301l-0.24-0.68l-0.42-1.9l-0.26-0.77
	c2.02-3.5,9.14-8.5,11.3-10.16c2.17-1.67,1.84-3.34,1.41-8.5c-0.431-5.17-2.07-6-0.74-10.34c1.33-4.33,1-4.33-2.17-8.16
	c-3.16-3.84-2.33-9.37-2.33-9.37l2.25,0.44l0.7,0.189l1.63,0.851l0.7,0.189l1.899,0.33l0.7,0.181l0.32,0.13l1,0.58l0.71,0.239
	l0.8,0.141l2.56,0.26l0.801,0.14l0.699,0.23l1,0.569l1.091,0.311l1.25,0.13l3.06,0.16l0.83,0.11l0.71,0.189l0.57,0.28l0.7,0.52
	l1.079,0.65l0.61,0.479l0.78,0.86l0.979,1.39l0.61,0.551l0.74,0.43l0.87,0.29l1.38,0.2l1.87,0.09l1.38-0.021l1.27-0.149l0.72-0.25
	l1.9-1.351l0.47-0.5l0.4-0.55l1.57-0.68l0.939-0.3l1.431-0.21l1.489-0.04l3.78,0.109c-3.41,9.721-0.42,7.61,1.5,11.45
	c1.92,3.83-0.08,4.41-4.17,5.75c-4.08,1.33-5.91,3.33-6.75,5.16c-0.83,1.84-0.91,6.09,1.5,6.59c2.42,0.5,2.59-0.5,5.84,2.08
	s7,1.33,7.08-3.42s4.67-4.16,8.75-2.33s5.92,1.75,6.17,4.5s2.66,5.58,5.08,7.58s6.17,2,5.75,6.42s0.33,14.83,3.42,17.17
	c3.08,2.33,0.58,4.16-0.67,4.66s-2,1.34-0.58,3.5c1.41,2.17,1,2.42-0.34,5c-1.33,2.59,1.42,1.84,2.42,5.17
	C703.75,634.25,705,628.75,716,633.75z"
	data-engtype-1="Opstina"
    data-id-0="29"
    data-id-1="3"
	data-id-2="15"
    data-iso="BIH"
    data-name-0="Bosnia and Herzegovina"
    data-name-1="Republika Srpska"
    data-name-2="Nevesinje"
    data-nl-name-2=""
    data-type-2="Opstina"
    data-varname-2="Nevesinje"
    id="path14"/>

<path fill="none" stroke="#000000" d="M705.5,450.88c2.12,2.74,3.51,2.94,3.76,4.34c-0.92-0.02-1.92-0.189-2.88-0.84
	c-2.76-1.88-3.88-0.26-6.78,0c-2.899,0.24-3.85,1.5-1.22,4.24c2.62,2.76,0.24,3.26,0,5c-0.26,1.76-3.26,0-3.26,0l-0.36,0.18
	l-0.06-0.12l-0.351-1.279l-4.869-0.131l-1.301-1.739l-1.06-1.03l-1.66-2.36l-0.89-1.52l-1.46-2.01l-0.971-1.04l-0.31-0.59
	l-0.17-0.671l-0.08-0.71l0.01-0.71l0.23-1.06l0.34-0.65l1.05-1.63l0.95-0.97l0.3-0.47l0.56-1.351l0.23-1.26l4.03-0.59l0.04-0.79
	h0.06c0,0,0.62,1.88,4.62,2.38s1.25,1,4.62,3.62C702,449.75,703.38,448.12,705.5,450.88z"
	data-engtype-1="Opstina"
    data-id-0="29"
    data-id-1="3"
	data-id-2="16"
    data-iso="BIH"
    data-name-0="Bosnia and Herzegovina"
    data-name-1="Republika Srpska"
    data-name-2="Istocno_Sarajevo"
    data-nl-name-2=""
    data-type-2="Opstina"
    data-varname-2="Istocno_Sarajevo"
    id="path15"/>

<path fill="none" stroke="#000000" d="M677.18,104.04l-0.08,0.32c-1.04-0.27-2.119-0.68-3.1-1.19c-3.5-1.84-4.17-1.34-7.67-1.67
	s-4.33,1.67-7.51,2.54c-3.181,0.87-0.82,1.96-0.49,4.63c0.18,1.42,0.45,1.75,0.65,1.75l1,0.53l-0.681,0.76
	c-2.189,0.08-3.55-0.21-5.37-0.59c-1.81-0.37-8.18,0.38-8.43,2.63s-4.25,2-6.25,2.5s-1.87,5.13-1,7.13s-5.37,3.37-7.13,4.12
	c-1.74,0.75-1.311,3.04-1.311,3.04c-2.619-0.37-2.09,0.09-3.189-1.66c-1.24-2-2.87-2.76-6.74-1.26c-3.88,1.5-5.5,0.38-8.88-2.62
	s-3.46,0.75-4.67-1.25s-1.83-3.75-3.95-4.5c-2.13-0.75-2.88-1.63-2.88-1.63s-3.12-2.62-1.62-3.12s1.18-2.75-0.41-4.88
	c-1.59-2.12-0.09-3.62,2.78-4.37s0.37-4.87,0.25-6.25s-2-2.25-1.88-4c0.13-1.75,3.13-2,1.76-4.38c-1.38-2.37-2.52-5.92-1.63-6.27
	l0.09-0.49c3.271,0.61,7.18,0.76,7.66-0.19c0,0,2.88,0.91,6.25,0c3.37-0.92,4.37-1.09,6.63,0c2.24,1.08,2.12-2.42,5.62-2.29
	c3.5,0.12,5.75,1.5,7.88,3.62c2.12,2.12,3.49-1.54,9.22-0.27c5.73,1.27,6.07,2.46,9.07,0.95c3-1.51,4.66-6.68,7-6.51
	c2.33,0.16,7.5,0,6.83-3.17c-0.05-0.23-0.12-0.45-0.2-0.64l0.26-0.11c0,0,2.69-1.5,2.69,0.63c0,2.12-1.37,3-0.63,4.37
	c0.76,1.37,1.13,1.13,0.63,2.87c-0.5,1.76,1.87,2.76,3.63,1.88c1.74-0.88,3.37,0.14,4.24,0.32c0.88,0.18,2-0.45,1.38,4.55
	c-0.62,5.01-6.26,0.01-5.88,2.51s4.5,2.62,4.76,4C676.12,97.75,675.5,101.99,677.18,104.04z"
	data-engtype-1="Opstina"
    data-id-0="29"
    data-id-1="3"
	data-id-2="17"
    data-iso="BIH"
    data-name-0="Bosnia and Herzegovina"
    data-name-1="Republika Srpska"
    data-name-2="Modrica"
    data-nl-name-2=""
    data-type-2="Opstina"
    data-varname-2="Modrica"
    id="path16"/>

<path fill="none" stroke="#000000" d="M631.12,130.75c4.13,0.75,5.63,3,4.5,3.13c-1,0.11-2.29,1.11-2.74,2.47
	c-0.06,0.17-0.1,0.35-0.13,0.53c-0.25,1.62-4.75,2.62-7.17,4.24c-2.42,1.63-3.83,4.14-3.83,4.14l0.15,0.58l-0.28,0.07l-0.71,0.26
	l-0.53,0.3l-0.42,0.48l-0.14,0.31l-0.12,0.67L619.68,149l-0.529,0.2l-0.46,0.29l-0.33,0.41l-0.23,0.46l-5.35-0.22l-1.851-0.03
	l-1.25,0.16l-0.37,0.13l-0.319,0.2l-0.24,0.24l-0.3,0.54l-0.45,1.06l-0.59,0.8l-0.141,0.3l-0.149,0.69l-0.05,0.76l0.029,1.63
	l0.32,5.4l0.24,1.12l0.31,0.65l0.78,0.84l0.98,1.29l0.56,0.58l0.95,0.84l1.02,0.74l1.51,0.83l0.98,0.65l0.74,0.25l2.45,0.42
	l0.72,0.28l0.479,0.34l1.271,1.13l0.399,0.7l0.24,0.67c0,0,0.07,2.15-1.55,1.9s-2.62-0.25-2.38,2.25c0.26,2.5-2,1.62-4.12,1.62
	s0.12,2.38,0,4.37c-0.12,1.99-3.25-0.11-3-1.87c0.25-1.74-0.88-2.24-2.62-0.81c-1.76,1.44-1.5,1.57-4.63,1.07s-7-1.13-4.87,2.24
	c2.12,3.37,1.12,3.26-1.17,2.32c-2.28-0.93-5.1,0-5.1,0l-0.12-0.48l-0.24-0.61l-0.82-1.83l-0.979-1.69l-0.24-0.75l-0.24-1.57
	l-0.22-3.97l-0.21-1.08l-0.28-0.63l-0.85-1.08l-0.57-1.12l-0.46-0.51l-0.63-0.32l-0.72-0.17l-1.57-0.21l-0.8-0.17l-0.4-0.12
	l-0.76-0.36l-0.72-0.46l-1-0.79l-1.86-1.78l-3.09-0.52l-4.25-0.41l-1.17-0.34l-0.99-0.57l-0.74-0.25l-1.29-0.21l-1.87-0.13
	l-2.89-0.04l-1.87,0.16l-0.84,0.22l-1.5,0.54l-2.229,0.56l-0.54,0.31l-1.351,1.21l-0.3,0.54l-0.41,1.15l-0.71,1.08l-0.13,0.31
	l-0.15,0.68l-0.05,0.75l0.05,3.14l-0.1,0.72l-0.25,0.63l-1.75,2l-0.9,0.7c0,0-5.6,0.72-7.1,0c-1.5-0.72-4-3.14-6,0.32
	s-2.75,3.71-4.75,4.71s-1.5-4.5-4.25-4.5s-1.5-2.25,0-5.5s-1.75-6-5-6s-7.5,2.75-9.5,0s-0.01-3.26-4.5-6
	c0.06-2.19-2.3-9.5-2.53-10.63c-0.22-1.12-0.779-3.75,0.84-6.06c1.631-2.31,10.21-8.52,12.421-11.98
	c0.409,0.47,0.899,0.92,1.439,1.34c2.33,1.83,0,1.51,1.83,3.84c0.92,1.16,3.5,1.16,5.33,2.16c1.84,1,2.92,3,5,3.16
	c4.17,0.34,6.34,0.84,8.84-1.33s5.16-0.5,5.83-1.83c0.67-1.34,6.17-3.83,5.83-0.84c-0.33,3-2.33,6-1.16,7c1.16,1,4-2.16,4-4.33
	s-3.17-1.32,0.66-3.99c3.84-2.68,3.67-2.84,4.67-4.84s5-0.34,4.83-2.67c-0.16-2.33-2.33-7.67-1.5-9.33c0.84-1.67,3-3.17,5-2.17
	s10,0.83,9.17-1.83c-0.83-2.67-3.67-4.17-2.83-5.34c0.83-1.16,2.62-0.83,2.89-3.16c0.271-2.34,0.44-1.84,1.94-3.67s3-0.67,2.83-3.67
	c-0.16-3,2.35-3.06,3.67-6.16c1.83-4.34,3.67-5.93,4.83-5.8c1.17,0.13,6.09-3.8,5.3-6.5c0.33,0.09,0.68,0.18,1.04,0.26
	c0.37,0.09,0.771,0.17,1.17,0.23l-0.09,0.49c-0.89,0.35,0.25,3.9,1.63,6.27c1.37,2.38-1.63,2.63-1.76,4.38
	c-0.12,1.75,1.76,2.62,1.88,4s2.62,5.5-0.25,6.25s-4.37,2.25-2.78,4.37c1.59,2.13,1.91,4.38,0.41,4.88s1.62,3.12,1.62,3.12
	s0.75,0.88,2.88,1.63c2.12,0.75,2.74,2.5,3.95,4.5S607.62,122,611,125s5,4.12,8.88,2.62c3.87-1.5,5.5-0.74,6.74,1.26
	c1.1,1.75,0.57,1.29,3.189,1.66C630.18,130.59,630.611,130.66,631.12,130.75z"
	data-engtype-1="Opstina"
    data-id-0="29"
    data-id-1="3"
	data-id-2="18"
    data-iso="BIH"
    data-name-0="Bosnia and Herzegovina"
    data-name-1="Republika Srpska"
    data-name-2="Doboj"
    data-nl-name-2=""
    data-type-2="Opstina"
    data-varname-2="Doboj"
    id="path17"/>
<path fill="none" stroke="#000000" d="M625.571,65.56c0.239,2.73-4.9,3.44-4.9,4.44s-3.5,2.17-5.5,2.33c-2,0.17-1.67,4.67-2.34,7.17
	c-0.66,2.5-5.66,2.83-6.33,4.17c-0.48,0.95-4.39,0.8-7.66,0.19c-0.399-0.06-0.8-0.14-1.17-0.23c-0.36-0.08-0.71-0.17-1.04-0.26
	c-0.42-0.12-0.8-0.24-1.13-0.37c-3-1.17-3.83-2.17-7.83-4s-10.17,1-14,1.67c-3.84,0.66-2.34-6.17-4.17-9.5c-1.83-3.34-3-0.34-5,1.66
	s-6.17,2.5-9.67,1.43c-3.5-1.08-7.5-1.43-12-0.26s-2.5-1.83-2-5.17c0.5-3.33-2.22-6.33-2.22-6.33l2.17-1.44l0.029-0.02l0.46-0.31
	l3.95-3.41l1.431-4.39l-0.16-3.26l0.58-2.69l3.43-1.06l0.87-0.27l2.54-2.39l0.82-3.65l0.789-1.1l1.24-1.74l2.63-1.87l2.221-0.87
	l3.1,1.02l2.84,3.19l3.681,3.14l1.619-2.35l1.971-1.92l2.58,0.07l1.59,2.09l2.47,3.41l-0.69,1.61l-0.22,0.52l0.13,0.57l0.311,1.38
	l1.02,0.47l0.46,0.21l2.49,1.15l2.62,2.44l2.18,3.14l0.78,0.13l4.34,0.71l0.17-0.02l6.29-0.68l0.12,0.05l1.21,0.5l2.29,0.96
	l3.03,1.27l0.16-0.03l1.42,0.81l1.13,0.48l-0.03,0.02l1.99,1.07l1.79,0.84l1.16,0.9l1.52,0.98l0.55,0.16l0.74-0.02l3.21,0.66
	l1.21,0.32l0.76,0.35l0.96,0.74L625.571,65.56z"
	data-engtype-1="Opstina"
    data-id-0="29"
    data-id-1="3"
	data-id-2="19"
    data-iso="BIH"
    data-name-0="Bosnia and Herzegovina"
    data-name-1="Republika Srpska"
    data-name-2="Brod"
    data-nl-name-2=""
    data-type-2="Opstina"
    data-varname-2="Brod"
    id="path18"/>

<path fill="none" stroke="#000000" d="M596.63,83.37c0.79,2.7-4.13,6.63-5.3,6.5c-1.16-0.13-3,1.46-4.83,5.8
	c-1.32,3.1-3.83,3.16-3.67,6.16c0.17,3-1.33,1.84-2.83,3.67s-1.67,1.33-1.94,3.67c-0.27,2.33-2.06,2-2.89,3.16
	c-0.84,1.17,2,2.67,2.83,5.34c0.83,2.66-7.17,2.83-9.17,1.83s-4.16,0.5-5,2.17c-0.83,1.66,1.34,7,1.5,9.33
	c0.17,2.33-3.83,0.67-4.83,2.67s-0.83,2.16-4.67,4.84c-3.83,2.67-0.66,1.82-0.66,3.99s-2.84,5.33-4,4.33c-1.17-1,0.83-4,1.16-7
	c0.34-2.99-5.16-0.5-5.83,0.84c-0.67,1.33-3.33-0.34-5.83,1.83s-4.67,1.67-8.84,1.33c-2.08-0.16-3.16-2.16-5-3.16
	c-1.83-1-4.41-1-5.33-2.16c-1.83-2.33,0.5-2.01-1.83-3.84c-0.54-0.42-1.03-0.87-1.439-1.34c-1.431-1.6-2.061-3.52-0.9-5.83
	c1.5-3-1.5-6.17-1.16-9.33c0.33-3.17-1.84-4.17-4.17-7.84c-2.33-3.66-3.17-6.5,0.83-8.33s0.5-3.5,0.9-4.83
	c0.399-1.34-1.9-3.84-3.4-5.17s-3-3.5-0.98-5.17c2.021-1.66,1.48-3.16,1.48-5.59c0-2.44-1.83-0.57-4.5-0.07
	c-1.24,0.23-1.43-0.15-1.34-0.84c0.109-0.8,0.609-2.01,0.34-3.16c-0.5-2.17,0-4,1.67-5.17s2.5-2,2.17-4.67
	c-0.34-2.66,4.561-6.28,4.561-6.28l2.8,2.27l4.72,2.89l5.05,1.31l4.38-0.32l6.13-3.51l1.801-1.19c0,0,2.72,3,2.22,6.33
	c-0.5,3.34-2.5,6.34,2,5.17s8.5-0.82,12,0.26c3.5,1.07,7.67,0.57,9.67-1.43s3.17-5,5-1.66c1.83,3.33,0.33,10.16,4.17,9.5
	c3.83-0.67,10-3.5,14-1.67s4.83,2.83,7.83,4C595.83,83.13,596.21,83.25,596.63,83.37z"
	data-engtype-1="Opstina"
    data-id-0="29"
    data-id-1="3"
	data-id-2="20"
    data-iso="BIH"
    data-name-0="Bosnia and Herzegovina"
    data-name-1="Republika Srpska"
    data-name-2="Derventa"
    data-nl-name-2=""
    data-type-2="Opstina"
    data-varname-2="Derventa"
    id="path19"/>
<path fill="none" stroke="#000000" d="M567.281,230.48l0.229,4.47l-0.1,2.17l-0.59,2.23l-0.811,2.56l-0.439,1.1l-0.88,1.8l-4.811,1.13
	l-0.71,0.25l-0.3,0.18l-0.62,0.63l-1.8,2.55l-0.78,0.72l-0.689,0.77l-0.811,0.72l-0.93,1.23l-0.91,0.99l-2.36,0.94l-2.33,0.75
	l-1.85,0.81l-1.35,0.48l-1.841,0.77l-2.26,0.54l-1.55,0.81l-2.271,0.54l-1.85,0.71l-2.27,0.54l-0.311,0.12l-0.939,0.54l-0.32,0.12
	l-1.15,0.18l-2.949,0.12l-0.75,0.14l-0.32,0.12l-1.22,0.68l-1.33,0.37l-0.61,0.27l-0.8,0.66l-0.88,0.58l-0.811,0.65l-0.6,0.25
	l-1.01,0.27l-0.61,0.26l-1.55,1.39l-0.25,0.46l-0.17,0.51l-1.44,0.31l-0.96,0.33l-1.1,1.69c-1.34-1.86-5.57-2.39-9.07-2.89
	s0,0-3.25-3.81s-4.25,0.06-6,0s0.5-4.69,3.42-8.18c2.91-3.5-2.17-1.51-4.17-2.51s-7.75,4.75-8,1.5s0.75-5-1.5-6.96s1-6.29-1.25-8.78
	c-2.25-2.49-10.25-0.26-12.75-0.01s-5.5-4.5-2-6.35s0.5-3.4,3.25-2.69s0.25-2.71,2.75-2.21s5,0,3.75-3.5s-3.75-5-4.25-7
	s-3-4.25-5.25-4.25s-7-5.5-4.75-7.5s1-5.25,0-5.75s-1.75-4.75-1.5-6.5c0.12-0.83,0.01-1.6-0.53-2.29c0,0,4.28-2.71,2.11-6.38
	c-2.16-3.66-1.99-3.5-0.75-5.66c1.25-2.17-0.36-4.17,1.37-4.17c1.72,0,3.22-0.33,3.22-1.5s4.02-1.11,4.02-1.11
	c0.07,0.2,0.17,0.41,0.31,0.61c2.33,3.5,4.98,3.17,6.07,4.83c1.1,1.67,2.6,2.67,4.93,1.34c2.33-1.34,1.83-4.84,6.5-3.67
	s11.67,0.17,12.17-4s1.33-8.67,6.33-9.5c4.49,2.74,2.5,3.25,4.5,6s6.25,0,9.5,0s6.5,2.75,5,6s-2.75,5.5,0,5.5s2.25,5.5,4.25,4.5
	s2.75-1.25,4.75-4.71s4.5-1.04,6-0.32c1.5,0.72,7.1,0,7.1,0l-1.35,0.9l-0.56,0.52l-1.2,0.85l-0.38,0.44l-0.301,0.54l-0.569,1.39
	l-0.53,1.99l-0.729,1.1l-0.141,0.32l-0.21,1.1v1.2l0.16,1.19l0.24,0.73l0.18,0.32l0.86,1.11l0.55,1.18l0.35,0.56l0.811,0.81
	l0.77,0.97l0.54,0.56l0.63,0.52l0.87,0.6l0.98,0.79l1.25,0.84l0.819,0.79l0.891,0.74l1.62,2.25l1.149,1.85l2.23,2.45l1,1.29
	l1.069,1.03l2.15,2.91l1.09,2.85l0.84,2.57l0.29,0.59l0.66,0.88l0.29,0.68l0.24,1.17l0.25,2.54l0.21,1.27l0.25,0.82l1.01,2.14
	l0.21,0.85L567.281,230.48z"
	data-engtype-1="Opstina"
    data-id-0="29"
    data-id-1="3"
	data-id-2="21"
    data-iso="BIH"
    data-name-0="Bosnia and Herzegovina"
    data-name-1="Republika Srpska"
    data-name-2="Teslic"
    data-nl-name-2=""
    data-type-2="Opstina"
    data-varname-2="Teslic"
    id="path20"/>
<path fill="none" stroke="#000000" d="M516.17,118.17c-0.34,3.16,2.66,6.33,1.16,9.33c-1.16,2.31-0.53,4.23,0.9,5.83
	c-2.211,3.46-10.79,9.67-12.421,11.98c-1.619,2.31-1.06,4.94-0.84,6.06c0.23,1.13,2.59,8.44,2.53,10.63c-5,0.83-5.83,5.33-6.33,9.5
	s-7.5,5.17-12.17,4s-4.17,2.33-6.5,3.67c-2.33,1.33-3.83,0.33-4.93-1.34c-1.09-1.66-3.74-1.33-6.07-4.83
	c-0.14-0.2-0.24-0.41-0.31-0.61c-1.17-3.28,5.53-6.4,6.31-9.39c0.83-3.17-5.67,0.17-8,0s-4-0.67-5-2.5s-2.83-0.5-4.39-4.33
	c-1.56-3.84,2.89-4.84,1.39-9.15s-5.17,0.81-7-0.69s-2.67-0.33-4.83,2c-2.17,2.34-3.67,0.67-6.17,0.34c-2.5-0.34,1.83,5.16,0,5.83
	s-4-2.17-5.5-3.33c-1.5-1.17-6.34-5.74-6.34-5.74c0.3-0.28,0.66-0.51,1.09-0.68c2.5-1,6.25-2.24,2.25-6.24
	c-4-4.01-13.28-4.26-9.39-8.01c3.89-3.75,9.64-5.75,7.89-8.5s-5.93-8.53,2.03-9.9c0.8,1.61,2.28,2.21,2.97-0.43
	c1-3.84,0-5.34-1-6.67s3.33-1.33,5.5,0.17s3.83-0.33,3.33-3s5.34,0.83,7,5.83c1.67,5,4.67,1.83,6.5,0c1.84-1.83,2,0.5,3.17-0.83
	c1.17-1.34,7.5-2.66,5.67-5c-1.84-2.34-7.67-3.17-3.5-4.67c4.16-1.5,5.83-2.17,7-5.17c1.16-3,3.83-3.83,5-3.33
	c1.16,0.5,8.16-5.83,11.33-2.17c3.17,3.67,3.83,5,5.67,1.84c1.83-3.17,1.28-9.5,10.8-8.34h0.021c-0.09,0.69,0.1,1.07,1.34,0.84
	c2.67-0.5,4.5-2.37,4.5,0.07c0,2.43,0.54,3.93-1.48,5.59c-2.02,1.67-0.52,3.84,0.98,5.17s3.8,3.83,3.4,5.17
	c-0.4,1.33,3.1,3-0.9,4.83s-3.16,4.67-0.83,8.33C514.33,114,516.5,115,516.17,118.17z"
	data-engtype-1="Opstina"
    data-id-0="29"
    data-id-1="3"
	data-id-2="22"
    data-iso="BIH"
    data-name-0="Bosnia and Herzegovina"
    data-name-1="Republika Srpska"
    data-name-2="Prnjavor"
    data-nl-name-2=""
    data-type-2="Opstina"
    data-varname-2="Prnjavor"
    id="path21"/>
<path fill="none" stroke="#000000" d="M435.53,112.1c-0.36-0.73-0.58-1.67-0.53-2.6c0.17-3-1.17-4.83-2.83-5.46
	c-1.67-0.63-3.17-4.54-2.34-7.54c0.84-3-3-3-7.83-3.17c-4.83-0.16-4-4.33-3.17-7.33c0.84-3-3.59-3.71-3.59-3.71
	c0.47-0.32,0.8-0.76,0.93-1.29c0.5-2-1-3,0-4.17c1-1.16,1.33-1.83,2-2.33c0.66-0.5,8.5-1.67,3-5.17s-1-2,0-3.16
	c1-1.17,3.66-5.34,0.33-9.17s-6-5.5-3.33-7c2.66-1.5,6.72-2.94,7.44-5.89l1.99,0.87l0.78,0.34l2.11-0.15l0.41-0.03l1.75-0.73
	l1.42-0.9l0.04-0.03l0.97-0.62l-0.26,0.7l-0.23,0.59l-0.35,0.93l-0.9,1.28l-0.01,1.72l-0.01,0.55l1.73,1.61l0.8,0.12l2.63,0.4
	l2.52,0.53l3.44,0.46l2.96-1.11l2.02-2.24l0.96-1.84l0.26-0.27l0.4-0.43l1.06-1.1l0.28,1l0.27,0.96l0.03,0.12l0.13,1.15l0.08,0.65
	l1.29,0.7l1.29,0.7l0.78-0.28l1.13-0.41l0.87-0.31l2.77-0.14l2.3,0.92l0.01,0.01l2.12,0.25l0.15-0.01l2.2-0.12l2.42-1.4l2.12-2.44
	l1.33-1.03l1.89-1.46l3.82-0.92l0.12-0.03l2.22,0.27l0.9,0.74l0.92,0.75l1.72,1.62l2.67,1.64l0.32,0.19l0.27,0.16l3.44,2.25
	l2.79,1.82l2.96,1.93l1.41,0.92l0.81,0.53l2.18,1.42l2.479-0.18l2.05-0.15l0.41,0.09l0.78,0.47l3.03,1.81l1.069,0.64l0.9,0.72
	l0.9,0.74c0,0-4.9,3.62-4.561,6.28c0.33,2.67-0.5,3.5-2.17,4.67s-2.17,3-1.67,5.17c0.27,1.15-0.23,2.36-0.34,3.16h-0.021
	c-9.52-1.16-8.97,5.17-10.8,8.34c-1.84,3.16-2.5,1.83-5.67-1.84c-3.17-3.66-10.17,2.67-11.33,2.17c-1.17-0.5-3.84,0.33-5,3.33
	c-1.17,3-2.84,3.67-7,5.17c-4.17,1.5,1.66,2.33,3.5,4.67c1.83,2.34-4.5,3.66-5.67,5c-1.17,1.33-1.33-1-3.17,0.83
	c-1.83,1.83-4.83,5-6.5,0c-1.66-5-7.5-8.5-7-5.83s-1.16,4.5-3.33,3s-6.5-1.5-5.5-0.17s2,2.83,1,6.67
	C437.81,114.31,436.33,113.71,435.53,112.1z"
	data-engtype-1="Opstina"
    data-id-0="29"
    data-id-1="3"
	data-id-2="23"
    data-iso="BIH"
    data-name-0="Bosnia and Herzegovina"
    data-name-1="Republika Srpska"
    data-name-2="Srbac"
    data-nl-name-2=""
    data-type-2="Opstina"
    data-varname-2="Srbac"
    id="path22"/>
<path fill="none" stroke="#000000" d="M512.321,270.89l-0.79,0.71l-0.69,0.76l-1.439,1.08l-0.58,0.3l-0.761,0.16l-1.3,0.06
	l-4.689-0.21l-1.34-0.01l-1.221,0.16l-0.67,0.32l-0.41,0.51l-0.56,1.36l-0.44,0.59l-0.26,0.52l-0.32,2.06l-0.23,0.64l-0.21,0.28
	l-0.55,0.37l-1.54,0.57l-0.66,0.42l-0.59,0.26l-0.76,0.15l-1.26,0.07l-1.3-0.06l-1.24-0.21l-0.37-0.12l-0.61-0.33l-0.68-0.53
	l-1.1-0.75l-0.79-0.78l-3.54,0.79l-2.38,0.3c0.04-3.42-5.79-3.83-10.54-5.91s1-2.67,4.5-4.99c3.5-2.31-2-1.43-8.25,0
	c-6.25,1.44-10.25-5.18-11-10.43s-2.25-4-13-5.75s1.25-9.25,0-13.5s-10.5-3.25-10.13-4.5c0.38-1.25,3.13-3-3.62-5.04
	s-3.75-6.96-8-11.21s-3.5,3.25-8,1.75s-5.5,5.25-6.5,4.25s-3.75,0.25-6.02-2.75c-2.28-3-1.48-4.25-3.14-4.5
	c-1.67-0.25-1.59-5.75-1.67-8c-0.07-2.25,8.33-8,3.08-9.25c-3.45-0.82-4.09-1.86-5.33-2.85l1.15-0.15c0,0,10.68-6.5,10.18-9.5
	s-2-8.25,3.25-7s4,4.49,7.5,3.12s5-4.75,6.75,0s7.64,3.63,9.57,6.38c1.93,2.75,1.68,4,5.18,4s5.25,2.07,7.5,1.04
	c2.25-1.04,4.5-3.91,6.75-3.6s4.5-3.88,8.25-2.78c1.98,0.58,3.12,1.27,3.72,2.05c0.54,0.69,0.65,1.46,0.53,2.29
	c-0.25,1.75,0.5,6,1.5,6.5s2.25,3.75,0,5.75s2.5,7.5,4.75,7.5s4.75,2.25,5.25,4.25s3,3.5,4.25,7s-1.25,4-3.75,3.5s0,2.92-2.75,2.21
	s0.25,0.84-3.25,2.69s-0.5,6.6,2,6.35s10.5-2.48,12.75,0.01c2.25,2.49-1,6.82,1.25,8.78s1.25,3.71,1.5,6.96s6-2.5,8-1.5
	s7.08-0.99,4.17,2.51c-2.92,3.49-5.17,8.12-3.42,8.18s2.75-3.81,6,0s-0.25,3.31,3.25,3.81S510.981,269.03,512.321,270.89z"
	data-engtype-1="Opstina"
    data-id-0="29"
    data-id-1="3"
	data-id-2="24"
    data-iso="BIH"
    data-name-0="Bosnia and Herzegovina"
    data-name-1="Republika Srpska"
    data-name-2="Kotor_Varos"
    data-nl-name-2=""
    data-type-2="Opstina"
    data-varname-2="Kotor_Varos"
    id="path23"/>

<path fill="none" stroke="#000000" d="M469.5,163c2.33,0.17,8.83-3.17,8,0c-0.78,2.99-7.48,6.11-6.31,9.39c0,0-4.02-0.06-4.02,1.11
	s-1.5,1.5-3.22,1.5c-1.73,0-0.12,2-1.37,4.17c-1.24,2.16-1.41,2,0.75,5.66c2.17,3.67-2.11,6.38-2.11,6.38
	c-0.6-0.78-1.74-1.47-3.72-2.05c-3.75-1.1-6,3.09-8.25,2.78s-4.5,2.56-6.75,3.6c-2.25,1.03-4-1.04-7.5-1.04s-3.25-1.25-5.18-4
	c-1.93-2.75-7.82-1.63-9.57-6.38s-3.25-1.37-6.75,0s-2.25-1.87-7.5-3.12s-3.75,4-3.25,7s-10.18,9.5-10.18,9.5l-1.15,0.15
	c-0.65-0.53-1.46-1.04-2.92-1.51c-4.11-1.32-7.66-0.09-7.89-0.01c0.6-2.54,0.81-4.21-0.11-5.13c-1.5-1.5-1.67-4.5,0.5-5.33
	c2.17-0.84,3.83-4.67,0.83-7.17s-3.16-2.5,1-3.5c4.17-1,6.84-7.33,5.67-11.17c-1.17-3.83,1-2.83,2.33-4.66
	c1.34-1.84,9.67-2.5,8.67-4.84c-1-2.33-5.83-4.33-3.67-5.5c0,0,1.34-0.83-1.16-4.16c-0.68-0.91-1.4-1.46-2.09-1.86
	c0.21-0.1,2.85-1.2,7.17,1.44c4.5,2.75,6,7.25,11.25,5s6.5-4.75,10.75-1s7,6,7.75,3.12c0.62-2.37,0.73-4.66,2.16-5.94
	c0,0,4.84,4.57,6.34,5.74c1.5,1.16,3.67,4,5.5,3.33s-2.5-6.17,0-5.83c2.5,0.33,4,2,6.17-0.34c2.16-2.33,3-3.5,4.83-2
	s5.5-3.62,7,0.69s-2.95,5.31-1.39,9.15c1.56,3.83,3.39,2.5,4.39,4.33S467.17,162.83,469.5,163z"
	data-engtype-1="Opstina"
    data-id-0="29"
    data-id-1="3"
	data-id-2="25"
    data-iso="BIH"
    data-name-0="Bosnia and Herzegovina"
    data-name-1="Republika Srpska"
    data-name-2="Celinac"
    data-nl-name-2=""
    data-type-2="Opstina"
    data-varname-2="Celinac"
    id="path24"/>
<path fill="none" stroke="#000000" d="M435,138.51c4,4,0.25,5.24-2.25,6.24c-0.43,0.17-0.79,0.4-1.09,0.68
	c-1.43,1.28-1.54,3.57-2.16,5.94c-0.75,2.88-3.5,0.63-7.75-3.12s-5.5-1.25-10.75,1s-6.75-2.25-11.25-5
	c-4.32-2.64-6.96-1.54-7.17-1.44c-1.82-1.07-3.4-1.07-3.33-3.98c0.08-4-1.75-1-1.42-5c0.34-4-1.66-6-5.5-7.33
	c-3.83-1.33-9-1.33-9.5-8.5s-1.66-3.72-2.66-7.19c-1-3.48,2.5-5.81,0-7.48c-2.4-1.6-6.35-1.81-4.72-5.67
	c0.06-0.16,0.14-0.32,0.22-0.49c2.16-4.34,5.66-2,5.16-3.84c-0.5-1.83,0.67-2.5,3.67-2.5s3.5,0,5-1.5s0,1.84,1.67,3.34
	c1.66,1.5,6.83,2.16,7.16,0c0.34-2.17,3-3.93,4.17-3.72c1.17,0.22,3.17-0.45,2.33-2.95c-0.83-2.5,1.17-3.5,3.34-3.17
	c2.16,0.34,3-1.66,3.83-2.16s1.76-1.39,6.83,1.16c2.69,1.36,5.12,1.35,6.41,0.46c0,0,4.43,0.71,3.59,3.71
	c-0.83,3-1.66,7.17,3.17,7.33c4.83,0.17,8.67,0.17,7.83,3.17c-0.83,3,0.67,6.91,2.34,7.54c1.66,0.63,3,2.46,2.83,5.46
	c-0.05,0.93,0.17,1.87,0.53,2.6c-7.96,1.37-3.78,7.15-2.03,9.9s-4,4.75-7.89,8.5C421.72,134.25,431,134.5,435,138.51z"
	data-engtype-1="Opstina"
    data-id-0="29"
    data-id-1="3"
	data-id-2="26"
    data-iso="BIH"
    data-name-0="Bosnia and Herzegovina"
    data-name-1="Republika Srpska"
    data-name-2="Laktasi"
    data-nl-name-2=""
    data-type-2="Opstina"
    data-varname-2="Laktasi"
    id="path25"/>
<path fill="none" stroke="#000000" d="M424.41,42.3l1.2,1.81c-0.72,2.95-4.78,4.39-7.44,5.89c-2.67,1.5,0,3.17,3.33,7
	s0.67,8-0.33,9.17c-1,1.16-5.5-0.34,0,3.16s-2.34,4.67-3,5.17c-0.67,0.5-1,1.17-2,2.33c-1,1.17,0.5,2.17,0,4.17
	c-0.13,0.53-0.46,0.97-0.93,1.29c-1.29,0.89-3.72,0.9-6.41-0.46c-5.07-2.55-6-1.66-6.83-1.16s-1.67,2.5-3.83,2.16
	C396,82.5,394,83.5,394.83,86c0.84,2.5-1.16,3.17-2.33,2.95c-1.17-0.21-3.83,1.55-4.17,3.72c-0.33,2.16-5.5,1.5-7.16,0
	c-1.67-1.5-0.17-4.84-1.67-3.34s-2,1.5-5,1.5s-4.17,0.67-3.67,2.5c0.5,1.84-3-0.5-5.16,3.84c-0.08,0.17-0.16,0.33-0.22,0.49
	l-0.39-0.16c0,0-6.06-1.25-6.94-4.38c-0.87-3.12,2.38-2.37,0-5c-2.37-2.62-1.24-5.62-4.87-4.24c-3.63,1.37-4.37,3.5-6.87,2.62
	s-2.26,0.62-3.5-0.38c-1.26-1-5.13-3.24-4.88,1c0.25,4.26-0.5,4.91-3.38,3.39c-2.87-1.51-5.91,0.24-7.64-0.51h-0.01
	c0.06-1.36-1.09-2.72-2.3-3.5c-1.84-1.17-3.17-3.67-2.17-6.67s-3.33-2-6.33-1.66c-3,0.33-3.84-2.5-4.34-3.32
	c-0.5-0.82-1.16-3.18-4.75-1.35s-4.08,2.33-5.75-2c-1.66-4.33-5.16-2.5-6-3.33c-0.8-0.81,2.6-3.45,2.83-3.63
	c1.71-0.24,2.58-2.31,6.84-4.87c5-3,8.67-0.5,7.67-1.5s1-4.5,1.66-4.67c0.67-0.17,1.67-1.33-0.3-5.5c-1.96-4.17,1.14-4.33,0.74-5.67
	c-0.4-1.33-1.44-1.83,0-3.33c1.43-1.5,1.56-1.33,0.4-4.17c-1.17-2.83,0.33-1.5,3.14-4.16c2.82-2.67,1.36-5.17,0-7
	c-1.35-1.84-1.98-1.67-1.31-3c0.65-1.29,1.26-4.15,1.31-4.36c0-0.01,0-0.01,0-0.01l1.16-0.66l0.87,0.92l0.84,0.89l0.44,0.53
	l1.25,1.5l0.24,0.17l2.99,2.15l2.48,2.05l0.34,0.28l0.44,0.26l0.1,0.06l3.05,1.78l3.91,1.57l4.01,1.3l3.81,1.63l2.71,1.54l2.37,1.35
	l1.59,0.93l1.76,1.04l1.02,0.6l1.03,0.26l4.39,1.11l2.35,0.25l2.42,0.25l7.19,0.44l5.3,0.23l1.59-1.54l0.91-2.84l1.02-3.05
	l1.37-3.91l0.64,0.39l3.25,1.97l0.29,0.03l3.75,0.3l0.05,0.18l0.74,3.06l1.03,0.08l0.96,0.08l0.07,0.01l0.15,0.1l0.58,0.39
	l1.28,0.88l1.35,0.94l0.35,0.24l0.08,0.19l0.45,0.96l0.06,0.14l0.12,0.11l1.77,1.6l3.56,1.71l0.3,0.15l3.98,0.88l5.43,0.55l4.7,0.42
	l0.55-0.06l2.48-0.26l0.73-1.3l1.41-2.7l1.55-2.35l0.07-0.1l0.51,0.57l0.56,0.94l0.02,0.46l0.04,1.11l-0.25,1.45l0.51,1.69v0.01
	L424.41,42.3z" 
	data-engtype-1="Opstina"
    data-id-0="29"
    data-id-1="3"
	data-id-2="26"
    data-iso="BIH"
    data-name-0="Bosnia and Herzegovina"
    data-name-1="Republika Srpska"
    data-name-2="Gradiska"
    data-nl-name-2=""
    data-type-2="Opstina"
    data-varname-2="Gradiska"
    id="path25"/>

<path fill="none" stroke="#000000" d="M380.61,196.13c-0.38,1.6-0.92,3.55-1.44,5.87c-1.34,6,2.83,4,7.5,9.33
	c4.66,5.34,3.83,4.5,3.16,7.5s0.67,3.67,2.67,8.34c1.95,4.55-1.27,5.68-1.42,5.73c-0.01,0-0.01,0-0.01,0
	c-0.75-0.24-1.73-0.22-3.07,0.27c-3.67,1.33-5.5,5.83-8,4.33s-3-3.33-5.67-1.83c-2.66,1.5-2.88-2.34-2.69-4.67s-1.47-1.5-0.97-2.5
	s0.95-1.84-0.42-3.62c-1.37-1.79-3.78-5-3.5-5.79c0.28-0.78-2.41-9.62-7.37-6.28c-4.97,3.35-6.63,6.72-10.91,9.41
	c-4.28,2.69-6.28,9.69-11.63,10.28c-2.08,0.23-3.03,0.63-5.3,0c-1.75-0.49-3.72-2.13-5.54-3.21c-1.87-1.11-3.58-1.67-4.43-3.01
	v-0.01c-0.23-1.38-1.43-3.5-2.65-6.44c-1.59-3.83-0.42-10.41,1.08-12c1.5-1.58,5.33-6.66,1.58-6.41s-4-4.92-8.16-0.75
	c-2.92,2.91-3.84,1.83-5.92-1.59c-2.08-3.41-2.25-5.08-1.25-5.83c0.58-0.43-0.43-1.28-1.97-1.28l1.47-0.03c0,0,2.63-3.32,0.5-6.19
	s-5.37-4-5.37-5.75s-9.26,1.12-11.76-8.38s3.76-6.24-0.87-14.12s-9.75,1.62-13-5.38s-5.63-8.87-4.13-12.62c3.8,1.5,6.71-3,7.88-2
	s5,1.33,7.67-1c2.66-2.33,4.66,0.33,6,1.33c1.33,1,5.16,1.17,7.66-0.33s4.17,1.5,7.67,2s-1.33-0.83,0-3.67
	c1.33-2.83-0.33-2.16-2.67-6.83c-2.33-4.67-0.5-5.67,3-8.5s2.5-5,1.17-7s2.83-4.33,2.83-6.67c0-2.33,2.84-3.83,7.59-7
	c4.76-3.16,3.58-6,5.91-7.83c0.79-0.61,1.12-1.31,1.14-2h0.01c1.73,0.75,4.77-1,7.64,0.51c2.88,1.52,3.63,0.87,3.38-3.39
	c-0.25-4.24,3.62-2,4.88-1c1.24,1,1-0.5,3.5,0.38s3.24-1.25,6.87-2.62c3.63-1.38,2.5,1.62,4.87,4.24c2.38,2.63-0.87,1.88,0,5
	c0.88,3.13,6.94,4.38,6.94,4.38l0.39,0.16c-1.63,3.86,2.32,4.07,4.72,5.67c2.5,1.67-1,4,0,7.48c1,3.47,2.16,0.02,2.66,7.19
	s5.67,7.17,9.5,8.5c3.84,1.33,5.84,3.33,5.5,7.33c-0.33,4,1.5,1,1.42,5c-0.07,2.91,1.51,2.91,3.33,3.98
	c0.69,0.4,1.41,0.95,2.09,1.86c2.5,3.33,1.16,4.16,1.16,4.16c-2.16,1.17,2.67,3.17,3.67,5.5c1,2.34-7.33,3-8.67,4.84
	c-1.33,1.83-3.5,0.83-2.33,4.66c1.17,3.84-1.5,10.17-5.67,11.17c-4.16,1-4,1-1,3.5s1.34,6.33-0.83,7.17c-2.17,0.83-2,3.83-0.5,5.33
	C381.42,191.92,381.21,193.59,380.61,196.13z"
	data-engtype-1="Opstina"
    data-id-0="29"
    data-id-1="3"
	data-id-2="26"
    data-iso="BIH"
    data-name-0="Bosnia and Herzegovina"
    data-name-1="Republika Srpska"
    data-name-2="Banja_Luka"
    data-nl-name-2=""
    data-type-2="Opstina"
    data-varname-2="Banja_Luka"
    id="path25"/>
<path fill="none" stroke="#000000" d="M393.5,235.33c0.83,1.34-1.5,4.84-3,6.34s-1.43,7.42-1.43,7.42l-2.55-0.27l-0.9,1.12
	l-0.4,0.39l-1.73,0.81l-0.47,0.5l-0.15,0.32l-0.19,1.12l0.05,2.95l-0.04,1.25l-0.13,0.8l-0.41,1l0.13,2.03l0.05,0.3l-0.5,0.09
	c0,0-6,1.58-5.16,4.17c0.83,2.58,2.08,3.58,0.41,4.75c-1.66,1.16-6.01,5.4-5.38,6.95c-0.37-0.14-0.67-0.32-0.87-0.54
	c-1.33-1.5-3.08-3.66-4.66-1.5c-1.59,2.17-1.3,6.35-5.85,7.06c-0.66-1.19-2.92-1.13-3.99-0.89c-1.5,0.33-4.5,3.33-6.33-1.17
	s-5.5-2-5.5,0s-2.17,4.67-4.17,8.84c-2,4.16,1,5.16,2,6.66s-4.66,3.84-6.82,3.84c-2.16,0-0.34,5.66-0.01,7.16
	s-10.17,9.34-11.5,11.34s1.5,4,2.83,8.65c1.34,4.66-4.16,3.51-5.66,3.51s-3.34-2.66-5.84-3.33s-4.47,0.75-4.47,0.75l-1.52-1.92
	l-0.65-0.24l-1.45-1.05l-1.59-1.52l-0.37-0.47l-0.72-1.46l-0.45-0.48l-2.26-1.3l-2.17-0.89l-3.3-1.55l-0.72-0.48l-0.98-0.82
	l-0.87-0.86l-1.08-1.26l-0.54-0.36l-3.45-1.92l-0.85-0.77l-0.68-0.53l-0.42-0.43l-2.33-3.27l-0.9-0.74l-0.82-0.8l-0.77-0.5
	c0,0,2.36-4.21,4.78-5.13s5.42-5.83,5.5-7.75s1-11.28,2-12.85c1-1.57,0.66-4.9,4.92-2.15c2.41,1.56,8.04,0.6,9.33-4.17
	c0.83-3.08-1.25-3.16-0.67-4.5c0.59-1.33,2.75-1.91,2.5-3.75c-0.25-1.83-1.83-4.58-0.91-8.58c0.91-4-5.55-5.39-6.17-9.25
	c-0.33-2.08,0.27-2.77,2.83-1.42c1.42,0.75,4.34-2.58,5.17-4.41c0.83-1.84,7.5-1.34,8.83,0c1.34,1.33,4.17,5.16,5.5,4.75
	c1.34-0.42,2.5-2.34,1.42-4c-1.08-1.67-4.58-5.25-4.67-7.09c-0.08-1.83-1.79-4.34-0.83-6.5c0.13-0.29,0.15-0.64,0.07-1.05
	c0.85,1.34,2.56,1.9,4.43,3.01c1.82,1.08,3.79,2.72,5.54,3.21c2.27,0.63,3.22,0.23,5.3,0c5.35-0.59,7.35-7.59,11.63-10.28
	c4.28-2.69,5.94-6.06,10.91-9.41c4.96-3.34,7.65,5.5,7.37,6.28c-0.28,0.79,2.13,4,3.5,5.79c1.37,1.78,0.92,2.62,0.42,3.62
	s1.16,0.17,0.97,2.5s0.03,6.17,2.69,4.67c2.67-1.5,3.17,0.33,5.67,1.83s4.33-3,8-4.33c1.34-0.49,2.32-0.51,3.07-0.27c0,0,0,0,0.01,0
	C392.38,233.31,392.97,234.48,393.5,235.33z"
	data-engtype-1="Opstina"
    data-id-0="29"
    data-id-1="3"
	data-id-2="27"
    data-iso="BIH"
    data-name-0="Bosnia and Herzegovina"
    data-name-1="Republika Srpska"
    data-name-2="Mrkonjic_Grad"
    data-nl-name-2=""
    data-type-2="Opstina"
    data-varname-2="Mrkonjic_Grad"
    id="path26"/>


<path fill="none" stroke="#000000" d="M298.16,64.54c-0.3,0.05-0.62,0.03-0.99-0.04c-2.5-0.5-6.34,0.14-9.84,0.07
	c-3.5-0.07-19,1.43-21.33-1.4c-2.33-2.84-1.17-2.5-4.67-3.67s-2.36-3.99-3.16-5.67c-1.84-3.83-7.5,0.67-8.84,3.17
	c-1.33,2.5-2.66,4.5-5.5,2.67c-2.83-1.84-4-0.84-6-1.17s-3.5-4.17-5.33,0.17c-1.83,4.33-3.67,0.5-4.67-0.5
	c-0.92-0.92-2.13-1.99-3.75-0.57c0.8-0.91,0.85-1.97-0.75-3.27c-1.83-1.5-6.66,1.84-6.5-1.33c0.17-3.17-1.33-4.17-3.33-5.83
	c-2-1.67,0.33-3,3.33-3.17c3.01-0.17,4.17-2,3.84-3.17c-0.34-1.16,0.83-5.33,3.33-6.83s1-4.33-1.33-4.33
	c-2.34,0-3.67-0.34-2.88-1.84c0.8-1.5,1.04-2.83,0.21-5.83s1.12-3.31,1.12-3.31v-0.01l0.98,0.59l4.67,1.45l3.1,0.44l3.45,0.49
	l4.73,0.12l3.24-0.75l3.25-0.81l1.11,0.32l3.33,0.96l5.03,1.93l5.8,1.76l4.28,1.12l3.5,0.01l0.41-0.09l1.19-0.24l1.63-0.34l0.3-0.32
	l1.86-1.97l0.01-0.02l0.16-1.11l0.22-1.54l0.06-2.83l0.03-0.07l0.91-3.13l0.66,0.03l0.75,0.03l2.05-0.23l0.39-0.05l0.68-0.85
	l0.48-0.61l2.07-0.63l0.28-0.13l2.01-0.95l0.26-0.18l1.14-0.78l0.67-0.45l2.14-2.03l0.06-0.06l0.87-1.06l0.73-0.89l0.07-0.08
	l1.49-2.84l2-2.79l0.07-0.1l0.23,0.12l0.21,0.12l1.42,0.78l0.81,0.44l0.66,1.51l-0.38,0.5l-1.37,1.8l-0.75,2.95l-0.38,2.64
	l1.06,2.43l0.91,0.06l0.91,0.06l2.69-0.19l0.25-0.02l1.29,0.29l2.36,0.53l2.47,0.56l0.21,0.05l0.06-0.12l0.17-0.4l0.42-0.98
	l0.25-0.57l-1.27-2.74l-0.65-2.01l-0.22-0.68l2.04,1.16l1.16,2.23l0.71,1.87l0.16,0.4l0.68,1.72l2.1,0.66l0.52-0.44l0.77-0.65
	l0.18-0.53l0.55-1.56l1.28-0.24l-0.31,2.01l-0.32,0.82l-0.28,0.73l0.07,1.64l0.25,0.07l1.68,0.5l1.45-0.68l0.4-0.18l0.62-0.35
	c-0.05,0.21-0.66,3.07-1.31,4.36c-0.67,1.33-0.04,1.16,1.31,3c1.36,1.83,2.82,4.33,0,7c-2.81,2.66-4.31,1.33-3.14,4.16
	c1.16,2.84,1.03,2.67-0.4,4.17c-1.44,1.5-0.4,2,0,3.33c0.4,1.34-2.7,1.5-0.74,5.67c1.97,4.17,0.97,5.33,0.3,5.5
	c-0.66,0.17-2.66,3.67-1.66,4.67s-2.67-1.5-7.67,1.5C300.74,62.23,299.87,64.3,298.16,64.54z"
	data-engtype-1="Opstina"
    data-id-0="29"
    data-id-1="3"
	data-id-2="28"
    data-iso="BIH"
    data-name-0="Bosnia and Herzegovina"
    data-name-1="Republika Srpska"
    data-name-2="Kozarska_Dubica"
    data-nl-name-2=""
    data-type-2="Opstina"
    data-varname-2="Kozarska_Dubica"
    id="path27"/>


<path fill="none" stroke="#000000" d="M216,77.17c0.5,1.83,2.5,5.33-2.33,6.16c-4.84,0.84-6,4.67-5.34,6.34
	c0.67,1.66-1,2.83-4.5,3c-3.5,0.16-8.83-0.67-8.5,3.66c0.34,4.34-0.66,3-1.5,5.34c-0.83,2.33,6.34,2.28,1.17,9.14l-0.02,0.3
	c-4.9-0.25-8.55-0.56-16.31,0.06c-8.42,0.66-7.67,0.66-7.75,4.33c-0.07,2.98-1.68,3.26-3.54,4.79c-1.28-1.04-6.55-4.21-4.63-9.47
	c1.92-5.26-0.58-3.82-3.67-2.15c-3.08,1.66-8.41,3.08-9.41,1.08s0-5.83-1-7s-4.5,2.58-5.25,4.5s-5.34,3.75-6.42,3.56
	c-1.08-0.2-0.08-5.39,0.33-6.89c0.42-1.5-2.33-3-2.66-4.17c-0.34-1.17-3.92-2.17-5-3.58c-1.09-1.42,1.54-7.61,1.54-7.61l1.38-0.73
	l0.61-0.39l0.74-0.59l0.59-0.3l0.76-0.18l2.69-0.3l1.11-0.37l1.62-0.76l0.52-0.3l0.77-0.72l0.86-0.6l0.78-0.68l0.6-0.26l1.32-0.39
	l1.2-0.67l0.33-0.13l0.77-0.15l0.85-0.05l4.62,0.01l3.62-0.2l-1.68-1.43l-1.06-0.73l-1.69-0.79l0.53-1.43l-0.02-3.05l-1.25-3.08
	l1.2-1.64l0.26-0.35l0.61-0.45l2.17-1.57l4.37,0.25l2.76-3.3l0.01-0.07l0.38-2.14l0.1-2.47l0.2-1.55c0,0,5.99,3.33,10.66,3.5
	s13.83,1.67,15.67,4.33c1.83,2.67,12.83,6.5,16.5,6c1.61-0.22,3.51,0.62,5.18,1.81C213.97,74.12,215.72,76.14,216,77.17z"
	data-engtype-1="Opstina"
    data-id-0="29"
    data-id-1="3"
	data-id-2="29"
    data-iso="BIH"
    data-name-0="Bosnia and Herzegovina"
    data-name-1="Republika Srpska"
    data-name-2="Bosanski_Novi"
    data-nl-name-2=""
    data-type-2="Opstina"
    data-varname-2="Bosanski_Novi"
    id="path28"/>

	
</svg>
