<?xml version="1.0" encoding="UTF-8" standalone="no"?>
<!-- Created with Inkscape (http://www.inkscape.org/) -->

<svg
   xmlns:dc="http://purl.org/dc/elements/1.1/"
   xmlns:cc="http://creativecommons.org/ns#"
   xmlns:rdf="http://www.w3.org/1999/02/22-rdf-syntax-ns#"
   xmlns:svg="http://www.w3.org/2000/svg"
   xmlns="http://www.w3.org/2000/svg"
   xmlns:sodipodi="http://sodipodi.sourceforge.net/DTD/sodipodi-0.dtd"
   xmlns:inkscape="http://www.inkscape.org/namespaces/inkscape"
   width="150"
   height="150"
   id="svg4382"
   version="1.1"
   inkscape:version="0.48.4 r9939"
   sodipodi:docname="bubbles.svg"
   inkscape:export-filename="/home/tryggvi/openspending/budzeti.ba/img/bubbles.png"
   inkscape:export-xdpi="90"
   inkscape:export-ydpi="90">
  <defs
     id="defs4384" />
  <sodipodi:namedview
     id="base"
     pagecolor="#ffffff"
     bordercolor="#666666"
     borderopacity="1.0"
     inkscape:pageopacity="0.0"
     inkscape:pageshadow="2"
     inkscape:zoom="0.58"
     inkscape:cx="35"
     inkscape:cy="413.99758"
     inkscape:document-units="px"
     inkscape:current-layer="layer1"
     showgrid="false"
     inkscape:window-width="1366"
     inkscape:window-height="744"
     inkscape:window-x="0"
     inkscape:window-y="24"
     inkscape:window-maximized="1" />
  <metadata
     id="metadata4387">
    <rdf:RDF>
      <cc:Work
         rdf:about="">
        <dc:format>image/svg+xml</dc:format>
        <dc:type
           rdf:resource="http://purl.org/dc/dcmitype/StillImage" />
        <dc:title></dc:title>
      </cc:Work>
    </rdf:RDF>
  </metadata>
  <g
     inkscape:label="Layer 1"
     inkscape:groupmode="layer"
     id="layer1"
     transform="translate(0,-902.36218)">
    <g
       id="g4452"
       transform="translate(-179.28572,459.28573)">
      <path
         style="fill:#e8e8e8"
         d="m 229.28572,588.27788 c -3.7337,-1.73724 -4.93295,-3.75228 -4.9682,-8.34784 -0.0269,-3.51408 0.50725,-4.6197 3.503,-7.25 4.51109,-3.96079 9.07248,-4.14637 13.35447,-0.54331 3.47289,2.92225 4.94408,8.3153 3.27041,11.98861 -1.15365,2.53198 -6.95463,5.49721 -10.5318,5.38343 -1.17034,-0.0372 -3.25288,-0.59113 -4.62788,-1.23089 z m 35.64602,-1.15368 c -3.01915,-2.79806 -3.25297,-4.47336 -1.18301,-8.47623 3.73099,-7.21492 15.56364,-4.55215 15.52168,3.49293 -0.0182,3.4949 -0.7507,4.7498 -3.66895,6.28585 -3.56406,1.87597 -7.79771,1.35913 -10.66972,-1.30255 z m 31.27706,-14.47083 c -3.98267,-3.98266 -3.99198,-8.84907 -0.0254,-13.28842 5.7059,-6.38601 15.34517,-3.22923 16.7599,5.48871 0.52671,3.24577 0.1881,4.07713 -2.93102,7.19625 -4.66381,4.66381 -9.53036,4.87657 -13.80346,0.60346 z m -90.92308,-5.07692 c -3.77157,-3.77157 -1.52251,-9 3.87143,-9 3.46468,0 5.12857,1.66389 5.12857,5.12857 0,5.39394 -5.22843,7.643 -9,3.87143 z m 43,-10.31079 c -16.24809,-3.71158 -29.68982,-18.20191 -31.95476,-34.44757 -1.75622,-12.59688 2.21504,-24.46941 11.40894,-34.10825 20.1501,-21.12528 54.13123,-15.23132 66.83721,11.59278 2.94785,6.22332 3.20817,7.58653 3.20325,16.77383 -0.005,8.82872 -0.33001,10.69459 -2.77714,15.93013 -8.70304,18.61983 -27.85898,28.56697 -46.7175,24.25908 z M 185.40566,542.8249 c -5.32929,-2.75675 -7.34728,-10.33774 -4.86994,-18.29494 0.99622,-3.19986 2.09918,-4.42629 5.43275,-6.0409 3.63748,-1.76181 4.73645,-1.87682 8.4301,-0.88222 12.99432,3.49901 14.36506,19.58074 2.20289,25.84465 -3.14123,1.61783 -7.30771,1.38465 -11.1958,-0.62659 z m 131.7934,-1.53025 c -6.73201,-5.16868 -3.84295,-15.74068 4.29121,-15.70289 3.77495,0.0175 4.80167,0.60124 6.54545,3.72112 2.17647,3.89402 1.06608,10.06197 -2.25,12.49826 -1.56274,1.14812 -6.83131,0.83122 -8.58666,-0.51649 z M 190.94071,497.74771 c -3.31996,-3.66852 -1.45495,-8.17126 3.38449,-8.17126 4.94745,0 6.08484,7.58711 1.40651,9.38235 -2.41674,0.92739 -2.98591,0.78352 -4.791,-1.21109 z m 109.90253,-3.36426 c -5.19306,-1.44461 -13.03547,-9.26395 -14.46885,-14.42628 -4.21496,-15.18032 6.38326,-29.38397 21.91133,-29.36537 5.16794,0.006 13.28774,4.18413 16.61703,8.55009 2.73909,3.59198 2.88244,4.28404 2.87232,13.8671 -0.009,8.91823 -0.27758,10.46131 -2.31535,13.32309 -4.95824,6.96321 -15.79122,10.50638 -24.61648,8.05137 z m -87.05752,-18.20748 c -9.69871,-4.27452 -12.9816,-16.63237 -6.5803,-24.77031 4.77188,-6.06646 20.82921,-5.79932 25.2579,0.4202 9.23389,12.96781 -4.34284,30.66789 -18.6776,24.35011 z m 40.31039,-24.11631 c -0.97083,-2.13076 -0.85251,-2.73941 0.77144,-3.9682 2.38471,-1.80442 4.40408,-1.84166 6.66817,-0.12296 3.47466,2.63764 1.38889,6.60795 -3.47144,6.60795 -2.04413,0 -3.13736,-0.69337 -3.96817,-2.51679 z"
         id="path4466"
         inkscape:connector-curvature="0" />
      <path
         style="fill:#cfcfcf"
         d="m 229.6486,588.03807 c -5.85764,-2.56784 -6.47656,-10.50529 -1.16748,-14.97258 4.18277,-3.51957 9.09337,-3.35411 12.88152,0.43404 4.73683,4.73682 3.77462,11.55097 -2.0569,14.56657 -3.49379,1.80671 -5.48501,1.80093 -9.65714,-0.028 z m 36.09167,-0.91617 c -3.05182,-3.05181 -3.11246,-5.70163 -0.20455,-8.93831 4.73074,-5.2656 12.75,-2.52716 12.75,4.3539 0,6.40563 -7.85415,9.27572 -12.54545,4.58441 z m 31.46853,-15.46853 c -4.80618,-4.80618 -3.58999,-11.06467 2.65741,-13.675 7.53125,-3.14676 14.67049,4.34448 10.9665,11.5072 -3.02918,5.8578 -8.98608,6.80564 -13.62391,2.1678 z m -91.35165,-4.64835 c -3.02042,-3.02041 -1.28259,-7.42857 2.92857,-7.42857 2.68046,0 4.5,1.81954 4.5,4.5 0,4.21115 -4.40816,5.94899 -7.42857,2.92857 z m 42.83566,-10.45917 c -25.01861,-4.96026 -39.30928,-34.46827 -27.74504,-57.28919 15.38021,-30.35139 58.05632,-29.7175 72.64482,1.07904 2.92858,6.18228 3.19313,7.56924 3.19313,16.74075 0,9.15929 -0.26688,10.56334 -3.1744,16.70071 -8.16627,17.23789 -26.34308,26.4515 -44.91851,22.76869 z m -63.95077,-14.83297 c -8.27704,-5.04749 -6.35834,-20.03348 2.95863,-23.10836 8.12815,-2.68253 16.59294,3.76157 16.58131,12.62306 -0.0121,9.23657 -11.48878,15.39505 -19.53994,10.4853 z m 131.99823,-2.59098 c -2.9997,-2.99969 -3.13134,-6.41533 -0.38197,-9.91059 4.10716,-5.22141 12.92742,-1.90197 12.92742,4.86514 0,1.22665 -0.93266,3.41597 -2.07258,4.86514 -2.70936,3.44439 -7.13264,3.52054 -10.47287,0.18031 z M 191.33634,496.13744 c -2.52986,-3.04829 1.46208,-7.04023 4.51037,-4.51037 2.13687,1.77345 1.41596,5.38123 -1.1485,5.74764 -1.14812,0.16404 -2.66097,-0.39273 -3.36187,-1.23727 z m 109.18826,-2.89586 c -15.26856,-5.53745 -19.13445,-25.64753 -6.98163,-36.31785 12.04806,-10.57834 31.43196,-4.40483 34.27244,10.9153 0.38369,2.06942 0.38408,6.27201 8.7e-4,9.33909 -1.53966,12.32304 -15.28983,20.41618 -27.29168,16.06346 z m -86.78846,-18.07173 c -7.41287,-3.22884 -10.90546,-11.49491 -8.03387,-19.01407 2.10788,-5.51941 3.89878,-7.03888 10.08345,-8.55521 4.37233,-1.07199 5.62095,-0.9921 9.94654,0.63646 4.13729,1.55766 5.33968,2.62627 7.34956,6.53185 1.92194,3.73469 2.26422,5.49108 1.7097,8.77324 -1.64925,9.7618 -12.09521,15.53054 -21.05538,11.62773 z m 41.48001,-23.17722 c -1.75398,-2.11343 -0.004,-4.91618 3.06957,-4.91618 2.67104,0 4.58769,2.52613 3.69053,4.86408 -0.80127,2.08809 -5.04324,2.12078 -6.7601,0.0521 z"
         id="path4464"
         inkscape:connector-curvature="0" />
      <path
         style="fill:#acacac"
         d="m 266.3583,586.94159 c -1.13992,-1.44917 -2.07258,-3.49463 -2.07258,-4.54545 0,-2.06067 4.20117,-6.81969 6.02029,-6.81969 1.5412,0 5.32741,2.07132 6.2144,3.3997 1.40224,2.10006 0.75464,6.61097 -1.23469,8.6003 -2.79084,2.79084 -6.43671,2.53157 -8.92742,-0.63486 z m -37.81015,0.10612 c -5.21275,-3.65115 -3.28385,-13.319 3.07614,-15.41798 7.8444,-2.58889 14.65762,4.93781 11.15372,12.32173 -2.24378,4.72841 -9.611,6.33143 -14.22986,3.09625 z m 69.19212,-15.92581 c -4.86784,-4.86783 -1.52454,-12.54545 5.46304,-12.54545 4.71577,0 7.08241,2.4247 7.08241,7.25616 0,6.81708 -7.75013,10.08462 -12.54545,5.28929 z m -91.25455,-4.74545 c -1.8721,-1.8721 -1.41502,-4.61456 0.983,-5.89794 1.85692,-0.99379 2.45223,-0.83581 3.98548,1.05768 3.14578,3.88487 -1.44833,8.36041 -4.96848,4.84026 z m 39.72935,-11.16737 c -10.71546,-2.88919 -21.96657,-12.99312 -26.04119,-23.38597 -3.17785,-8.10553 -3.17146,-21.40338 0.0142,-29.53124 3.13676,-8.00312 11.43958,-16.77383 19.75365,-20.86683 17.14251,-8.43923 38.48097,-2.78153 49.61463,13.15488 5.29993,7.58617 7.05571,14.28762 6.54455,24.9791 -0.63331,13.24609 -6.16208,23.07094 -17.04896,30.29665 -9.46342,6.28096 -21.88569,8.30617 -32.83687,5.35341 z m -58.61644,-12.74547 c -6.55913,-1.87639 -9.89898,-10.04349 -6.86163,-16.77911 5.52139,-12.24427 22.54872,-7.89049 22.54872,5.76556 0,6.01639 -3.85136,10.07964 -11,11.60519 -0.825,0.17606 -2.93419,-0.0902 -4.68709,-0.59164 z m 129.68709,-3.88716 c -4.07201,-4.07201 -1.34211,-11.02446 4.3067,-10.9682 6.40649,0.0638 9.41763,5.50636 5.67724,10.26148 -2.59223,3.2955 -7.07766,3.613 -9.98394,0.70672 z m -17.99286,-46.5388 c -12.97347,-5.82728 -16.32687,-22.64866 -6.64017,-33.30852 8.32589,-9.16234 24.62599,-7.89721 31.93511,2.47863 4.26935,6.06067 4.75667,13.6844 1.32329,20.70197 -3.67961,7.52085 -8.84576,10.98634 -16.98121,11.39111 -4.02229,0.20013 -7.35041,-0.23611 -9.63702,-1.26319 z M 210.2403,471.87517 c -3.62625,-3.38254 -4.27983,-4.62825 -4.69495,-8.94854 -0.89577,-9.32243 4.69196,-15.3427 14.24037,-15.3427 13.97,0 19.50416,15.19218 9.08132,24.9297 -1.98766,1.85696 -4.01395,2.53883 -8.51137,2.86414 -5.72614,0.41419 -6.02865,0.30944 -10.11537,-3.5026 z m 45.97585,-19.88254 c -1.65611,-1.9955 -0.0648,-4.91618 2.67856,-4.91618 3.47188,0 2.74498,6.39974 -0.73655,6.48469 -0.34515,0.008 -1.21906,-0.69741 -1.94201,-1.56851 z"
         id="path4462"
         inkscape:connector-curvature="0" />
      <path
         style="fill:#8e8e8e"
         d="m 268.68542,588.81114 c -2.05321,-1.37097 -3.57231,-5.4108 -2.9568,-7.8632 1.44978,-5.77641 10.59481,-4.55865 10.5253,1.40156 -0.0396,3.39781 -2.39869,6.69696 -4.05617,5.67258 -0.78027,-0.48223 -0.96348,-0.33789 -0.50752,0.39986 0.79217,1.28176 -1.26836,1.54865 -3.00481,0.3892 z m -40.32712,-2.86955 c -4.52135,-5.74796 -0.9468,-14.36514 5.95889,-14.36514 4.25242,0 8.96853,4.71611 8.96853,8.96853 0,7.33684 -10.43406,11.10899 -14.92742,5.39661 z m -21.40591,-20.03181 c -1.28112,-1.28111 -0.65242,-4.12482 1.05695,-4.78077 2.01767,-0.77425 4.41607,1.91985 3.60071,4.04464 -0.55602,1.44896 -3.48234,1.91146 -4.65766,0.73613 z m 37.41243,-11.93118 c -9.78618,-3.52591 -18.32467,-11.3611 -22.77835,-20.90215 -2.48095,-5.3149 -2.80075,-7.14184 -2.80075,-16 0,-8.90003 0.31562,-10.68326 2.86933,-16.2116 3.36986,-7.29517 12.27626,-16.35939 18.99465,-19.33126 2.43155,-1.07559 7.16629,-2.33106 10.52165,-2.78993 17.97079,-2.45766 33.66365,6.12501 41.4199,22.65318 2.79072,5.94689 3.13536,7.6776 3.14179,15.77746 0.007,8.50444 -0.23734,9.5927 -3.74239,16.68468 -4.30156,8.70362 -10.21124,14.58034 -18.70493,18.60061 -6.98063,3.3041 -21.80526,4.08274 -28.9209,1.51901 z m -57.5791,-12.29633 c -4.58532,-1.99406 -8.00667,-8.52247 -6.96113,-13.28279 0.34181,-1.55624 1.97001,-4.17806 3.61822,-5.82627 2.49453,-2.49453 3.79922,-2.99676 7.78497,-2.99676 5.77149,0 9.39553,2.46285 11.06424,7.5191 1.51986,4.60521 0.53688,8.58632 -2.94331,11.92055 -3.0463,2.91854 -9.05189,4.19307 -12.56299,2.66617 z m 131.5,-4.10582 c -2.40692,-2.40692 -2.50067,-3.84018 -0.4433,-6.77749 1.7781,-2.53859 5.60429,-2.91866 7.75282,-0.77013 0.79881,0.79881 1.64096,1.26381 1.87143,1.03333 0.23048,-0.23047 0.41905,1.11189 0.41905,2.98303 0,1.87115 -0.30901,3.2111 -0.68669,2.97768 -0.37768,-0.23342 -1.24278,0.24565 -1.92245,1.06459 -1.71825,2.07036 -4.62172,1.85813 -6.99086,-0.51101 z m -14.8624,-45.16824 c -5.07794,-0.89146 -10.09241,-4.40454 -12.9984,-9.10653 -9.03613,-14.62077 4.51281,-33.67016 21.21571,-29.82861 6.32312,1.45427 10.01707,4.17561 13.32126,9.81379 8.65055,14.76103 -4.21934,32.16182 -21.53857,29.12135 z M 213.6164,473.6395 c -9.22204,-4.18715 -10.59122,-16.40555 -2.57849,-23.01031 9.05823,-7.46656 22.23386,-1.07366 22.24407,10.79297 0.005,5.69376 -2.4974,9.73438 -7.54014,12.17553 -5.04011,2.43988 -6.83019,2.44605 -12.12544,0.0418 z m 42.80871,-22.39509 c -0.81924,-0.98713 -0.7373,-1.82869 0.31644,-3.25 1.32973,-1.7936 1.53202,-1.80952 3.1198,-0.2455 1.86881,1.84085 1.29852,4.82754 -0.9218,4.82754 -0.77492,0 -1.90641,-0.59942 -2.51444,-1.33204 z"
         id="path4460"
         inkscape:connector-curvature="0" />
      <path
         style="fill:#6d6d6d"
         d="m 228.87461,585.49972 c -1.42389,-1.69219 -2.58889,-4.10651 -2.58889,-5.36514 0,-3.05301 3.36492,-7.18192 6.49281,-7.96697 2.90474,-0.72904 7.9506,1.51601 8.88601,3.95364 3.62442,9.44509 -6.49199,16.86315 -12.78993,9.37847 z m 20.45641,-30.95946 c -7.29042,-1.52104 -14.43603,-5.62635 -19.96068,-11.46785 -7.98199,-8.43978 -9.58462,-12.78653 -9.58462,-25.99596 0,-9.93108 0.26281,-11.53511 2.70452,-16.50672 7.4718,-15.21343 24.46015,-24.02751 40.77268,-21.15412 8.84619,1.55823 14.64702,4.64618 21.1719,11.27044 18.98427,19.27338 11.74771,52.11341 -13.68499,62.10347 -5.47557,2.15082 -15.55307,2.97454 -21.41881,1.75074 z m -65.69635,-16.28283 c -3.01022,-2.75866 -3.62168,-3.99715 -3.62168,-7.33556 0,-10.19241 13.15972,-15.02217 19.71245,-7.23469 6.08629,7.23315 1.22587,17.81786 -8.20441,17.86703 -3.45268,0.018 -4.95426,-0.60971 -7.88636,-3.29678 z m 118.65105,-46.81232 c -11.31401,-3.35601 -16.98214,-15.70679 -12.12034,-26.41003 4.90833,-10.80565 18.31301,-14.56751 28.31739,-7.94693 3.8691,2.56045 7.80295,8.83633 7.80295,12.44846 0,1.12191 0.45,2.03984 1,2.03984 0.55,0 1,0.675 1,1.5 0,0.825 -0.45,1.5 -1,1.5 -0.55,0 -1,0.95123 -1,2.11385 0,3.66227 -4.32051,9.98968 -8.48925,12.43255 -4.84264,2.83776 -10.77735,3.7263 -15.51075,2.32226 z m -89.81018,-18.8943 c -5.53534,-3.3748 -7.69035,-11.17197 -4.69087,-16.97233 3.985,-7.70614 12.88175,-10.23725 19.15771,-5.45034 6.18062,4.71419 7.78516,10.60764 4.67337,17.16524 -3.27379,6.89902 -12.35592,9.3937 -19.14021,5.25743 z m 44.73367,-21.22436 c -0.82589,-2.69857 -0.49924,-3.75 1.16499,-3.75 1.24485,0 1.91152,0.69753 1.91152,2 0,1.11111 -0.66667,2 -1.5,2 -0.825,0 -1.53443,-0.1125 -1.57651,-0.25 z"
         id="path4458"
         inkscape:connector-curvature="0" />
      <path
         style="fill:#555555"
         d="m 229.53572,585.97343 c -6.71461,-7.66026 3.12242,-18.11547 10.29545,-10.94243 3.0504,3.05039 3.10861,5.96093 0.20455,10.22674 -2.8721,4.21885 -7.17238,4.51196 -10.5,0.71569 z m 19.7953,-32.43317 c -15.01569,-3.1328 -27.35618,-16.27298 -28.95089,-30.82694 -1.98883,-18.15087 6.99665,-34.11098 22.65893,-40.24707 8.05692,-3.15649 20.70442,-3.16882 27.74666,-0.027 11.35813,5.06724 18.26829,12.50592 21.61936,23.27291 7.19858,23.1291 -8.32407,46.43044 -32.14975,48.26059 -3.55829,0.27333 -8.47422,0.0787 -10.92431,-0.43245 z m -61.95578,-13.05434 c -7.40212,-2.9595 -9.11509,-11.12957 -3.49289,-16.65947 8.39667,-8.25883 21.49286,0.42003 16.96958,11.24577 -2.2094,5.28785 -7.98678,7.60867 -13.47669,5.4137 z m 112.3609,-51.31607 c -6.47087,-2.81853 -11.34906,-12.1532 -9.89106,-18.92708 2.91784,-13.5563 17.39926,-19.52848 28.38489,-11.70601 9.93906,7.07723 9.11786,23.75926 -1.46463,29.75286 -4.57682,2.59216 -12.19486,2.98594 -17.0292,0.88023 z m -85.03523,-16.01481 c -4.74525,-2.06608 -7.41519,-6.12153 -7.41519,-11.26311 0,-5.35745 1.94968,-9.41541 5.41469,-11.26982 1.42192,-0.76099 2.58531,-1.75758 2.58531,-2.21464 0,-0.45706 1.58131,-0.83102 3.51402,-0.83102 4.10831,0 9.65661,3.32597 11.90897,7.13893 3.65851,6.19335 0.60819,15.69662 -5.91277,18.42125 -4.20176,1.7556 -6.09721,1.75906 -10.09503,0.0184 z"
         id="path4456"
         inkscape:connector-curvature="0" />
      <path
         style="fill:#353535"
         d="m 232.12025,587.69987 c 1.01566,-0.64381 0.83932,-0.97545 -0.73796,-1.38791 -1.13987,-0.29809 -2.53937,-1.76996 -3.11,-3.27082 -1.91709,-5.04233 1.08726,-9.46469 6.42987,-9.46469 6.4204,0 9.11866,7.86073 4.06325,11.83732 -1.70802,1.34352 -2.11089,2.14722 -1.25,2.49363 0.69867,0.28113 -0.52969,0.53979 -2.72969,0.57479 -2.5463,0.0405 -3.515,-0.24381 -2.66547,-0.78232 z m -43.83453,-47.82965 c -6.27533,-2.29398 -8.25346,-11.13122 -3.54545,-15.83922 4.76106,-4.76107 14.36919,-2.27727 15.97739,4.13032 1.86915,7.44727 -5.38916,14.28343 -12.43194,11.7089 z m 27.02056,-67.40981 c -3.88686,-1.55081 -5.94396,-3.88575 -7.05348,-8.0062 -2.06276,-7.66052 3.64581,-14.87776 11.76778,-14.87776 3.74467,0 5.01374,0.54861 7.86514,3.4 2.93723,2.93723 3.4,4.06387 3.4,8.27749 0,5.77991 -1.931,8.9779 -6.59857,10.92814 -3.84114,1.60493 -5.90265,1.6661 -9.38087,0.27833 z"
         id="path4454"
         inkscape:connector-curvature="0" />
    </g>
  </g>
</svg>
