<?xml version="1.0" encoding="UTF-8" standalone="no"?>
<svg
   xmlns:dc="http://purl.org/dc/elements/1.1/"
   xmlns:cc="http://creativecommons.org/ns#"
   xmlns:rdf="http://www.w3.org/1999/02/22-rdf-syntax-ns#"
   xmlns:svg="http://www.w3.org/2000/svg"
   xmlns="http://www.w3.org/2000/svg"
   xmlns:sodipodi="http://sodipodi.sourceforge.net/DTD/sodipodi-0.dtd"
   xmlns:inkscape="http://www.inkscape.org/namespaces/inkscape"
   enable_background="new 0 0 1000 828"
   height="150"
   style="fill:none;stroke:#000000;stroke-linejoin:round"
   version="1.1"
   viewBox="0 0 150 150"
   width="150"
   id="svg3370"
   inkscape:version="0.48.4 r9939"
   sodipodi:docname="entiteti.svg">
  <sodipodi:namedview
     pagecolor="#ffffff"
     bordercolor="#666666"
     borderopacity="1"
     objecttolerance="10"
     gridtolerance="10"
     guidetolerance="10"
     inkscape:pageopacity="0"
     inkscape:pageshadow="2"
     inkscape:window-width="1366"
     inkscape:window-height="744"
     id="namedview3392"
     showgrid="false"
     inkscape:zoom="0.28502415"
     inkscape:cx="-121"
     inkscape:cy="414"
     inkscape:window-x="0"
     inkscape:window-y="24"
     inkscape:window-maximized="1"
     inkscape:current-layer="svg3370" />
  <defs
     id="defs3372">
    <style
       type="text/css"
       id="style3374">path { fill-rule: evenodd; }</style>
  </defs>
  <metadata
     id="metadata3376">
    <views
       id="views3378">
      <view
         h="828.558053898"
         padding="0"
         w="1000"
         id="view3380">
        <proj
           flip="auto"
           id="robinson"
           lon0="18.7764628216" />
        <bbox
           h="43.94"
           w="53.1"
           x="208.78"
           y="-757.84"
           id="bbox3383" />
      </view>
    </views>
    <rdf:RDF>
      <cc:Work
         rdf:about="">
        <dc:format>image/svg+xml</dc:format>
        <dc:type
           rdf:resource="http://purl.org/dc/dcmitype/StillImage" />
        <dc:title></dc:title>
      </cc:Work>
    </rdf:RDF>
  </metadata>
  <path
     inkscape:connector-curvature="0"
     id="path3388"
     data-varname-1="Federation of Bosnia and Herzegovina"
     data-type-1="Entity"
     data-nl-name-1=""
     data-name-1="Federacija Bosna i Hercegovina"
     data-name-0="Bosnia and Herzegovina"
     data-iso="BIH"
     data-id-1="2"
     data-id-0="29"
     data-engtype-1="Entity"
     d="m 110.10425,10.785335 -0.16736,-0.2095 -0.14874,-0.18606 -0.42439,-0.72026 -0.82076,0.0295 -0.50241,0.0862 -0.0814,0.0139 -0.0802,0.0758 -0.50298,0.47548 0.008,0.25719 0.006,0.20848 0.21536,0.3336 0.0889,0.13755 0.0478,0.52247 -0.28974,0.63266 -0.30857,0.22249 -0.34902,0.25142 -0.83134,0.17949 0.24815,0.142 0.1962,0.0841 -0.004,0.003 0.34655,0.18681 0.31203,0.14668 0.20274,0.15768 0.26533,0.1703 0.0953,0.0279 0.12863,-0.004 0.56018,0.11509 0.21127,0.0562 0.13251,0.0613 0.1671,0.12813 0.17726,0.20859 0.15047,0.12771 0.13113,0.14177 0.18722,0.16906 0.13938,0.18495 0.38841,0.42934 0.17347,0.25785 0.0924,0.10366 0.10567,0.0896 0.24492,0.15356 0.14874,0.13115 0.15976,0.11486 0.27088,0.2739 0.0562,0.11058 0.0869,0.37631 0.0484,0.11322 0.11395,0.15048 0.11253,0.24434 0.0331,0.0493 0.0464,0.0453 0.0591,0.0365 0.0649,0.0246 0.0682,0.0145 0.14069,0.004 0.13939,-0.0297 0.11969,-0.0643 0.0953,-0.0848 0.1427,-0.21197 0.0874,-0.10547 0.0496,-0.0939 0.0251,-0.11913 0.0321,-0.31196 0.0433,-0.10976 0.18652,-0.18695 0.0773,-0.0546 0.11734,-0.0318 0.0629,-0.003 0.12533,0.0139 0.11284,0.0385 0.15612,0.1008 0.0557,0.0228 0.12798,0.0267 0.13789,0.002 0.13576,-0.0265 0.11682,-0.057 0.0945,-0.0733 0.0976,-0.10325 0.0644,-0.0483 0.0609,-0.0179 0.10126,-0.006 -0.0197,-0.57411 0.007,-0.20082 0.0285,-0.1222 0.0289,-0.0556 0.0437,-0.0491 0.0593,-0.0377 0.0665,-0.0242 0.14513,-0.0216 0.23473,0.002 0.56451,0.0401 0.0963,-0.0183 0.0819,-0.0424 0.13674,-0.11875 0.2343,-0.14013 0.10746,-0.0794 0.24473,-0.23098 0.19277,-0.26644 0.1624,-0.17477 0.18588,-0.30312 0.30414,-0.40316 0.007,-0.009 0.42085,0.36282 0.27019,0.18701 0.63573,0.3353 0.29961,0.10959 0.30046,0.21917 0.18514,0.11366 0.25649,0.11468 0.47395,0.2438 0.20993,0.14604 0.11199,0.0483 0.18011,0.0576 0.10991,0.0509 0.1485,0.12403 0.16089,0.11324 0.14712,0.13361 0.0947,0.0572 0.29382,0.1503 0.13529,0.0597 0.14589,0.0417 0.29756,0.0648 0.246,0.0898 0.58784,0.5083 0.24295,0.087 0.55602,0.0943 0.11543,0.0409 0.12715,0.0776 0.0986,0.0462 0.12146,0.0314 0.32828,0.055 0.12301,0.0346 0.0553,0.0246 0.2136,0.14498 0.6146,0.32692 0.20886,0.14823 0.11249,0.0495 0.18202,0.0576 0.11221,0.0491 0.20921,0.14741 0.47756,0.24513 0.3082,0.13112 0.41108,0.21356 0.16718,0.11971 0.0974,0.0546 0.30007,0.0981 0.27199,0.1592 0.29521,0.11034 0.0949,0.0702 0.20153,0.25548 0.51057,0.1028 0.2128,0.007 0.1857,-0.0364 0.16616,-0.0839 0.12633,-0.0342 0.5354,-0.0393 0.1461,-0.0206 0.0667,-0.0177 0.10182,-0.0505 0.40289,-0.29865 0.10198,-0.0468 0.16574,-0.0519 0.1386,-0.0588 0.41394,-0.15391 0.33147,-0.16429 -0.0499,-0.16959 0.18857,-0.43795 0.30575,-0.26408 0.18734,-0.24974 -0.48363,-0.24638 -0.0129,0.002 -0.52462,0.0784 -0.62677,-0.0874 -0.5559,-0.16086 -0.34025,0.11973 -0.18774,0.0436 -0.0684,0.0161 -0.0922,0.0214 -0.17906,-0.0605 -0.17563,-0.26024 0.0957,-0.31869 0.14033,-0.32216 0.006,-0.38714 -0.32688,-0.31507 -0.39758,-0.32913 -0.27042,-0.19736 -0.22388,-0.16355 -0.52627,-0.0792 -0.35108,-0.16987 -0.0602,-0.0579 -0.31726,-0.30452 -0.44611,-0.38928 -0.23686,-0.42229 0.28323,-0.30681 0.24357,-0.23979 0.13646,-0.29806 -0.24138,-0.66116 -0.0999,-0.007 -0.50543,-0.0375 -0.31203,0.12613 -0.0782,0.0624 -0.22371,0.17807 -0.0482,0.19764 -0.0392,0.16095 0.17116,0.28319 0.10372,0.17154 0.0432,0.11083 0.0871,0.22328 0.0442,0.11326 -0.0838,0.24629 -0.29415,0.0169 -0.50731,-0.0762 -0.0193,-0.003 -0.49746,0.0147 -0.5382,-0.006 -0.28707,-0.20677 -0.11621,-0.25832 -10e-4,-0.003 0.1136,-0.0994 0.26015,-0.22736 0.11991,-0.1422 0.0972,-0.11532 0.30993,-0.2017 0.20897,-0.20904 -0.0691,-0.28892 -0.44853,0.034 -0.009,6.1e-4 -0.18691,0.1632 -0.14231,0.19173 -0.10095,0.1361 -0.14801,0.0469 -0.14397,0.0456 -0.16455,-0.0585 -0.38651,-0.13752 -0.35718,-0.46414 -0.04,-0.0522 -0.11545,-0.004 -0.18835,-0.007 -0.2465,-0.009 -0.17868,0.20294 0.28932,0.28199 0.29631,0.24347 0.0638,0.0526 0.12651,0.47571 -0.21869,0.22165 -0.009,0.009 -0.39574,-0.25302 -0.0197,-0.0371 -0.27031,-0.50811 -0.56667,-0.54951 -0.39822,-0.0511 -0.15883,-0.0204 -0.24484,0.10168 -0.0208,0.009 0.0313,0.095 0.0322,0.098 0.0246,0.0748 0.0251,0.0181 0.379,0.27424 0.1111,0.0791 0.2287,0.16279 0.058,0.15381 0.0235,0.0623 -0.13623,0.21106 -0.24134,0.26728 -0.008,0.009 -0.11571,0.35282 -0.0301,0.45711 -0.20732,0.10959 -0.23298,-0.35036 -0.0831,-0.12487 -0.23339,-0.23671 -0.0417,-0.0424 -0.49951,0.0499 -0.093,0.009 -0.47937,-0.007 -0.0688,-0.0181 -0.65797,-0.17398 -0.60636,-0.48139 -0.11167,-0.0848 -0.18806,-0.14281 -0.32469,-0.24673 -0.0636,-0.0483 -0.57322,-0.51222 -0.22848,-0.57012 -0.86386,-0.51901 -0.64422,0.0685 -0.43052,0.0458 -0.21486,0.0228 -1.53155,0.19073 -1.33454,-0.0338 -0.19923,-0.0732 -0.10218,-0.41041 -0.1605,-0.0312 -0.51804,-0.10026 -0.68926,0.0291 -0.10924,-0.13674 z m -100.027967,-4.97513 -0.06142,-0.0699 -0.4511794,-0.40763 -0.2629276,-0.2445 -0.095111,-0.0883 -0.4236796,0.26102 -0.7964876,0.49083 -0.4870077,0.0522 -0.4361158,0.0469 -0.270383,-0.006 -0.067225,-0.001 -0.6597265,-0.0149 -0.6542804,0.0243 -0.6260806,0.17617 -0.5845888,0.19432 -0.00925,-0.004 -0.6965513,-0.32482 -0.1995232,0.40638 -0.015214,0.0141 -0.3360224,0.31094 -0.5910485,0.11927 -0.4546437,0.49686 -0.128082,0.14067 -0.2939608,0.32292 -0.3827996,0.35757 -0.30014504,0.40546 -0.128035,0.41604 0.1861316,0.90335 0.26604814,0.82642 0.079012,0.48155 0.047588,0.29018 -0.1684975,0.97908 -0.30034004,0.55378 -0.055802,0.0695 -0.35624393,0.44454 -0.14704027,0.18152 -0.20119823,0.24833 -0.013729795,0.0169 0.310506345,0.31269 0.25520478,0.25687 0.2767635,0.71617 0.16572984,0.66459 0.2824782,0.65537 0.3966516,0.52173 0.3382479,0.37875 -0.2050232,0.61442 -0.2871359,0.7688 -0.00731,0.0199 -0.4510251,0.0391 -0.32663974,0.0928 -0.2400839,0.23982 -0.087292,0.11828 -0.0957249,0.12968 -0.135987,0.35259 3.0347e-4,0.29618 0.0980309,0.32772 0.0211846,0.0708 0.26831003,0.20823 0.2839098,0.19804 0.1255701,0.33807 -0.051589,0.64334 -0.012076,0.1506 0.025095,0.0881 0.15886374,0.55333 0.3107327,0.65116 0.2873445,0.44541 0.099217,0.15361 0.819749,0.80081 0.2030894,0.20996 0.3951409,0.4085 0.071057,0.27707 0.00403,0.0157 0.0618,0.24106 -0.2016764,0.45565 -0.00299,0.002 -0.00187,0.004 -0.1675222,0.12509 -0.4031839,0.30775 -0.6107211,0.22455 -0.5462483,0.37099 -0.116821,0.30955 -0.09328,0.2469 0.1641649,0.5434 0.4677296,0.65074 0.3713437,0.74504 0.2005371,0.56606 0.6638685,0.29196 0.040527,0.0175 0.09742,0.0482 0.2858065,0.14008 0.035231,0.0173 0.2962474,0.14536 0.4251537,0.39258 0.03632,0.0335 0.2783016,0.25493 0.022033,0.001 0.4242722,0.0258 0.067233,0.004 0.1625847,-0.12177 0.256658,-0.19212 0.3536036,-0.26225 0.097975,-0.071 0.075024,-0.025 0.00386,-10e-4 0.4703249,-0.14821 0.020693,-0.002 0.6057584,-0.0738 0.2583205,-0.34339 0.2726378,-0.36232 0.5324045,0.6805 0.1572537,0.20108 0.3762712,-0.0372 1.136759,-0.11243 0.5404974,1.36797 0.175383,0.44375 0.190119,0.0234 0.761541,0.0937 0.175664,0.68296 0.346847,0.52926 0.05906,0.0894 0.0023,0.003 0.805347,0.57739 0.0045,0.002 0.05597,0.0289 0.844804,0.43105 0.799322,0.61777 0.847489,0.58523 0.61065,0.75749 0.0199,0.11927 0.09688,0.57763 -0.141699,0.50161 -0.05718,0.2058 -0.0023,0.005 -0.493578,0.60986 -0.416147,0.42396 -0.257084,0.0723 -0.186609,0.0524 -0.435844,0.075 -0.0032,5.2e-4 -0.145646,0.2982 -0.03499,0.0715 0.0048,0.51775 0.09219,0.36988 0.209344,0.12349 0.305566,0.18035 1.194276,0.40844 0.496631,0.17852 0.01431,0.005 0.09838,0.0353 0.08453,0.0297 0.609237,0.20573 0.882647,0.13973 0.798701,1.04301 0.181551,0.20753 0.177443,0.20286 0.400941,0.45831 0.199145,0.22538 0.141489,0.46214 -0.0086,0.0319 -0.05482,0.20405 -0.03627,0.13462 -0.04217,0.16039 0.04478,0.1003 0.17784,0.39855 0.0872,0.36057 0.05492,0.22738 -0.02955,0.25864 -0.03944,0.38551 -0.05896,0.2026 -0.05126,0.17641 -0.27098,0.54119 0.680322,0.0808 0.651444,0.3605 0.166178,0.18857 0.141311,0.16056 -0.05746,0.18979 -0.06415,0.20764 -0.02698,0.0875 -0.02033,0.066 -0.0016,0.005 -0.298868,0.25392 -0.371037,0.01 -0.196254,0.22752 -0.0509,0.0591 0.108099,0.12726 0.260734,0.30667 0.104887,0.1234 0.553437,-0.084 0.547607,0.11264 0.76778,0.47491 0.173132,0.11182 0.794947,0.51385 0.131754,0.0996 0.130856,0.0988 0.06304,0.0477 0.03289,0.0248 -0.08524,0.33666 -0.05625,0.222 -0.003,0.0118 -0.102419,0.5765 -0.109927,0.44316 -0.03103,0.12723 -0.006,0.0245 -0.02155,0.1396 -0.06931,0.46262 -0.01683,0.28041 -0.0085,0.15542 -0.01188,0.21831 0.154516,0.74338 0.05458,0.12132 0.19669,0.437 0.03707,0.0799 0.141734,0.15906 0.02132,0.0239 0.161879,0.18177 0.149803,0.16818 0.406454,0.36333 0.57358,0.38624 0.116998,0.53757 0.331021,1.52091 0.06717,0.3083 0.02849,0.13083 0.08805,0.40605 0.835742,0.53585 1.711998,1.09721 0.405506,0.36403 0.109765,0.59278 0.253072,0.72315 0.261912,0.50392 0.441717,0.12876 0.04393,0.0128 0.09328,0.0181 0.382925,0.0736 0.26058,0.78596 0.01998,0.0815 0.120437,0.49111 0.277362,0.12774 0.200146,0.0923 0.136084,0.0626 0.202133,0.1099 0.40909,0.21938 0.158489,0.1176 0.287354,0.2133 0.167441,0.14822 0.407515,0.3611 0.10128,0.0785 1.346489,1.04272 0.08101,0.0629 0.544707,0.4217 0.485838,0.37324 0.231819,0.1782 0.371409,0.26598 0.811313,0.18165 0.877848,0.15853 0.128514,0.0231 0.315929,0.11941 0.586475,0.21854 0.504953,0.39956 0.10181,0.0799 0.480508,0.85952 0.08637,0.18447 0.214867,0.45893 0.03739,0.0799 0.134178,0.13946 0.286663,0.30812 0.41768,0.19034 0.138129,0.0622 0.03989,0.004 0.558682,0.0553 0.153092,0.0152 0.462333,0.62918 0.214788,0.31965 0.272764,0.39931 0.492909,0.32329 0.707255,0.45606 1.08628,0.95809 0.06156,0.0543 0.127724,0.11187 0.693589,0.44387 0.383124,0.13276 0.468721,0.16234 0.727834,0.38792 0.474824,0.48641 0.229055,0.64713 0.02231,0.55064 0.0047,0.11593 0.07349,0.63676 0.122665,0.70525 0.466722,0.42355 0.507315,0.15362 0.19602,0.0592 0.139281,0.36478 0.292676,0.76642 1.985626,0.5962 0.531066,0.0782 0.04327,0.006 0.65661,0.50093 0.627433,0.54187 0.02303,0.0199 0.01301,0.014 0.363231,0.38948 0.260494,0.27924 0.306586,0.57286 0.09834,0.24762 0.144925,0.36475 0.04628,0.11651 0.294419,0.11692 0.939302,0.37245 0.247098,0.31408 0.688796,0.87537 1.003028,1.27455 1.128151,1.02124 1.030699,1.09418 0.153278,0.16251 0.227116,0.24112 0.0494,0.0399 1.399381,1.1272 0.46919,0.56531 0.215071,0.25369 0.02704,0.0152 0.456268,0.25571 0.414611,0.22957 0.430103,0.1463 0.446833,0.15196 1.011548,0.33717 0.198203,0.15298 0.163875,0.12664 0.08039,0.0608 0.07682,0.0582 0.109889,0.0812 0.2391,0.42875 0.111321,0.19776 0.605646,0.30718 0.697975,0.17182 0.654662,0.16858 0.857627,0.25592 0.453982,0.0196 0.305169,0.0118 0.926022,0.10374 0.07977,0.0334 1.152699,0.47981 0.692821,0.37709 1.377864,0.74951 0.366881,0.19958 0.334166,0.12928 -0.435547,0.3858 -0.478466,0.42389 -0.07491,0.219445 -0.252951,0.74142 -0.06907,0.20425 -0.09849,0.95803 -0.0042,0.0405 0.0067,0.0365 0.125089,0.68165 0.04373,0.2383 0.217994,0.40202 0.408996,0.754 0.243442,0.44884 0.02693,0.0478 0.285197,0.50639 0.01945,0.0344 0.695241,1.22983 0.01768,0.0312 0.0437,0.0863 0.08227,0.16232 0.234826,0.46345 0.387198,0.76419 0.423031,0.7567 0.171713,0.30722 0.650581,0.97498 0.05882,0.0324 0.859211,0.4722 0.756973,0.27441 0.292282,0.10599 1.110369,0.63981 0.736007,0.45114 0.133993,0.0823 0.558166,0.53769 -0.195573,0.97385 -0.01934,0.0959 -0.001,0.005 0.693699,0.42279 0.0081,0.005 0.09949,0.0132 0.152386,0.0193 0.01798,0.002 0.429239,0.0541 0.589777,0.21079 0.394283,0.50914 0.279223,0.19134 0.348303,0.24647 0.581106,0.392 0.173411,0.11716 0.645295,0.45728 0.943138,0.2708 0.276453,0.0795 1.3414,0.90486 0.05537,0.0274 0.427881,0.21264 0.21057,0.10459 0.932564,0.46299 0.282203,0.23069 0.0034,0.003 0.905381,0.73302 0.229878,0.20718 0.598927,0.54005 0.02026,0.0182 0.01519,0.0389 0.378561,0.96986 0.898127,1.47919 0.137451,0.17416 0.467849,0.59284 0.39068,0.49493 0.619142,0.87269 0.103432,0.19405 0.167903,0.31531 0.03347,0.17458 0.07654,0.39967 -0.737049,0.35365 -2.366642,0.41307 -1.74774,0.30499 -0.262193,0.0458 -1.218463,0.21273 -0.263997,0 -0.07231,0 -0.01076,0.0649 -5.24e-4,0.009 -0.0031,0.043 0.0043,0.006 -6.98e-4,0.0166 0.01425,3.5e-4 5.23e-4,0.0292 0.01001,0 0.0035,0.0148 0.01001,0 0.0034,0.0148 0.0068,0 0.0055,0 0.0016,0.0158 0.01202,-0.001 5.23e-4,0.007 5.23e-4,0.007 0.0099,0 0.0035,0.0148 0.01001,0 0.0046,0.0296 0.01296,-8.7e-4 5.23e-4,0.0156 0.01186,0 0.0016,0.0146 0.04903,1.8e-4 0.0012,0.0146 0.02043,0 0.0052,0.0148 0.01054,0.002 0.0031,0.0124 0.006,0 0.0061,0 8.72e-4,0.0142 0.01252,0 0.0012,0.0154 0.01177,0 8.72e-4,0.007 6.98e-4,0.007 0.0068,0 0.0056,0 5.23e-4,0.006 6.98e-4,0.009 0.0081,0 0.0041,0 5.23e-4,0.007 0.0018,0.0223 0.01263,1.7e-4 8.72e-4,0.0146 0.007,0 0.0052,0 10e-4,0.012 0.0014,0.0174 0.0071,0 0.0048,0 0.0018,0.0148 0.02438,0 0.0012,0.0148 0.01329,0.001 5.2e-5,0.0138 0.02013,-5.2e-4 0.0079,-1.7e-4 -0.0021,0.0156 0.08114,0 0.01674,0.003 0.0012,0.0113 0.07223,-0.001 0.0025,0.0158 0.0524,-0.003 -0.0022,0.0177 0.05978,0 0.0026,0.0148 0.02532,-0.003 5.23e-4,0.0177 0.02447,0 0.0012,0.0146 0.01722,-1.7e-4 0.0073,1.7e-4 0.0016,0.0187 0.0021,0.0258 0.0087,-0.002 0.0037,8.7e-4 10e-4,0.0164 0.0501,-0.004 0.0012,0.0337 0.0096,-0.001 0.0039,0.016 0.01951,0 0.0051,0.003 0.0012,0.0113 0.0092,0 0.0043,0.0148 0.006,-0.003 0.0048,0.005 0.0027,0.013 0.0092,0 0.0043,0.0146 0.03284,-3.5e-4 0.0037,0 0.0012,0.0152 0.01237,0 -0.0012,-0.0152 0.01085,0 0.0026,0.0152 0.03229,0 0.004,0.002 0.0016,0.013 0.02381,-8.7e-4 0.0021,0.0156 0.06121,0 0.0012,0.0148 0.05617,0 0.0058,0.002 5.23e-4,0.0128 0.232474,-0.003 0.0014,0.0178 0.0734,0 0.0012,0.0148 0.01202,0 0.0027,0.0296 0.01001,0 0.0059,0.0442 0.01109,0 0.0014,0.0107 0.0023,0.0189 0.03094,0 0.0064,0.004 5.23e-4,0.0112 0.05134,-0.001 -0.0012,0.0162 0.048,-0.003 0.0022,0.0178 0.01219,0 0.0049,0.0592 0.02464,0 0.0012,0.0146 0.0121,0 0.0012,0.0148 0.01197,-0.003 0.0016,0.0174 0.01219,0 0.0025,0.0296 0.01228,0 0.0024,0.0294 0.01019,-0.002 0.0045,0.0314 0.01437,0.001 3.48e-4,0.0286 0.01408,-5.2e-4 6.98e-4,0.03 0.0084,-0.003 0.0028,0.004 0.0034,0.0286 0.01228,0 0.0012,0.0148 0.02455,0 0.0012,0.0148 0.01343,-3.5e-4 7e-5,0.015 0.01219,0 0.0012,0.0148 0.121676,0 0.01552,0.003 -0.0014,0.0122 0.03713,-0.002 0.0027,0.0325 0.03621,-3.5e-4 0.0012,0.0146 0.02438,0 0.0012,0.0148 0.04894,0 0.0025,0.0296 -0.04797,-0.003 0.0027,0.0477 0.01118,0 6.98e-4,0.004 0.0018,0.0105 0.02373,-8.7e-4 0.0019,0.0156 0.02455,0 0.0012,0.0148 0.03446,0.003 0.0034,0.012 0.0375,-0.003 0.0037,0.0552 5.24e-4,0.007 -0.02447,0 -0.0012,-0.0148 -0.06139,0 -0.0012,-0.0158 -0.06122,0.001 -8.73e-4,-0.01 -3.48e-4,-0.005 -0.09797,0 3.49e-4,0.005 8.72e-4,0.01 -0.04894,0 -0.0019,-0.009 -0.0056,-0.005 -0.03061,0 -0.0012,-0.0146 -0.02447,0 -0.0029,-0.0122 -0.03503,-0.003 -0.0012,-0.0148 -0.03683,0 -0.0012,-0.016 -0.08575,0.001 -0.0017,-0.0113 -0.01121,-0.003 -0.06189,0 -0.0012,-0.0146 -0.08552,0 -0.0035,-0.0148 -0.04684,0 -6.98e-4,-0.009 -5.23e-4,-0.006 -0.03675,0 -0.09796,0 0.0012,-0.0164 -0.07596,0.002 -0.0016,-0.0132 -0.004,-0.002 -0.04465,0 -0.0012,-0.0148 -0.01228,0 -6.98e-4,-0.008 -5.23e-4,-0.006 -0.02141,3.5e-4 -0.0035,-0.005 -8.72e-4,-0.01 -0.0054,0 -0.0068,0 -5.23e-4,-0.007 -6.98e-4,-0.008 -0.01186,0 -0.02489,0 -0.0012,-0.015 -0.04901,1.7e-4 -0.0012,-0.0148 -0.02447,0 3.49e-4,-0.015 -0.03839,3.5e-4 -0.0016,-0.0112 -0.01451,-0.004 -0.07089,0 -0.001,-0.018 -0.02454,0.003 -0.0012,-0.0148 -0.04911,0 -0.001,-0.0154 -0.0073,-0.002 -0.0052,0.003 -0.0036,-0.0294 -0.03548,0 -0.0025,-0.0189 -0.05995,0.004 -0.0031,-0.0148 -0.01043,0 -3e-6,-0.0314 -0.07595,0.002 3.48e-4,-0.0168 -0.01378,0.002 -0.0021,-0.0197 -0.03584,0.005 -3.5e-5,-0.0146 -0.01346,-1.7e-4 -0.0025,-0.0296 -0.02447,0 -6.97e-4,-0.0124 -0.01273,-0.002 -0.0016,-0.014 -0.0034,-0.003 -0.02073,0.002 -0.0016,-0.0138 -0.003,-0.002 -0.009,5.3e-4 -8.72e-4,-0.01 -3.49e-4,-0.005 -0.0051,0 -0.0071,0 -5.23e-4,-0.007 -6.98e-4,-0.008 -0.01043,0 -0.01404,0 -0.0036,-0.0124 -0.03442,-0.002 1.75e-4,-0.0178 -0.02596,0.003 -0.002,-0.0162 -0.01141,0.001 -0.0012,-0.0148 -0.01219,0 -6.97e-4,-0.0164 -0.0039,1.7e-4 -0.03352,0.001 -0.0012,-0.0148 -0.0036,0 -0.02094,0 -6.97e-4,-0.007 -5.24e-4,-0.007 -0.01278,0 -0.02379,0 -0.0034,-0.0168 -0.01024,0.002 -3.49e-4,-0.0314 -0.0265,0.002 -0.0014,-0.0148 -0.01202,0 -0.0012,-0.0148 -0.02447,0 -3.5e-5,-0.0176 -0.01338,0.003 -0.0012,-0.0148 -0.02464,0 0.0019,-0.0174 -0.0398,0.003 -6.98e-4,-0.0172 -0.02494,0.002 -0.002,-0.0126 -0.0043,-0.002 -0.0317,0 -6.97e-4,-0.017 -0.02504,0.002 -0.0036,-0.0146 -0.0343,0 -8.72e-4,-0.0101 -3.49e-4,-0.005 -0.01118,0 -0.03775,0 -0.0025,-0.0164 -0.03552,0.002 -1.75e-4,-0.009 -6.8e-5,-0.003 -0.02223,-0.003 -0.06197,0 -0.03918,0 -3.49e-4,-0.003 -0.0016,-0.013 -0.02361,0.001 -0.0025,-0.0146 -0.02329,0 -0.001,-0.0152 -0.01249,3.5e-4 -0.0027,-0.0172 -0.01073,0.002 -0.0012,-0.0148 -0.02455,0 -10e-4,-0.0168 -0.01243,0.002 -6.98e-4,-0.009 -5.23e-4,-0.006 -0.01135,0 -0.02541,-1.7e-4 -0.0039,-0.0146 -0.0098,0 0.0012,0.0144 -0.01198,3.5e-4 0.004,0.0483 0.0021,0.0255 0.01202,0 0.0014,0.0146 0.0116,0 0.0019,0.0148 0.0094,0 0.0051,0.0296 0.01034,0 0.0024,0.029 -0.07144,3.5e-4 -0.0012,-0.0146 -0.04959,0.001 -5.24e-4,-0.016 -0.01086,-10e-4 -0.0026,-0.0136 -0.02612,-0.002 3.49e-4,-0.0132 -0.007,0 -0.0052,0 -0.0031,-0.0126 -0.01045,-0.002 -0.0032,-0.0146 -0.02245,0 -10e-4,-0.015 -0.01251,1.8e-4 -0.001,-0.0172 -0.01242,0.002 -0.0012,-0.0148 -0.04902,0 -0.0016,-0.0168 -0.07256,0 6.98e-4,0.0168 -0.06099,0.003 0.001,0.0122 -0.07349,0 -0.0014,-0.0148 -0.0243,0 -5.23e-4,-0.0168 -0.02531,0.002 1.8e-5,-0.015 -0.02674,0 -3.49e-4,-0.0144 -0.0063,0 -0.006,0 -6.98e-4,-0.0148 -0.0127,0 -0.0012,-0.0148 -0.0121,0 -8.72e-4,-0.0176 -0.01254,0.003 -5.23e-4,-0.005 -6.98e-4,-0.009 -0.04902,-0.001 0.0014,0.0158 -0.06212,-0.003 0.0027,0.0325 0.01278,0 6.98e-4,0.008 5.23e-4,0.007 0.0061,0 0.0062,0 0.0029,0.0144 0.02272,1.7e-4 6.98e-4,0.008 5.23e-4,0.006 0.01228,-0.002 0.0014,0.0168 0.0121,0 0.0012,0.0148 0.01451,-0.002 0.0027,0.0325 0.0096,-3.5e-4 5.23e-4,0.006 6.97e-4,0.009 0.01435,-10e-4 -6.97e-4,0.016 0.02438,0 0.0012,0.0148 0.01256,-0.002 8.72e-4,0.0164 0.01993,0 0.0033,0.003 0.0025,0.0122 0.02467,-5.2e-4 0.001,0.0152 0.06133,-0.002 0.001,0.0164 0.03952,0 0.0094,0 3.49e-4,0.004 8.72e-4,0.0105 0.04905,-0.002 0.0012,0.0164 0.01034,0 0.0016,0.007 0.0016,0.008 0.0071,0 0.0052,0 3.49e-4,0.005 8.72e-4,0.01 0.007,-0.003 0.0033,0.005 0.0045,0.0276 0.01371,0 -3.49e-4,0.0148 0.02558,-0.002 1.75e-4,0.0166 0.02422,0 0.0014,0.0148 0.03841,-0.002 -5.24e-4,0.0168 0.02186,0 0.0038,0.0148 0.03641,0 0.0016,0.0148 0.02447,0 0.0012,0.0148 0.02086,0 0.0032,0.004 0.0017,0.0112 0.01535,-0.001 -0.0019,0.0162 0.02447,0 0.0012,0.0146 0.02295,0 0.0027,0.0148 0.02402,-0.003 0.0018,0.0183 0.02144,0 0.0042,0.0148 0.0372,-5.2e-4 8.72e-4,0.0154 0.02713,-0.002 -0.0014,0.017 0.03338,0 0.0045,0.002 -6.8e-5,0.0124 0.03594,-0.003 0.0021,0.0174 0.02607,0 0.01067,0 3.49e-4,0.005 8.72e-4,0.01 0.03681,-0.001 0.0012,0.016 0.03666,0 0.0012,0.0148 0.02102,0 0.0028,0.003 0.0019,0.0116 0.03691,-0.003 0.001,0.0178 0.07349,0 5.23e-4,-0.0166 0.05943,0.002 0.0027,0.0136 0.01069,0.001 -1.16e-4,0.0158 0.0259,-10e-4 0.0012,0.0148 0.03548,-0.004 0.0025,0.0189 0.04372,0 0.0048,0.002 0.0018,0.0126 0.03868,-0.001 -8.72e-4,0.0158 0.03702,-0.003 0.001,0.0176 0.02748,0.002 -0.0016,0.013 0.03732,-0.003 3.49e-4,0.018 0.02253,0 0.0033,0.0148 0.01749,0 0.007,0 3.49e-4,0.005 8.72e-4,0.01 0.0085,0 0.0038,0 6.98e-4,0.008 0.0018,0.0221 0.0096,-0.002 0.0038,0.0172 0.01799,0 0.0066,0 5.23e-4,0.005 6.97e-4,0.009 0.08501,0 0.0019,0.0146 0.02447,0 0.0012,0.0148 0.02161,0 0.0042,0.0148 0.03706,-0.003 8.72e-4,0.018 0.01783,0 0.0067,0 5.23e-4,0.006 6.98e-4,0.009 0.01076,0 0.0026,0.0148 0.01221,-0.004 0.0014,0.0185 0.04381,0 0.0048,0.002 0.0017,0.0128 0.02817,0 0.0076,0.003 0.002,0.0116 0.01237,0 0.0012,0.0148 0.01228,0 0.0012,0.0148 0.01345,-0.003 0.0012,0.0325 0.0097,0 0.0037,0.0148 0.01228,0 0.0012,0.0148 0.04869,0 0.0016,0.0148 0.05153,-0.002 -0.0014,0.017 0.02296,0 0.0027,0.0146 0.02464,-0.001 0.001,0.0158 0.02825,0 0.0086,0 3.49e-4,0.005 8.72e-4,0.01 0.0084,0 0.0039,0 6.97e-4,0.009 0.002,0.004 0.02279,0 0.0014,0.0162 0.08577,0 0.0012,0.0146 0.03705,-0.001 8.72e-4,0.0162 0.03036,0 0.01867,0 8.72e-4,0.01 5.23e-4,0.005 0.0085,0 0.0031,0.002 0.0018,0.013 0.02346,0 0.0023,0.0148 0.01228,0 0.0012,0.0148 0.02498,-10e-4 6.97e-4,0.0156 0.04956,-0.003 5.24e-4,0.0174 0.02767,0 0.0091,0 5.23e-4,0.005 8.72e-4,0.01 0.03683,-0.001 0.0012,0.0158 0.08577,0 0.0012,0.0148 0.08426,0 0.0132,0.003 0.0017,0.0116 0.037,-0.003 0.001,0.0178 0.03893,0 0.01001,0 3.48e-4,0.005 8.72e-4,0.01 0.03381,0 0.0041,0.0148 0.02186,0 0.01488,0 6.98e-4,0.009 5.23e-4,0.006 0.01556,0 0.0083,0.003 0.0019,0.0118 0.03606,-0.001 0.0018,0.0158 0.02447,0 0.0012,0.0148 0.03423,0 0.0037,0.0148 0.01808,0 0.0066,0 3.49e-4,0.005 8.72e-4,0.0101 0.01833,0 0.0053,0.003 0.002,0.012 0.0373,-3.5e-4 6.98e-4,0.015 0.02447,0 0.0012,0.0148 0.05769,0 0.0034,0.001 0.0014,0.0136 0.0384,-0.002 -3.49e-4,0.0172 0.02439,0 0.0025,0.0296 0.01237,0 0.0023,0.0278 0.01233,0.002 3.49e-4,0.005 8.72e-4,0.0101 0.0097,0 0.0049,0.0296 0.01067,0 0.0012,0.006 0.0016,0.008 0.01639,0 0.0073,0.003 0.002,0.0113 0.09748,-8.7e-4 0.0017,0.0156 0.07913,0 0.03103,0 5.23e-4,0.006 6.98e-4,0.009 0.06055,0 0.01472,0.002 -5.23e-4,0.0128 0.04894,0 0.0012,0.0148 0.09797,0 0.0012,0.0146 0.01345,0 0.0012,0.0296 0.0087,0 0.0036,0 0.0012,0.0148 0.01228,0 0.0024,0.0294 0.01144,0 0.0021,0.0148 0.01228,0 0.0012,0.0148 0.01277,-1.7e-4 1.52e-4,0.004 0.0018,0.026 0.01266,-3.5e-4 8.72e-4,0.0152 0.0077,0 0.0045,0 0.0012,0.0146 0.02178,0 0.0039,0.0148 0.01723,0 0.0072,0 3.49e-4,0.004 8.72e-4,0.0103 0.01313,-0.003 3.49e-4,0.0176 0.01766,0 0.0068,0 5.23e-4,0.007 6.98e-4,0.008 0.0094,0 0.01505,0 0.001,0.012 0.0014,0.0175 0.01228,0 0.0025,0.0296 0.01456,-8.8e-4 1.74e-4,0.0304 0.0094,0 0.0025,0.0304 0.01497,-0.001 6.97e-4,0.009 5.23e-4,0.006 0.0072,0 0.005,0 5.23e-4,0.006 6.98e-4,0.009 0.0072,0 0.0039,0.003 0.0024,0.012 0.02227,-0.001 0.0016,0.007 0.0019,0.009 0.01228,0 0.0012,0.0148 0.01186,0 0.0016,0.0148 0.04306,0 0.01817,0 5.23e-4,0.006 6.98e-4,0.009 0.01825,0 0.0056,0.003 0.0018,0.0122 0.01749,0 0.007,0 3.49e-4,0.005 8.72e-4,0.01 0.0085,0 0.0038,0 6.97e-4,0.007 0.0018,0.0219 0.01083,8.8e-4 0.0039,0.0288 0.0081,0 0.0041,0 0.0012,0.0148 0.02447,0 0.0012,0.0146 0.01322,0.003 3.49e-4,0.0116 0.01741,0 0.0071,0 3.48e-4,0.005 8.72e-4,0.01 0.0071,0 0.0052,0 0.0012,0.0146 0.02441,1.7e-4 8.72e-4,0.01 0.0022,0.004 0.01069,0.001 1.74e-4,0.0189 0.0132,-0.004 3.49e-4,0.004 8.72e-4,0.0105 0.0097,0 0.0024,0.01 0.05237,-0.0428 0.07631,-0.11683 0.07998,-0.10709 0.07452,-0.0746 0.07372,-0.0519 0.434348,-0.24743 0.459762,-0.26204 0.40279,-0.42834 0.338165,-0.32368 0.03815,-0.0365 0.132528,0.0353 0.833218,0.22106 1.270176,0 0.0809,0.003 0.362019,0.0132 0.08613,0.003 0.125225,0.0533 0.27401,0.11682 0.552398,0.23547 0.520966,0.43483 0.18838,0.14015 0.15807,0.11784 0.12433,0.0925 0.251312,-0.4673 0.15308,-0.22675 0.18434,-0.27298 0.22506,-0.31152 0.0353,-0.0487 0.22957,-0.0939 0.11119,-0.0456 0.78115,0.63053 0.95989,0.77456 0.0198,0.39692 0.0302,0.60808 0.0393,0.78965 0.45712,0.257 0.48947,0.27527 0.73311,0.45763 0.0514,0.11847 0.1195,0.27568 0.20337,0.46922 1.20159,0.32783 1.22504,0.50962 1.24878,0.7888 0.36943,0.23575 0.30452,0.19458 0.27685,0.17672 0.39419,0.26437 0.0655,0.044 0.20038,0.61682 0.61314,0.24349 0.0159,0.002 0.22384,0.0274 0.90057,0.11018 0.27376,0.37336 0.46647,0.63636 1.82956,0.86713 0.0818,0.0388 -0.10103,0.77606 0.94769,0.34097 0.5112,0.21046 0.49265,0.20296 0.0292,0.012 0.17981,0.10433 0.2397,0.13923 0.0935,0.27319 0.1289,0.37631 0.65168,0.50015 0.0708,0.0388 0.84474,0.46139 1.07321,0.57489 0.57295,0.38956 0.58302,0.39648 0.61245,0.46653 0.19769,0.15064 0.26073,0.45742 0.10397,0.18252 0.27096,-0.16385 0.61069,-0.3689 0.18878,-0.0617 0.0399,-0.013 0.45829,-0.14942 0.13808,-0.0134 0.50081,-0.0483 0.98472,0.0422 0.0363,0.003 -0.0323,-0.0569 -0.0368,-0.0441 -0.142,-0.10191 -0.30663,-0.15835 -0.14844,-0.0475 -0.23933,-0.0339 -0.24601,-0.0116 -0.91243,-0.014 -0.24422,-0.0213 -0.15878,-0.0317 -0.077,-0.0246 -0.13952,-0.0664 -0.43144,-0.29172 -0.2569,-0.15367 -0.14876,-0.1352 -0.15977,-0.11612 -0.13585,-0.13397 -0.15584,-0.11652 -0.13456,-0.13764 -0.15594,-0.12869 -0.22608,-0.27525 -0.54753,-0.51984 -0.0976,-0.10454 -0.17745,-0.22388 -0.15553,-0.12909 -0.13584,-0.13721 -0.31539,-0.23422 -0.11243,-0.0495 -0.18191,-0.0566 -0.11214,-0.0501 -0.1533,-0.12198 -0.16262,-0.11284 -0.13811,-0.13436 -0.16123,-0.1163 -0.14884,-0.13395 -0.24764,-0.15221 -0.10689,-0.0854 -0.0932,-0.0954 -0.13416,-0.16723 -0.11545,-0.10391 -0.0709,-0.0777 -0.41714,-0.57229 -0.15518,-0.12967 -0.13655,-0.1382 -0.15831,-0.11709 -0.13781,-0.13434 -0.15861,-0.11669 -0.13778,-0.13515 -0.15851,-0.11749 -0.13773,-0.13555 -0.15843,-0.1177 -0.13772,-0.13555 -0.15843,-0.11769 -0.13772,-0.13554 -0.15841,-0.11769 -0.13765,-0.13575 -0.15848,-0.11749 -0.13764,-0.13574 -0.15838,-0.11749 -0.13781,-0.13574 -0.1584,-0.11768 -0.13771,-0.13574 -0.15847,-0.11769 -0.13763,-0.13573 -0.15786,-0.11748 -0.13578,-0.13493 -0.1571,-0.11747 -0.13566,-0.13756 -0.16049,-0.11687 -0.14951,-0.13411 -0.39564,-0.20552 -0.2062,-0.0816 -0.34203,-0.0889 -0.0577,-0.0254 -0.16997,-0.10793 -0.0549,-0.0244 -0.24394,-0.0753 -0.11332,-0.0503 -0.15127,-0.12355 -0.16157,-0.11321 -0.13497,-0.13876 -0.15487,-0.12944 -0.45027,-0.61408 -0.15615,-0.1278 -0.13567,-0.13734 -0.15894,-0.11523 -0.13566,-0.13733 -0.15614,-0.1278 -0.42025,-0.57164 -0.0726,-0.0738 -0.11715,-0.0939 -0.13113,-0.14159 -0.14398,-0.12962 -0.0323,-0.046 -0.0926,-0.2065 -0.0583,-0.0959 -0.14353,-0.12921 -0.13159,-0.14036 -0.15858,-0.12535 -0.18155,-0.21967 -0.3014,-0.30993 -0.088,-0.11317 -0.035,-0.0615 -0.043,-0.13123 -0.008,-0.19917 0.029,-0.12676 0.14296,-0.28273 0.0335,-0.11967 0.0156,-0.1872 -0.0201,-0.18253 -0.0402,-0.11073 -0.0671,-0.0868 -0.11057,-0.0921 -0.13571,-0.13264 -0.16115,-0.10951 -0.13507,-0.13304 -0.11034,-0.0925 -0.0682,-0.0868 -0.0247,-0.0543 -0.0319,-0.11844 -0.0172,-0.12695 -0.009,-0.333 0.028,-0.2687 0.0639,-0.22591 -0.17338,-0.35975 -0.0352,-0.0509 -0.18138,-0.19264 -0.18619,-0.25632 -0.22431,-0.30336 -0.14939,-0.14377 -0.19104,-0.24638 -0.22189,-0.22365 0.009,-0.63751 0.0219,-0.12612 0.0488,-0.10868 0.24817,-0.25772 0.14666,-0.10604 0.12688,-0.12409 0.15052,-0.10685 0.1354,-0.12754 0.23577,-0.16281 0.18258,-0.17356 -0.1711,-0.37631 -0.15685,-0.44604 -0.15397,-0.19788 -0.0538,-0.10442 -0.052,-0.17517 -0.0427,-0.21166 0.002,-0.0951 0.0219,-0.0892 0.033,-0.0898 0.0494,-0.0817 0.13525,-0.11981 0.12361,-0.12915 0.14607,-0.11799 0.16077,-0.20962 0.31282,-0.35174 0.0781,-0.10846 0.14995,-0.25544 0.35415,-0.40423 0.12779,-0.17313 0.17728,-0.15325 0.25179,-0.25746 0.0521,-0.11311 0.0276,-0.20069 -0.007,-0.21589 -0.0399,-0.2167 -0.0589,-0.13825 -0.0397,-0.0584 -0.0959,-0.10237 -0.1096,-0.0833 -0.18771,-0.11392 -0.15071,-0.12912 -0.1655,-0.11048 -0.11205,-0.0916 -0.096,-0.057 -0.34988,-0.12771 -0.17284,-0.10419 -0.063,-0.0257 -0.21756,-0.0476 -0.72225,-0.0912 -0.12759,-1.8e-4 -0.30057,0.0357 -0.20814,-0.009 -0.12911,-0.0377 -0.0574,-0.0334 -0.0467,-0.0426 -0.0637,-0.0951 -0.0964,-0.18952 -0.0867,-0.10885 -0.0564,-0.0979 -0.0471,-0.19377 -0.0541,-0.4133 -0.0427,-0.12425 -0.0334,-0.0547 -0.27315,-0.271 -0.15682,-0.1129 -0.24139,-0.22863 -0.0683,-0.0914 -0.0257,-0.0588 -0.0334,-0.12789 -0.0244,-0.20754 -0.0245,-0.65852 0.002,-0.43293 0.0345,-0.61939 0.55947,-0.1068 0.46387,-0.13701 0.45413,-0.21949 0.23963,-0.17227 0.33384,-0.15322 0.20003,-0.0677 0.35686,-0.0693 0.13094,-0.0521 0.15918,-0.11633 0.15945,-0.20146 0.12711,-0.13295 0.0497,-0.0959 0.0721,-0.20226 0.13042,-0.18523 0.0245,-0.0527 0.0279,-0.12078 0.01,-0.13356 -0.0203,-0.64973 0.0148,-0.28494 0.0312,-0.13437 0.12916,-0.2904 0.0318,-0.1297 0.0149,-0.13618 -0.006,-0.56622 -0.0474,-0.56742 -0.0277,-0.1374 -0.0441,-0.13213 -0.15565,-0.29931 -0.0429,-0.13354 -0.035,-0.20893 -0.0444,-0.48838 -0.0393,-0.19151 -0.0492,-0.10962 -0.11538,-0.14996 -0.0282,-0.0521 -0.041,-0.11855 -0.0741,-0.33214 -0.0458,-0.13393 -0.16763,-0.29829 -0.20692,-0.4454 -0.11698,-0.27519 -0.0395,-0.15218 -0.0314,-0.27518 -0.0296,-0.6229 -0.0168,-0.13029 -0.0313,-0.12158 -0.0243,-0.0555 -0.0663,-0.0882 -0.10747,-0.0942 -0.13188,-0.13737 -0.15558,-0.12524 -0.067,-0.0811 -0.21515,-0.3084 -0.0578,-0.11084 -0.11523,-0.30395 -0.14805,-0.19209 -0.0277,-0.0513 -0.0499,-0.1773 -0.0419,-0.3238 -0.0408,-0.18459 -0.051,-0.10517 -0.12583,-0.14528 -0.0542,-0.10375 -0.0517,-0.17649 -0.0482,-0.26078 0.0138,-0.0926 0.0273,-0.0902 0.0655,-0.128655 0.16284,-0.16535 0.33848,-0.50717 0.0636,-0.0725 0.10651,-0.0958 0.15481,-0.21539 0.13719,-0.1463 0.35803,-0.33919 0.0927,-0.10212 0.0776,-0.10861 0.10043,-0.20303 0.0828,-0.1386 0.28361,0.008 0.16913,-0.25652 0.0356,-0.0387 0.0886,-0.063 0.27436,-0.14203 0.13105,-0.0478 0.14384,-0.0211 0.14323,0.004 0.13342,0.0272 0.0593,0.0229 0.16808,0.10253 0.11101,0.0413 0.39248,0.0758 0.12311,0.0338 0.28335,0.14832 0.12304,0.033 0.33104,0.0571 0.12274,0.0324 0.0549,0.0223 0.17425,0.1009 0.12367,0.0411 0.14016,0.0245 0.44593,0.0452 0.13926,0.0247 0.12229,0.0407 0.17464,0.0993 0.18968,0.0533 0.21893,0.0233 0.53365,0.0272 0.14424,0.0193 0.12457,0.033 0.0993,0.0505 0.12169,0.0898 0.18872,0.11448 0.10689,0.0833 0.13556,0.14893 0.17033,0.24335 0.10624,0.095 0.12883,0.0762 0.15233,0.0494 0.24043,0.0351 0.32716,0.0154 0.23988,-0.003 0.22153,-0.0261 0.12582,-0.0434 0.33073,-0.23545 0.082,-0.0865 0.0713,-0.0973 0.27339,-0.11772 0.16307,-0.0525 0.24923,-0.0361 0.25997,-0.007 3.38011,0.0985 0.43721,0.0347 0.50448,0.0906 0.30824,0.006 0.53076,-0.0782 0.12707,-0.0334 0.0992,-0.0543 0.198,-0.17446 0.0514,-0.0873 0.0126,-0.0529 1e-5,-0.10962 -0.0288,-0.10638 -0.025,-0.0484 -0.14621,-0.19229 -0.0621,-0.18216 -0.13099,-0.62043 -0.005,-0.11104 0.0301,-0.32561 -0.0244,-0.17892 -0.0428,-0.10557 -0.10966,-0.15136 -0.0501,-0.11326 -0.0887,-0.4713 -0.0554,-0.18905 -0.0283,-0.0541 -0.11428,-0.15257 -0.0528,-0.11834 -0.0429,-0.20647 -0.0264,-0.29826 -0.0736,-1.46557 0.004,-0.21722 0.0199,-0.13352 0.0459,-0.11631 0.14454,-0.18034 0.38749,-0.63178 0.33359,-0.0211 0.12021,-0.0245 0.16395,-0.0604 0.21273,-0.18257 0.0926,-0.0956 0.1603,-0.23079 0.0936,-0.1007 0.0514,-0.0849 0.0292,-0.10496 0.0374,-0.28226 0.0281,-0.10415 0.0223,-0.0458 0.13416,-0.185 0.0719,-0.20546 0.0456,-0.095 0.0843,-0.10192 0.0494,-0.0831 0.0296,-0.10435 0.0513,-0.33758 0.0373,-0.0973 0.10341,-0.14407 0.0214,-0.046 0.0275,-0.10436 0.0393,-0.28287 0.0547,-0.15177 0.14756,-0.17852 0.10743,-0.18256 0.24599,-0.369 0.24584,-0.20851 0.0981,-0.0517 0.12574,-0.0276 0.13808,-0.008 0.21776,0.0134 0.14614,0.0261 0.1435,0.0454 0.27144,0.11368 0.34174,0.0962 0.11917,0.0533 0.0818,0.064 0.21434,0.19838 0.0577,0.10273 0.0795,0.23485 0.0565,0.11854 0.18048,0.26301 0.0691,0.0847 0.0968,0.0721 0.29438,0.11124 0.22164,0.12826 0.0608,0.0247 0.13657,0.033 0.22644,0.0239 0.23886,0.007 0.24282,-0.006 0.40265,-0.0503 0.7121,-0.1388 0.27196,0.18622 0.44055,0.22127 0.13849,0.0507 0.2738,0.0721 0.11951,0.0482 0.2153,0.14386 0.61593,0.32522 0.25687,0.18621 0.61317,0.33312 0.0887,0.0652 0.13453,0.12604 0.11391,0.0827 0.19637,0.1161 0.2811,0.14853 0.1519,0.0195 0.0875,0.0245 0.50995,0.20121 0.33565,0.15419 0.40684,0.11752 0.0565,0.0247 0.17241,0.10435 0.0591,0.0235 0.20487,0.0421 0.44776,0.0411 0.1405,0.0237 0.12364,0.0413 0.1729,0.10213 0.0547,0.0223 0.12262,0.0326 0.32982,0.0577 0.12174,0.033 0.054,0.0225 0.17042,0.10334 0.1237,0.0428 0.14153,0.0249 0.22939,0.0192 1.62013,0.0371 0.24099,0.0121 0.23628,0.0278 0.1512,0.0365 0.34078,0.14082 0.4029,0.11995 0.0554,0.0259 0.1688,0.10901 0.10825,0.0411 0.21791,0.0385 0.23578,0.0136 0.15988,-0.002 0.15804,-0.0152 0.15167,-0.0357 0.0683,-0.0278 0.12508,-0.0695 0.33832,-0.23687 0.2444,-0.13859 0.14839,-0.12381 0.42173,-0.22167 0.20706,-0.0973 0.19614,-0.13555 0.10819,-0.0438 0.23312,-0.0693 0.0917,-0.0504 0.13011,-0.0977 0.11881,-0.0569 0.20918,-0.0671 0.30268,-0.075 0.4818,-0.0845 0.11138,-0.0381 0.16514,-0.0944 0.11954,-0.0349 0.13736,-0.0174 0.44246,-0.0195 0.13802,-0.0166 0.11992,-0.0343 0.16527,-0.091 0.053,-0.0188 0.12025,-0.0251 0.32688,-0.0377 0.12082,-0.0261 0.0534,-0.0203 0.21214,-0.11792 0.23337,-0.0648 0.10703,-0.0452 0.1384,-0.1155 0.15073,-0.10496 0.13431,-0.12725 0.24142,-0.14001 0.34331,-0.23302 0.12584,-0.0673 0.0678,-0.0265 0.13809,-0.033 0.41641,-0.0426 0.1224,-0.0241 0.0536,-0.0189 0.16632,-0.0879 0.11132,-0.0308 0.38643,-0.0405 0.12067,-0.0265 0.097,-0.0494 0.17252,-0.14285 0.0684,-0.0693 0.0292,-0.0509 0.0198,-0.0559 0.0199,-0.12178 -0.006,-0.26099 -0.0348,-0.1925 -0.0464,-0.11671 -0.0344,-0.0515 -0.28353,-0.26808 -0.15916,-0.11368 -0.27988,-0.26402 -0.0607,-0.0959 -0.069,-0.15745 -0.0573,-0.0981 -0.17065,-0.18379 -0.0901,-0.13617 -0.29436,-0.39655 -0.0736,-0.074 -0.1175,-0.0932 -0.13618,-0.13658 -0.15738,-0.1157 -0.1357,-0.13597 -0.15548,-0.12706 -0.21973,-0.27639 -0.60699,-0.65918 -0.34571,-0.3376 -0.11734,-0.0936 -0.20199,-0.13374 -0.33943,-0.30579 -0.24361,-0.35098 -0.0602,-0.11814 -0.11082,-0.29059 -0.17151,-0.25696 -0.0381,-0.11753 -0.0546,-0.24784 -0.0427,-0.11693 -0.0663,-0.0926 -0.21904,-0.1919 -0.11244,-0.0614 -0.14874,-0.0383 -0.24551,-0.0241 -0.34571,-0.006 -0.26039,0.009 -0.16939,0.017 -0.48886,0.10984 -0.55558,0.0543 -0.33149,0.0132 -1.98975,-0.0539 -0.42264,0.008 -0.23781,0.0369 -0.33459,0.11207 -0.14723,0.0263 -0.23199,0.0142 -0.39349,0.004 -0.2292,0.0211 -0.0729,0.0162 -0.13322,0.0491 -0.27101,0.14104 -0.0813,0.0681 -0.0538,0.0985 -0.0255,0.10882 -0.0371,0.27641 -0.0341,0.0956 -0.099,0.1453 -0.0207,0.047 -0.0257,0.107 -0.0512,0.42413 -0.0736,0.17468 -0.14808,0.24762 -0.0591,0.0792 -0.14387,0.11895 -0.12408,0.12766 -0.14744,0.10638 -0.12348,0.12888 -0.14368,0.11936 -0.25429,0.36556 -0.10943,0.18196 -0.14778,0.17832 -0.0409,0.0981 -0.0493,0.33739 -0.0494,0.15076 -0.13184,0.18541 -0.0749,0.20425 -0.0537,0.0954 -0.1773,0.16413 -0.12978,0.15461 -0.31397,-0.0302 -0.20914,-0.0347 -0.12065,-0.0403 -0.17639,-0.0989 -0.1905,-0.0547 -0.51283,-0.0588 -0.13841,-0.0255 -0.12183,-0.0405 -0.17467,-0.0995 -0.0615,-0.0243 -0.13955,-0.0336 -0.31415,-0.0353 -0.66749,-0.0409 -0.095,-0.0454 -0.15649,-0.10152 -0.12013,-0.0421 -0.13818,-0.0241 -0.45752,-0.0389 -0.15528,-0.0225 -0.15187,-0.0405 -0.14018,-0.0642 -0.43495,-0.28511 -0.25675,-0.154 -0.32494,-0.28612 -0.0714,-0.0932 -0.0912,-0.15583 -0.78804,-0.36616 -0.24256,-0.0537 -0.25073,-0.0223 -2.31079,-0.0636 -0.42337,-0.003 -0.32466,0.0292 -0.14447,0.0385 -0.26545,0.0956 -0.23033,0.0387 -0.24242,0.0109 -0.24488,-0.004 -0.23952,-0.0158 -0.22268,-0.0355 -0.12781,-0.0436 -0.17457,-0.0999 -0.12156,-0.0401 -0.13832,-0.0243 -0.44308,-0.0426 -0.2058,-0.0444 -0.10783,-0.0525 -0.12462,-0.0879 -0.25139,-0.14651 -0.15456,-0.13232 -0.17465,-0.2148 -0.10991,-0.10436 -0.0673,-0.0811 -0.14447,-0.28917 -0.0611,-0.22331 -0.8495,-0.0233 -0.22613,-0.30356 -0.1846,-0.18015 -0.28986,-0.41158 -0.1552,-0.26446 -0.25384,-0.35058 -0.17048,-0.18178 -0.0535,-0.10315 -0.0303,-0.11632 -0.0131,-0.12301 0.002,-0.12524 0.0396,-0.18361 0.059,-0.11389 0.18374,-0.28392 0.16594,-0.16902 0.0518,-0.0829 0.0972,-0.23489 0.0413,-0.22008 0.70148,-0.10316 0.0108,-0.22495 0.0191,-0.10255 0.0375,-0.0874 0.11422,-0.13375 0.0414,-0.0979 0.0207,-0.1751 -0.007,-0.0768 0.38852,-0.15382 0.0242,-0.001 0.69151,-0.0322 0.39982,-0.1676 0.13817,0 0.24882,0 0.41467,0 0.0649,0.014 0.24509,0.0531 0.0513,0.0363 -0.0145,0.0385 0.30358,0.20874 0.23515,0.19152 0.14827,0.06 0.16116,0.028 0.16243,0 0.079,-0.0122 0.14523,-0.0608 0.0947,-0.10782 0.0809,-0.20043 0.0159,-0.14835 -0.0117,-0.15322 -0.0335,-0.15322 -0.0725,-0.22962 -0.044,-0.22193 -0.0308,-0.30036 -0.003,-0.22111 0.0131,-0.13843 0.0333,-0.12525 0.0548,-0.0928 0.11679,-0.14127 0.16391,-0.28152 0.047,-0.11107 0.0194,-0.10539 -0.0308,-0.41793 0.0328,-0.28051 0.007,-0.29977 -0.006,-0.12992 0.22575,-0.24749 0.22475,-0.26795 0.39434,-0.53592 0.0596,-0.56937 0.22841,-0.53594 0.1821,-0.4354 -0.17611,-0.52299 0.0804,-0.0813 0.0422,-0.2017 0.0593,-0.13764 0.25081,-0.25785 0.14646,-0.10704 0.1198,-0.13034 0.13146,-0.12224 0.028,-0.0444 0.0732,-0.20252 0.0494,-0.0934 0.13039,-0.12285 0.1181,-0.13136 0.14516,-0.10805 0.12141,-0.12975 0.14346,-0.11859 0.15456,-0.21286 0.18466,-0.19665 0.70057,-0.62339 0.20218,-0.19361 0.0872,-0.0993 0.14814,-0.21754 0.12497,-0.13401 0.0465,-0.0949 0.0509,-0.15307 0.049,-0.0924 0.12866,-0.12164 0.11572,-0.13361 0.14173,-0.11942 0.14287,-0.20031 0.10603,-0.1251 0.41325,-0.41381 0.0889,-0.001 0.0946,-0.0284 0.20698,-0.14659 0.07,-0.0663 0.12295,-0.17437 0.34479,-0.4114 0.16907,-0.31468 0.21595,-0.33923 0.0646,-0.0706 0.10522,-0.089 0.11984,-0.13322 0.14184,-0.11903 0.15753,-0.20033 0.0904,-0.085 0.10204,-0.0732 0.18103,-0.10463 0.14906,-0.12389 0.24777,-0.13667 0.40385,-0.26483 0.19318,-0.0817 0.26371,-0.0627 0.11427,-0.042 0.20323,-0.13018 0.60384,-0.29708 0.11966,-0.0819 0.17458,-0.18981 0.37806,-0.11052 0.53635,-0.06 0.13603,-0.0292 0.10427,-0.0471 0.16388,-0.1014 0.57682,-0.28959 0.0821,-0.058 0.28174,-0.25289 0.17347,-0.28452 0.0495,-0.11621 0.0217,-0.12817 -0.0156,-0.19672 -0.0396,-0.12757 -0.0769,-0.14602 0.26961,-0.2377 -0.0772,-0.15048 -0.046,-0.13548 -0.11098,-0.65146 -0.003,-0.44784 -0.0362,-0.33589 0.011,-0.42007 -0.0283,-0.62049 -0.20944,-0.24889 -0.16324,-0.24849 -0.13751,-0.14098 -0.0494,-0.0884 -0.0707,-0.20448 -0.0469,-0.10671 -0.12075,-0.1633 -0.26224,-0.25012 -0.39983,-0.33189 -0.23199,-0.17102 -0.26825,-0.15803 -0.0453,-0.0343 -0.0742,-0.0824 -0.19439,-0.27164 -0.0578,-0.0984 -0.0434,-0.11077 -0.0635,-0.22702 -0.0409,-0.11078 -0.13955,-0.2467 -0.0464,-0.10693 -0.0311,-0.11503 -0.063,-0.35202 -0.0317,-0.11423 -0.0467,-0.10571 -0.11418,-0.19539 -0.0461,-0.10713 -0.0489,-0.23659 -0.0535,-0.56266 -0.0411,-0.17735 -0.0479,-0.10186 -0.1174,-0.14914 -0.0275,-0.0497 -0.0394,-0.11221 -0.032,-0.1875 -0.01,-0.26218 0.0178,-0.20374 0.0462,-0.27051 0.27651,-0.0688 0.4191,-10e-4 0.13091,-0.0156 0.11616,-0.0375 0.29475,-0.21268 0.12135,-0.12785 0.14036,-0.11223 0.1217,-0.12846 0.28753,-0.221 0.10524,-0.0465 0.28031,-0.0915 0.16314,-0.0999 0.099,-0.0404 0.66032,-0.17738 0.21287,-0.43595 0.32903,-0.5001 0.17306,-0.16055 0.121,-0.1299 0.29369,-0.21414 0.12172,-0.0418 0.35205,-0.0444 0.13151,-0.0258 0.27933,-0.13214 0.20852,-0.0323 0.47903,-0.002 1.41614,0.053 0.23425,-0.004 0.20843,-0.0351 0.10052,-0.0518 0.24924,-0.19141 0.1146,-0.13336 0.0959,-0.0907 0.0562,-0.0796 0.0713,-0.20116 0.0483,-0.093 0.25353,-0.25922 0.16207,-0.12099 0.0594,-0.057 0.16651,-0.21193 0.25281,-0.32278 0.15435,-0.23509 0.0946,-0.0999 0.0551,-0.0812 0.0942,-0.25052 0.15702,-0.23388 0.10347,-0.34372 0.14688,-0.28303 0.0925,-0.20689 0.16283,-0.2806 0.12897,-0.25827 0.2128,-0.3401 0.11878,-0.14112 0.053,-0.0887 0.0327,-0.11493 0.0377,-0.2455 0.0292,-0.11371 0.14558,-0.25017 0.0341,-0.19312 -0.003,-0.36635 -0.0632,-0.99288 0.002,-0.21589 0.0176,-0.13262 0.041,-0.11556 0.1274,-0.19214 0.0862,-0.28049 0.0498,-0.11354 0.20342,-0.33961 0.11863,-0.14178 0.054,-0.0861 0.0354,-0.1107 0.0913,-0.39935 0.16405,-0.46559 -0.0227,-0.43636 -0.0525,-0.2519 -0.0864,-0.1418 -0.19935,-0.20336 -0.34783,-0.27915 -0.0956,-0.0575 -0.42121,-0.22043 -0.5852,-0.24747 -0.24744,-0.054 -0.33918,-0.0244 -0.25224,0.006 -0.24179,0.0394 -0.49682,0.20236 -0.12406,0.064 -0.17682,0.12556 -0.21343,0.18183 -0.10176,0.43212 -0.039,0.11824 -0.2326,0.40143 -0.12229,0.13854 -0.0558,0.0837 -0.10585,0.34229 -0.13044,0.28804 -0.0524,0.24944 -0.0749,0.14625 -0.15505,0.17205 -0.32708,0.51266 -0.15074,0.17569 -0.0467,0.0959 -0.069,0.20554 -0.13158,0.18319 -0.10212,0.23641 -0.0683,0.0883 -0.10757,0.0585 -0.12745,0.0325 -0.38154,0.0684 -0.26307,0.027 -0.57681,-0.26118 -0.24496,-0.30038 -0.2923,-0.21184 -0.0982,-0.091 -0.18115,-0.21062 -0.15513,-0.12857 -0.13581,-0.13873 -0.15518,-0.11923 -0.13693,-0.13466 -0.31026,-0.23481 -0.094,-0.0449 -0.26628,-0.0886 -0.21582,-0.13142 -0.0576,-0.0258 -0.40947,-0.11274 -0.33825,-0.14179 -0.40802,-0.11355 -0.28504,-0.15845 -0.33536,-0.0922 -0.13699,-0.0512 -0.41206,-0.2064 -0.20888,-0.14911 -0.11323,-0.05 -0.24185,-0.078 -0.22311,-0.13002 -0.0552,-0.0226 -0.12312,-0.0307 -0.33051,-0.0506 -0.12345,-0.0343 -0.0999,-0.0559 -0.22997,-0.18812 -0.0663,-0.0685 -0.0757,-0.11641 0.004,-0.30048 -0.025,-0.67434 0.005,-0.21233 0.0359,-0.18876 0.0241,-0.0528 0.10255,-0.14345 0.0414,-0.10769 0.0284,-0.1904 0.0259,-0.48139 -0.0699,-0.34119 -0.0587,-0.19407 -0.06,-0.12214 -0.16777,-0.28167 -0.085,-0.25078 -0.004,-0.0961 0.0169,-0.0902 0.0291,-0.0908 0.0472,-0.0837 0.23326,-0.21442 0.0827,-0.0585 0.32992,-0.15183 0.13117,-0.05 0.14324,-0.0325 0.3673,-0.0559 0.60509,-0.13089 0.24446,-0.0232 0.56874,-0.0187 0.14221,-0.0264 0.0626,-0.023 0.16204,-0.10163 0.24829,-0.11647 0.31018,-0.17928 0.0808,-0.0687 0.0357,-0.0533 0.0407,-0.12156 0.0167,-0.27381 -0.0353,-0.50555 -0.0369,-0.20532 -0.0446,-0.12401 -0.0323,-0.0551 -0.13356,-0.1482 -0.15787,-0.22546 -0.23105,-0.29336 -0.12332,-0.1165 -0.4054,-0.22344 -0.40386,-0.1596 -0.35355,-0.15981 -0.0775,0.0523 -0.11878,0.12382 -0.23961,0.19071 -0.0963,0.0474 -0.12366,0.0177 -0.1278,-0.012 -0.11761,-0.0425 -0.29981,-0.23381 -0.10814,-0.0956 -0.10138,-0.0598 -0.0643,-0.0226 -0.21365,-0.0386 -0.22551,-0.0108 -0.21922,0.0134 -0.13201,0.0293 -0.10168,0.0498 -0.15695,0.10878 -0.57404,0.30151 -0.18006,0.15106 -0.15406,0.10247 -0.1382,0.11304 -0.26181,0.10145 -0.0941,0.0614 -0.0583,0.0988 -0.0521,0.29173 -0.0384,0.10958 -0.0348,0.0476 -0.095,0.0638 -0.26521,0.0992 -0.11333,0.074 -0.0992,0.0459 -0.19433,0.037 -0.37398,0.0295 -0.70114,-0.0693 -0.40218,-0.0134 -0.16014,-0.0181 -0.14665,-0.0335 -0.0649,-0.0252 -0.2303,-0.12746 -0.39833,-0.12157 -0.33967,-0.13722 -0.16023,-0.0384 -0.3355,-0.0354 -0.42921,-0.0136 -0.59858,-0.002 -0.56219,0.0155 -0.15949,-0.0321 -0.15792,-0.0545 -0.0904,-0.0557 -0.26508,-0.20737 -0.2315,-0.24091 -0.0646,-0.0956 -0.0555,-0.19151 -0.0484,-0.34422 -0.0312,-0.13074 -0.0526,-0.11589 -0.12441,-0.15168 -0.0793,-0.13502 -0.0935,-0.19418 -0.0686,-0.22144 0.0628,-0.1403 0.031,-0.19806 -0.029,-0.19542 -0.0578,-0.121 -0.0894,-0.11428 -0.16236,-0.15029 -0.17854,-0.12689 -0.26149,-0.14378 -0.15692,-0.12711 -0.16578,-0.11002 -0.24401,-0.21395 -0.0649,-0.0866 -0.0205,-0.0535 -0.0115,-0.11186 0.0103,-0.0559 0.0237,-0.0539 0.0401,-0.0484 0.0558,-0.0364 0.12957,-0.034 0.14344,-0.008 0.62349,0.0153 0.14435,-0.013 0.12564,-0.0342 0.16231,-0.0932 0.27739,-0.095 0.10518,-0.0535 0.26853,-0.27113 0.10516,-0.0738 0.19908,-0.11105 0.21092,-0.17412 -0.18016,-0.16781 -0.21662,-0.14728 -0.15729,-0.12469 -0.11278,-0.05 -0.18236,-0.0563 -0.11293,-0.048 -0.21128,-0.14544 -0.2194,-0.10741 -0.39917,-0.21544 -0.0867,-0.0639 -0.21791,-0.19795 -0.0677,-0.084 -0.0908,-0.21056 -0.0531,-0.0983 -0.12555,-0.14384 -0.0293,-0.0474 -0.0903,-0.21119 -0.0598,-0.0977 -0.14522,-0.12981 -0.13325,-0.13815 -0.15741,-0.11659 -0.13215,-0.13897 -0.14284,-0.13022 -0.0579,-0.0965 -0.0653,-0.1579 -0.0583,-0.0977 -0.29131,-0.26901 -0.4428,-0.24561 -0.21719,-0.10989 -0.25458,-0.18743 -0.40924,-0.21592 -0.30988,-0.12882 -0.33521,-0.15467 -0.40341,-0.11743 -0.055,-0.0252 -0.16823,-0.10746 -0.0589,-0.025 -0.20551,-0.0452 -0.2272,-0.0175 -0.2341,0 -0.22953,0.0242 -0.14219,0.0389 -0.25977,0.10115 -0.33289,0.0773 -0.11279,0.0462 -0.14034,0.11702 -0.14838,0.10542 -0.12078,0.12861 -0.14523,0.10807 -0.1221,0.128 -0.14574,0.10806 -0.11762,0.13248 -0.0978,0.091 -0.0551,0.0826 -0.03,0.10541 -0.0337,0.2861 -0.0265,0.10561 -0.0218,0.0466 -0.10808,0.13999 -0.0243,0.0456 -0.0701,0.20673 -0.0485,0.0958 -0.15604,0.17092 -0.32997,0.51373 -0.1503,0.17578 -0.0243,0.0466 -0.0306,0.10538 -0.0411,0.28319 -0.0289,0.10314 -0.0221,0.0446 -0.1089,0.13875 -0.0235,0.0472 -0.035,0.16803 0.005,0.18654 0.0247,0.12714 0.0496,0.12469 0.0384,0.0608 0.0952,0.11085 0.10968,0.0997 0.17646,0.13221 0.26359,0.16191 0.0802,0.0867 0.0497,0.11004 0.0241,0.11777 0.004,0.11858 -0.0169,0.11349 -0.0456,0.10027 -0.25616,0.25098 -0.15395,0.10026 -0.14132,0.11146 -0.10555,0.0435 -0.17343,0.0508 -0.1056,0.0533 -0.0694,0.0716 -0.14666,0.2054 -0.0691,0.21618 -0.18108,0.39126 -0.38203,0.004 -0.21985,0.024 -0.13734,0.0362 -0.26381,0.0935 -0.22616,0.0372 -0.40224,0.012 -0.73438,-0.0228 -0.23189,-0.0216 -0.1427,-0.0258 -0.1249,-0.0427 -0.17169,-0.10045 -0.12582,-0.0437 -0.53963,-0.0901 -0.21571,-0.0557 -0.25893,-0.0828 -0.38364,0.096 -0.12487,0.0455 -0.0915,0.051 -0.0739,0.084 -0.0237,0.0547 -0.0225,0.11734 -0.003,0.18525 -0.092,0.036 -0.0808,0.0502 -0.0564,0.0712 -0.0398,0.0809 -0.93352,-0.0397 -0.32289,-0.004 -0.21806,0.0277 -0.0638,0.023 -0.0561,0.034 -0.0415,0.0417 -0.0528,0.0941 -0.078,0.18484 -0.10391,0.14009 -0.0236,0.0529 -0.0264,0.12037 -0.009,0.13236 0.005,0.28364 0.0551,0.94111 0.0415,0.19537 0.0554,0.11364 0.1353,0.14698 0.17041,0.22423 0.0981,0.10225 0.1655,0.14595 0.17768,0.12929 0.26315,0.14453 0.17218,0.11403 0.12887,0.0439 0.4261,0.0722 0.12685,0.0484 0.0839,0.0608 0.22034,0.19636 0.0697,0.12195 0.0421,0.11688 0.54668,0.1628 0.23534,0.0405 0.4142,0.0482 0.11521,3.5e-4 0.24479,-0.0276 0.39247,-0.0691 0.57755,0.11078 0.13261,0.0398 0.10206,0.0565 0.38604,0.29186 0.0972,0.0583 0.3967,0.1252 0.33526,0.13881 0.35884,0.0829 0.36119,8.7e-4 0.218,0.0209 0.14289,0.04 0.12784,0.0673 0.15438,0.1325 0.13291,0.16238 0.18087,0.18413 0.24317,0.35888 0.18531,0.32596 0.24793,0.35418 0.0742,0.0756 0.2276,0.18857 0.0961,0.0587 0.29359,0.10241 0.22808,0.12293 0.13842,0.0427 0.23765,0.0287 0.57966,0.0301 0.15131,0.0303 0.0696,0.0264 0.0628,0.0376 0.0829,0.0906 0.12758,0.24057 0.0853,0.10951 0.0546,0.0975 0.0342,0.12516 0.0641,0.47359 0.0506,0.12495 0.0419,0.0565 0.0431,0.0396 0.0983,0.0612 0.27292,0.11336 0.41635,0.10178 0.38742,0.026 -0.19155,0.38437 -0.0663,0.0823 -0.10277,0.091 -0.12044,0.13164 -0.1443,0.10888 -0.12178,0.12798 -0.14369,0.10929 -0.12264,0.12777 -0.25359,0.19074 -0.099,0.0514 -0.13177,0.0305 -0.28376,0.0331 -0.13132,0.0262 -0.0575,0.0201 -0.16404,0.0906 -0.0591,0.0209 -0.13621,0.0256 -0.3924,0.0112 -1.00075,-0.0317 -0.23562,0.006 -0.14395,0.0173 -0.12399,0.0355 -0.16422,0.089 -0.11719,0.0325 -0.13544,0.0156 -0.43414,0.0215 -0.13484,0.0242 -0.0616,0.0213 -0.0952,0.0632 -0.17706,0.23785 -0.35713,-0.19032 -0.16309,-0.12025 -0.11314,-0.0483 -0.18222,-0.0563 -0.11075,-0.0506 -0.14797,-0.12452 -0.16062,-0.11314 -0.1456,-0.13448 -0.095,-0.0571 -0.29573,-0.14747 -0.20769,-0.0762 -0.58529,-0.0813 -0.14216,-0.0406 -0.0697,-0.0315 -0.12858,-0.079 -0.17107,-0.14037 -0.14623,-0.14952 -0.1087,-0.13387 -0.0803,-0.0752 -0.0569,-0.0327 -0.12956,-0.0433 -0.21633,-0.0311 -0.55188,-0.0169 -0.38561,0.0177 -0.13437,0.0266 -0.0582,0.0215 -0.12123,0.0707 -0.0936,0.04 -0.11805,0.0248 -0.32085,0.0384 -0.11784,0.0299 -0.0922,0.0508 -0.2096,0.1743 -0.0656,0.0668 -0.12564,0.16434 -0.0975,0.0821 -0.057,0.0347 -0.0624,0.0289 -0.13162,0.0353 -0.40782,0.0441 -0.12116,0.0274 -0.0529,0.0219 -0.15566,0.1103 -0.18685,0.0995 -0.20059,0.1231 -0.16047,0.0729 -0.11619,0.0101 -0.15581,-0.0339 -0.10101,-0.0463 -0.0868,-0.0794 -0.15223,-0.29434 -0.1697,-0.1816 -0.1928,-0.28805 -0.053,-0.1097 -0.0139,-0.10076 0.0225,-0.0926 0.0243,-0.0384 0.0893,-0.0926 0.15798,-0.19645 0.0936,-0.0802 0.1897,-0.11702 0.0779,-0.0626 0.0319,-0.0481 0.0307,-0.10889 -0.007,-0.11378 -0.0181,-0.0555 -0.0293,-0.0524 -0.0707,-0.0719 -0.1828,-0.14628 -0.10399,-0.0549 -0.12639,-0.0313 -0.13673,-0.0154 -0.41895,-0.0124 -0.11424,-0.81029 -0.006,-0.32084 -0.0144,-0.12842 -0.0509,-0.19101 -0.0725,-0.14814 -0.29383,-0.2536 -0.0452,-0.17171 -0.0405,-0.10791 -0.14303,-0.31844 -0.17094,-0.29509 -0.0435,-0.13067 -0.0404,-0.27416 -0.0391,-0.69144 -0.0361,-0.18882 -0.0494,-0.10894 -0.14817,-0.18883 -0.0997,-0.19533 -0.0799,-0.0894 -0.11042,-0.0559 -0.1257,-0.0299 -0.27275,-0.0368 -0.14022,-0.0285 -0.0696,-0.0217 -0.13314,-0.0626 -0.12444,-0.0801 -0.17524,-0.13843 -0.32411,-0.3102 -0.53792,-0.0911 -0.741652,-0.0709 -0.204671,-0.0588 -0.172947,-0.0994 -0.1285,-0.0441 -0.225102,-0.0366 -0.326487,-0.022 -0.503923,-0.007 -0.325642,0.0276 -0.146541,0.0378 -0.261579,0.0943 -0.388753,0.0978 -0.09447,0.0549 -0.235289,0.2108 -0.05214,0.0937 -0.07137,0.20042 -0.12511,0.18925 -0.0227,0.0527 -0.02546,0.11931 -0.008,0.13091 0.0072,0.54737 -0.01756,0.125 -0.04325,0.10996 -0.303979,0.34876 -0.157644,0.12296 -0.23524,0.1571 -0.09743,0.091 -0.209701,0.14755 -0.06707,0.0766 -0.05225,0.0939 -0.09808,0.24245 -0.09233,0.34689 -0.12868,0.19326 -0.02471,0.0547 -0.036,0.19183 -7.1e-5,0.20971 0.0287,0.20746 0.04148,0.1266 0.03087,0.0563 0.151139,0.19384 0.09595,0.20624 0.06015,0.0981 0.141409,0.14121 0.134219,0.16763 0.09453,0.0979 0.109462,0.0916 0.151238,0.10382 0.171315,0.13836 0.218101,0.14588 0.143164,0.13815 0.154797,0.12921 0.283537,0.3921 0.200065,0.32362 0.388818,0.4264 0.175126,0.22447 0.185796,0.18059 0.375347,0.50802 0.189113,0.49704 0.146903,0.44745 0.05134,0.10257 0.11405,0.15395 0.05118,0.1178 0.04149,0.20432 0.04346,0.44356 0.03687,0.22197 0.04441,0.14236 0.176208,0.37346 0.03668,0.14825 0.03182,0.22907 0.04164,0.77874 -0.01784,0.3789 -0.102485,0.38965 -0.141843,0.44587 -0.07663,0.19146 -0.154676,0.3143 -0.838515,0.19673 -0.122532,0.0437 -0.05408,0.0317 -0.107507,0.11004 -0.314068,0.4438 -0.135414,0.12566 -0.120386,0.13561 -0.140678,0.12465 -0.163521,0.21478 -0.158019,0.17174 -0.412299,0.16524 -0.406278,0.13013 -0.322568,0.14209 -0.235718,0.0826 -0.320404,0.13459 -0.393615,0.094 -0.269893,0.1425 -0.396073,0.0928 -0.323073,0.12443 -0.39602,0.0936 -0.05445,0.0219 -0.163308,0.0944 -0.05668,0.0203 -0.200395,0.0308 -0.513579,0.0221 -0.130854,0.0244 -0.05721,0.0209 -0.212362,0.11732 -0.232469,0.066 -0.106294,0.0463 -0.138473,0.1159 -0.153675,0.10108 -0.140725,0.11306 -0.105815,0.0432 -0.175094,0.0471 -0.107041,0.0455 -0.270146,0.24153 -0.0441,0.0814 -0.02978,0.0889 -0.250618,0.0532 -0.166579,0.058 -0.193062,0.2949 -0.138174,0.12381 -0.119488,0.13171 -0.25139,0.18997 -0.100346,0.0509 -0.134017,0.0278 -0.226732,0.0103 -0.816471,-0.0363 -0.234699,-0.002 -0.212631,0.028 -0.116743,0.0562 -0.07119,0.0887 -0.09816,0.23704 -0.07646,0.10411 -0.04546,0.0903 -0.05532,0.3596 -0.0402,0.11182 -0.03629,0.0485 -0.09729,0.0645 -0.26719,0.0982 -0.11531,0.0733 -0.103315,0.0459 -0.132919,0.0264 -0.220247,0.0116 -0.226374,-0.0104 -0.215601,-0.0355 -0.06568,-0.0211 -0.106461,-0.0572 -0.116924,-0.0937 -0.192488,-0.13008 -0.138485,-0.13638 -0.616986,0.13861 -0.912298,0.11303 -0.271602,0.01 -0.364803,-0.0252 -0.894241,-0.15748 -0.114887,-0.0448 -0.223166,-0.1453 -0.469241,-0.24454 -0.481631,-0.18163 -0.0767,-0.0136 -0.09686,3.5e-4 -0.486677,-0.0773 -0.513234,-0.0652 -0.125994,-0.0276 -0.111401,-0.0463 -0.08257,-0.0631 -0.213924,-0.19239 -0.03178,-0.0473 -0.08784,-0.20701 -0.05593,-0.0962 -0.139497,-0.13192 -0.129762,-0.14004 -0.155558,-0.11691 -0.135543,-0.13456 -0.160416,-0.11529 -0.14939,-0.13375 -0.259604,-0.1506 -0.424364,-0.29878 -0.320184,-0.18998 -0.148966,-0.13397 -0.1593,-0.11529 -0.134404,-0.13438 -0.154646,-0.11651 -0.132524,-0.13884 -0.153721,-0.1293 -0.220367,-0.27587 -0.102883,-0.1019 -0.169245,-0.14352 -0.179437,-0.12119 -0.201857,-0.1084 -0.167837,-0.11815 -0.118148,-0.0479 -0.264296,-0.0761 -0.128155,-0.0599 -0.162624,-0.12566 -0.189312,-0.2089 -0.09474,-0.0639 -0.28894,-0.14921 -0.134616,-0.0477 -0.06263,-0.0114 -0.124265,-0.003 -0.122974,0.0231 -0.233945,0.07 -0.106436,0.003 -0.09806,-0.0233 -0.197979,-0.11734 -0.151749,-0.0514 -0.15337,-0.029 -0.153387,0.0172 -0.102649,0.027 -0.09352,0.0424 -0.133363,0.11958 -0.147461,0.10759 -0.132958,0.1275 -0.325251,0.17783 -0.314206,0.19042 -0.882282,0.1421 -0.292486,0.005 -0.282231,-0.0311 -0.171301,-0.053 -0.134321,-0.0891 -0.383713,-0.45556 -0.117201,-0.0938 -0.223017,-0.1015 -0.170522,-0.0489 -0.445368,-0.0469 -0.156886,0.19469 -0.06897,0.0672 -0.302607,0.14252 -0.08233,0.0859 -0.02609,0.0568 -0.03321,0.1959 0.0097,0.51278 -0.007,0.21903 -0.02259,0.13865 -0.07142,0.17477 0.02223,0.35482 0.04961,0.27646 0.168929,0.54722 0.192532,0.35864 0.04501,0.13558 0.02792,0.20641 -0.01718,0.19444 -0.04877,0.11081 -0.231648,0.2202 -0.07961,0.057 -0.193095,0.10594 -0.144271,0.12055 -0.15631,0.20518 -0.12398,0.13902 -0.05689,0.15565 -0.05949,0.33851 -0.03944,0.086 -0.1163,0.13333 -0.04463,0.0818 -0.05094,0.17614 0.0042,0.094 0.02879,0.0893 0.04449,0.0915 0.06691,0.0854 0.04387,0.0351 0.603152,0.33137 0.08792,0.0702 0.252834,0.28246 0.544571,0.51295 0.217981,0.27514 0.103897,0.1045 0.06358,0.0931 0.05418,0.18524 0.02214,0.20513 0.06315,1.59447 0.0024,0.43171 -0.03662,0.70698 0.251521,0.18135 0.304154,0.30997 0.06449,0.0848 0.09636,0.20366 0.05831,0.0947 0.267386,0.27101 0.355169,0.27972 0.721704,0.40223 0.285285,0.28174 0.243508,0.18924 0.429896,0.56325 0.0714,0.0722 0.115147,0.0933 0.270242,0.27381 0.05887,0.11095 0.03414,0.12655 0.07896,0.55125 -0.01572,0.27704 -0.0073,0.54372 -0.01423,0.13425 -0.03132,0.12858 -0.134315,0.28756 -0.107455,0.34232 -0.161725,0.23666 -0.08501,0.28451 -0.04802,0.1168 -0.255297,0.48222 -0.21919,0.33702 -0.14943,0.17561 -0.04531,0.10848 -0.02081,0.12491 -0.0064,0.20358 0.04746,0.94003 0.03925,0.35929 0.07506,0.28102 -0.464424,0.086 -0.6726,0.0316 -0.197665,0.10685 -0.136668,0.061 -0.260505,0.0876 -0.260194,0.10644 -0.22429,0.0511 -0.162125,0.0122 -0.249625,0.002 -1.105515,-0.0399 -0.411058,-0.001 -0.152121,0.012 -0.136243,0.0272 -0.05833,0.0219 -0.160517,0.0941 -0.05589,0.0211 -0.129379,0.0274 -0.219269,0.0152 -0.310698,-0.0116 -0.156014,-0.0209 -0.152112,-0.0373 -0.648971,-0.28284 -0.402746,-0.22384 -0.08799,-0.0671 -0.131239,-0.12855 -0.113787,-0.0882 -0.404971,-0.2502 -0.177679,-0.0418 -0.372666,-0.21736 -0.175614,-0.12105 -0.295243,-0.23581 -0.446417,-0.17235 -0.408791,-0.21048 -0.08654,-0.0641 -0.21554,-0.1975 -0.06655,-0.084 -0.113902,-0.25934 -0.180752,-0.23867 -0.08852,-0.20988 -0.05851,-0.0979 -0.273978,-0.27071 -0.312957,-0.23625 -0.112938,-0.0503 -0.241239,-0.0762 -0.273994,-0.15878 -0.29954,-0.10099 -0.09692,-0.0546 -0.167225,-0.11863 -0.413309,-0.20239 -0.140092,-0.0507 -0.368393,-0.0919 -0.141053,-0.0564 -0.510322,-0.31271 -0.135735,-0.0558 -0.270455,-0.0769 -0.118885,-0.0499 -0.166096,-0.11965 -0.249716,-0.14784 -0.152658,-0.13304 -0.174599,-0.21336 -0.153603,-0.12837 -0.134146,-0.13852 -0.155906,-0.11682 -0.134842,-0.13386 -0.156048,-0.1156 -0.134401,-0.1367 -0.154134,-0.12798 -0.781976,-0.98998 -0.113639,-0.0424 -0.252927,-0.18316 -0.277346,-0.26551 -0.06472,-0.0811 -0.124747,-0.25497 -0.07912,-0.0838 -0.394154,-0.22678 -0.37864,-0.15558 -0.575759,-0.26938 -0.12483,-0.0838 -0.171936,-0.1426 -0.150863,-0.15133 -0.188345,-0.21908 -0.09419,-0.0633 -0.602439,-0.33371 -0.148481,-0.1347 -0.118707,-0.0929 -0.07236,-0.0751 -0.40728,-0.57005 -0.15544,-0.12923 -0.143714,-0.13897 -0.203103,-0.13066 -0.198667,-0.15824 -0.32307,-0.18827 -0.397258,-0.1826 -0.188979,-0.12761 -0.771475,-0.63484 -0.119899,-0.0836 -0.256641,-0.15075 -0.147618,-0.1333 -0.159075,-0.11525 -0.134496,-0.13513 -0.155198,-0.11687 -0.133286,-0.13676 -0.155438,-0.11789 -0.134483,-0.13615 -0.159238,-0.11444 -0.149385,-0.12459 -0.111448,-0.0517 -0.239272,-0.0771 -0.05342,-0.0241 -0.168058,-0.10612 -0.111023,-0.0414 -0.558979,-0.10145 -0.563585,-0.14205 -0.130635,-0.20048 -0.28986,-0.23905 -0.542556,-0.39327 -0.38149,-0.29203 -0.192518,-0.11953 -0.140857,-0.056 -0.43963,-0.10674 -0.518088,-0.22162 -0.168495,-0.0887 -0.23093,-0.17028 -0.513187,-0.4408 -0.230938,-0.18002 -0.117886,-0.0745 -0.200515,-0.10878 -0.161223,-0.11995 -0.09844,-0.0422 -0.263124,-0.084 -0.08755,-0.054 -0.107801,-0.0944 -0.160205,-0.11265 -0.132833,-0.13619 -0.155007,-0.1165 -0.131689,-0.13863 -0.157838,-0.1228 -0.201144,-0.21049 -0.10001,-0.0765 -0.222388,-0.14716 -0.22077,-0.0337 -0.164855,-0.0422 -0.137149,-0.0574 -0.344168,-0.17436 -0.0858,-0.0627 -0.107369,-0.0999 -0.1596,-0.11611 -0.144256,-0.13478 -0.294663,-0.19569 -0.09924,-0.0901 -0.151021,-0.17255 -0.0854,-0.0715 -0.391182,-0.2294 -0.262242,-0.13581 -0.168868,-0.1147 -0.127869,-0.0461 -0.359191,-0.0613 -0.135777,-0.0325 -0.06106,-0.0236 -0.229739,-0.12363 -0.332627,-0.091 -0.07012,-0.0254 -0.132774,-0.069 -0.122315,-0.0863 -0.111604,-0.0983 -0.13975,-0.16688 -0.03525,-0.0615 -0.04529,-0.12365 -0.04403,-0.26231 -0.01489,-0.63082 -0.03543,-0.36324 -0.05654,-0.19249 -0.179651,-0.25889 -0.04328,-0.12468 -0.02588,-0.13523 -0.0091,-0.27494 0.02652,-0.12794 0.02709,-0.0583 0.04047,-0.0514 0.101892,-0.0646 0.270549,-0.0912 0.119409,-0.0684 0.104641,-0.0426 0.134411,-0.0256 0.355007,-0.0412 0.124013,-0.0347 0.227311,-0.10864 0.414951,-0.0634 0.131331,-0.0307 0.100389,-0.0477 0.16013,-0.10682 0.329065,-0.15352 0.131274,-0.05 0.241632,-0.0408 0.255466,-0.009 1.226444,0.0384 0.432782,10e-4 0.250877,-0.0148 0.332526,-0.0467 0.150766,-0.005 0.227754,0.0156 0.336693,0.065 0.250779,0.0284 1.460596,0.0544 0.15755,0.0199 0.144037,0.0351 0.0639,0.0258 0.227777,0.13119 0.626707,0.21323 0.115223,-0.0236 0.03755,0.003 0.04656,0.0225 0.02766,0.0463 -0.02067,0.11412 0.528951,-0.0274 0.436886,-0.006 0.868979,0.0185 0.515499,0.0307 0.247975,0.0396 0.421656,0.14702 0.146784,0.0307 0.22466,0.015 0.383947,-0.0311 0.128129,0.003 0.78489,0.11798 0.196325,0.065 0.164963,0.1064 0.09663,0.0418 0.204271,0.053 0.104406,0.003 0.150979,-0.0264 0.09956,-0.0296 0.259034,-0.13768 0.541151,-0.10356 0.101491,-0.0477 0.163593,-0.10539 0.463196,-0.20084 0.149229,-0.0323 0.376326,-0.0425 0.134696,-0.0266 0.229164,-0.10702 0.125114,-0.0357 0.529444,-0.0554 0.762826,-0.14825 0.53024,-0.0465 0.127167,-0.042 0.08222,-0.0558 0.171707,-0.1448 0.06088,-0.0924 0.01877,-0.0585 0.01477,-0.1245 -0.0086,-0.12855 -0.03125,-0.1249 -0.02578,-0.0583 -0.06843,-0.0918 -0.243104,-0.22991 -0.155481,-0.12551 -0.09967,-0.12451 -0.144119,-0.20737 -0.0673,-0.11882 -0.04916,-0.14441 -0.02766,-0.1503 -0.03178,-0.46332 0.0048,-0.4611 0.03502,-0.21959 0.17834,-0.58951 0.01441,-0.20478 -0.02794,-0.19726 -0.05409,-0.11824 -0.0433,-0.0508 -0.104938,-0.0672 -0.220689,-0.0827 -0.09089,-0.0514 -0.274994,-0.19463 -0.272761,-0.27102 -0.05801,-0.11337 -0.04181,-0.19708 -0.01976,-0.28547 -0.0092,-0.44518 -0.297687,-0.37652 -0.02403,-0.59843 -0.04147,-0.2022 -0.05841,-0.11542 -0.264477,-0.27557 -0.151692,-0.12742 -0.17718,-0.21704 -0.207784,-0.19754 -0.242762,-0.17458 -0.373698,-0.18413 -0.268625,-0.18475 -0.305977,-0.26706 -0.105932,-0.11687 -0.08619,-0.12683 -0.07373,-0.1933 -0.145726,-0.55653 -0.07101,-0.85458 -0.02296,-0.13925 -0.09236,-0.37223 -0.05602,-0.51781 -0.0463,-0.21714 -0.09319,-0.18827 -0.204836,-0.29522 -0.07325,-0.0728 -0.115575,-0.0919 -0.240092,-0.2322 -0.06731,-0.0866 -0.02646,-0.0541 -0.05544,-0.17751 -0.07789,-0.33206 -0.002,-0.11123 0.04541,-0.3337 -0.01655,-0.19828 -0.0431,-0.13137 -0.03417,-0.0618 -0.136757,-0.16717 -0.164347,-0.14561 -0.117392,-0.084 -0.259847,-0.14297 -0.126335,-0.0856 -0.110269,-0.0519 -0.213074,-0.0429 -0.62612,-0.0366 -0.220454,-0.0315 -0.127678,-0.0421 -0.231322,-0.1261 -0.40136,-0.11878 -0.332723,-0.14298 -0.40071,-0.11919 -0.229879,-0.12712 -0.06237,-0.0246 -0.140802,-0.033 -0.153996,-0.0183 -0.740692,-0.0291 -0.308099,-0.037 -0.131659,-0.0433 -0.224676,-0.1259 -0.293648,-0.10293 -0.09479,-0.0604 -0.248694,-0.22843 -0.05864,-0.0966 -0.0663,-0.15521 -0.05686,-0.0952 -0.138468,-0.13263 -0.12883,-0.14301 -0.151383,-0.131 -0.225789,-0.30332 -0.56254,-0.0157 -0.234744,0.0796 -0.429453,0.0879 -0.331929,0.11677 -0.15826,0.0293 -0.165415,0.0128 -0.51363,-0.002 -0.865969,-0.0336 -0.337324,-0.0271 -0.339087,-0.0561 -0.127493,-0.0108 -0.126909,0.004 -0.33106,0.0372 -0.244061,0.008 -1.433876,-0.0283 -0.321704,-0.0242 -0.215552,-0.0452 -0.293332,-0.14932 -0.551001,-0.12593 -0.05917,-0.0246 -0.173166,-0.10254 -0.127861,-0.0445 -0.30022,-0.0427 -0.475284,-0.0104 -0.149297,0.0116 -0.135721,0.0264 -0.05956,0.0214 -0.21813,0.11555 -0.319573,0.0822 -0.131031,0.0509 -0.239007,0.14892 -0.301099,0.23659 -0.01745,0.0136 -0.23839,0.15379 -0.08469,0.0338 -0.31509,0.0909 -0.210908,0.12124 -0.06016,0.0224 -0.135675,0.0252 -0.146064,0.004 -0.219373,-0.0328 -0.132582,-0.059 -0.08514,-0.0751 -0.44538,-0.50166 -0.21312,-0.28013 -0.150702,-0.13122 -0.133379,-0.13712 -0.269869,-0.20488 -0.09771,-0.0578 -0.325571,-0.10376 -0.133286,-0.0568 -0.439216,-0.2765 -0.137265,-0.0651 -0.07797,-0.025 -0.161395,-0.0319 -0.164987,-0.0165 -0.905181,-0.0305 -0.148771,-0.0248 -0.130888,-0.0498 -0.262368,-0.21731 -0.0664,-0.0836 -0.08985,-0.20653 -0.05364,-0.0969 -0.164891,-0.18538 -0.233527,-0.35936 -0.05857,-0.11925 -0.107979,-0.29183 -0.179631,-0.24482 -0.115423,-0.26111 -0.0643,-0.0857 -0.106216,-0.104 -0.172751,-0.21594 -0.153192,-0.1327 -0.244116,-0.15286 -0.146646,-0.13413 -0.157972,-0.11663 -0.135789,-0.13352 -0.275324,-0.20212 -0.09851,-0.0541 -0.326012,-0.0888 -0.128572,-0.0529 -0.159721,-0.11277 -0.08083,-0.0924 -0.04642,-0.10585 -0.0043,-0.048 0.01289,-0.0881 0.04798,-0.12886 0.140507,-0.16611 0.02607,-0.0497 0.0343,-0.17996 -0.01611,-0.19238 -0.03805,-0.11767 -0.02905,-0.0501 -0.117718,-0.13559 -0.02542,-0.0472 -0.02744,-0.10546 0.0062,-0.10913 0.0189,-0.0521 0.03264,-0.0474 0.09603,-0.0631 0.265064,-0.0855 0.161499,-0.0924 0.0598,-0.0212 0.136253,-0.0251 0.387683,-0.0118 0.812396,0.0265 0.227187,0.0291 0.137409,0.0399 0.06112,0.0301 0.235257,0.19159 0.253382,0.16756 0.241215,-0.12827 0.105562,-0.0684 0.128731,-0.10302 0.102796,-0.0519 0.134118,-0.0309 0.468102,-0.0525 0.193749,-0.0645 0.282524,-0.13173 0.09006,-0.0521 0.135315,-0.12554 0.149492,-0.10588 0.136187,-0.11749 0.105358,-0.0466 0.229514,-0.0668 0.20931,-0.11811 0.05832,-0.0218 0.134085,-0.0259 0.148291,-0.0102 0.806245,0.002 0.630097,-0.0348 -0.291967,-0.24863 -0.185203,-0.12768 -0.294421,-0.13807 -0.0081,0.0222 -0.04282,0.11709 -0.34414,0.24884 -0.795221,4e-4 -1.108294,-0.1908 -0.685013,0.0534 -0.670221,-0.0208 -0.136643,-0.004 -0.412701,-0.16189 -0.268311,-0.10508 -0.228639,-0.30364 -0.112463,-0.3124 -0.439865,-0.22139 -0.694048,-0.28106 -0.139736,-0.32812 -0.147366,-0.39107 -0.290221,-0.27499 -0.639879,-0.24872 -0.328518,-0.18109 -0.233623,-0.34549 -0.0426,-0.0632 -0.407725,-0.25404 -0.534954,-0.14729 -0.371864,-0.0576 -0.311755,-0.0483 -0.7081,-0.14607 -0.587351,-0.34025 -0.03537,-0.0348 -0.622615,-0.61104 -0.208092,-0.51104 -0.01369,-0.0475 -0.168074,-0.58301 -0.25071,-0.66518 -7.5e-4,-0.42066 -0.224955,-0.3524 -0.721878,-0.44434 -0.526878,-0.51733 -0.08907,-0.4079 -0.63532,-0.16023 -0.03316,-0.0695 -0.19391,-0.4067 -0.02962,-0.42487 0.228307,-0.39003 0.0929,-0.34641 -0.320859,-0.26629 -0.657524,-0.0887 -0.562808,0.12193 -0.127025,-0.0224 -0.456879,-0.0814 -0.08942,-0.10175 -0.08329,-0.095 z"
     style="fill:#555555;fill-opacity:1;fill-rule:evenodd;stroke:none" />
</svg>
