<?xml version="1.0" encoding="utf-8"?>
<!-- Generator: Adobe Illustrator 16.0.0, SVG Export Plug-In . SVG Version: 6.00 Build 0)  -->
<!DOCTYPE svg PUBLIC "-//W3C//DTD SVG 1.1//EN" "http://www.w3.org/Graphics/SVG/1.1/DTD/svg11.dtd">
<svg version="1.1" id="Layer_2" xmlns="http://www.w3.org/2000/svg" xmlns:xlink="http://www.w3.org/1999/xlink" x="0px" y="0px"
	 width="154.813px" height="150px" viewBox="19.549 0 154.813 150" enable-background="new 19.549 0 154.813 150"
	 xml:space="preserve">
<path fill="#555555" d="M130.484,147.713l0.545-0.022l0.661-0.028l0.402-0.586l0.665-0.965l0.406,0.104l0.643,0.165l0.688,0.07
	l0.406-0.116l0.062-0.03l0.122-0.063l0.174-0.088l-0.021-0.468l0.031-0.037l-0.037,0.037l-1.53-0.781l0.157-0.89l0.078-0.073
	l0.338-0.316l0.836-0.181l0.219-0.035l0.362-0.06l0.388-0.295l-1.392-1.302l-0.163-0.568l0.04-0.688l0.086-0.355l0.081-0.332
	l0.221-0.357l0.259-0.419l-0.55-0.101l-0.248-0.047l-0.573-0.054l-0.863-0.185l-0.545-0.31l-0.303-0.369l-0.077-0.093l-0.487-0.408
	l-0.13-0.06l-0.49-0.226l-0.393-1.926l-0.005-0.021l0.637-0.346l0.217-0.555l-0.364-0.831l-0.27-0.701l0.098-0.616l0.119-0.747
	l-0.391-0.751l-0.173-0.606l0.424-0.251l-0.196-0.724l-0.576-0.837l-0.127-0.448l0.117-1.979l0.448-0.931l0.52-0.668l0.108-0.677
	l0.345-0.466l0.736-0.503l0.088-0.06l0.119-0.082l0.371,0.016l2.302,0.093l1.61,0.067l1.311-0.096l-0.989-3.199l-0.204-0.899
	l-0.278-1.228l-0.085-1.061l0.147-0.992l-0.015-0.875l0.348-0.737l0.442-0.695l0.565-0.409l0.811-0.51l-0.49-1.021l-0.506-0.139
	l-0.08-0.392l-0.015-0.074l0.396-0.418l0.647-0.293l0.577-0.47l0.657-0.526l0.699-0.344l1.033-0.377l0.771-0.342l0.845-0.363
	l0.613-0.336l-0.719-1.104l0.723-0.303l0.659-0.19l0.738-0.049l0.597-0.064l0.493-0.124l0.504-0.108l0.861,0.848l0.706,0.654
	l0.565,0.39l0.213,0.355l-0.049,0.374l-0.164,0.563l-0.001,0.002l0.003,0.009l0.113,0.413l0.657,0.259l0.601,0.422l0.341,0.601
	l0.058,0.104l0.459,0.504l0.629,0.504l0.554-0.485l0.002-0.006l0.097-0.496l0.02-0.544l0.703,0.069l1.078,0.047l-0.03-1.872
	l-0.221-0.277l-0.762-0.947l-0.522-1.066l0.003-0.958l-0.403-1.104l-0.854-0.885l-0.347-0.581l-0.191-0.912l-1.163-0.586
	l-0.796-0.409l-0.048-0.025l-0.485-0.622l-0.132-0.341l-0.098-0.254l0.133-0.633l-0.331-0.255l-0.02-0.583l-0.005-0.132
	l-0.324,0.049l-0.277,0.041l-0.334,0.281l-0.418,0.45l-0.185-0.448l0.238-0.574l0.537-0.451l0.014-0.01l0.739-0.312l0.856,0.026
	l0.122-0.306l0.099-0.248l-0.031-0.417l-0.023-0.466l1.04-0.123l0.054,0.111l0.298,0.62l1.097-0.124l0.189,0.119l0.576,0.362
	l0.168,0.579l0.005,0.016l0.819,0.506l0.675-0.392l0.059-0.034l0.107-0.063l1.186,0.119l0.665-0.373l0.685-0.319l0.914,0.624
	l0.366-0.288l0.263-0.204l0.998,0.717l0.884,0.282l0.306-0.446l0.243-0.498l0.02-0.794l-0.002-0.016l-0.049-0.705l-0.128-0.937
	l0.274-0.69l0.776-0.175l0.078,0.012l0.117,0.018l0.94,0.144l1.061,0.01l0.771-0.313l0.394-0.367l0.399,0.271l-0.008,0.721
	l0.066,1.123l0.812,0.293l0.671-0.818l0.113,0.684l0.437,0.977l1.298-0.039l-0.019-0.553l0.119-0.449l-0.023-0.187l-0.061-0.49
	l0.668-0.009l0.628-0.007l0.882,0.633l0.731-0.406l-0.359-0.337l-0.618-0.579l0.015-0.5l0.006-0.206l0.151-0.396l0.086-0.227
	l0.033-0.442l-0.44-0.615l0.391-0.18l0.413-0.313l0.529-1.235l-0.5-1.352l0.028-1.241l-0.368-0.202l-0.514-0.282l-0.585-0.284
	l-0.324-0.455l-0.109-0.158l-0.444-0.644l-0.548-0.838l-0.374-0.166l-0.512-0.207l-0.576-0.843l-0.615-0.191l-0.45-0.23
	l-0.411-0.314l-0.265-0.201l-0.467-0.808l-0.457-0.695l-0.547-0.849l-0.216-0.313l-0.408-0.59l-0.772-0.46l-0.229-0.147
	l-0.604-0.387l-0.849-0.775l-0.555-0.726l-0.145-0.592l-0.445-0.69l-0.527-0.546l-0.219-0.581l-0.235-0.585l-0.038-0.096
	l-0.521-0.594l-0.396-0.643l0.096-0.139l0.287-0.418l0.414,0.075l0.566,0.102l0.88,0.344l1.081,0.186l0.701,0.458l0.832,0.285
	l0.606,0.425l1.259,0.323l1.182,0.097l1.408,0.131l1.011,0.162l1.124,0.022l1.04-0.006l0.289-0.251l0.46-0.652l0.679-0.332
	l0.422-0.435l0.287-0.489l0.691-0.316l0.637-0.253l0.727-0.434l0.005-0.108l0.017-0.349l-0.049-0.185l-0.09-0.344l0.06-0.674
	l-0.14-0.052l-0.403-0.15l-0.199-0.354l-0.307-0.304l-0.126-0.125l-0.485,0.048l-0.095,0.14l-0.062,0.089l0.02,0.392l0.084,0.268
	l-0.277,0.091l-0.005-0.003l-0.36-0.223l-0.483-0.464l-0.651-0.499l-0.513-0.295l-0.771-0.399l-0.03-0.03l-0.541-0.515l-0.383-0.542
	l-0.402-0.521l-0.502-0.442l-0.188-0.427l-0.006-0.048l-0.048-0.399l-0.164-0.384l-0.171,0.079l-0.238,0.11l-0.654,0.101
	l-0.537-0.075l-0.429-0.289l-0.412-0.46l-0.455-0.469l-0.199-0.171l-0.28-0.241l-0.561-0.279l-0.666-0.338l-0.195-0.135
	l-0.427-0.293l-0.183-0.625l-0.182-0.462l-0.411-0.473l0.05-0.439l0.009-0.073l-0.113-0.611l-0.079-0.087l-0.311-0.343l-0.345-0.546
	l-0.055-0.086l-0.479-0.586H159.9l-0.458,0.001l-0.435,0.01l-0.404-0.184l-0.163-0.01l-0.439-0.026l-0.495,0.185l-0.658,0.202
	l-0.419,0.021l-0.121,0.006l-0.47-0.135l-0.432-0.363l-0.2-0.354l-0.148-0.059l-0.368-0.147l-0.516,0.057l-0.63,0.033l-0.698-0.068
	l-0.379-0.416l-0.405-0.559l-0.042-0.057l-0.537-0.51l-0.349-0.596l-0.061-0.5l-0.216-0.444l-0.374-0.364l-0.014-0.427l0.041-0.417
	l-0.302-0.449l-0.139-0.553l0.161-0.617l0.604-0.314l0.51-0.346l0.188-0.773l-0.115-1.037l-0.249-0.677l-0.023-0.056l-0.104-0.246
	l-0.167-0.392l-0.024-0.06l-0.034-0.081l-0.157-0.518l-0.113-0.376l-0.137-0.74l-0.102-0.86l0.339-0.367l0.284-0.002l0.37-0.002
	l0.551,0.012l0.398-0.206l0.142-0.321l0.155-0.406l0.342-0.468l0.011-0.065l0.066-0.395l-0.168-0.327l-0.082-0.162l0.286-0.58
	l0.712,0.009l0.354-0.115l0.192-0.274l0.286-0.567l0.137-0.548l0.152-0.719l0.325-0.459l0.18-0.451l0.02-0.459l0.209-0.546
	l0.268-0.622l0.365-0.689l0.569-0.434l0.302-0.295l0.101-0.098l0.27-0.295l0.226-0.467l0.16-0.354l0.099-0.219l0.127-0.575
	l0.011-0.487l0.196-0.461l0.008-0.474l0.041-0.493l-0.009-0.378l0.026-0.571l0.165-0.455l0.039-0.481l-0.12-0.665l0.026-0.321
	l0.437-0.161l0.254-0.286l-0.001-0.251l-0.292-0.249l0.139-0.297l0.385-0.285l0.569-0.421l-0.043-0.348l-0.602-0.237l-0.188-0.44
	l0.244-0.313l-0.219-0.259h-0.424l-0.295,0.19l-0.069-0.278l-0.057-0.007l-0.416-0.052l-0.802-0.354l-0.71-0.291l-0.179-0.068
	l-0.684-0.103l-0.501-0.065l-0.599-0.173l-0.696-0.118l-0.493,0.15l-0.428,0.277l-0.366,0.199l-0.036,0.02l-0.566-0.191
	l-0.146-0.344l-0.236-0.412l-0.515-0.244h-0.065h-0.046h-0.443l-0.432,0.301l-0.494,0.414l-0.497,0.262l-0.681,0.138l-0.105,0.133
	l-0.286,0.364l-0.458,0.295l-0.401,0.18l-0.137,0.062l-0.505,0.399l-0.534,0.393l-1.111,0.364l-0.401,0.123l-0.585,0.179
	l-0.873,0.162l-1.018-0.017l-0.371-0.004l-0.052,0.071l0.352,0.195l0.32,0.248l0.144,0.131l0.159,0.117l0.246,0.224l0.069,0.092
	l0.041,0.118l0.006,0.12l-0.013,0.058l-0.027,0.055l-0.047,0.048l-0.048,0.026l-0.102,0.016l-0.619-0.085l-0.416-0.082l-0.132-0.013
	l-0.129,0.004l-0.173,0.033l-0.175,0.053l-0.115,0.061l-0.102,0.088l-0.074,0.108l-0.044,0.129l-0.042,0.481l-0.151,0.669
	l-0.051,0.487l-0.03,0.134l-0.143,0.365l-0.154,0.915l-0.443-0.218l-0.404-0.133l-0.231-0.129l-0.13-0.045l-0.146-0.027
	l-0.632-0.064l-0.652,0.019l-1.358-0.039l-0.321,0.004l-0.213,0.033l-0.062,0.022l-0.209,0.116l-0.229,0.066l-0.107,0.045
	l-0.392,0.283l-0.153,0.156l-0.195,0.233l0.354,0.16l0.406,0.16l0.406,0.224l0.124,0.117l0.232,0.294l0.157,0.226l0.134,0.149
	l0.032,0.055l0.045,0.125l0.037,0.206l0.035,0.507l-0.016,0.274l-0.041,0.123l-0.036,0.053l-0.081,0.069l-0.312,0.18l-0.249,0.117
	l-0.163,0.102l-0.063,0.023l-0.143,0.026l-0.57,0.019l-0.245,0.023l-0.607,0.131l-0.368,0.056l-0.144,0.033l-0.132,0.05l-0.33,0.152
	l-0.084,0.059l-0.233,0.215l-0.048,0.084l-0.028,0.091l-0.018,0.09l0.004,0.097l0.086,0.251l0.168,0.283l0.061,0.123l0.06,0.194
	l0.069,0.343l-0.026,0.482l-0.028,0.191l-0.042,0.108l-0.103,0.144l-0.023,0.053l-0.036,0.189l-0.005,0.213l0.024,0.677
	l-0.004,0.301l0.076,0.117l0.066,0.068l0.231,0.189l0.1,0.056l0.124,0.035l0.331,0.051l0.124,0.03l0.055,0.023l0.225,0.13
	l0.242,0.078l0.114,0.05l0.209,0.149l0.413,0.207l0.139,0.051l0.336,0.093l0.286,0.159l0.409,0.114l0.339,0.142l0.41,0.113
	l0.059,0.026l0.217,0.132l0.267,0.089l0.095,0.045l0.312,0.236l0.137,0.135l0.156,0.12l0.136,0.139l0.155,0.129l0.182,0.211
	l0.1,0.091l0.292,0.213l0.246,0.302l0.579,0.262l0.264-0.027l0.383-0.068l0.128-0.033l0.107-0.059l0.068-0.088l0.104-0.237
	l0.132-0.184l0.069-0.206l0.047-0.096l0.15-0.176l0.328-0.514l0.156-0.173l0.075-0.146l0.052-0.25l0.131-0.289l0.106-0.343
	l0.057-0.084l0.122-0.139l0.233-0.403l0.039-0.119l0.103-0.434l0.214-0.182l0.178-0.126l0.124-0.064l0.498-0.203l0.243-0.04
	l0.252-0.006l0.341,0.024l0.249,0.054l0.586,0.248l0.423,0.222l0.097,0.058l0.349,0.28l0.199,0.204l0.088,0.142l0.052,0.253
	l0.023,0.438l-0.165,0.467l-0.092,0.401l-0.035,0.11l-0.054,0.087l-0.119,0.142l-0.204,0.34l-0.05,0.114l-0.087,0.281l-0.128,0.193
	l-0.041,0.116l-0.018,0.133l-0.002,0.216l0.063,0.996l0.004,0.368l-0.034,0.193l-0.146,0.251l-0.029,0.114l-0.037,0.247
	l-0.033,0.115l-0.054,0.089l-0.118,0.141l-0.214,0.341l-0.13,0.259l-0.163,0.282l-0.093,0.208l-0.146,0.284l-0.104,0.345
	l-0.157,0.234l-0.095,0.251l-0.056,0.082l-0.095,0.101l-0.155,0.235l-0.254,0.324l-0.166,0.212l-0.06,0.058l-0.163,0.121
	l-0.255,0.26l-0.048,0.093l-0.071,0.202l-0.057,0.08l-0.096,0.091l-0.115,0.134l-0.25,0.192l-0.102,0.052l-0.208,0.035l-0.235,0.004
	L139.979,49l-0.481,0.002l-0.209,0.032l-0.28,0.133l-0.132,0.026l-0.354,0.045l-0.122,0.042l-0.295,0.215l-0.12,0.13l-0.174,0.161
	l-0.33,0.502l-0.214,0.437l-0.663,0.178l-0.1,0.041l-0.163,0.1l-0.281,0.092l-0.105,0.046l-0.288,0.222l-0.123,0.129l-0.141,0.112
	l-0.121,0.128l-0.296,0.213l-0.117,0.038l-0.131,0.016l-0.42,0.001l-0.278,0.069l-0.046,0.271l-0.019,0.204l0.01,0.263l0.032,0.188
	l0.04,0.113l0.027,0.05l0.118,0.149l0.049,0.103l0.04,0.178l0.054,0.564l0.05,0.237l0.046,0.108l0.114,0.195l0.048,0.106
	l0.031,0.114l0.063,0.353l0.031,0.116l0.047,0.107l0.14,0.248l0.042,0.111l0.063,0.228l0.043,0.111l0.058,0.099l0.196,0.273
	l0.074,0.083l0.045,0.034l0.27,0.159l0.232,0.171l0.401,0.333l0.263,0.251l0.121,0.164l0.047,0.106l0.071,0.206l0.049,0.089
	l0.138,0.141l0.165,0.25l0.21,0.25l0.028,0.623l-0.012,0.421l0.036,0.337l0.003,0.449l0.111,0.653l0.047,0.136l0.077,0.151
	l-0.271,0.239l0.077,0.146l0.039,0.128l0.017,0.198l-0.022,0.128l-0.049,0.117l-0.174,0.285l-0.283,0.254l-0.082,0.058l-0.579,0.291
	l-0.164,0.102l-0.104,0.047l-0.138,0.029l-0.537,0.06l-0.38,0.111l-0.175,0.19l-0.119,0.083l-0.606,0.298l-0.204,0.13l-0.114,0.042
	l-0.265,0.063l-0.194,0.082l-0.404,0.266l-0.249,0.137l-0.149,0.125l-0.182,0.104l-0.103,0.074l-0.09,0.085l-0.159,0.201
	l-0.142,0.12l-0.121,0.133l-0.105,0.089l-0.064,0.071l-0.217,0.34l-0.17,0.315l-0.345,0.413l-0.124,0.175l-0.07,0.066l-0.208,0.147
	l-0.094,0.028l-0.09,0.001l-0.414,0.416l-0.106,0.125l-0.144,0.201l-0.143,0.12l-0.116,0.134l-0.129,0.123l-0.049,0.092
	l-0.051,0.154l-0.047,0.095l-0.126,0.135l-0.148,0.218l-0.088,0.1l-0.202,0.194l-0.702,0.625l-0.186,0.197l-0.155,0.213
	l-0.145,0.119l-0.121,0.13l-0.146,0.108l-0.119,0.131l-0.13,0.123l-0.051,0.094l-0.073,0.203l-0.027,0.044l-0.132,0.123
	l-0.121,0.131l-0.146,0.107l-0.252,0.258l-0.059,0.139l-0.043,0.202l-0.081,0.082l0.177,0.524l-0.183,0.437l-0.229,0.537
	l-0.06,0.571l-0.396,0.538l-0.226,0.269l-0.227,0.248l0.007,0.131l-0.008,0.301l-0.032,0.281l0.031,0.419l-0.02,0.105l-0.048,0.112
	l-0.164,0.281l-0.117,0.143l-0.055,0.093l-0.033,0.126l-0.014,0.139l0.003,0.223l0.031,0.3l0.044,0.224l0.073,0.23l0.033,0.153
	l0.012,0.153l-0.016,0.149l-0.082,0.2l-0.095,0.108l-0.146,0.061l-0.08,0.014h-0.162l-0.162-0.028l-0.148-0.061l-0.236-0.192
	l-0.304-0.209l0.014-0.038l-0.051-0.037l-0.246-0.053l-0.064-0.015h-0.417h-0.249h-0.139l-0.401,0.169l-0.693,0.032h-0.024
	l-0.39,0.155l0.006,0.077l-0.021,0.176l-0.042,0.098l-0.114,0.135l-0.038,0.088l-0.019,0.103l-0.011,0.226l-0.704,0.104l-0.041,0.22
	l-0.098,0.236l-0.052,0.083l-0.167,0.17l-0.185,0.285l-0.059,0.113l-0.04,0.185l-0.002,0.126l0.014,0.123l0.03,0.116l0.053,0.104
	l0.172,0.183l0.254,0.352l0.156,0.265l0.291,0.413l0.186,0.181l0.227,0.305l0.852,0.023l0.063,0.224l0.145,0.29l0.067,0.081
	l0.11,0.104l0.175,0.217l0.155,0.133l0.252,0.146l0.125,0.088l0.108,0.053l0.206,0.045l0.444,0.043l0.14,0.024l0.121,0.04l0.176,0.1
	l0.129,0.044l0.223,0.035l0.24,0.017l0.246,0.003l0.243-0.011l0.23-0.039l0.267-0.096l0.145-0.038l0.326-0.03l0.425,0.004
	l2.317,0.063l0.252,0.022l0.244,0.054l0.789,0.368l0.093,0.155l0.071,0.094l0.326,0.287l0.257,0.154l0.437,0.286l0.141,0.065
	l0.152,0.039l0.155,0.023l0.46,0.04l0.139,0.022l0.12,0.044l0.157,0.101l0.095,0.046l0.67,0.042l0.314,0.034l0.142,0.034
	l0.061,0.024l0.176,0.1l0.121,0.041l0.14,0.024l0.515,0.06l0.191,0.055l0.177,0.1l0.12,0.041l0.21,0.034l0.315,0.03l0.13-0.155
	l0.179-0.164l0.053-0.097l0.075-0.204l0.133-0.186l0.05-0.152l0.05-0.338l0.041-0.099l0.147-0.179l0.109-0.183l0.256-0.367
	l0.144-0.12l0.125-0.129l0.147-0.106l0.124-0.127l0.145-0.12l0.059-0.08l0.149-0.248l0.073-0.176l0.052-0.425l0.026-0.107
	l0.02-0.048l0.101-0.146l0.034-0.096l0.036-0.277l0.026-0.108l0.054-0.099l0.081-0.068l0.271-0.142l0.135-0.05l0.073-0.016
	l0.229-0.021l0.395-0.004l0.232-0.015l0.148-0.027l0.336-0.111l0.238-0.036l0.424-0.009l1.996,0.054l0.333-0.013l0.557-0.056
	l0.49-0.11l0.17-0.017l0.262-0.009l0.347,0.007l0.246,0.023l0.149,0.039l0.113,0.061l0.22,0.192l0.066,0.093l0.043,0.118
	l0.055,0.249l0.038,0.118l0.172,0.257l0.111,0.292l0.061,0.118l0.244,0.352l0.341,0.308l0.202,0.134l0.118,0.095l0.347,0.339
	l0.608,0.661l0.221,0.276l0.156,0.129l0.136,0.135l0.157,0.116l0.138,0.138l0.117,0.094l0.074,0.074l0.296,0.397l0.09,0.137
	l0.172,0.185l0.057,0.099l0.069,0.157l0.061,0.096l0.281,0.266l0.16,0.114l0.284,0.269l0.034,0.051l0.047,0.118l0.035,0.192
	l0.006,0.262l-0.02,0.123l-0.02,0.056l-0.03,0.052l-0.068,0.069l-0.173,0.144l-0.098,0.049l-0.121,0.026l-0.388,0.04l-0.111,0.031
	l-0.167,0.089l-0.054,0.019l-0.123,0.024l-0.417,0.043l-0.139,0.033l-0.068,0.026l-0.126,0.067l-0.345,0.233l-0.242,0.141
	l-0.135,0.128l-0.15,0.105l-0.139,0.115l-0.107,0.045l-0.235,0.066l-0.213,0.118l-0.053,0.021l-0.122,0.025l-0.327,0.038
	l-0.12,0.024l-0.054,0.02l-0.166,0.091l-0.12,0.034l-0.139,0.018l-0.443,0.02l-0.139,0.018l-0.119,0.035l-0.167,0.095l-0.11,0.038
	l-0.484,0.084l-0.303,0.075l-0.21,0.067l-0.119,0.058l-0.131,0.098l-0.092,0.052l-0.233,0.068l-0.109,0.044l-0.197,0.137
	l-0.207,0.097l-0.423,0.223l-0.149,0.124l-0.245,0.14l-0.339,0.238l-0.126,0.068l-0.068,0.028l-0.152,0.036l-0.158,0.015
	l-0.161,0.002l-0.236-0.013l-0.219-0.039l-0.108-0.041l-0.169-0.11l-0.055-0.025l-0.405-0.121l-0.342-0.141l-0.151-0.036
	l-0.236-0.028l-0.243-0.012l-1.625-0.038l-0.23-0.019l-0.142-0.024l-0.124-0.044l-0.171-0.103l-0.055-0.023l-0.121-0.033
	l-0.331-0.058l-0.124-0.032l-0.054-0.023l-0.174-0.103l-0.124-0.041l-0.142-0.023l-0.448-0.042l-0.206-0.042l-0.06-0.024
	l-0.173-0.104l-0.057-0.024l-0.408-0.118l-0.336-0.154l-0.512-0.201l-0.088-0.024l-0.152-0.021l-0.282-0.148l-0.197-0.116
	l-0.113-0.084l-0.136-0.125l-0.089-0.066l-0.615-0.334l-0.258-0.188l-0.617-0.326l-0.217-0.145l-0.12-0.048l-0.274-0.072
	l-0.139-0.052l-0.442-0.222l-0.272-0.187l-0.715,0.14l-0.404,0.05l-0.243,0.006l-0.239-0.007l-0.228-0.023l-0.137-0.034
	l-0.061-0.024l-0.223-0.129l-0.296-0.11l-0.097-0.072l-0.069-0.086l-0.181-0.265l-0.057-0.117l-0.08-0.236l-0.058-0.104
	l-0.215-0.198l-0.082-0.064l-0.12-0.054l-0.343-0.097l-0.271-0.114l-0.145-0.046l-0.146-0.025l-0.219-0.015l-0.139,0.01
	l-0.126,0.026l-0.099,0.053l-0.246,0.209l-0.247,0.37l-0.107,0.184l-0.148,0.18l-0.055,0.151l-0.039,0.283l-0.027,0.104
	l-0.022,0.047l-0.104,0.145l-0.037,0.098l-0.052,0.339l-0.029,0.104l-0.05,0.083l-0.085,0.103l-0.045,0.096l-0.072,0.205
	l-0.136,0.187l-0.021,0.046l-0.028,0.104l-0.037,0.283l-0.029,0.105l-0.052,0.084l-0.094,0.102l-0.161,0.231l-0.093,0.096
	l-0.214,0.184l-0.164,0.061l-0.121,0.025l-0.335,0.021l-0.389,0.633l-0.145,0.182l-0.046,0.117l-0.021,0.133l-0.004,0.219
	l0.074,1.471l0.026,0.299l0.043,0.207l0.053,0.118l0.115,0.154l0.028,0.053l0.056,0.19l0.089,0.474l0.05,0.113l0.11,0.151
	l0.043,0.105l0.024,0.18l-0.03,0.327l0.005,0.111l0.131,0.622l0.063,0.183l0.146,0.193l0.025,0.048l0.028,0.107v0.109l-0.013,0.054
	l-0.052,0.087l-0.199,0.176l-0.099,0.054l-0.127,0.034l-0.533,0.078l-0.31-0.006l-0.505-0.091l-0.439-0.034l-3.392-0.1l-0.26,0.008
	l-0.25,0.036l-0.164,0.053l-0.274,0.118l-0.071,0.098l-0.082,0.086l-0.331,0.236l-0.127,0.044l-0.223,0.025l-0.24,0.003
	l-0.329-0.015l-0.24-0.035l-0.153-0.05l-0.129-0.077l-0.106-0.095l-0.171-0.243l-0.136-0.15l-0.107-0.084l-0.189-0.113l-0.122-0.092
	l-0.1-0.049l-0.125-0.034l-0.145-0.02l-0.535-0.026l-0.22-0.023l-0.19-0.054l-0.176-0.1l-0.122-0.041l-0.14-0.024l-0.447-0.046
	l-0.141-0.023l-0.124-0.042l-0.175-0.101l-0.056-0.023l-0.122-0.032l-0.333-0.057l-0.124-0.034l-0.283-0.148l-0.124-0.034
	l-0.394-0.076l-0.111-0.042l-0.169-0.103l-0.059-0.022l-0.135-0.027l-0.144-0.003l-0.145,0.021l-0.131,0.048l-0.275,0.143
	l-0.089,0.063l-0.036,0.04l-0.169,0.257l-0.285-0.008l-0.083,0.139l-0.101,0.203l-0.077,0.109l-0.094,0.103l-0.359,0.341
	l-0.138,0.146l-0.155,0.216l-0.107,0.097l-0.063,0.072l-0.339,0.509l-0.164,0.166l-0.065,0.129l-0.027,0.092l-0.014,0.092
	l0.049,0.262l0.052,0.177l0.054,0.104l0.126,0.146l0.052,0.104l0.041,0.186l0.042,0.324l0.05,0.178l0.028,0.052l0.148,0.192
	l0.115,0.306l0.058,0.11l0.216,0.31l0.068,0.082l0.155,0.125l0.132,0.138l0.108,0.095l0.067,0.089l0.023,0.056l0.031,0.121
	l0.017,0.132l0.031,0.625l0.031,0.275l0.039,0.152l0.117,0.275l0.208,0.449l0.168,0.298l0.046,0.135l0.074,0.333l0.041,0.118
	l0.028,0.053l0.116,0.15l0.049,0.11l0.04,0.191l0.044,0.491l0.035,0.209l0.043,0.133l0.156,0.301l0.045,0.133l0.027,0.139
	l0.048,0.568l0.005,0.568l-0.015,0.137l-0.031,0.13l-0.131,0.292l-0.031,0.134l-0.014,0.287l0.02,0.651l-0.01,0.133l-0.028,0.122
	l-0.023,0.054l-0.132,0.184l-0.072,0.204l-0.049,0.097l-0.129,0.133l-0.159,0.202l-0.16,0.117l-0.131,0.052l-0.358,0.07l-0.2,0.066
	l-0.335,0.154l-0.24,0.173l-0.456,0.221l-0.465,0.137l-0.562,0.108l-0.034,0.621l-0.002,0.434l0.024,0.661l0.024,0.208l0.033,0.129
	l0.026,0.059l0.068,0.092l0.242,0.229l0.156,0.112l0.275,0.271l0.033,0.056l0.043,0.125l0.054,0.415l0.048,0.193l0.056,0.099
	l0.088,0.108l0.097,0.19l0.063,0.095l0.047,0.044l0.058,0.032l0.13,0.038l0.209,0.01l0.301-0.036h0.129l0.724,0.093l0.219,0.048
	l0.063,0.024l0.174,0.104l0.352,0.13l0.096,0.057l0.112,0.092l0.166,0.109l0.151,0.132l0.188,0.114l0.11,0.083l0.096,0.103
	l0.04,0.058l0.059,0.139l0.04,0.219l0.007,0.217l-0.027,0.201l-0.053,0.112l-0.253,0.258l-0.178,0.154l-0.128,0.173l-0.354,0.407
	l-0.15,0.257l-0.079,0.108l-0.313,0.352l-0.162,0.211l-0.146,0.117l-0.124,0.13l-0.136,0.121l-0.05,0.082l-0.033,0.09l-0.021,0.089
	l-0.003,0.095l0.043,0.213l0.052,0.177l0.055,0.105l0.154,0.197l0.157,0.448l0.172,0.377l-0.184,0.175l-0.236,0.163l-0.136,0.128
	l-0.151,0.106l-0.127,0.125l-0.146,0.106l-0.249,0.259l-0.05,0.108l-0.021,0.127l-0.009,0.639l0.223,0.225l0.191,0.247l0.15,0.145
	l0.225,0.304l0.187,0.257l0.182,0.194l0.035,0.051l0.175,0.361l-0.064,0.227l-0.028,0.27l0.01,0.335l0.017,0.127l0.032,0.118
	l0.025,0.055l0.068,0.088l0.11,0.091l0.136,0.136l0.161,0.108l0.137,0.133l0.11,0.093l0.067,0.088l0.04,0.11l0.021,0.184
	l-0.016,0.187l-0.034,0.12l-0.143,0.285l-0.029,0.127l0.008,0.2l0.043,0.131l0.036,0.061l0.087,0.114l0.303,0.312l0.183,0.221
	l0.158,0.126l0.132,0.141l0.145,0.129l0.059,0.097l0.093,0.207l0.032,0.046l0.145,0.13l0.132,0.142l0.117,0.096l0.073,0.074
	l0.421,0.572l0.157,0.129l0.136,0.137l0.159,0.116l0.137,0.137l0.156,0.129l0.452,0.616l0.155,0.129l0.135,0.142l0.163,0.111
	l0.151,0.124l0.113,0.051l0.245,0.076l0.056,0.025l0.17,0.108l0.058,0.024l0.344,0.089l0.207,0.082l0.396,0.205l0.15,0.135
	l0.16,0.118l0.136,0.137l0.158,0.118l0.137,0.137l0.158,0.118l0.138,0.135l0.159,0.118l0.138,0.137l0.159,0.118l0.139,0.137
	l0.159,0.117l0.138,0.136l0.158,0.117l0.139,0.137l0.159,0.118l0.138,0.137l0.159,0.118l0.139,0.135l0.158,0.118l0.138,0.137
	l0.16,0.118l0.138,0.135l0.159,0.118l0.139,0.135l0.158,0.118l0.137,0.137l0.156,0.131l0.418,0.574l0.071,0.078l0.116,0.104
	l0.135,0.167l0.093,0.095l0.107,0.086l0.248,0.154l0.149,0.133l0.162,0.118l0.139,0.135l0.163,0.112l0.154,0.123l0.112,0.05
	l0.183,0.057l0.112,0.05l0.317,0.235l0.136,0.137l0.155,0.13l0.178,0.224l0.099,0.106l0.549,0.521l0.228,0.275l0.155,0.129
	l0.136,0.139l0.156,0.116l0.136,0.135l0.161,0.116l0.149,0.137l0.257,0.154l0.434,0.293l0.14,0.066l0.077,0.024l0.16,0.03
	l0.244,0.023l0.915,0.013l0.247,0.012l0.24,0.034l0.148,0.048l0.308,0.159l0.143,0.101l0.037,0.046l0.032,0.057l0.102,0.008
	l0.747,0.056l0.166,0.04l0.005,0.001l0.787,0.215l0.11,0.029l0.094,0.115l0.254,0.314l0.103,0.127l0.376,0.458l0.247,0.215
	l0.24,0.203l0.446,0.383L130.484,147.713z M50.808,3.092l-0.013,0.018l-0.35,0.489l-0.259,0.496l-0.013,0.015l-0.128,0.155
	l-0.153,0.185l-0.01,0.012l-0.375,0.355l-0.116,0.079l-0.2,0.135l-0.046,0.032l-0.352,0.167l-0.047,0.023L48.383,5.36l-0.085,0.107
	L48.18,5.617l-0.069,0.008l-0.359,0.041l-0.13-0.005l-0.116-0.005l-0.16,0.546l-0.004,0.014l-0.011,0.496l-0.039,0.27l-0.027,0.193
	l-0.003,0.002l-0.325,0.347l-0.052,0.055l-0.286,0.059L46.392,7.68L46.32,7.695l-0.612-0.002l-0.75-0.195l-1.015-0.308l-0.879-0.337
	l-0.582-0.168l-0.194-0.056L41.719,6.77L41.151,6.9l-0.827-0.02l-0.605-0.086l-0.542-0.078L38.36,6.463l-0.242-0.144l-0.223-0.133
	l-0.223-0.133l-0.296-0.177l-0.382-0.241l-0.158-0.042L36.484,5.5l-0.419,0.123l-0.013,0.004l-0.139,0.04l-0.129,0.02l-0.804,0.121
	l-0.699-0.124l-0.609-0.024l-0.179,0.049l-0.481,0.131l-0.216,0.121l-0.28,0.156L32.17,6.504l-0.196,0.48l-0.059,0.142L31.771,7.79
	l-0.136,0.602L31.53,8.823l-0.116,0.406l-0.359,0.372l-0.44,0.311l-0.095,0.056l-0.404,0.24l-0.246,0.146l-0.062,0.041l-0.502,0.339
	l-0.201,0.132l-0.189,0.124l-0.358,0.359l-0.26,0.398l-0.061,0.438l-0.027,0.53l-0.08,0.621l-0.017,0.432l-0.067,0.375l-0.002,0.012
	l-0.482,0.578l-0.765-0.045l-0.379,0.275l-0.108,0.078l-0.045,0.062l-0.21,0.288l0.22,0.539l0.002,0.534l-0.091,0.25l0.295,0.138
	l0.186,0.128l0.293,0.25l-0.632,0.035l-0.809-0.002l-0.148,0.01l-0.135,0.026l-0.059,0.022l-0.21,0.118l-0.23,0.067l-0.106,0.046
	l-0.136,0.118l-0.15,0.106l-0.136,0.126l-0.09,0.052l-0.284,0.132l-0.194,0.064l-0.47,0.053l-0.134,0.032l-0.103,0.052l-0.129,0.104
	L22.7,18.459l-0.242,0.129l-0.254-0.168l-0.236-0.192l-0.061-0.03l-0.138-0.04l-0.228-0.029l-0.815-0.027l-0.389,0.012l-0.137,0.025
	l-0.06,0.021l-0.162,0.093l-0.266,0.085l-0.097,0.063l-0.033,0.048l-0.019,0.052l-0.006,0.109l0.027,0.106l0.026,0.047l0.118,0.136
	l0.029,0.05l0.039,0.118l0.016,0.193l-0.035,0.181l-0.026,0.05l-0.141,0.167l-0.049,0.129l-0.013,0.088l0.004,0.048l0.046,0.106
	l0.082,0.092l0.16,0.113l0.128,0.053l0.328,0.089l0.099,0.054l0.276,0.203l0.136,0.133l0.159,0.118l0.147,0.134l0.245,0.153
	l0.154,0.133l0.173,0.217l0.106,0.104l0.064,0.086l0.116,0.262l0.181,0.246l0.108,0.293l0.059,0.12l0.234,0.36l0.166,0.187
	l0.054,0.097l0.09,0.207l0.066,0.084l0.263,0.218l0.131,0.05l0.149,0.024l0.908,0.031l0.166,0.017l0.162,0.032l0.078,0.025
	l0.138,0.066l0.44,0.277l0.133,0.057l0.327,0.104l0.099,0.058l0.27,0.206l0.134,0.138l0.151,0.131l0.214,0.281l0.447,0.503
	l0.085,0.075l0.133,0.06l0.22,0.033l0.146-0.005l0.137-0.025l0.06-0.022l0.211-0.122l0.316-0.091l0.085-0.034l0.239-0.154
	l0.018-0.014l0.302-0.237l0.24-0.149l0.132-0.051l0.32-0.083l0.219-0.116l0.06-0.022l0.136-0.026l0.15-0.012l0.477,0.01l0.301,0.043
	l0.128,0.045l0.173,0.103l0.06,0.024l0.553,0.126l0.294,0.15l0.216,0.045l0.323,0.024l1.438,0.028l0.245-0.007l0.332-0.038
	l0.127-0.004l0.128,0.011l0.34,0.057l0.339,0.027l0.869,0.033l0.515,0.002l0.166-0.013l0.159-0.029l0.333-0.117l0.431-0.088
	l0.236-0.08l0.564,0.016l0.227,0.304l0.152,0.131l0.129,0.144l0.139,0.133l0.057,0.096l0.067,0.156l0.058,0.097l0.25,0.229
	l0.095,0.061l0.294,0.104l0.226,0.126l0.132,0.043l0.309,0.037l0.743,0.029l0.155,0.018l0.141,0.033l0.063,0.025l0.23,0.127
	l0.402,0.12l0.334,0.144l0.402,0.119l0.232,0.126l0.128,0.043l0.221,0.031l0.628,0.037l0.214,0.043l0.111,0.052l0.127,0.086
	l0.26,0.144l0.118,0.084l0.165,0.146l0.137,0.167l0.035,0.062l0.043,0.131l0.017,0.199l-0.045,0.335l0.002,0.111l0.078,0.333
	l0.055,0.178l0.027,0.054l0.068,0.087l0.24,0.233l0.116,0.092l0.074,0.073l0.205,0.296l0.094,0.189l0.046,0.218l0.056,0.52
	l0.093,0.373l0.023,0.14l0.071,0.857l0.146,0.559l0.074,0.194l0.086,0.127l0.106,0.117l0.307,0.268l0.27,0.186l0.375,0.185
	l0.244,0.175l0.208,0.198l0.178,0.218l0.152,0.128l0.265,0.276l0.059,0.116l0.042,0.203l0.024,0.6l0.299,0.378l0.009,0.446
	l0.02,0.286l0.042,0.198l0.058,0.114l0.274,0.272l0.276,0.195l0.091,0.051l0.221,0.083l0.105,0.067l0.044,0.051l0.054,0.119
	l0.027,0.198l-0.014,0.205l-0.179,0.592l-0.035,0.22l-0.004,0.463l0.032,0.464l0.027,0.151l0.049,0.145l0.068,0.119l0.145,0.208
	l0.1,0.125l0.156,0.126l0.244,0.23l0.069,0.092l0.026,0.059l0.031,0.125l0.009,0.128l-0.015,0.125l-0.019,0.059l-0.061,0.093
	l-0.172,0.145l-0.083,0.056l-0.127,0.042l-0.532,0.047l-0.765,0.148l-0.532,0.056l-0.125,0.036l-0.23,0.107l-0.135,0.027
	l-0.378,0.042l-0.149,0.032l-0.465,0.202l-0.165,0.106l-0.102,0.047l-0.543,0.104l-0.26,0.139l-0.1,0.029l-0.151,0.027l-0.104-0.003
	l-0.205-0.053l-0.097-0.042l-0.166-0.107l-0.197-0.065l-0.788-0.119l-0.128-0.002l-0.386,0.031l-0.225-0.015l-0.147-0.031
	l-0.423-0.147l-0.249-0.04l-0.517-0.031l-0.872-0.019l-0.438,0.006l-0.53,0.027l0.02-0.115l-0.027-0.046l-0.046-0.023l-0.038-0.003
	l-0.116,0.024l-0.628-0.214l-0.228-0.132l-0.064-0.026l-0.145-0.035l-0.158-0.02l-1.465-0.055l-0.252-0.028l-0.337-0.065
	l-0.229-0.016l-0.151,0.005l-0.333,0.047l-0.252,0.015l-0.434-0.001l-1.23-0.039l-0.257,0.008l-0.242,0.041l-0.132,0.05l-0.33,0.154
	l-0.161,0.107l-0.101,0.048l-0.131,0.031l-0.417,0.063l-0.228,0.109l-0.125,0.035l-0.356,0.042l-0.135,0.026l-0.104,0.042
	l-0.12,0.069l-0.271,0.091l-0.103,0.065l-0.041,0.052l-0.027,0.058l-0.027,0.128l0.009,0.276l0.026,0.136l0.043,0.125l0.18,0.26
	l0.057,0.193l0.035,0.364l0.015,0.632l0.044,0.264l0.045,0.124l0.036,0.062l0.14,0.167l0.112,0.099l0.123,0.086l0.133,0.069
	l0.07,0.025l0.334,0.091l0.23,0.124l0.061,0.024l0.136,0.032l0.36,0.062l0.128,0.046l0.169,0.115l0.264,0.137l0.393,0.23
	l0.085,0.072L35.5,47.88l0.1,0.09l0.295,0.197l0.145,0.135l0.16,0.117l0.107,0.1l0.086,0.063l0.346,0.175l0.137,0.058l0.166,0.042
	l0.221,0.034l0.223,0.148l0.101,0.077l0.202,0.211l0.158,0.124l0.132,0.139l0.155,0.117l0.134,0.137l0.16,0.113l0.108,0.095
	l0.088,0.054l0.264,0.084l0.099,0.042l0.162,0.12l0.201,0.109l0.118,0.075l0.231,0.18l0.515,0.443l0.232,0.17l0.169,0.089
	l0.52,0.222l0.441,0.107l0.142,0.056l0.193,0.12l0.383,0.293l0.544,0.395l0.291,0.24l0.131,0.201l0.566,0.143l0.561,0.102
	l0.111,0.042l0.168,0.106l0.054,0.024l0.24,0.077l0.111,0.052l0.15,0.125l0.16,0.115l0.135,0.136l0.156,0.119l0.133,0.137
	l0.156,0.117l0.135,0.136l0.159,0.115l0.148,0.134l0.257,0.151l0.12,0.083l0.774,0.637l0.19,0.127l0.398,0.184l0.324,0.189
	l0.199,0.159l0.204,0.131l0.144,0.14l0.156,0.129l0.408,0.572l0.073,0.075l0.119,0.093l0.149,0.135l0.604,0.334l0.095,0.064
	l0.188,0.219l0.151,0.152l0.173,0.143l0.125,0.083l0.577,0.271l0.38,0.156l0.396,0.227l0.079,0.084l0.125,0.256l0.065,0.082
	l0.278,0.267l0.254,0.184l0.114,0.042l0.785,0.993l0.154,0.128l0.135,0.137l0.156,0.116l0.135,0.134l0.157,0.117l0.134,0.139
	l0.154,0.128l0.175,0.214l0.153,0.134l0.25,0.148l0.167,0.12l0.12,0.05l0.271,0.077l0.136,0.056l0.512,0.314l0.141,0.057l0.37,0.092
	l0.141,0.051l0.415,0.203l0.168,0.119l0.097,0.055l0.3,0.102l0.275,0.159l0.242,0.076l0.113,0.05l0.314,0.237l0.275,0.271
	l0.059,0.098l0.089,0.211l0.181,0.239l0.115,0.26l0.066,0.084l0.216,0.198l0.087,0.064l0.41,0.211l0.448,0.173l0.296,0.237
	l0.176,0.121l0.374,0.218l0.178,0.042l0.406,0.251l0.114,0.088l0.132,0.129l0.088,0.067l0.404,0.225l0.651,0.284l0.153,0.038
	l0.156,0.021l0.312,0.011l0.22-0.015l0.13-0.028l0.056-0.021l0.161-0.095l0.059-0.022l0.137-0.027l0.152-0.012l0.413,0l1.108,0.041
	l0.25-0.002l0.163-0.012l0.226-0.051l0.261-0.107l0.261-0.088l0.137-0.062l0.198-0.107l0.675-0.032l0.466-0.086l-0.075-0.282
	l-0.039-0.36l-0.048-0.943l0.006-0.205l0.021-0.125l0.045-0.108l0.15-0.176l0.22-0.338l0.256-0.483l0.048-0.117l0.086-0.286
	l0.162-0.237l0.108-0.343l0.135-0.289l0.031-0.129l0.014-0.134l0.008-0.545l0.016-0.278l-0.08-0.553l-0.034-0.127l-0.059-0.111
	l-0.271-0.275l-0.116-0.094l-0.071-0.072l-0.431-0.565l-0.245-0.189l-0.286-0.283l-0.724-0.403l-0.357-0.281l-0.268-0.271
	l-0.058-0.095l-0.097-0.205l-0.064-0.085l-0.305-0.311l-0.253-0.182l0.037-0.709l-0.002-0.434l-0.063-1.599l-0.022-0.206
	l-0.055-0.187l-0.063-0.093l-0.104-0.105l-0.218-0.275l-0.547-0.515l-0.253-0.284l-0.088-0.07l-0.605-0.333L65.65,52.8l-0.067-0.086
	l-0.045-0.092l-0.029-0.089l-0.004-0.094l0.051-0.177l0.045-0.082l0.116-0.134l0.04-0.086l0.06-0.339l0.057-0.157l0.125-0.139
	l0.157-0.206l0.145-0.121l0.193-0.106l0.08-0.058l0.232-0.221l0.049-0.111l0.017-0.195l-0.027-0.207l-0.046-0.136l-0.193-0.36
	l-0.169-0.549l-0.049-0.278l-0.022-0.356l0.072-0.175l0.022-0.139l0.007-0.22l-0.009-0.515l0.033-0.197l0.026-0.057l0.083-0.086
	l0.304-0.144l0.069-0.067l0.157-0.195l0.447,0.047l0.171,0.049l0.224,0.102l0.117,0.094l0.385,0.457l0.135,0.089l0.172,0.053
	l0.283,0.031l0.293-0.004l0.885-0.143l0.315-0.191l0.326-0.179l0.133-0.127l0.148-0.108l0.134-0.121l0.093-0.042l0.103-0.027
	l0.154-0.018l0.154,0.03l0.152,0.051l0.199,0.118l0.098,0.023l0.106-0.003l0.235-0.07l0.124-0.023l0.125,0.003l0.063,0.011
	l0.135,0.048l0.29,0.149l0.095,0.064l0.19,0.209l0.163,0.126l0.129,0.06l0.265,0.077l0.118,0.048l0.169,0.118l0.203,0.109
	l0.179,0.122l0.17,0.144l0.103,0.102l0.222,0.276l0.154,0.13l0.133,0.139l0.154,0.117l0.136,0.135l0.159,0.116l0.15,0.134l0.32,0.19
	l0.426,0.3l0.261,0.151l0.149,0.134l0.161,0.116l0.136,0.135l0.157,0.117l0.13,0.141l0.14,0.132l0.056,0.097l0.089,0.208
	l0.031,0.048l0.215,0.193l0.083,0.063l0.112,0.047l0.126,0.027l0.515,0.065l0.488,0.078h0.097l0.077,0.013l0.483,0.183l0.471,0.245
	l0.224,0.146l0.116,0.045l0.896,0.158l0.366,0.025l0.271-0.01l0.916-0.113l0.618-0.139l0.139,0.137l0.194,0.131l0.117,0.094
	l0.106,0.057l0.066,0.021l0.216,0.036l0.227,0.011l0.222-0.012l0.133-0.026l0.104-0.046l0.116-0.073l0.269-0.099l0.097-0.064
	l0.037-0.049l0.04-0.112l0.056-0.361l0.046-0.091l0.076-0.104l0.099-0.238l0.071-0.089l0.117-0.056l0.214-0.028l0.234,0.002
	l0.819,0.037l0.228-0.01l0.135-0.028l0.101-0.051l0.252-0.19l0.12-0.132l0.139-0.125l0.193-0.295l0.168-0.059l0.251-0.053
	l0.03-0.089l0.043-0.081l0.271-0.243l0.107-0.045l0.176-0.047l0.106-0.043l0.141-0.114l0.155-0.101l0.139-0.116l0.106-0.047
	l0.232-0.066l0.213-0.117l0.059-0.021l0.131-0.025l0.515-0.022l0.202-0.031l0.056-0.02l0.164-0.095l0.055-0.022l0.397-0.094
	l0.324-0.125l0.396-0.093l0.271-0.143l0.395-0.094l0.322-0.135l0.235-0.083l0.324-0.143l0.408-0.13l0.413-0.166l0.158-0.173
	l0.164-0.215l0.142-0.125l0.12-0.136l0.137-0.126l0.314-0.445l0.108-0.11l0.054-0.032l0.123-0.043l0.841-0.197l0.155-0.316
	l0.077-0.192l0.143-0.447l0.103-0.391l0.018-0.38l-0.042-0.781l-0.031-0.23l-0.037-0.149l-0.177-0.375l-0.044-0.143l-0.037-0.222
	l-0.044-0.445l-0.042-0.205l-0.052-0.118l-0.113-0.154l-0.052-0.103l-0.147-0.449l-0.189-0.499l-0.377-0.51l-0.187-0.181
	l-0.176-0.225l-0.39-0.428l-0.201-0.325l-0.284-0.393l-0.155-0.129l-0.144-0.139l-0.218-0.146l-0.173-0.139l-0.151-0.104
	l-0.11-0.091l-0.095-0.099l-0.135-0.168l-0.142-0.142l-0.061-0.099l-0.096-0.207l-0.152-0.195l-0.03-0.056l-0.042-0.127
	l-0.028-0.208v-0.21l0.036-0.192l0.024-0.055l0.129-0.194l0.093-0.348l0.099-0.244l0.052-0.094l0.068-0.077l0.21-0.148l0.098-0.091
	l0.235-0.158l0.159-0.123l0.304-0.35l0.044-0.11l0.019-0.125l-0.008-0.549l0.008-0.131l0.025-0.12l0.022-0.053l0.126-0.19
	l0.072-0.201l0.052-0.094l0.236-0.212l0.095-0.055l0.39-0.098l0.262-0.095l0.147-0.038l0.327-0.028l0.505,0.007l0.328,0.021
	l0.226,0.037l0.129,0.044l0.174,0.1l0.205,0.059l0.744,0.071l0.539,0.092l0.325,0.311l0.176,0.139l0.125,0.081l0.134,0.063
	l0.07,0.022l0.141,0.029l0.273,0.037l0.126,0.03l0.11,0.057l0.08,0.089l0.1,0.196l0.149,0.189l0.05,0.109l0.036,0.189l0.039,0.693
	l0.041,0.275l0.043,0.131l0.172,0.296l0.143,0.319l0.041,0.108l0.046,0.172l0.295,0.255l0.072,0.148l0.051,0.192l0.015,0.129
	l0.007,0.322l0.114,0.813l0.421,0.013l0.137,0.015l0.126,0.031l0.104,0.055l0.184,0.147l0.071,0.072l0.029,0.052l0.019,0.056
	l0.007,0.114l-0.03,0.109l-0.033,0.048l-0.077,0.063l-0.19,0.117l-0.094,0.081l-0.159,0.197l-0.089,0.093l-0.025,0.039l-0.022,0.093
	l0.015,0.101l0.053,0.11l0.194,0.289l0.17,0.182l0.151,0.295l0.088,0.08l0.102,0.046l0.156,0.034l0.117-0.01l0.16-0.073l0.201-0.123
	l0.188-0.101l0.156-0.11l0.053-0.022l0.122-0.028l0.409-0.044l0.132-0.036l0.063-0.029l0.057-0.035l0.098-0.082l0.127-0.165
	l0.065-0.067l0.21-0.175l0.094-0.051l0.117-0.03l0.322-0.038l0.118-0.025l0.094-0.041l0.122-0.071l0.059-0.022l0.134-0.026
	l0.387-0.018l0.555,0.017l0.217,0.031l0.13,0.043l0.058,0.033l0.08,0.076l0.108,0.134l0.147,0.15l0.171,0.141l0.13,0.079l0.07,0.032
	l0.143,0.041l0.587,0.082l0.208,0.076l0.297,0.148l0.095,0.058l0.146,0.135l0.161,0.114l0.148,0.125l0.11,0.051l0.184,0.057
	l0.113,0.048l0.163,0.121l0.358,0.191l0.178-0.239l0.097-0.063l0.062-0.021l0.135-0.024l0.436-0.021l0.136-0.016l0.118-0.033
	l0.164-0.089l0.125-0.036l0.145-0.017l0.236-0.006l1.004,0.032l0.394-0.011l0.137-0.025l0.059-0.021l0.164-0.091l0.059-0.02
	l0.132-0.026l0.284-0.033l0.132-0.031l0.101-0.051l0.254-0.191l0.123-0.128l0.144-0.11l0.123-0.128l0.144-0.109l0.122-0.132
	l0.103-0.091l0.066-0.083l0.192-0.385l-0.389-0.026l-0.417-0.102l-0.274-0.114l-0.099-0.061l-0.044-0.04l-0.042-0.057l-0.05-0.125
	l-0.064-0.475l-0.034-0.125l-0.055-0.098l-0.086-0.11l-0.128-0.241l-0.083-0.091l-0.063-0.038l-0.069-0.026l-0.151-0.031
	l-0.582-0.03l-0.238-0.028l-0.14-0.043l-0.229-0.124l-0.295-0.103l-0.096-0.059l-0.229-0.189l-0.075-0.076l-0.248-0.355
	l-0.186-0.327l-0.243-0.36l-0.182-0.185l-0.135-0.163l-0.154-0.133l-0.129-0.068l-0.143-0.04l-0.219-0.021l-0.362,0l-0.359-0.083
	l-0.337-0.139l-0.398-0.125l-0.098-0.059l-0.387-0.293l-0.103-0.056l-0.133-0.04l-0.579-0.111l-0.395,0.069l-0.245,0.028l-0.116,0
	l-0.415-0.049l-0.235-0.04l-0.549-0.164l-0.043-0.117l-0.069-0.123l-0.222-0.197l-0.083-0.061l-0.128-0.049l-0.428-0.072
	l-0.129-0.044l-0.173-0.114l-0.264-0.145l-0.179-0.13l-0.166-0.147l-0.098-0.102l-0.172-0.225l-0.136-0.147l-0.055-0.114
	l-0.042-0.196l-0.055-0.944l-0.006-0.285l0.008-0.132l0.027-0.121l0.023-0.053l0.104-0.141l0.078-0.186l0.053-0.094l0.041-0.042
	l0.058-0.035l0.063-0.023l0.219-0.028l0.324,0.004l0.936,0.04l0.04-0.081l0.058-0.072l0.08-0.05l0.093-0.036l0.004-0.186
	l0.021-0.118l0.023-0.055l0.074-0.084l0.093-0.051l0.125-0.045l0.385-0.097l0.26,0.083l0.217,0.056l0.541,0.09l0.126,0.044
	l0.172,0.101l0.126,0.043l0.144,0.026l0.231,0.021l0.737,0.023L111.606,29l0.228-0.037l0.264-0.094l0.138-0.036l0.221-0.024
	l0.384-0.004l0.182-0.393l0.069-0.217l0.146-0.206l0.07-0.072l0.105-0.054l0.174-0.051l0.106-0.043l0.143-0.112l0.153-0.101
	l0.257-0.251l0.047-0.101l0.016-0.113l-0.004-0.119l-0.023-0.118l-0.051-0.11l-0.079-0.087l-0.266-0.163l-0.177-0.132l-0.11-0.101
	l-0.095-0.111l-0.039-0.061l-0.05-0.125l-0.024-0.127l-0.005-0.187l0.035-0.169l0.023-0.047l0.109-0.139l0.022-0.045l0.029-0.104
	l0.041-0.284l0.03-0.105l0.024-0.047l0.151-0.176l0.331-0.516l0.156-0.171l0.049-0.096l0.07-0.208l0.023-0.045l0.109-0.141
	l0.021-0.047l0.026-0.106l0.034-0.287l0.03-0.105l0.056-0.083l0.098-0.091l0.117-0.132l0.146-0.109l0.123-0.128l0.146-0.108
	l0.121-0.129l0.148-0.106l0.141-0.117l0.113-0.046l0.335-0.078l0.26-0.102l0.143-0.039l0.23-0.024h0.234l0.229,0.017l0.206,0.046
	l0.059,0.025l0.17,0.108l0.055,0.025l0.405,0.118l0.335,0.155l0.313,0.129l0.409,0.217l0.256,0.188l0.218,0.11l0.444,0.246
	l0.292,0.27l0.059,0.098l0.065,0.158l0.059,0.097l0.143,0.131l0.133,0.139l0.158,0.117l0.134,0.139l0.146,0.13l0.06,0.098
	l0.092,0.212l0.028,0.047l0.126,0.145l0.054,0.099l0.091,0.211l0.067,0.084l0.219,0.199l0.088,0.064l0.399,0.216l0.221,0.107
	l0.212,0.146l0.113,0.048l0.183,0.056l0.113,0.05l0.157,0.125l0.218,0.148l0.181,0.168l0.183-0.03l0.12-0.042l0.262-0.187
	l0.161-0.156l0.144-0.11l0.122-0.128l0.146-0.109l0.298-0.288l0.175-0.289l0.072-0.183l0.022-0.208l-0.015-0.716l0.037-0.203
	l0.053-0.117l0.146-0.248l0.061-0.079l0.253-0.203l0.092-0.05l0.227-0.063l0.107-0.043l0.255-0.196l0.069-0.071l0.173-0.289
	l0.053-0.118l0.035-0.197l0.004-0.274l0.307-0.173l0.688-0.218l0.164-0.074l0.117-0.081l0.075-0.115l0.088-0.264l0.125-0.284
	l0.101-0.336l0.339-0.496l-0.201-0.257l-0.096-0.07l-0.296-0.111l-0.272-0.16l-0.302-0.098l-0.098-0.055l-0.167-0.121l-0.413-0.214
	l-0.309-0.131l-0.479-0.246l-0.21-0.148l-0.113-0.049l-0.182-0.058L126.028,18l-0.21-0.148l-0.617-0.328l-0.214-0.146l-0.055-0.025
	l-0.124-0.035l-0.33-0.055l-0.121-0.031l-0.1-0.046l-0.127-0.078l-0.116-0.042l-0.558-0.094l-0.243-0.087l-0.591-0.51l-0.246-0.09
	l-0.298-0.065l-0.146-0.042l-0.136-0.06l-0.295-0.151l-0.095-0.058l-0.148-0.134l-0.161-0.114l-0.148-0.125l-0.11-0.051
	l-0.181-0.058l-0.112-0.048l-0.211-0.146l-0.476-0.245l-0.258-0.115l-0.185-0.114l-0.302-0.22l-0.301-0.11l-0.639-0.336
	l-0.271-0.188l-0.422-0.364l-0.007,0.009l-0.305,0.404l-0.188,0.304l-0.162,0.175l-0.193,0.268l-0.246,0.231l-0.107,0.08
	l-0.234,0.141l-0.139,0.119l-0.081,0.043l-0.098,0.018l-0.565-0.04l-0.235-0.002l-0.146,0.022l-0.066,0.024l-0.059,0.037
	l-0.044,0.05l-0.029,0.056l-0.029,0.123l-0.006,0.201l0.02,0.576l-0.102,0.006l-0.061,0.018l-0.066,0.048l-0.098,0.104l-0.094,0.074
	l-0.118,0.057l-0.136,0.026l-0.138-0.002l-0.13-0.027l-0.055-0.023l-0.157-0.101l-0.112-0.039l-0.127-0.014l-0.063,0.003
	l-0.118,0.032l-0.077,0.055l-0.187,0.188l-0.044,0.11l-0.032,0.313l-0.024,0.12l-0.051,0.094l-0.088,0.105l-0.143,0.213
	l-0.096,0.085l-0.119,0.064l-0.141,0.029l-0.142-0.004l-0.068-0.015l-0.064-0.024l-0.06-0.037l-0.047-0.046l-0.033-0.049
	l-0.112-0.245l-0.115-0.151l-0.048-0.113l-0.088-0.378l-0.056-0.111l-0.272-0.274l-0.159-0.116l-0.15-0.131l-0.245-0.155
	l-0.106-0.09l-0.092-0.104l-0.174-0.258l-0.39-0.431l-0.141-0.186l-0.188-0.169l-0.132-0.142l-0.15-0.128l-0.178-0.209l-0.168-0.128
	l-0.133-0.062l-0.212-0.056l-0.563-0.116l-0.129,0.004l-0.096-0.028l-0.266-0.171l-0.204-0.158l-0.313-0.147l-0.348-0.188
	l0.004-0.002l-0.197-0.084l-0.249-0.143l-0.027,0.006l-0.529-0.222l-0.401-0.168l-0.211-0.088l-0.022-0.009l-1.1,0.119l-0.028,0.003
	l-0.762-0.125l-0.136-0.022l-0.38-0.549l-0.461-0.426l-0.434-0.201l-0.081-0.037l-0.179-0.083l-0.056-0.242l-0.022-0.1l0.039-0.09
	l0.122-0.281l-0.433-0.597l-0.278-0.367l-0.452-0.01l-0.344,0.335l-0.283,0.411l-0.645-0.549l-0.497-0.56l-0.542-0.178l-0.39,0.152
	l-0.46,0.327l-0.217,0.304l-0.138,0.193l-0.144,0.639l-0.444,0.418l-0.151,0.047l-0.601,0.187l-0.103,0.47l0.028,0.57l-0.251,0.769
	l-0.69,0.597l-0.08,0.054l-0.005,0.003l-0.695,0.46l-1.072,0.614l-0.767,0.056l-0.883-0.229l-0.826-0.507l-0.648-0.525l-0.155-0.126
	l-0.188-0.112l-0.529-0.317l-0.138-0.082l-0.072-0.015l-0.358,0.025l-0.435,0.031l-0.38-0.248l-0.142-0.092l-0.247-0.162
	l-0.519-0.337l-0.488-0.319l-0.602-0.393l-0.047-0.028l-0.056-0.035l-0.468-0.287l-0.302-0.282l-0.16-0.132l-0.158-0.129
	l-0.388-0.047l-0.021,0.005l-0.668,0.161l-0.331,0.255l-0.232,0.18l-0.371,0.427l-0.423,0.245l-0.385,0.022l-0.026,0.001
	l-0.371-0.045h-0.002l-0.403-0.161l-0.483,0.025l-0.152,0.054l-0.198,0.071l-0.137,0.048l-0.226-0.122l-0.226-0.123l-0.014-0.115
	l-0.022-0.201l-0.006-0.021l-0.047-0.167l-0.05-0.176l-0.184,0.193l-0.071,0.075l-0.045,0.046l-0.169,0.322l-0.353,0.393
	l-0.518,0.193l-0.603-0.08l-0.441-0.092l-0.46-0.07l-0.141-0.021L75.318,11.6l0-0.096l0.002-0.301l0.158-0.224l0.062-0.162
	l0.039-0.103l0.048-0.123L75.456,10.7l-0.008,0.004l-0.247,0.158l-0.306,0.127l-0.073,0.005l-0.368,0.026l-0.138-0.06l-0.348-0.151
	l-0.21-0.317l-0.004-0.015l-0.001-0.002l-0.089-0.296l0.044-0.253L73.7,9.733l-0.003-0.082l-0.098-0.164l-0.09-0.1l-0.012,0.019
	l-0.271,0.41l-0.245,0.472l-0.128,0.229l-0.433,0.045l-0.098,0.01L71.5,10.498l-0.95-0.095l-0.696-0.155L69.8,10.222l-0.622-0.3
	l-0.31-0.28l-0.021-0.018l-0.012-0.026l-0.078-0.167l-0.016-0.034l-0.06-0.042l-0.236-0.165l-0.225-0.154l-0.101-0.068l-0.025-0.018
	L68.083,8.95l-0.169-0.014l-0.179-0.015l-0.13-0.535l-0.008-0.032l-0.657-0.052l-0.05-0.004L66.32,7.952l-0.112-0.067l-0.24,0.684
	l-0.178,0.532l-0.159,0.498l-0.279,0.269l-0.927-0.04l-1.259-0.077l-0.424-0.044l-0.411-0.043l-0.767-0.195l-0.181-0.046
	l-0.179-0.104l-0.309-0.182L60.62,8.975l-0.416-0.235l-0.474-0.27l-0.667-0.286l-0.702-0.228l-0.683-0.275L57.146,7.37l-0.018-0.01
	l-0.078-0.045l-0.06-0.05l-0.433-0.358l-0.523-0.376L55.992,6.5l-0.219-0.262l-0.076-0.092l-0.148-0.157l-0.151-0.161l-0.312,0.178
	l-0.07,0.033l-0.253,0.119l-0.295-0.086l-0.043-0.013L54.413,5.77l0.049-0.127L54.517,5.5l0.054-0.353l-0.223,0.042l-0.096,0.273
	l-0.033,0.093l-0.134,0.113l-0.091,0.078L53.627,5.63l-0.12-0.301L53.479,5.26l-0.124-0.328l-0.204-0.391L52.796,4.34l0.039,0.119
	l0.112,0.35l0.224,0.48L53.126,5.39l-0.074,0.17l-0.03,0.069l-0.009,0.022l-0.037-0.008l-0.433-0.098l-0.413-0.093l-0.227-0.051
	l-0.043,0.003l-0.471,0.034l-0.159-0.011l-0.159-0.012l-0.186-0.424l0.066-0.463l0.131-0.515l0.241-0.315l0.066-0.086l-0.116-0.266
	L51.134,3.27l-0.25-0.136l-0.037-0.02L50.808,3.092z"/>
</svg>
